<svg width="63" height="62" viewBox="0 0 63 62" fill="none" xmlns="http://www.w3.org/2000/svg">
<circle cx="57.478" cy="52.7769" r="3.60303" fill="white" stroke="#258F41" stroke-width="2.5"/>
<path d="M10.7518 8.2832C10.7518 10.0432 11.0783 10.7465 10.7518 12.3656M21.3388 8.2832C21.3388 10.0432 21.0123 10.7465 21.3388 12.3656M10.7518 12.3656C10.4031 14.0948 9.30955 15.7281 6.27784 17.2319C0.301882 20.1962 1.66743 24.6328 2.15274 30.6991C2.54098 35.5521 3.28511 44.3684 3.60865 48.17C3.64909 49.7472 4.65205 52.9017 8.34035 52.9017H15.8626H23.7503C27.4386 52.9017 28.4415 49.7472 28.482 48.17C28.8055 44.3684 29.5496 35.5521 29.9379 30.6991C30.4232 24.6328 31.7887 20.1962 25.8128 17.2319C22.7811 15.7281 21.6875 14.0948 21.3388 12.3656M10.7518 12.3656H21.3388" stroke="#25398F" stroke-width="3" stroke-linecap="square"/>
<path d="M21.3231 5.44102C21.3607 4.14657 19.6393 1.55859 16.3022 1.55859C11.7626 1.55859 10.8897 4.47109 10.8896 5.44102" stroke="#258F41" stroke-width="3"/>
<path d="M11.793 25L24.5 37.707" stroke="#258F41" stroke-width="3" stroke-linecap="round"/>
<path d="M8.16111 29.5L24.4417 45.7802" stroke="#258F41" stroke-width="3" stroke-linecap="round"/>
<mask id="path-6-inside-1_519_1996" fill="white">
<path d="M16.3125 22C22.008 22 26.625 26.6179 26.625 32.3135C26.625 32.5993 26.6107 32.8822 26.5879 33.1621H26.625L24.1992 50.3896H8.42676L6 33.1621H6.03809C6.01526 32.8821 6.00001 32.5993 6 32.3135C6 26.618 10.617 22.0001 16.3125 22Z"/>
</mask>
<path d="M16.3125 22V19H16.3125L16.3125 22ZM26.625 32.3135L29.625 32.3136V32.3135H26.625ZM26.5879 33.1621L23.5978 32.9184L23.3334 36.1621H26.5879V33.1621ZM26.625 33.1621L29.5957 33.5804L30.077 30.1621H26.625V33.1621ZM24.1992 50.3896V53.3896H26.8064L27.1699 50.8079L24.1992 50.3896ZM8.42676 50.3896L5.45609 50.8081L5.81973 53.3896H8.42676V50.3896ZM6 33.1621V30.1621H2.54779L3.02933 33.5806L6 33.1621ZM6.03809 33.1621V36.1621H9.2926L9.02817 32.9184L6.03809 33.1621ZM6 32.3135H3V32.3136L6 32.3135ZM16.3125 22V25C20.3508 25 23.625 28.2744 23.625 32.3135H26.625H29.625C29.625 24.9615 23.6653 19 16.3125 19V22ZM26.625 32.3135L23.625 32.3134C23.625 32.5002 23.6156 32.6996 23.5978 32.9184L26.5879 33.1621L29.578 33.4058C29.6058 33.0647 29.625 32.6984 29.625 32.3136L26.625 32.3135ZM26.5879 33.1621V36.1621H26.625V33.1621V30.1621H26.5879V33.1621ZM26.625 33.1621L23.6543 32.7438L21.2285 49.9713L24.1992 50.3896L27.1699 50.8079L29.5957 33.5804L26.625 33.1621ZM24.1992 50.3896V47.3896H8.42676V50.3896V53.3896H24.1992V50.3896ZM8.42676 50.3896L11.3974 49.9712L8.97067 32.7436L6 33.1621L3.02933 33.5806L5.45609 50.8081L8.42676 50.3896ZM6 33.1621V36.1621H6.03809V33.1621V30.1621H6V33.1621ZM6.03809 33.1621L9.02817 32.9184C9.0097 32.6918 9.00001 32.4942 9 32.3134L6 32.3135L3 32.3136C3.00002 32.7044 3.02083 33.0725 3.048 33.4059L6.03809 33.1621ZM6 32.3135H9C9 28.2745 12.2742 25.0001 16.3125 25L16.3125 22L16.3125 19C8.95985 19.0001 3 24.9615 3 32.3135H6Z" fill="#25398F" mask="url(#path-6-inside-1_519_1996)"/>
<path d="M50.9663 12.0156C51.0295 13.6251 50.9662 16.1813 52.4829 18.0748C53.8704 19.8069 54.6632 22.7138 54.5684 25.6487C54.5684 30.0842 50.846 33.7699 45.9487 34.5081M37.5059 12.0156C37.4427 13.6251 37.506 16.1813 35.9893 18.0748C34.6018 19.8069 33.6195 22.7138 33.7143 25.6487C33.7143 30.0842 37.4368 33.7699 42.334 34.5081M42.334 34.5081C42.921 34.5965 43.525 34.6427 44.1414 34.6427C44.7578 34.6427 45.3617 34.5965 45.9487 34.5081M42.334 34.5081V40.0391M45.9487 34.5081V40.0391" stroke="#25398F" stroke-width="3"/>
<path d="M43.9996 31C47.3111 31 49.9956 28.8645 49.9956 26.2301C50.0501 24.6736 49.5942 23.132 48.7964 22.2134C47.9242 21.2092 47.9606 19.8536 47.9243 19H43.9996H40.1839C40.1476 19.8536 40.184 21.2092 39.3118 22.2134C38.514 23.132 37.9491 24.6736 38.0036 26.2301C38.0036 28.8645 40.6881 31 43.9996 31Z" stroke="#258F41" stroke-width="2.5"/>
<circle cx="35.1548" cy="57.1479" r="3.60303" fill="white" stroke="#258F41" stroke-width="2.5"/>
<circle cx="44.1333" cy="48.1675" r="3.60303" fill="white" stroke="#258F41" stroke-width="2.5"/>
<circle cx="50.9272" cy="56.6597" r="3.60303" fill="white" stroke="#258F41" stroke-width="2.5"/>
<circle cx="48.5005" cy="41.8608" r="3.60303" fill="white" stroke="#258F41" stroke-width="2.5"/>
<circle cx="52.8687" cy="47.9253" r="3.60303" fill="white" stroke="#258F41" stroke-width="2.5"/>
<circle cx="35.6401" cy="49.1382" r="3.60303" fill="white" stroke="#258F41" stroke-width="2.5"/>
<circle cx="40.0083" cy="42.8296" r="3.60303" fill="white" stroke="#258F41" stroke-width="2.5"/>
<circle cx="43.1626" cy="56.6597" r="3.60303" fill="white" stroke="#258F41" stroke-width="2.5"/>
<circle cx="30.0591" cy="52.2925" r="3.60303" fill="white" stroke="#258F41" stroke-width="2.5"/>
<circle cx="23.5073" cy="56.6597" r="3.60303" fill="white" stroke="#258F41" stroke-width="2.5"/>
<circle cx="30.0591" cy="44.2866" r="3.60303" fill="white" stroke="#258F41" stroke-width="2.5"/>
<circle cx="23.9927" cy="48.6529" r="3.11773" fill="white" stroke="#258F41" stroke-width="2.5"/>
</svg>
