<svg width="68" height="56" viewBox="0 0 68 56" fill="none" xmlns="http://www.w3.org/2000/svg">
<circle cx="14.1504" cy="13.5" r="13.5" fill="#258F41"/>
<path d="M66.3504 13.5C66.3504 27.8436 54.665 39.4714 40.2504 39.4714M40.2504 39.4714V54H48.5197H32.3687M40.2504 39.4714C29.5577 39.4714 20.3669 33.0732 16.3334 23.9143M14.1504 13.5C14.1504 17.2036 14.9295 20.7262 16.3334 23.9143M16.3334 23.9143C17.8454 23.5714 21.6186 23.3486 24.6162 25.2C28.3633 27.5143 32.9868 26.728 35.5989 24.6857C38.0656 22.7571 42.4469 22.1143 45.8063 25.2C47.2178 26.4964 51.0868 28.8849 53.8172 25.5857C55.6261 23.4 59.5024 21.2143 63.7662 23.9143" stroke="#2E4AB8" stroke-width="3"/>
</svg>
