<svg width="18" height="18" viewBox="0 0 18 18" fill="none" xmlns="http://www.w3.org/2000/svg">
<path fill-rule="evenodd" clip-rule="evenodd" d="M3.50453 1.67835C3.98653 1.26421 4.62912 1 5.28125 1H13.5938C14.9227 1 16 2.09442 16 3.44444V14.5556C16 15.9056 14.9227 17 13.5938 17H5.28125C4.62912 17 3.98653 16.7358 3.50453 16.3217C3.0216 15.9067 2.64402 15.2891 2.64402 14.5556C2.64402 14.1874 2.93783 13.8889 3.30027 13.8889C3.66271 13.8889 3.95652 14.1874 3.95652 14.5556C3.95652 14.8039 4.08619 15.0751 4.35211 15.3036C4.61898 15.5329 4.96688 15.6667 5.28125 15.6667H13.5938C14.1978 15.6667 14.6875 15.1692 14.6875 14.5556V3.44444C14.6875 2.83079 14.1978 2.33333 13.5938 2.33333H5.28125C4.96688 2.33333 4.61898 2.46709 4.35211 2.69638C4.08619 2.92487 3.95652 3.19615 3.95652 3.44444C3.95652 3.81263 3.66271 4.11111 3.30027 4.11111C2.93783 4.11111 2.64402 3.81263 2.64402 3.44444C2.64402 2.7109 3.0216 2.09329 3.50453 1.67835ZM7.02083 7.03556C7.02083 5.72619 7.98555 4.55556 9.30208 4.55556H9.57292C10.8895 4.55556 11.8542 5.72619 11.8542 7.03556V7.33778C11.8542 8.01835 11.5935 8.66144 11.1583 9.12215C12.2294 9.68563 12.9375 10.892 12.9375 12.2237C12.9375 12.8376 12.478 13.4444 11.7847 13.4444H7.09028C6.39698 13.4444 5.9375 12.8376 5.9375 12.2237C5.9375 10.892 6.64559 9.68563 7.71666 9.12215C7.28146 8.66144 7.02083 8.01835 7.02083 7.33778V7.03556ZM9.30208 5.88889C8.8237 5.88889 8.33333 6.34197 8.33333 7.03556V7.33778C8.33333 8.03136 8.8237 8.48444 9.30208 8.48444H9.57292C10.0513 8.48444 10.5417 8.03136 10.5417 7.33778V7.03556C10.5417 6.34197 10.0513 5.88889 9.57292 5.88889H9.30208ZM2 6.33329C2.00001 5.9651 2.29382 5.66663 2.65626 5.66663L3.96876 5.66666C4.3312 5.66666 4.62501 5.96514 4.625 6.33333C4.62499 6.70152 4.33118 7 3.96874 6.99999L2.65624 6.99997C2.2938 6.99996 1.99999 6.70148 2 6.33329ZM2 8.99998C2.00001 8.63179 2.29382 8.33332 2.65626 8.33332L3.96876 8.33335C4.3312 8.33335 4.62501 8.63183 4.625 9.00002C4.62499 9.36821 4.33118 9.66669 3.96874 9.66668L2.65624 9.66666C2.2938 9.66665 1.99999 9.36817 2 8.99998ZM7.25249 12.1111H11.6225C11.5707 10.9478 10.7212 10.12 9.79861 10.12H9.07639C8.15384 10.12 7.30425 10.9478 7.25249 12.1111ZM2 11.6667C2.00001 11.2985 2.29382 11 2.65626 11L3.96876 11C4.3312 11 4.62501 11.2985 4.625 11.6667C4.62499 12.0349 4.33118 12.3334 3.96874 12.3334L2.65624 12.3333C2.2938 12.3333 1.99999 12.0349 2 11.6667Z" fill="#C9C9C9"/>
</svg>
