<svg width="56" height="55" viewBox="0 0 56 55" fill="none" xmlns="http://www.w3.org/2000/svg">
<g clip-path="url(#clip0_2010_1747)">
<path d="M22.8285 42C21.6367 42 20.6144 40.9848 20.4521 39.6387L19.0231 27.8416C18.8921 26.7587 19.3372 25.6937 20.1568 25.128C21.1832 24.4188 22.6008 23.4474 23.5212 22.8509C23.8665 22.6267 24.0807 22.2057 24.0807 21.7527V15.9116C24.0807 14.403 25.1571 13.1755 26.48 13.1755H28.5195C29.8424 13.1755 30.9188 14.403 30.9188 15.9116V21.7515C30.9188 22.2057 31.133 22.6267 31.4783 22.8497C32.3946 23.4427 33.8142 24.4152 34.8427 25.1268C35.6623 25.6937 36.1074 26.7587 35.9763 27.8404L34.5474 39.6375C34.3841 40.9836 33.3628 41.9988 32.1709 41.9988H22.8285V42Z" fill="#296A37"/>
<path d="M30.2738 21.7515V15.9116C30.2738 14.8063 29.4886 13.9108 28.5193 13.9108H26.4798C25.5106 13.9108 24.7254 14.8063 24.7254 15.9116V21.7515C24.7254 22.4714 24.3873 23.1343 23.8393 23.4901C22.9105 24.0914 21.4545 25.0901 20.4904 25.7566C19.8914 26.1705 19.5659 26.9497 19.6615 27.7408L21.0895 39.5379C21.2091 40.527 21.9506 41.2647 22.8273 41.2647H32.1718C33.0475 41.2647 33.7901 40.527 33.9097 39.5379L35.3376 27.7408C35.4333 26.9497 35.1078 26.1705 34.5087 25.7566C33.5446 25.0901 32.0886 24.0914 31.1599 23.4901C30.6108 23.1343 30.2738 22.4714 30.2738 21.7515Z" fill="#3D842C" stroke="#3D842C"/>
<path d="M19.8843 29.5791H35.0851L34.3123 36.2159H20.6882L19.8843 29.5791Z" fill="#982323"/>
<path d="M20.0819 31.211H34.8947L35.0851 29.5791H19.8843L20.0819 31.211Z" fill="#A50808"/>
<path d="M23.5671 32.9093C25.307 32.9176 29.6647 32.9058 31.4025 32.901C31.7863 32.8998 32.0785 33.2912 32.0172 33.7229V33.7312C31.9672 34.074 31.7072 34.3254 31.4025 34.3254H23.566C23.2613 34.3254 23.0024 34.074 22.9535 33.7312C22.8921 33.2995 23.1844 32.907 23.5681 32.9093H23.5671Z" fill="#DA9898"/>
<g style="mix-blend-mode:overlay">
<path d="M32.7606 25.7566C32.0368 25.0901 30.9447 24.0914 30.2469 23.4901C29.8351 23.1343 29.5813 22.4714 29.5813 21.7515V15.9116C29.5813 14.8063 28.9916 13.9108 28.2646 13.9108H27.8726C28.2272 13.9108 28.5153 14.8063 28.5153 15.9116V21.7515C28.5153 22.4714 28.639 23.1343 28.8398 23.4901C29.1799 24.0914 29.7134 25.0901 30.0659 25.7566C30.2854 26.1705 30.4039 26.9497 30.3696 27.7408L29.8465 39.5379C29.8028 40.527 29.5314 41.2647 29.21 41.2647H31.0051C31.6624 41.2647 32.2188 40.527 32.3092 39.5379L33.3815 27.7408C33.4533 26.9497 33.2088 26.1705 32.7596 25.7566H32.7606Z" fill="#969493"/>
<path d="M25.1529 39.5379L24.6298 27.7408C24.5944 26.9497 24.714 26.1705 24.9335 25.7566C25.2871 25.0901 25.8196 24.0914 26.1596 23.4901C26.3604 23.1343 26.4841 22.4714 26.4841 21.7515V15.9116C26.4841 14.8063 26.7722 13.9108 27.1268 13.9108H26.7348C26.0078 13.9108 25.4181 14.8063 25.4181 15.9116V21.7515C25.4181 22.4714 25.1643 23.1343 24.7525 23.4901C24.0557 24.0914 22.9626 25.0901 22.2388 25.7566C21.7895 26.1705 21.5451 26.9497 21.6169 27.7408L22.6891 39.5379C22.7786 40.527 23.336 41.2647 23.9933 41.2647H25.7894C25.4691 41.2647 25.1966 40.527 25.1529 39.5379Z" fill="#969493"/>
</g>
<path d="M30.7264 13H24.2825C23.9615 13 23.7012 13.2968 23.7012 13.663V15.6863C23.7012 16.0524 23.9615 16.3493 24.2825 16.3493H30.7264C31.0475 16.3493 31.3078 16.0524 31.3078 15.6863V13.663C31.3078 13.2968 31.0475 13 30.7264 13Z" fill="#A50808"/>
</g>
<defs>
<clipPath id="clip0_2010_1747">
<rect width="17" height="29" fill="white" transform="translate(19 13)"/>
</clipPath>
</defs>
</svg>
