<svg width="55" height="55" viewBox="0 0 55 55" fill="none" xmlns="http://www.w3.org/2000/svg">
<g clip-path="url(#clip0_2010_1741)">
<path d="M28.0525 7H26.0448C25.4785 7 25.0195 7.41194 25.0195 7.9201V9.65575C25.0195 10.1639 25.4785 10.5758 26.0448 10.5758H28.0525C28.6188 10.5758 29.0778 10.1639 29.0778 9.65575V7.9201C29.0778 7.41194 28.6188 7 28.0525 7Z" fill="#264605"/>
<path d="M30.8214 23.7884C28.5689 18.6128 29.1243 10.5271 29.1243 10.5271H24.8718C24.8718 10.5271 25.4311 18.6128 23.1786 23.7884C22.6505 25.0047 21 29.0441 21 32.2157V44.6335C21 45.937 22.1806 46.9965 23.633 46.9965H30.3709C31.8233 46.9965 33.0039 45.937 33.0039 44.6335V32.2157C33.0039 29.0441 31.3534 25.0047 30.8252 23.7884H30.8214Z" fill="#2C0710"/>
<path d="M30.1147 23.9487C28.2778 19.2192 28.7322 11.8235 28.7322 11.8235H25.2681C25.2681 11.8235 25.7225 19.2157 23.8856 23.9487C23.4545 25.0605 22.1108 28.7548 22.1108 31.6545V43.0059C22.1108 44.1979 23.0701 45.1668 24.2584 45.1668H29.7497C30.9341 45.1668 31.8972 44.2013 31.8972 43.0059V31.6545C31.8972 28.7548 30.5536 25.0605 30.1225 23.9487H30.1147Z" fill="#47121F"/>
<path d="M29.2949 10.5096C29.2949 10.6525 29.0619 10.771 28.7745 10.771H25.3143C25.027 10.771 24.7939 10.656 24.7939 10.5096V10.3214C24.7939 10.1785 25.027 10.06 25.3143 10.06H28.7745C29.0619 10.06 29.2949 10.175 29.2949 10.3214V10.5096Z" fill="#264605"/>
<path d="M25.1332 10.6417L25.116 10.341C25.1336 10.3357 25.1535 10.3307 25.1758 10.3264L25.5105 10.2616L25.348 9.9618C25.2945 9.86311 25.2656 9.76084 25.2656 9.65923V7.9201C25.2656 7.57408 25.5858 7.25 26.0409 7.25H28.0525C28.5076 7.25 28.8278 7.57408 28.8278 7.9201V9.65923C28.8278 9.76931 28.8002 9.86826 28.7496 9.95421L28.5677 10.2636L28.921 10.327C28.982 10.338 29.0245 10.3551 29.0491 10.3693V10.4606C29.0411 10.4655 29.0308 10.471 29.0181 10.4767L28.8791 10.5391L28.8708 10.6913C28.8213 11.6043 28.6483 15.875 29.4372 19.966H24.5707C25.3743 15.7977 25.179 11.4428 25.1332 10.6417ZM29.0692 10.3834C29.0692 10.3834 29.0689 10.3831 29.0683 10.3825C29.069 10.3831 29.0693 10.3834 29.0692 10.3834Z" fill="#B7AA64" stroke="#47121F" stroke-width="0.5"/>
<path d="M27.07 20.2195V7H26.5613C25.936 7 25.4312 7.41126 25.4312 7.9201V9.65923C25.4312 9.8091 25.4778 9.95199 25.5554 10.0809C25.338 10.1193 25.1826 10.2134 25.1826 10.3249V10.5131C25.1826 10.5689 25.2176 10.6177 25.2836 10.6595C25.3341 11.475 25.5593 15.9954 24.6001 20.2195H27.0739H27.07Z" fill="#F4DFAA"/>
<path d="M25.4347 20.2195C26.1338 15.9292 25.959 11.5134 25.9163 10.6909C25.8619 10.6455 25.8309 10.5933 25.8309 10.5375V10.3354C25.8309 10.2169 25.9629 10.1193 26.1493 10.0775C26.0794 9.94501 26.0406 9.79515 26.0406 9.63483V7.79463C26.0406 7.48096 26.192 7.19865 26.4212 7.0209C25.9901 7.11152 25.6716 7.47747 25.6716 7.91661V9.65574C25.6716 9.8056 25.7105 9.9485 25.7804 10.0775C25.594 10.1158 25.4619 10.2099 25.4619 10.3214V10.5096C25.4619 10.5654 25.493 10.6142 25.5474 10.656C25.5901 11.4715 25.7804 15.9919 24.9648 20.216H25.4309L25.4347 20.2195Z" fill="white"/>
<path d="M28.8175 20.2195C28.1184 15.9292 28.2932 11.5134 28.3359 10.6909C28.3903 10.6455 28.4213 10.5933 28.4213 10.5375V10.3354C28.4213 10.2169 28.2893 10.1193 28.1029 10.0775C28.1728 9.94501 28.2116 9.79515 28.2116 9.63483V7.79463C28.2116 7.48096 28.0602 7.19865 27.8311 7.0209C28.2621 7.11152 28.5806 7.47747 28.5806 7.91661V9.65574C28.5806 9.8056 28.5417 9.9485 28.4718 10.0775C28.6582 10.1158 28.7903 10.2099 28.7903 10.3214V10.5096C28.7903 10.5654 28.7592 10.6142 28.7048 10.656C28.6621 11.4715 28.4718 15.9919 29.2874 20.216H28.8175V20.2195Z" fill="#897833"/>
<path d="M24.7939 10.4643V10.5096C24.7939 10.5654 24.8289 10.6142 24.8833 10.656C24.8833 10.6665 24.8833 10.6804 24.8833 10.6909H29.1396C29.2328 10.6456 29.2949 10.5793 29.2949 10.5096V10.4643H24.7939Z" fill="#897833"/>
<path d="M29.2872 10.2691C29.2678 10.2169 29.2134 10.1681 29.1396 10.1297H24.8833C24.8833 10.1297 24.8833 10.1541 24.8833 10.1646C24.8406 10.1959 24.8134 10.2308 24.8018 10.2657H29.2872V10.2691Z" fill="white"/>
<path d="M28.6468 7.17078C28.4798 7.06273 28.274 7 28.0526 7H26.041C25.8196 7 25.6138 7.06273 25.4468 7.17078H28.6429H28.6468Z" fill="#47121F"/>
<path d="M24.4252 19.3551C24.2077 20.6133 23.9048 21.868 23.4854 23.0181H30.5184C30.0989 21.868 29.796 20.6133 29.5786 19.3551H24.4252Z" fill="#8F0409"/>
<path d="M33 32.8709H21V44.5917H33V32.8709Z" fill="#8F0409"/>
<path d="M27.167 44.4628H21V44.637C21 45.9405 22.1806 47 23.633 47H30.3709C31.8233 47 33.0039 45.9405 33.0039 44.637V44.4628H27.1709H27.167Z" fill="#47121F"/>
<path d="M32.1844 33.5261H21.8154V43.933H32.1844V33.5261Z" fill="#E2E3D1"/>
<g opacity="0.4">
<path d="M26.033 10.5271H25.1049C25.1049 10.5271 25.5049 18.6128 23.8932 23.7884C23.5165 25.0047 22.3359 29.0441 22.3359 32.2157V44.6335C22.3359 45.937 23.1787 46.9965 24.2194 46.9965H26.0369V10.5271H26.033Z" fill="white" fill-opacity="0.5"/>
</g>
</g>
<defs>
<clipPath id="clip0_2010_1741">
<rect width="13" height="40" fill="white" transform="translate(21 7)"/>
</clipPath>
</defs>
</svg>
