<svg width="42" height="50" viewBox="0 0 42 50" fill="none" xmlns="http://www.w3.org/2000/svg">
<path d="M21.0003 44C20.0003 40.6667 19.9003 33.9 27.5003 33.5C28.6673 36.5 29.001 42.8 21.0003 44Z" stroke="#258F41" stroke-width="2"/>
<path d="M19.5864 44C20.5864 40.6667 20.6864 33.9 13.0864 33.5C11.9194 36.5 11.5857 42.8 19.5864 44Z" stroke="#258F41" stroke-width="2"/>
<path d="M20.5458 37.5293C23.0784 35.1426 26.5484 29.3325 20.1666 25.1861C17.656 27.2007 14.2169 32.4897 20.5458 37.5293Z" stroke="#258F41" stroke-width="2"/>
<path d="M1.5 44.5V21.5H40.5V48.5H12.5" stroke="#25398F" stroke-width="3"/>
<path d="M5.99981 21.634C5.99981 19.134 5 14 9.83054 14V5.5" stroke="#25398F" stroke-width="3"/>
<path d="M19.8303 21.634C19.8303 19.134 20.8301 14 15.9995 14V5.5" stroke="#25398F" stroke-width="3"/>
<path d="M16.0002 3.5C16.0237 2.83333 15.3635 1.5 12.5354 1.5C9.70726 1.5 9.33356 2.83333 9.50023 3.5" stroke="#258F41" stroke-width="3"/>
<path d="M24.0857 21.634C24.0857 19.134 23.0859 14 27.9165 14V5.5" stroke="#25398F" stroke-width="3"/>
<path d="M37.9162 21.634C37.9162 19.134 38.916 14 34.0855 14V5.5" stroke="#25398F" stroke-width="3"/>
<path d="M34.0862 3.5C34.1096 2.83333 33.4495 1.5 30.6213 1.5C27.7932 1.5 27.4195 2.83333 27.5862 3.5" stroke="#258F41" stroke-width="3"/>
</svg>
