<svg width="13" height="20" viewBox="0 0 13 20" fill="none" xmlns="http://www.w3.org/2000/svg">
<path fill-rule="evenodd" clip-rule="evenodd" d="M12.3784 0.584867C12.7529 0.95947 12.9633 1.46747 12.9633 1.99716C12.9633 2.52685 12.7529 3.03485 12.3784 3.40946L5.80038 9.98751L12.3784 16.5656C12.5692 16.7498 12.7214 16.9703 12.8261 17.214C12.9308 17.4577 12.9859 17.7198 12.9882 17.9851C12.9905 18.2503 12.94 18.5133 12.8395 18.7588C12.7391 19.0043 12.5908 19.2274 12.4032 19.4149C12.2156 19.6025 11.9926 19.7508 11.7471 19.8512C11.5016 19.9517 11.2386 20.0022 10.9733 19.9999C10.7081 19.9976 10.446 19.9425 10.2023 19.8378C9.95855 19.7331 9.73812 19.5809 9.55385 19.3902L1.5635 11.3998C1.18901 11.0252 0.978635 10.5172 0.978635 9.98751C0.978635 9.45782 1.18901 8.94982 1.5635 8.57522L9.55385 0.584867C9.92846 0.210377 10.4365 -1.11544e-07 10.9661 -8.83903e-08C11.4958 -6.52369e-08 12.0038 0.210377 12.3784 0.584867Z" fill="#25398F"/>
</svg>
