<svg width="56" height="55" viewBox="0 0 56 55" fill="none" xmlns="http://www.w3.org/2000/svg">
<path d="M27.9438 9C26.7516 9 25.7788 9.16117 25.7788 9.35653C25.7788 9.37607 25.7883 9.3956 25.8074 9.41026C25.9696 9.5812 26.8613 9.71306 27.9438 9.71306C29.0262 9.71306 29.918 9.5812 30.0801 9.41026C30.0992 9.39072 30.1087 9.37607 30.1087 9.35653C30.1087 9.16117 29.1407 9 27.9438 9Z" fill="#541849"/>
<path d="M34.8915 27.5055C34.9106 26.1722 34.3383 24.9023 33.3321 24.0574L31.4152 22.4359C30.8048 21.9915 30.4424 21.2686 30.4424 20.5018L30.8763 19.4762C31.1386 18.8559 31.1958 18.1673 31.0432 17.5079L29.9703 12.4969H25.9169L24.844 17.5079C24.6914 18.1624 24.7486 18.8559 25.0109 19.4762L25.4448 20.5018C25.4448 21.2686 25.0824 21.9915 24.472 22.4359L22.555 24.0574C21.5536 24.9023 20.9814 26.1722 21.0005 27.5055L21.2294 43.3443C21.2294 43.4078 21.2627 43.4664 21.32 43.525C21.8207 44.0818 24.5912 45 27.9388 45C31.2912 45 34.057 44.0867 34.5577 43.525C34.6101 43.4664 34.6483 43.4078 34.6483 43.3443L34.8772 27.5055H34.8915Z" fill="#D46F17"/>
<path d="M34.3768 27.7643C34.3959 26.514 33.8618 25.3175 32.9367 24.5214L31.158 22.9976H24.7346L22.9559 24.5214C22.026 25.3175 21.4967 26.5092 21.511 27.7643L21.7256 42.6508C21.7256 42.7094 21.759 42.7631 21.8067 42.8217C22.2692 43.3443 24.8348 44.2088 27.9391 44.2088C31.0435 44.2088 33.609 43.3492 34.0716 42.8217C34.1193 42.768 34.1527 42.7094 34.1527 42.6508L34.3673 27.7643H34.3768Z" fill="#FC9F24"/>
<path d="M27.9438 9.71307C26.847 9.71307 25.9457 9.56167 25.7788 9.35654V11.8913C25.9409 12.1013 26.847 12.2576 27.9438 12.2576C29.0406 12.2576 29.9418 12.0965 30.1087 11.8913V9.35654C29.9466 9.56655 29.0406 9.71307 27.9438 9.71307Z" fill="#401335"/>
<path d="M27.9438 12.6239C28.3968 12.6239 29.6891 12.5311 30.185 12.2381C30.2232 12.2137 30.247 12.1648 30.2422 12.1111L30.2232 11.6667C30.2232 11.5788 30.1469 11.5202 30.0753 11.5446C29.7463 11.6716 28.9213 11.8865 28.0105 11.8913H27.8865C26.9757 11.8865 26.1412 11.6862 25.8122 11.5739C25.7407 11.5495 25.6739 11.6081 25.6644 11.6911L25.6357 12.1062C25.6357 12.1551 25.65 12.2088 25.6882 12.2332C26.1078 12.5116 27.4955 12.6239 27.9438 12.6239Z" fill="#1C103A"/>
<g opacity="0.8">
<path d="M29.5986 9.2442C28.9978 9.04396 28.354 9.1221 27.7293 9.1221C27.3335 9.1221 26.9139 9.09768 26.561 9.31746C26.5324 9.337 26.499 9.36142 26.499 9.40049C26.499 9.44445 26.5372 9.46887 26.5706 9.48352C26.7518 9.56655 26.952 9.56166 27.1476 9.56166C27.8724 9.56166 28.602 9.65934 29.3125 9.50305C29.4127 9.48352 29.5128 9.44933 29.5986 9.38095C29.7179 9.28327 29.5986 9.2442 29.5986 9.2442Z" fill="#772A65"/>
</g>
<path d="M27.7389 10.348C27.8104 10.2698 27.8438 10.1184 27.7675 10.0452C27.7293 10.0061 27.6721 10.0061 27.6197 10.0061C27.138 10.0159 26.5753 10.2112 26.1843 9.87912C25.8934 9.63004 26.0031 10.1624 25.9983 10.3822C25.9983 10.6068 26.0317 10.8266 26.0222 11.0464C26.0031 11.4029 26.1795 11.4762 26.356 11.5495C26.4323 11.5788 26.5133 11.5836 26.5896 11.5885C26.8519 11.5983 27.119 11.5983 27.3812 11.5788C27.4289 11.5788 27.4814 11.569 27.51 11.525C27.5291 11.4908 27.5291 11.4469 27.5291 11.4078C27.5148 11.2613 27.4718 11.1197 27.4528 10.978C27.4337 10.8315 27.4385 10.6703 27.5148 10.558C27.5768 10.4701 27.6721 10.4212 27.7389 10.3431V10.348Z" fill="#6B365B"/>
<g opacity="0.3">
<path d="M29.9562 9.76679C29.8084 9.8547 29.6558 9.93773 29.4936 9.98657C29.3792 10.0159 29.2648 10.0256 29.1503 10.0354C28.8928 10.0549 28.6401 10.0794 28.3826 10.0989C28.3444 10.0989 28.3063 10.1038 28.2681 10.1282C28.1394 10.2015 28.1489 10.4505 28.0249 10.5385C27.9915 10.558 27.9582 10.5678 27.9248 10.5873C27.8103 10.6606 27.796 10.851 27.8151 11.0024C27.8342 11.1538 27.8819 11.3199 27.8246 11.4615C27.8103 11.5055 27.7817 11.5543 27.8008 11.5983C27.8199 11.6471 27.8771 11.6422 27.9248 11.6471C28.3587 11.6667 28.8547 11.6422 29.2171 11.5397C29.4221 11.4811 29.6176 11.4469 29.8131 11.3639C29.8275 11.359 29.8418 11.3492 29.8561 11.3346C29.8656 11.3199 29.9419 11.3004 29.9467 11.2759C29.961 11.1148 29.9038 10.9487 29.9181 10.7875C29.9514 10.4701 30.0277 10.0745 29.9562 9.7619V9.76679Z" fill="#0B0108"/>
</g>
<g opacity="0.4">
<path d="M31.4489 22.4652L31.4155 22.4359C30.8051 21.9915 30.4427 21.2686 30.4427 20.5018L30.5095 20.3456C29.737 20.4481 28.8929 20.5165 28.006 20.5165C27.0713 20.5165 26.1843 20.4432 25.3737 20.3309L25.4452 20.5018C25.4452 21.2637 25.0876 21.9817 24.4819 22.4261C25.5167 22.6313 26.7423 22.7729 28.0584 22.7729C29.2935 22.7729 30.4475 22.6459 31.4441 22.4603L31.4489 22.4652Z" fill="#F26001"/>
</g>
<g opacity="0.2">
<path d="M24.9492 18.475C24.9492 18.475 24.9778 18.5043 24.9874 18.5238C24.9778 18.4506 24.9635 18.3822 24.954 18.3089V18.475H24.9492Z" fill="#E63E03"/>
</g>
<g opacity="0.2">
<path d="M30.7717 17.4152C30.4331 15.8816 30.0897 14.348 29.7512 12.8193C29.7321 12.7412 29.7083 12.6532 29.6415 12.6142C29.589 12.5849 29.527 12.5946 29.4698 12.5995C29.0168 12.663 28.5638 12.7314 28.1108 12.7949C29.0406 14.0843 29.5032 15.7204 29.4031 17.3175C29.3744 17.7668 29.2981 18.221 29.0836 18.6117C28.683 19.3395 27.8246 19.7399 27.014 19.6764C26.2224 19.613 25.4928 19.149 24.9873 18.5189C25.0874 19.1343 25.2448 19.7741 25.7169 20.16C26.0555 20.4335 26.5037 20.5263 26.9329 20.5751C27.6244 20.6533 28.3206 20.6533 29.0073 20.5751C29.3268 20.536 29.6558 20.4774 29.9324 20.3016C30.2471 20.1014 30.4569 19.7741 30.6238 19.4322C30.7574 19.149 30.8718 18.8511 30.9004 18.5385C30.9386 18.1624 30.8527 17.7863 30.7717 17.4152Z" fill="#E63E03"/>
</g>
<path d="M31.0148 17.3663L29.9752 12.5018L29.9848 12.3309C29.403 12.5507 28.3491 12.6239 27.9486 12.6239C27.548 12.6239 26.475 12.536 25.9123 12.3358L25.9219 12.5018L24.8823 17.3712C25.7884 17.5373 26.8279 17.6496 27.9438 17.6496C29.0596 17.6496 30.1087 17.5373 31.0148 17.3712V17.3663Z" fill="#390C2D"/>
<path d="M27.9728 28.3456C26.0271 28.3456 24.4487 29.6252 24.4487 31.1978V40.6239C24.4487 41.0049 24.7492 41.3126 25.1211 41.3126H30.8339C31.2059 41.3126 31.5063 41.0049 31.5063 40.6239V31.1978C31.5063 29.6252 29.9231 28.3456 27.9823 28.3456H27.9728Z" fill="#BC0A01"/>
<path d="M27.9726 27.8571C25.7647 27.8571 23.9717 29.3565 23.9717 31.1978V40.6239C23.9717 41.2735 24.4867 41.801 25.1209 41.801H30.8337C31.468 41.801 31.983 41.2735 31.983 40.6239V31.1978C31.983 29.3565 30.1852 27.8571 27.9821 27.8571H27.9726ZM31.4966 40.6239C31.4966 41.0049 31.1962 41.3126 30.8242 41.3126H25.1114C24.7394 41.3126 24.439 41.0049 24.439 40.6239V31.1978C24.439 29.6252 26.0222 28.3455 27.963 28.3455C29.9039 28.3455 31.487 29.6252 31.487 31.1978V40.6239H31.4966Z" fill="black"/>
<g opacity="0.2">
<path d="M24.4438 31.2027V40.6288C24.4438 40.9414 24.6537 41.2051 24.935 41.2882V29.757C24.6251 30.1819 24.4438 30.6752 24.4438 31.1978V31.2027Z" fill="#491507"/>
</g>
<g opacity="0.2">
<path d="M25.2642 41.3126H25.7553V28.9805C25.5789 29.0977 25.412 29.2296 25.2642 29.3712V41.3126Z" fill="#491507"/>
</g>
<g opacity="0.2">
<path d="M26.0845 41.3126H26.5756V28.58C26.404 28.6386 26.2418 28.7119 26.0845 28.79V41.3126Z" fill="#491507"/>
</g>
<g opacity="0.2">
<path d="M26.9043 41.3126H27.3955V28.3846C27.2286 28.409 27.0664 28.4383 26.9043 28.4774V41.3126Z" fill="#491507"/>
</g>
<g opacity="0.2">
<path d="M27.7246 28.3602V41.3175H28.2158V28.3602C28.1347 28.3602 28.0536 28.3504 27.9726 28.3504C27.8915 28.3504 27.8104 28.3553 27.7294 28.3602H27.7246Z" fill="#491507"/>
</g>
<g opacity="0.2">
<path d="M28.5449 28.3895V41.3175H29.0361V28.4823C28.8787 28.4432 28.7118 28.4139 28.5449 28.3895Z" fill="#491507"/>
</g>
<g opacity="0.2">
<path d="M29.3652 41.3126H29.8564V28.79C29.699 28.7119 29.5369 28.6386 29.3652 28.58V41.3126Z" fill="#491507"/>
</g>
<g opacity="0.2">
<path d="M30.1851 41.3126H30.6762V29.3712C30.5284 29.2296 30.3663 29.0977 30.1851 28.9805V41.3126Z" fill="#491507"/>
</g>
<g opacity="0.2">
<path d="M31.0054 29.757V41.2882C31.2867 41.2051 31.4965 40.9463 31.4965 40.6288V31.2027C31.4965 30.6752 31.3153 30.1819 31.0054 29.7619V29.757Z" fill="#491507"/>
</g>
<g opacity="0.3">
<path d="M27.3668 18.1868C27.1141 16.6923 27.0712 15.1636 27.2476 13.6545C27.2762 13.4054 27.3096 13.1368 27.1952 12.9121C27.0807 12.6874 26.7517 12.5702 26.5848 12.7558L26.4799 12.707C26.0268 14.1233 25.6692 15.569 25.4117 17.0342C25.3259 17.5275 25.2591 18.0794 25.5357 18.4994C25.8313 18.9487 26.4417 19.0806 26.9663 18.9731C27.0855 18.9487 27.2142 18.9096 27.2953 18.8169C27.4384 18.6557 27.4098 18.4066 27.3716 18.1917L27.3668 18.1868Z" fill="#F1BD51"/>
</g>
<g opacity="0.3">
<path d="M26.9852 13.1221C26.9375 13.0391 26.8231 13.0049 26.7372 13.044C26.7086 13.0586 26.6848 13.083 26.6657 13.1074V13.083C26.6657 13.083 26.6657 13.1075 26.6609 13.1172C26.6371 13.1514 26.6276 13.1905 26.6276 13.2296C26.2651 14.3285 25.979 15.4518 25.7692 16.5946C25.7358 16.79 25.7024 16.9902 25.7311 17.1856C25.7644 17.381 25.8693 17.5714 26.0506 17.6496C26.1316 17.6838 26.227 17.6935 26.2938 17.6398C26.3605 17.5861 26.3796 17.4933 26.3891 17.4054C26.5942 16.072 26.7992 14.7387 27.0043 13.4054C27.0186 13.3126 27.0329 13.2051 26.9804 13.127L26.9852 13.1221Z" fill="white"/>
</g>
<g opacity="0.5">
<path d="M33.3563 24.6532C32.6457 23.7936 31.7302 23.1441 30.8909 22.4164C30.6811 22.2356 30.4712 22.0403 30.333 21.7961C29.899 21.0391 30.2519 20.0769 30.6095 19.2808C29.9181 19.9499 29.055 20.4481 28.1203 20.6142C27.1857 20.7802 26.1747 20.5897 25.4117 20.0037L25.4928 20.072C25.9649 20.5751 25.7312 21.4444 25.2591 21.9475C25.2162 21.9914 25.1733 22.0403 25.1685 22.0989C25.159 22.2063 25.2734 22.2747 25.3736 22.3089C26.0603 22.5629 26.7946 22.6654 27.5242 22.6117C27.9582 22.5775 28.3921 22.4945 28.8261 22.5092C29.3935 22.5336 29.9372 22.7387 30.4569 22.9634C31.4536 23.398 32.4216 23.9499 33.1655 24.7558C33.9094 25.5617 34.4054 26.6557 34.3195 27.7595C34.558 26.6606 34.0763 25.5079 33.3658 24.6483L33.3563 24.6532Z" fill="#E63E03"/>
</g>
<g opacity="0.3">
<path d="M22.0449 27.5201C22.0449 27.5201 22.0545 27.5153 22.0545 27.5104C22.0688 27.4664 22.0831 27.4176 22.0974 27.3736L22.0449 27.5201Z" fill="#F1BD51"/>
</g>
<g opacity="0.3">
<path d="M23.0843 27.5201C22.8984 27.1538 22.3357 27.2173 22.0591 27.5153C21.7396 28.453 21.8349 29.4884 21.9303 30.4847C22.2307 33.6593 22.4215 36.8437 22.5026 40.033C22.6408 39.9206 22.6599 39.7204 22.6695 39.5446C22.8793 35.7692 22.0352 31.8864 23.0557 28.2527C23.1225 28.0134 23.194 27.7448 23.0843 27.525V27.5201Z" fill="#F1BD51"/>
</g>
<g opacity="0.5">
<g opacity="0.5">
<path d="M30.1992 19.989L30.5044 19.5299C30.3661 19.6569 30.2707 19.8132 30.1992 19.989Z" fill="#E63E03"/>
</g>
<g opacity="0.5">
<path d="M34.3479 27.7839C34.3479 27.3101 34.3479 26.8364 34.2382 26.3773C33.8424 24.6874 32.1782 23.7057 31.0003 22.4554C30.6236 22.0598 30.2803 21.6007 30.142 21.0684C30.0514 20.7167 30.0657 20.326 30.1992 19.989L30.1372 20.0867C29.9464 20.4823 29.4553 20.5946 29.0309 20.6581C28.5302 20.7363 28.0295 20.8144 27.524 20.8926C29.131 21.3907 30.2659 22.8413 31.2006 24.2723C31.439 24.6386 31.6775 25.0244 31.7538 25.4591C31.8301 25.8938 31.7061 26.3968 31.3484 26.641C31.1005 26.8071 30.7333 26.8901 30.6808 27.188C31.3246 27.3004 31.8253 27.862 32.059 28.4872C32.2926 29.1123 32.3117 29.7961 32.3308 30.4652C32.3832 32.6581 32.4357 34.8462 32.4834 37.0391C32.512 38.3089 32.5406 39.5836 32.3832 40.8388C32.2974 41.5226 32.14 42.2259 31.7156 42.7582C31.2197 43.3883 30.4281 43.6862 29.6556 43.8523C28.883 44.0183 28.0819 44.0769 27.3428 44.3553C29.5173 44.6484 31.7776 44.2234 33.7089 43.1587C33.8853 43.0611 34.0713 42.9487 34.1715 42.7729C34.2716 42.5971 34.2811 42.3822 34.2859 42.177C34.3717 37.381 34.367 32.58 34.3574 27.7839H34.3479Z" fill="#E63E03"/>
</g>
</g>
<g opacity="0.2">
<path d="M32.4073 25.8205C32.4264 26.3285 32.1689 26.8413 31.754 27.1197C32.188 27.1929 32.6315 27.1832 33.0606 27.1001C33.2371 27.0659 33.4183 27.0171 33.547 26.8901C33.8189 26.6215 33.7378 26.1526 33.5852 25.7961C32.9748 24.3651 31.6539 23.4127 30.581 22.2992C30.1089 21.8108 29.6511 21.1172 29.9276 20.4921L29.8943 20.4579C29.6511 20.4432 29.4031 20.4823 29.1694 20.5653C29.0693 20.5995 28.9596 20.6728 28.9739 20.7802C28.9835 20.8535 29.055 20.8974 29.1122 20.9365C29.9992 21.5226 30.3616 22.6508 31.0054 23.5055C31.5585 24.2381 32.374 24.8926 32.4121 25.8156L32.4073 25.8205Z" fill="#491507"/>
</g>
<g opacity="0.2">
<path d="M33.8093 27.4176C33.3944 27.4811 32.9795 27.5495 32.5599 27.613C32.4979 27.6227 32.4312 27.6374 32.4025 27.6911C32.3644 27.7595 32.4073 27.8474 32.4502 27.9158C32.8603 28.6093 32.8699 29.4689 32.8842 30.2796C32.9462 33.5324 33.3515 36.7851 33.1894 40.0379C33.1464 40.917 33.0463 41.8401 32.5599 42.5629C32.0735 43.2857 31.2771 43.7058 30.5142 44.0965C31.3153 44.0623 32.1069 43.8718 32.8413 43.5446C33.1131 43.4225 33.3896 43.2711 33.547 43.0122C33.6758 42.7973 33.7044 42.5336 33.7234 42.2796C33.7664 41.6642 33.7711 41.0489 33.7759 40.4335C33.8141 36.0965 33.8522 31.7546 33.8904 27.4176H33.8141H33.8093Z" fill="#491507"/>
</g>
<path d="M33.5137 26.1673C33.5709 26.3577 33.6329 26.5482 33.6758 26.7436C33.6377 26.5433 33.5804 26.3529 33.5137 26.1673Z" fill="#42210B"/>
<g opacity="0.5">
<path d="M30.4473 17.5226C30.4473 17.5226 30.4473 17.5226 30.4473 17.5275C30.4711 17.5275 30.495 17.5226 30.5188 17.5275H30.4473V17.5226Z" fill="#E63E03"/>
</g>
<g opacity="0.5">
<path d="M30.4519 17.5275C30.1992 17.5226 29.9417 17.5617 29.708 17.6593C30.1658 17.8938 30.4185 18.475 30.2802 18.978C30.6951 18.6459 30.7762 17.9524 30.4519 17.5275Z" fill="#E63E03"/>
</g>
<g opacity="0.5">
<path d="M33.5137 26.1673C33.3993 25.7961 33.2705 25.4347 33.1084 25.083C32.9701 24.79 32.8175 24.5067 32.6172 24.2527C32.2834 23.8278 31.8352 23.5055 31.4489 23.1294C30.7241 22.4212 30.2043 21.4933 29.9754 20.4969L29.9325 20.5849C29.6845 20.6581 29.4413 20.7558 29.2124 20.873C29.7703 21.6984 30.4046 22.475 31.1056 23.1783C32.0116 24.0916 33.075 24.9853 33.5185 26.1673H33.5137Z" fill="#BC0A01"/>
<path d="M34.1243 27.9841C34.3007 27.2271 34.1863 26.3968 33.8048 25.7228C33.9812 26.1038 34.0766 26.5189 34.0813 26.939C34.0813 27.1197 34.0718 27.3053 33.9812 27.4615C33.8954 27.6178 33.7189 27.735 33.5473 27.696C33.9144 28.1307 33.9001 28.7656 33.862 29.337C33.7666 30.9145 33.676 32.4921 33.7285 34.0696C33.7857 35.9695 34.0432 37.8987 33.6426 39.7546C33.6045 39.9353 33.5568 40.116 33.5616 40.2967C33.5616 40.5751 33.614 40.9512 33.3565 41.0293C33.2754 41.0537 33.1753 41.0391 33.1181 41.1026C33.0418 41.1856 33.1133 41.3224 33.2087 41.3761C33.3041 41.4249 33.4185 41.4298 33.5186 41.4738C33.7905 41.5959 33.8429 41.9963 33.6903 42.2601C33.5425 42.5238 33.2659 42.6752 32.9989 42.8169C32.5125 43.0757 32.0308 43.3346 31.5444 43.5983C32.0451 43.6325 32.5315 43.4225 32.9941 43.2125C33.3231 43.0659 33.676 42.8901 33.8286 42.558C33.9049 42.3822 33.9192 42.1868 33.9288 41.9963C34.0098 40.3114 34.0766 38.6264 34.129 36.9365C34.2196 33.8352 34.2578 30.7289 34.4008 27.6325L34.1195 27.989L34.1243 27.9841Z" fill="#BC0A01"/>
</g>
<g opacity="0.2">
<path d="M24.2384 43.0122C23.6232 42.685 23.1654 42.1087 22.8603 41.4786C22.5551 40.8437 22.1068 38.4652 21.959 37.7766C21.9781 38.6606 21.9971 40.4286 22.0257 41.0244C22.0257 41.0244 22.0401 41.3028 22.0687 41.8303C22.0782 42.0549 22.0925 42.2894 22.1974 42.4896C22.3071 42.6996 22.5074 42.8413 22.7124 42.9585C23.504 43.4176 24.4196 43.6081 25.3209 43.7399C25.7071 43.7936 26.1268 43.8376 26.4749 43.652C25.7405 43.4029 24.9298 43.3834 24.2432 43.0171L24.2384 43.0122Z" fill="#E63E03"/>
</g>
<path d="M25.3015 19.2027C25.4732 19.652 25.8118 20.0476 26.2457 20.2332C26.6797 20.4188 27.2185 20.3797 27.5905 20.0818C27.3711 19.9548 27.1041 19.9841 26.8561 19.9353C26.2266 19.7985 25.8213 19.1099 25.8022 18.4505C25.7975 18.2698 25.8118 18.0842 25.7498 17.9182C25.6878 17.7521 25.5161 17.6056 25.3444 17.6593C25.2634 17.6838 25.2061 17.7472 25.168 17.8254C25.106 18.2894 25.1298 18.768 25.2968 19.2027H25.3015Z" fill="white"/>
<path d="M25.1634 17.84C25.1301 17.9182 25.1158 18.011 25.1205 18.094L25.1634 17.84Z" fill="white"/>
<path d="M25.1779 17.7717L25.1636 17.84C25.1636 17.84 25.1636 17.8254 25.1683 17.8205C25.1683 17.8059 25.1683 17.7863 25.1731 17.7717H25.1779Z" fill="white"/>
<path d="M22.1639 41.0684C22.1162 41.2735 22.121 41.6007 22.121 41.6007C22.0924 41.9817 22.2259 42.3724 22.4644 42.6654C22.7791 43.0464 23.2607 43.2613 23.7471 43.3101C23.0127 42.7485 22.4548 41.9572 22.1592 41.0684H22.1639Z" fill="white"/>
<g opacity="0.4">
<path d="M31.3533 42.9438C31.2293 42.9048 31.0958 42.9438 30.967 42.978C29.484 43.3883 27.8674 43.0464 26.4082 43.5397L26.5656 43.5494C28.1344 43.779 29.7462 43.7155 31.2913 43.3639C31.3723 43.3443 31.463 43.3199 31.5059 43.2466C31.5726 43.1343 31.4773 42.978 31.3533 42.9389V42.9438Z" fill="#BC0A01"/>
</g>
</svg>
