<svg width="47" height="57" viewBox="0 0 47 57" fill="none" xmlns="http://www.w3.org/2000/svg">
<path d="M4.36063 14.9579H2.64453V13.585C2.64453 12.3213 3.66896 11.2969 4.93266 11.2969H33.0766C34.3403 11.2969 35.3648 12.3213 35.3648 13.585V14.9579H33.7631M4.36063 14.9579H33.7631M4.36063 14.9579V21.3646M4.36063 51.3391H2.64453V51.3391C2.64453 53.3611 4.28362 55.0001 6.30554 55.0001H31.7038C33.7257 55.0001 35.3648 53.3611 35.3648 51.3391V51.3391H33.7631M4.36063 51.3391H33.7631M4.36063 51.3391V21.3646M33.7631 51.3391V18.6189M33.7631 14.9579V18.6189M4.36063 21.3646C6.38181 20.8307 11.614 19.763 16.3733 19.763C22.3224 19.763 25.297 22.8519 29.1868 22.8519C32.2987 22.8519 33.5343 20.0299 33.7631 18.6189" stroke="#25398F" stroke-width="3"/>
<circle cx="10.8814" cy="30.9732" r="2.43219" stroke="#258F41" stroke-width="2"/>
<circle cx="18.2035" cy="33.9486" r="1.51694" stroke="#258F41" stroke-width="2"/>
<circle cx="23.6953" cy="26.3984" r="1.97457" stroke="#258F41" stroke-width="2"/>
<circle cx="27.356" cy="39.44" r="2.43219" stroke="#258F41" stroke-width="2"/>
<circle cx="22.8342" cy="47.1057" r="1.40254" stroke="#258F41" stroke-width="2"/>
<circle cx="11.797" cy="40.3556" r="1.60169" fill="#258F41"/>
<circle cx="27.3559" cy="32.1196" r="1.8305" fill="#258F41"/>
<circle cx="17.4572" cy="47.6789" r="0.915252" fill="#258F41"/>
<path d="M15.1695 47.791H8.7627" stroke="#258F41" stroke-width="2" stroke-linecap="square"/>
<path d="M4.36016 11.8223H11.7966H12.5974V23.4919C12.6356 24.1783 13.1008 25.5512 14.6567 25.5512C16.2127 25.5512 16.6779 24.1783 16.7161 23.4919V11.8223H34.5635C35.2118 11.6698 36.5084 10.8614 36.5084 8.84788C36.5084 6.83433 34.3728 6.55963 33.305 6.67398C33.305 6.67398 33.8999 4.72991 32.1609 3.63135C30.9668 2.87699 28.9194 3.47056 28.2711 4.38603C28.2711 4.38603 27.8135 3.0128 26.6694 2.44075C25.7877 1.99991 24.1525 2.51708 23.6949 3.01283C23.6567 2.49748 23.3174 1.20472 22.0932 1.06828C21.0635 0.953522 20.1483 1.85042 19.9194 2.44075C19.5762 1.75463 18.4322 0.724727 16.7161 1.06828C15.2773 1.3563 14.5042 2.32651 14.3135 3.01283C13.8559 2.44079 12.2916 1.52582 10.9957 1.98317C9.43981 2.53232 8.82201 3.66123 8.70761 4.15703C8.70761 4.15703 7.44914 3.40254 5.73304 4.15703C4.67323 4.62299 4.36016 5.98754 4.36016 6.67398C3.40677 6.67398 1.5 7.17737 1.5 9.19092C1.5 11.2045 3.40677 11.7841 4.36016 11.8223Z" fill="white" stroke="#258F41" stroke-width="2" stroke-linecap="square"/>
<path d="M33.7627 23.7676H41.4279V39.6701H33.7627" stroke="#25398F" stroke-width="3" stroke-linecap="square"/>
<path d="M33.7051 19.7637H45.3745V43.789H33.7051" stroke="#25398F" stroke-width="3" stroke-linecap="square"/>
</svg>
