<svg width="18" height="18" viewBox="0 0 18 18" fill="none" xmlns="http://www.w3.org/2000/svg">
<path d="M15.5065 13.7H16.8571V15H2V13.7H3.35065V2.65C3.35065 2.29102 3.65301 2 4.02597 2H14.8312C15.2041 2 15.5065 2.29102 15.5065 2.65V13.7ZM14.1558 13.7V3.3H4.7013V13.7H14.1558ZM6.72727 7.85H8.75325V9.15H6.72727V7.85ZM6.72727 5.25H8.75325V6.55H6.72727V5.25ZM6.72727 10.45H8.75325V11.75H6.72727V10.45ZM10.1039 10.45H12.1299V11.75H10.1039V10.45ZM10.1039 7.85H12.1299V9.15H10.1039V7.85ZM10.1039 5.25H12.1299V6.55H10.1039V5.25Z" fill="#C9C9C9"/>
</svg>
