<svg width="12" height="12" viewBox="0 0 12 12" fill="none" xmlns="http://www.w3.org/2000/svg">
<path fill-rule="evenodd" clip-rule="evenodd" d="M2.11468 1.12153L2.63911 1.01665C3.00349 0.943772 3.3732 1.11474 3.55366 1.43958L4.44828 3.0499C4.63357 3.3834 4.57531 3.79933 4.30554 4.06911L3.70325 4.6714C3.42604 4.94894 3.3734 5.37957 3.57584 5.71556C3.91558 6.28041 4.31105 6.78844 4.76227 7.23965C5.21348 7.69087 5.72116 8.08599 6.28528 8.425C6.62132 8.62655 7.05137 8.57367 7.3286 8.29675L7.93089 7.69446C8.20067 7.42469 8.6166 7.36643 8.9501 7.55172L10.5604 8.44634C10.8853 8.6268 11.0562 8.99651 10.9834 9.36089L10.8785 9.88532C10.8283 10.1358 10.6688 10.3507 10.4432 10.4704C8.32668 11.5986 6.0299 10.9242 3.55285 8.44715C1.07581 5.9701 0.401382 3.67332 1.52956 1.55681C1.64932 1.3312 1.86423 1.17167 2.11468 1.12153Z" fill="#2A47BF" stroke="#2A47BF" stroke-linecap="round" stroke-linejoin="round"/>
</svg>
