<svg width="56" height="55" viewBox="0 0 56 55" fill="none" xmlns="http://www.w3.org/2000/svg">
<g clip-path="url(#clip0_2010_1751)">
<path d="M27.9847 44.9957C27.9847 44.9957 21.4385 45.2465 21.1353 41.9149C20.832 38.5834 21.1353 26.6406 21.1353 26.6406C21.2561 20.8572 24.7106 20.1709 24.7106 20.1709L26.3476 12.0588C26.3476 12.0588 25.4195 12.0864 25.5752 11.0432H30.4495C30.5355 12.0864 29.6197 12.0588 29.6197 12.0588L31.2567 20.1709C31.2567 20.1709 34.7111 20.8593 34.832 26.6406C34.832 26.6406 35.1353 38.5834 34.832 41.9149C34.5288 45.2465 27.9826 44.9957 27.9826 44.9957" fill="#D46109"/>
<g style="mix-blend-mode:multiply" opacity="0.3">
<path d="M25.8806 18.0164L25.1778 21.6603C25.1778 21.6603 22.2152 22.2764 22.1127 27.4671C22.1127 27.4671 21.8525 38.184 22.1127 41.1756C22.3729 44.165 27.9848 43.9398 27.9848 43.9398C27.9848 43.9398 33.5967 44.165 33.8569 41.1756C34.1171 38.1861 33.8569 27.4671 33.8569 27.4671C33.7524 22.2764 30.7918 21.6603 30.7918 21.6603L30.089 18.0164C30.089 18.0164 29.5399 17.1474 28.0196 17.6298C26.4994 18.1121 25.8806 18.0164 25.8806 18.0164Z" fill="#D46109"/>
</g>
<path d="M34.9529 28.9161H31.6214C30.8695 26.6937 29.5213 25.2128 27.9826 25.2128C26.4439 25.2128 25.0957 26.6937 24.3438 28.9161H21.0861L21 33.5139V38.8044L25.1592 38.8108C25.9112 40.0219 26.9008 40.757 27.9846 40.757C29.0685 40.757 30.0561 40.0219 30.81 38.8108H34.9549L35.002 35.0798L34.9549 28.914L34.9529 28.9161Z" fill="#F1C097"/>
<path opacity="0.19" d="M26.6428 11.0453C26.4563 12.1162 27.0054 12.2054 27.0054 12.2054L25.1778 21.6688C25.1778 21.6688 22.2152 22.2849 22.1127 27.4756C22.1127 27.4756 21.8525 38.1925 22.1127 41.1841L22.3135 43.7889C22.3135 43.7889 23.7006 44.6622 25.3233 44.8215L25.479 44.8449C24.3419 41.6621 24.8377 33.8008 24.7455 29.2306C24.6205 23.0562 27.1386 21.7431 27.1386 21.7431L28.0012 12.2033C28.0012 12.2033 27.3865 11.959 27.5156 11.0432H26.6448L26.6428 11.0453Z" fill="white"/>
<path d="M25.6819 19.5335C25.559 20.2559 25.434 20.9783 25.3008 21.6985L25.2885 21.7644L25.2188 21.7835C25.098 21.8154 24.9648 21.8706 24.8418 21.9301C24.7783 21.9577 24.7189 21.9939 24.6574 22.0257C24.596 22.0576 24.5366 22.0937 24.4792 22.1341C24.4218 22.1723 24.3624 22.2106 24.3071 22.251L24.1432 22.3827C24.0305 22.4655 23.9383 22.5739 23.8358 22.6695C23.7355 22.7673 23.6514 22.8841 23.5592 22.9882C23.4691 23.0966 23.3974 23.2219 23.3134 23.3345C23.2273 23.4471 23.1679 23.581 23.0962 23.7021L22.9917 23.8891L22.9077 24.0867C22.8544 24.2205 22.7889 24.348 22.7417 24.484L22.6086 24.8962C22.5594 25.0322 22.5287 25.1745 22.4959 25.3148L22.3975 25.7397L22.332 26.171C22.3135 26.3155 22.2869 26.46 22.2685 26.6044L22.2008 27.4798V27.4862C22.1967 27.5287 22.1619 27.5605 22.1209 27.5563C22.082 27.552 22.0513 27.5181 22.0533 27.4777L22.0861 26.5874C22.0963 26.4387 22.1168 26.2921 22.1353 26.1434C22.1537 25.9968 22.1701 25.848 22.1926 25.6993L22.2848 25.2616C22.3156 25.115 22.3422 24.9684 22.3914 24.8261L22.5266 24.399C22.5737 24.2567 22.6393 24.1228 22.6946 23.9847L22.7827 23.7786L22.8893 23.581C22.9651 23.4514 23.0245 23.3133 23.1146 23.1943C23.2007 23.0732 23.2786 22.9436 23.3748 22.831C23.4732 22.7205 23.5633 22.5994 23.6699 22.4953C23.7805 22.3954 23.8789 22.2828 23.9998 22.1957L24.1739 22.0576C24.2333 22.0151 24.2968 21.9747 24.3583 21.9344C24.4198 21.8919 24.4833 21.8536 24.5489 21.8196C24.6144 21.7856 24.6779 21.7453 24.7476 21.7198C24.8849 21.6582 25.018 21.605 25.1738 21.5689L25.0918 21.6539C25.2373 20.9358 25.3889 20.2197 25.5446 19.5037C25.5528 19.4655 25.5897 19.4421 25.6245 19.4506C25.6593 19.4591 25.6819 19.4952 25.6757 19.5313L25.6819 19.5335Z" fill="#E9E6E2"/>
<path d="M30.9778 22.5314C31.0905 22.5017 31.2196 22.5952 31.3097 22.6546C31.4368 22.7396 31.5556 22.8395 31.6683 22.9436C31.8957 23.1518 32.115 23.3685 32.2912 23.6256C32.744 24.2928 32.9407 25.1087 33.0411 25.9075C33.0533 26.0117 33.2111 26.0117 33.1988 25.9075C33.0902 25.0322 32.873 24.1377 32.3444 23.4259C32.1457 23.1582 31.8998 22.9224 31.6458 22.7099C31.4655 22.5569 31.1909 22.3083 30.9348 22.3742C30.8365 22.3997 30.8774 22.5569 30.9758 22.5314H30.9778Z" fill="#D46109"/>
<path d="M33.2358 26.3091H33.0903C33.0698 26.3091 33.0493 26.3176 33.035 26.3325C33.0207 26.3473 33.0104 26.3707 33.0125 26.3898C33.0145 26.409 33.0207 26.4323 33.035 26.4472C33.0493 26.4621 33.0698 26.4706 33.0903 26.4706H33.2358C33.2563 26.4706 33.2768 26.4621 33.2911 26.4472C33.3055 26.4323 33.3157 26.409 33.3137 26.3898C33.3116 26.3707 33.3055 26.3473 33.2911 26.3325C33.2768 26.3176 33.2563 26.3091 33.2358 26.3091Z" fill="#D46109"/>
<path d="M33.207 26.6724H33.1189C33.1087 26.6724 33.0984 26.6724 33.0882 26.6788C33.078 26.6831 33.0698 26.6873 33.0636 26.6958C33.0554 26.7022 33.0513 26.7128 33.0472 26.7213C33.0431 26.7319 33.039 26.7425 33.0411 26.7532C33.0411 26.7744 33.0493 26.7957 33.0636 26.8105C33.078 26.8254 33.0984 26.8339 33.1189 26.8339H33.207C33.2173 26.8339 33.2275 26.8339 33.2378 26.8275C33.248 26.8233 33.2562 26.819 33.2624 26.8105C33.2705 26.8042 33.2746 26.7935 33.2787 26.785C33.2828 26.7744 33.2869 26.7638 33.2849 26.7532C33.2849 26.7319 33.2767 26.7107 33.2624 26.6958C33.248 26.6809 33.2275 26.6724 33.207 26.6724Z" fill="#D46109"/>
<path d="M33.1808 27.0612C33.1808 27.0612 33.1747 27.0676 33.1706 27.0697L33.187 27.057C33.187 27.057 33.1706 27.0697 33.1603 27.074L33.1788 27.0655C33.1788 27.0655 33.1583 27.0719 33.1481 27.074H33.1685C33.1563 27.074 33.146 27.074 33.1337 27.0719H33.1542C33.1542 27.0719 33.144 27.0719 33.1399 27.0719C33.1194 27.0676 33.0968 27.0697 33.0784 27.0804C33.062 27.091 33.0456 27.1101 33.0415 27.1292C33.0374 27.1505 33.0374 27.1739 33.0497 27.193C33.06 27.21 33.0763 27.2248 33.0968 27.2312C33.1317 27.2397 33.1665 27.2397 33.2013 27.2312C33.2075 27.2312 33.2116 27.2291 33.2157 27.227C33.2259 27.2227 33.2382 27.2185 33.2464 27.2121C33.2607 27.2036 33.2751 27.1909 33.2894 27.1802C33.3038 27.1654 33.312 27.142 33.312 27.1229C33.312 27.1037 33.3038 27.0782 33.2894 27.0655C33.2751 27.0527 33.2546 27.04 33.2341 27.0421C33.2136 27.0443 33.1952 27.0506 33.1788 27.0655L33.1808 27.0612Z" fill="#D46109"/>
<path d="M33.1273 39.2695C33.1273 40.028 33.2748 40.9289 32.8978 41.6215C32.5208 42.3142 31.7771 42.6818 31.0231 42.7965C30.9227 42.8114 30.9657 42.9686 31.0641 42.9537C31.8426 42.8347 32.5884 42.4714 33.0064 41.7511C33.4244 41.0309 33.2871 40.079 33.2851 39.2695C33.2851 39.1633 33.1273 39.1633 33.1273 39.2695Z" fill="#D46109"/>
<path d="M30.3328 42.9792C30.3431 42.9941 30.3492 43.009 30.3574 43.026L30.3492 43.0068C30.3656 43.0472 30.3779 43.0918 30.3841 43.1364V43.1152C30.3841 43.1152 30.382 43.1194 30.382 43.1216C30.382 43.1322 30.382 43.1428 30.3882 43.1534C30.3923 43.1641 30.3964 43.1726 30.4046 43.1789C30.4189 43.1938 30.4414 43.2044 30.4599 43.2023C30.4783 43.2002 30.5008 43.1938 30.5152 43.1789C30.5275 43.1641 30.5418 43.1428 30.5377 43.1216C30.5336 43.0791 30.5254 43.0387 30.5131 42.9983C30.5029 42.9643 30.4886 42.9282 30.4701 42.8985C30.4578 42.8815 30.4435 42.8666 30.423 42.8602C30.4046 42.8539 30.3779 42.8581 30.3615 42.8687C30.3451 42.8793 30.3308 42.8963 30.3246 42.9176C30.3185 42.9388 30.3205 42.9622 30.3328 42.9813V42.9792Z" fill="#D46109"/>
<path d="M29.8862 43.1407C29.8964 43.1704 29.9067 43.2023 29.9149 43.232C29.9169 43.2427 29.921 43.2512 29.9292 43.2597C29.9354 43.2682 29.9415 43.2767 29.9518 43.2809C29.9599 43.2873 29.9702 43.2894 29.9804 43.2915C29.9907 43.2937 30.0009 43.2915 30.0112 43.2915C30.0296 43.2852 30.0481 43.2724 30.0583 43.2533C30.0685 43.2342 30.0726 43.2108 30.0665 43.1896C30.0562 43.1598 30.0481 43.1279 30.0378 43.0982C30.0358 43.0876 30.0317 43.0791 30.0235 43.0706C30.0173 43.0621 30.0112 43.0536 30.0009 43.0493C29.9927 43.043 29.9825 43.0408 29.9722 43.0387C29.962 43.0366 29.9518 43.0387 29.9415 43.0387C29.9231 43.0451 29.9046 43.0578 29.8944 43.0769C29.8841 43.0961 29.88 43.1194 29.8862 43.1407Z" fill="#D46109"/>
<path d="M29.4781 43.2023C29.4822 43.2193 29.4863 43.2384 29.4924 43.2554C29.4924 43.2597 29.4945 43.2618 29.4965 43.266C29.4986 43.2745 29.5027 43.283 29.5068 43.2894C29.5068 43.2894 29.5068 43.2894 29.5068 43.2915C29.5068 43.2915 29.5191 43.3064 29.5191 43.3085C29.5232 43.3149 29.5293 43.3192 29.5354 43.3213C29.5539 43.3319 29.5764 43.3362 29.5969 43.3298C29.6031 43.3298 29.6113 43.3255 29.6174 43.3213L29.6338 43.3085C29.6379 43.3022 29.642 43.2979 29.6461 43.2915C29.6461 43.2894 29.6543 43.2745 29.6543 43.2724C29.6543 43.2724 29.6543 43.2682 29.6543 43.266C29.6543 43.2554 29.6563 43.2469 29.6584 43.2363C29.6584 43.2278 29.6584 43.2193 29.6584 43.2108C29.6584 43.2002 29.6584 43.1896 29.6522 43.1789C29.6481 43.1683 29.644 43.1598 29.6358 43.1534C29.6297 43.1449 29.6194 43.1407 29.6113 43.1364C29.601 43.1322 29.5908 43.1279 29.5805 43.1301H29.56C29.5457 43.1364 29.5354 43.1449 29.5252 43.1534L29.5129 43.1704C29.5068 43.1832 29.5027 43.1959 29.5027 43.2108C29.5027 43.2214 29.5027 43.2321 29.5027 43.2427V43.2214C29.5027 43.2214 29.5027 43.2278 29.5027 43.2299L29.5109 43.2108L29.5232 43.1938L29.5395 43.1811L29.558 43.1726H29.5785V43.1704H29.599V43.1726L29.6174 43.1811L29.6338 43.1938L29.6461 43.2108C29.6461 43.2108 29.644 43.2066 29.642 43.2044L29.6502 43.2235C29.6502 43.2235 29.644 43.2087 29.642 43.2002C29.6399 43.1917 29.6379 43.1811 29.6358 43.1726C29.6358 43.1683 29.6338 43.1641 29.6317 43.1598C29.6297 43.1492 29.6256 43.1407 29.6174 43.1322C29.6113 43.1237 29.6051 43.1152 29.5949 43.1109C29.5867 43.1046 29.5764 43.1024 29.5662 43.1003C29.5559 43.0982 29.5457 43.1003 29.5354 43.1003L29.517 43.1088C29.5047 43.1152 29.4965 43.1258 29.4883 43.1386L29.4801 43.1577C29.476 43.1726 29.476 43.1874 29.4801 43.2002L29.4781 43.2023Z" fill="#D46109"/>
<path d="M31.0598 23.8742C31.2627 23.8742 31.2627 23.547 31.0598 23.547C30.857 23.547 30.857 23.8742 31.0598 23.8742Z" fill="#D46109"/>
<path d="M30.0784 24.2035C30.0784 24.2035 30.0845 24.2035 30.0886 24.2035L30.0476 24.1972C30.0476 24.1972 30.0517 24.1972 30.0538 24.1972L30.0169 24.1802C30.0169 24.1802 30.019 24.1802 30.021 24.1823L29.9882 24.1568C29.9882 24.1568 29.9882 24.1568 29.9903 24.1589L29.9657 24.1249C29.9657 24.1249 29.9657 24.1271 29.9677 24.1292L29.9513 24.0909C29.9513 24.0909 29.9513 24.0952 29.9513 24.0973L29.9452 24.0548C29.9452 24.0548 29.9452 24.0612 29.9452 24.0654C29.9452 24.0888 29.9493 24.1101 29.9595 24.1292C29.9657 24.1504 29.9759 24.1674 29.9923 24.1823C30.0067 24.1993 30.0231 24.2099 30.0435 24.2163C30.062 24.2269 30.0825 24.2312 30.105 24.2312L30.146 24.2248C30.1726 24.2163 30.1952 24.2035 30.2156 24.1823L30.2402 24.1483C30.2546 24.1228 30.2607 24.0952 30.2628 24.0654C30.2628 24.0633 30.2628 24.0612 30.2628 24.0591C30.2628 24.0421 30.2607 24.0272 30.2566 24.0102C30.2566 24.0102 30.2566 24.0102 30.2566 24.0081C30.2525 23.9932 30.2464 23.9804 30.2402 23.9677C30.2341 23.955 30.2238 23.9422 30.2136 23.9316C30.1931 23.9103 30.1644 23.8933 30.1357 23.8848C30.1357 23.8848 30.1357 23.8848 30.1337 23.8848L30.0927 23.8785C30.0907 23.8785 30.0886 23.8785 30.0866 23.8785C30.064 23.8785 30.0435 23.8827 30.0251 23.8933C30.0046 23.8997 29.9882 23.9103 29.9739 23.9273C29.9575 23.9422 29.9472 23.9592 29.9411 23.9804C29.9309 23.9996 29.9268 24.0208 29.9268 24.0442L29.9329 24.0867C29.9411 24.1143 29.9534 24.1377 29.9739 24.1589L30.0067 24.1844C30.0313 24.1993 30.0579 24.2057 30.0866 24.2078L30.0784 24.2035Z" fill="#D46109"/>
<path d="M31.7708 24.8898C31.9736 24.8898 31.9736 24.5626 31.7708 24.5626C31.5679 24.5626 31.5679 24.8898 31.7708 24.8898Z" fill="#D46109"/>
<path d="M31.2547 25.7291C31.4575 25.7291 31.4575 25.4019 31.2547 25.4019C31.0518 25.4019 31.0518 25.7291 31.2547 25.7291Z" fill="#D46109"/>
<path d="M29.9803 22.882C30.1831 22.882 30.1831 22.5548 29.9803 22.5548C29.7774 22.5548 29.7774 22.882 29.9803 22.882Z" fill="#D46109"/>
<path d="M31.8445 26.8488C32.0474 26.8488 32.0474 26.5216 31.8445 26.5216C31.6417 26.5216 31.6417 26.8488 31.8445 26.8488Z" fill="#D46109"/>
<path d="M25.3745 11.0453H30.5951C30.5951 11.0453 30.6442 9.97018 30.2406 10.0042C29.8595 10.036 25.6429 9.9978 25.6429 9.9978C25.6429 9.9978 25.354 10.2145 25.3766 11.0431L25.3745 11.0453Z" fill="#C7C7C7"/>
<path d="M25.7374 11.0453H26.2722C26.2722 11.0453 26.2906 10.6863 26.016 10.6948C25.7354 10.7033 25.7354 11.0453 25.7354 11.0453H25.7374Z" fill="#7E858B"/>
<path d="M26.5606 11.0453H27.0954C27.0954 11.0453 27.1138 10.6863 26.8393 10.6948C26.5586 10.7033 26.5586 11.0453 26.5586 11.0453H26.5606Z" fill="#7E858B"/>
<path d="M27.3824 11.0453H27.9172C27.9172 11.0453 27.9356 10.6863 27.6611 10.6948C27.3804 10.7033 27.3804 11.0453 27.3804 11.0453H27.3824Z" fill="#7E858B"/>
<path d="M28.2062 11.0453H28.7409C28.7409 11.0453 28.7593 10.6863 28.4848 10.6948C28.2041 10.7033 28.2041 11.0453 28.2041 11.0453H28.2062Z" fill="#7E858B"/>
<path d="M28.9825 11.0453H29.5173C29.5173 11.0453 29.5357 10.6863 29.2612 10.6948C28.9805 10.7033 28.9805 11.0453 28.9805 11.0453H28.9825Z" fill="#7E858B"/>
<path d="M29.7262 11.0453H30.2609C30.2609 11.0453 30.2794 10.6863 30.0048 10.6948C29.7241 10.7033 29.7241 11.0453 29.7241 11.0453H29.7262Z" fill="#7E858B"/>
</g>
<defs>
<clipPath id="clip0_2010_1751">
<rect width="14" height="35" fill="white" transform="translate(21 10)"/>
</clipPath>
</defs>
</svg>
