<svg width="49" height="34" viewBox="0 0 49 34" fill="none" xmlns="http://www.w3.org/2000/svg">
<path fill-rule="evenodd" clip-rule="evenodd" d="M27.9286 10.25C27.9286 9.00736 28.9519 8 30.2143 8C31.4767 8 32.5 9.00736 32.5 10.25V23.75C32.5 24.9926 31.4767 26 30.2143 26C28.9519 26 27.9286 24.9926 27.9286 23.75V10.25ZM30.2143 9.6875C29.8987 9.6875 29.6429 9.93934 29.6429 10.25V23.75C29.6429 24.0607 29.8987 24.3125 30.2143 24.3125C30.5299 24.3125 30.7857 24.0607 30.7857 23.75V10.25C30.7857 9.93934 30.5299 9.6875 30.2143 9.6875ZM22.2143 15.875C22.2143 14.6324 23.2376 13.625 24.5 13.625C25.7624 13.625 26.7857 14.6324 26.7857 15.875V23.75C26.7857 24.9926 25.7624 26 24.5 26C23.2376 26 22.2143 24.9926 22.2143 23.75V15.875ZM24.5 15.3125C24.1844 15.3125 23.9286 15.5643 23.9286 15.875V23.75C23.9286 24.0607 24.1844 24.3125 24.5 24.3125C24.8156 24.3125 25.0714 24.0607 25.0714 23.75V15.875C25.0714 15.5643 24.8156 15.3125 24.5 15.3125ZM16.5 21.5C16.5 20.2574 17.5233 19.25 18.7857 19.25C20.0481 19.25 21.0714 20.2574 21.0714 21.5V23.75C21.0714 24.9926 20.0481 26 18.7857 26C17.5233 26 16.5 24.9926 16.5 23.75V21.5ZM18.7857 20.9375C18.4701 20.9375 18.2143 21.1893 18.2143 21.5V23.75C18.2143 24.0607 18.4701 24.3125 18.7857 24.3125C19.1013 24.3125 19.3571 24.0607 19.3571 23.75V21.5C19.3571 21.1893 19.1013 20.9375 18.7857 20.9375Z" fill="#333333"/>
</svg>
