<svg width="56" height="55" viewBox="0 0 56 55" fill="none" xmlns="http://www.w3.org/2000/svg">
<path d="M34.8402 42.4028V26.7161C34.8402 26.592 34.8338 26.47 34.8211 26.3525C34.7594 25.7798 34.5488 25.2376 34.2404 24.7564C34.0234 24.421 33.4832 23.3366 32.1431 19.9397C30.3181 15.3126 30.3479 13.0785 30.3947 12.5232C30.4011 12.4579 30.4521 12.4034 30.5159 12.4013C30.6201 12.4013 30.769 12.3337 30.769 11.9658C30.769 11.3931 30.5648 10.6113 30.3117 9.88189C30.0926 9.25259 28.1294 9.1263 27.5955 9.10452C27.5763 9.10452 27.5593 9.1067 27.5423 9.11541C27.5253 9.10888 27.5083 9.10452 27.4891 9.10452C26.9552 9.1263 24.992 9.25259 24.7729 9.88189C24.5176 10.6113 24.3156 11.3931 24.3156 11.9658C24.3156 12.3337 24.4623 12.4013 24.5687 12.4013C24.6325 12.4013 24.6835 12.4557 24.6899 12.5232C24.7367 13.0763 24.7686 15.3104 22.9415 19.9397C21.6014 23.3366 21.0612 24.421 20.8442 24.7564C20.5336 25.2354 20.3231 25.7798 20.2635 26.3525C20.2507 26.47 20.2444 26.592 20.2444 26.7161V42.4028C20.2444 42.4028 20.0912 45.2161 21.2632 45.4774C21.2632 45.4774 23.9072 45.9869 27.4466 45.9978C27.487 45.9978 27.604 45.9978 27.6444 45.9978C31.1838 45.9848 33.8277 45.4774 33.8277 45.4774C34.9976 45.2161 34.8466 42.4028 34.8466 42.4028H34.8402Z" fill="#301B13"/>
<path d="M25.2771 12.4034H28.1273C28.0869 12.177 27.9572 11.9853 27.7721 11.8786C27.7913 11.4606 27.9317 10.8509 28.1763 10.1432C28.2741 10.0648 28.5421 9.96681 28.9633 9.88406C28.6272 9.81874 28.1933 9.76212 27.6722 9.73599L27.536 9.79261L27.402 9.73599C26.2279 9.79478 25.5004 10.0016 25.326 10.141C25.0814 10.8487 24.941 11.4584 24.9219 11.8765C25.1069 11.9832 25.2367 12.1748 25.2771 12.4012V12.4034Z" fill="#392F32"/>
<path d="M24.8455 44.9657L24.703 44.9439C24.5392 44.92 24.3818 44.8982 24.2372 44.8655C23.8671 44.7828 23.6438 43.4915 23.6991 42.4354V42.4006V26.7139C23.6991 26.6181 23.7054 26.5201 23.7161 26.42C23.7629 25.9736 23.9309 25.5185 24.201 25.1004C24.5584 24.5451 25.2837 22.8881 26.3536 20.1727C27.7979 16.5123 28.1084 14.2739 28.1531 13.1634H25.3029C25.2603 14.2739 24.9476 16.5123 23.5034 20.1727C22.4335 22.8859 21.7081 24.5451 21.3508 25.1004C21.0828 25.5185 20.9147 25.9736 20.8658 26.42C20.8552 26.5201 20.8488 26.6203 20.8488 26.7139V42.4354C20.7914 43.4915 21.0147 44.7828 21.3848 44.8655C21.5316 44.8982 21.6869 44.92 21.8506 44.9439L21.9932 44.9657C22.5462 45.0484 23.1184 45.1203 23.7395 45.1813C24.5945 45.2662 25.4645 45.3228 26.3302 45.3511C26.7237 45.3642 27.1279 45.3707 27.5299 45.3707C28.0021 45.3707 28.4849 45.3598 28.9678 45.3402C28.1744 45.3097 27.3767 45.2575 26.5919 45.1791C25.9708 45.1181 25.4007 45.0463 24.8455 44.9635V44.9657Z" fill="#472219"/>
<path d="M34.8406 42.4028V26.7161C34.8406 26.592 34.8342 26.4701 34.8215 26.3525C34.7598 25.7798 34.5492 25.2376 34.2408 24.7564C34.1132 24.5582 33.8707 24.0966 33.4176 23.047V40.1774C33.4176 40.1774 33.5708 43.2629 32.3987 43.5481C32.3987 43.5481 29.7548 44.1056 26.2154 44.1186C26.175 44.1186 26.058 44.1186 26.0176 44.1186C23.3439 44.1078 21.1828 43.7877 20.2852 43.6309C20.3745 44.4235 20.6191 45.3293 21.2593 45.4731C21.2593 45.4731 23.9033 45.9826 27.4427 45.9935C27.4831 45.9935 27.6001 45.9935 27.6405 45.9935C31.1799 45.9804 33.8239 45.4731 33.8239 45.4731C34.9938 45.2118 34.8427 42.3984 34.8427 42.3984L34.8406 42.4028Z" fill="#26150F"/>
<path d="M24.7412 10.7877H30.3545C30.6246 10.7877 30.831 10.5656 30.782 10.3239L30.7033 9.92326C30.597 9.38977 29.8802 9 29.2825 9H25.8239C25.2304 9 24.5179 9.38106 24.4051 9.90802L24.3179 10.3196C24.2669 10.5634 24.4711 10.7877 24.7455 10.7877H24.7412Z" fill="#B2270F"/>
<path d="M28.5485 9H26.264C25.9641 9.59228 25.6748 10.1889 25.394 10.7877H27.787C28.0273 10.1867 28.2507 9.58139 28.5485 9Z" fill="#D94228"/>
<path d="M25.339 10.0583C25.0689 10.0583 24.8477 10.3283 24.8477 10.6636C24.8477 10.7072 24.8519 10.7485 24.8583 10.7877H25.8197C25.8261 10.7485 25.8304 10.705 25.8304 10.6636C25.8304 10.3304 25.6113 10.0583 25.339 10.0583Z" fill="#870C0C"/>
<path d="M26.8107 10.0583C26.5384 10.0583 26.3193 10.3283 26.3193 10.6636C26.3193 10.7072 26.3236 10.7485 26.33 10.7877H27.2914C27.2978 10.7485 27.302 10.705 27.302 10.6636C27.302 10.3304 27.0829 10.0583 26.8107 10.0583Z" fill="#870C0C"/>
<path d="M28.2848 10.0583C28.0125 10.0583 27.7935 10.3283 27.7935 10.6636C27.7935 10.7072 27.7977 10.7485 27.8041 10.7877H28.7655C28.7719 10.7485 28.7762 10.705 28.7762 10.6636C28.7762 10.3304 28.5571 10.0583 28.2848 10.0583Z" fill="#870C0C"/>
<path d="M29.7589 10.0583C29.4867 10.0583 29.2676 10.3283 29.2676 10.6636C29.2676 10.7072 29.2718 10.7485 29.2782 10.7877H30.2396C30.246 10.7485 30.2503 10.705 30.2503 10.6636C30.2503 10.3304 30.0312 10.0583 29.7589 10.0583Z" fill="#870C0C"/>
<path d="M34.5257 40.9264H20.4743C20.2127 40.9264 20 40.7087 20 40.4409V30.5681C20 30.3852 20.1 30.2175 20.2574 30.1348C21.1635 29.6601 24.3094 28.1402 27.466 28.1402C30.6225 28.1402 33.8259 29.6601 34.7405 30.1348C34.9 30.2175 35 30.3852 35 30.5681V40.4387C35 40.7065 34.7873 40.9243 34.5257 40.9243V40.9264Z" fill="#B2270F"/>
<path d="M34.7407 30.137C34.3067 29.9127 33.3623 29.451 32.1499 29.0308V40.9286H34.5258C34.7875 40.9286 35.0002 40.7109 35.0002 40.443V30.5725C35.0002 30.3895 34.9002 30.2219 34.7407 30.1391V30.137Z" fill="#A0200E"/>
<path d="M22.5799 29.1157C21.4973 29.512 20.6592 29.9257 20.2593 30.1348C20.0998 30.2175 20.002 30.3852 20.002 30.5681V40.4408C20.002 40.7087 20.2147 40.9264 20.4763 40.9264H22.5799V29.1157Z" fill="#C72C18"/>
<path d="M33.1535 33.6471H21.778C21.6018 33.6471 21.459 33.7933 21.459 33.9737V36.9677C21.459 37.1481 21.6018 37.2944 21.778 37.2944H33.1535C33.3298 37.2944 33.4726 37.1481 33.4726 36.9677V33.9737C33.4726 33.7933 33.3298 33.6471 33.1535 33.6471Z" fill="#F3F0E7"/>
</svg>
