<svg width="36" height="50" viewBox="0 0 36 50" fill="none" xmlns="http://www.w3.org/2000/svg">
<path d="M5.97501 6V14.5C1.14448 14.5 2.14429 19.634 2.14429 22.134V48.5H9.05859" stroke="#25398F" stroke-width="3"/>
<path d="M12.1441 6V14.5C16.9747 14.5 15.9749 19.634 15.9749 22.134V48.501H9.05859" stroke="#25398F" stroke-width="3"/>
<path d="M12.0862 4C12.1096 3.33333 11.4495 2 8.62133 2C5.7932 2 5.4195 3.33333 5.58617 4" stroke="#258F41" stroke-width="3"/>
<rect x="5.89453" y="23.9961" width="6.33008" height="15.1426" rx="2" stroke="#258F41" stroke-width="2"/>
<rect x="24.1016" y="23.9961" width="6.33008" height="15.1426" rx="2" stroke="#258F41" stroke-width="2"/>
<path d="M24.182 6V14.5C19.3515 14.5 20.3513 19.634 20.3513 22.134V48.5H27.2656" stroke="#25398F" stroke-width="3"/>
<path d="M30.3512 6V14.5C35.1817 14.5 34.1819 19.634 34.1819 22.134V48.501H27.2656" stroke="#25398F" stroke-width="3"/>
<path d="M30.3518 4C30.3752 3.33333 29.7151 2 26.887 2C24.0588 2 23.6851 3.33333 23.8518 4" stroke="#258F41" stroke-width="3"/>
</svg>
