<svg width="56" height="55" viewBox="0 0 56 55" fill="none" xmlns="http://www.w3.org/2000/svg">
<path d="M30.367 11.8863C30.4924 13.2089 29.8909 13.158 29.8909 13.158C29.8909 13.158 29.63 18.4915 31.7333 21.3011C32.5319 22.3674 33.1514 23.5863 33.4262 24.9343C33.719 26.3763 33.948 28.458 33.9142 31.4046L33.9719 41.3769C33.9719 41.3769 34.7407 46.8415 28.3454 46.998H27.6563C21.2609 46.8415 22.0277 41.3789 22.0277 41.3789L22.0855 31.4065C22.0516 28.458 22.2826 26.3763 22.5734 24.9363C22.8463 23.5882 23.4677 22.3713 24.2664 21.303C26.3676 18.4935 26.1087 13.16 26.1087 13.16C26.1087 13.16 25.6904 13.16 25.7363 11.8882H30.367V11.8863Z" fill="#611C18"/>
<g style="mix-blend-mode:multiply" opacity="0.36">
<path d="M26.4712 16.6191C26.3936 18.2411 26.0769 20.8472 24.9018 22.4906C24.2146 23.4513 23.6829 24.5489 23.4478 25.7639C23.1969 27.063 22.9997 28.9374 23.0276 31.5943L22.9778 40.5787C22.9778 40.5787 22.3185 45.5013 27.8156 45.6441H28.4072C33.9043 45.5013 33.245 40.5787 33.245 40.5787L33.1952 31.5943C33.2251 28.9393 33.0259 27.063 32.775 25.7639C32.54 24.5489 32.0062 23.4533 31.321 22.4906C30.1081 20.7924 29.8093 18.0669 29.7456 16.4606C29.7456 16.4606 29.4727 15.9285 28.1124 16.4606C26.7521 16.9928 26.4712 16.6191 26.4712 16.6191Z" fill="#5C0B07"/>
</g>
<path d="M22.1036 29.4441H33.8945L33.9164 30.5946L33.9482 37.5363C33.9482 37.5363 32.082 41.375 27.999 41.5119C23.918 41.6469 22.0498 37.7867 22.0498 37.7867L22.1036 29.4441Z" fill="#E14E0D"/>
<path opacity="0.19" d="M25.2686 46.6126C24.4958 43.2611 24.6511 27.3722 25.8621 24.4569C26.1369 23.7976 26.7384 22.2813 26.9137 21.7217C27.7144 19.1587 27.557 16.6661 27.557 16.6661V13.115C27.557 13.115 27.087 12.1759 27.3459 11.8863H26.4078C25.9657 12.4909 26.4676 13.115 26.4676 13.115V16.6387C26.3899 18.2606 26.0732 20.8667 24.8981 22.5102C24.211 23.4709 23.6792 24.5685 23.4442 25.7835C23.1932 27.0826 22.996 28.9569 23.0239 31.6139L22.9741 40.5982V45.0376C22.9741 45.0376 23.7071 46.0941 25.2646 46.6146L25.2686 46.6126Z" fill="white"/>
<path d="M29.7697 21.0018C29.937 21.7981 30.3154 22.4985 30.7874 23.1598C31.0483 23.5257 31.3272 23.8837 31.5323 24.2848C31.7494 24.7094 31.8311 25.1848 31.9247 25.6465C31.9446 25.7483 32.1019 25.7052 32.082 25.6035C31.9984 25.1828 31.9207 24.7544 31.7474 24.3572C31.5741 23.96 31.2834 23.5687 31.0185 23.2009C30.5185 22.5122 30.1023 21.7941 29.927 20.9568C29.9051 20.855 29.7478 20.8981 29.7697 20.9998V21.0018Z" fill="#611C18"/>
<path d="M32.1515 24.6507H32.0042C31.9842 24.6507 31.9643 24.6585 31.9504 24.6722C31.9364 24.6859 31.9265 24.7074 31.9285 24.725C31.9305 24.7426 31.9364 24.7641 31.9504 24.7778C31.9643 24.7915 31.9842 24.7994 32.0042 24.7994H32.1515C32.1715 24.7994 32.1914 24.7915 32.2053 24.7778C32.2193 24.7641 32.2292 24.7426 32.2272 24.725C32.2252 24.7074 32.2193 24.6859 32.2053 24.6722C32.1914 24.6585 32.1715 24.6507 32.1515 24.6507Z" fill="#611C18"/>
<path d="M32.2355 25.0028C32.1837 25.0224 32.132 25.0361 32.0782 25.042H32.0981C32.0981 25.042 32.0921 25.042 32.0881 25.042C32.0782 25.042 32.0682 25.042 32.0583 25.0478C32.0483 25.0518 32.0403 25.0557 32.0344 25.0635C32.0204 25.0772 32.0105 25.0987 32.0125 25.1163C32.0145 25.1339 32.0204 25.1554 32.0344 25.1691C32.0483 25.1809 32.0682 25.1946 32.0881 25.1907C32.1519 25.1828 32.2156 25.1691 32.2754 25.1476C32.2953 25.1398 32.3112 25.13 32.3212 25.1124C32.3311 25.0967 32.3351 25.0713 32.3291 25.0537C32.3232 25.0361 32.3112 25.0185 32.2933 25.0087C32.2754 24.9989 32.2535 24.9931 32.2335 25.0009L32.2355 25.0028Z" fill="#611C18"/>
<path d="M32.2573 25.3922C32.2573 25.3922 32.2473 25.3941 32.2414 25.3961H32.2613C32.2613 25.3961 32.2513 25.3961 32.2453 25.3941H32.2653C32.2653 25.3941 32.2613 25.3961 32.2593 25.3941L32.2772 25.402C32.2772 25.402 32.2752 25.402 32.2732 25.402L32.2892 25.4137L32.3011 25.4294C32.3011 25.4294 32.3011 25.4294 32.3011 25.4274L32.3091 25.445C32.3091 25.445 32.3091 25.4431 32.3091 25.4411V25.4607C32.3091 25.4607 32.3111 25.4567 32.3111 25.4548V25.4744C32.3111 25.4744 32.3111 25.4685 32.3111 25.4665C32.3151 25.4568 32.3151 25.447 32.3111 25.4372C32.3111 25.4274 32.3071 25.4176 32.3011 25.4098C32.2971 25.4 32.2892 25.3941 32.2812 25.3883C32.2732 25.3824 32.2653 25.3765 32.2553 25.3746H32.2354C32.2214 25.3726 32.2075 25.3746 32.1956 25.3824L32.1796 25.3941C32.1796 25.3941 32.1637 25.4157 32.1597 25.4274C32.1597 25.4294 32.1597 25.4313 32.1577 25.4352C32.1577 25.4391 32.1577 25.4431 32.1577 25.447C32.1577 25.4509 32.1577 25.4548 32.1577 25.4587C32.1577 25.4587 32.1577 25.4607 32.1577 25.4626C32.1577 25.4665 32.1597 25.4802 32.1597 25.4822C32.1597 25.49 32.1657 25.4959 32.1677 25.5018C32.1677 25.5037 32.1776 25.5154 32.1796 25.5174C32.1816 25.5194 32.1876 25.5233 32.1876 25.5233C32.1896 25.5233 32.1936 25.5272 32.1956 25.5291C32.1956 25.5291 32.1956 25.5291 32.1975 25.5291C32.2035 25.5311 32.2115 25.535 32.2175 25.537C32.2175 25.537 32.2175 25.537 32.2195 25.537C32.2274 25.537 32.2354 25.5389 32.2434 25.5409C32.2434 25.5409 32.2453 25.5409 32.2473 25.5409C32.2493 25.5409 32.2513 25.5409 32.2553 25.5409C32.2633 25.5409 32.2712 25.5389 32.2792 25.537H32.2832C32.2872 25.537 32.2892 25.537 32.2932 25.535C32.3031 25.5331 32.3111 25.5272 32.319 25.5213C32.327 25.5154 32.335 25.5096 32.339 25.4998C32.3449 25.492 32.3469 25.4822 32.3489 25.4724C32.3509 25.4626 32.3489 25.4528 32.3489 25.4431L32.341 25.4254C32.335 25.4137 32.325 25.4059 32.3131 25.3981L32.2951 25.3902C32.2812 25.3863 32.2673 25.3863 32.2533 25.3902L32.2573 25.3922Z" fill="#611C18"/>
<path d="M32.3528 40.5924C32.4225 40.7254 32.3827 40.9074 32.3707 41.0502C32.3548 41.2361 32.3608 41.422 32.3468 41.6078C32.3169 42.0402 32.2373 42.4706 32.0839 42.8776C31.831 43.5467 31.3589 44.1298 30.6638 44.3841C30.5662 44.4193 30.6081 44.5759 30.7076 44.5387C31.4406 44.2687 31.9405 43.6778 32.2213 42.9735C32.3946 42.5372 32.4803 42.0715 32.5121 41.6059C32.5261 41.3887 32.5261 41.1715 32.544 40.9543C32.5559 40.8037 32.5679 40.6491 32.4962 40.5102C32.4484 40.4183 32.307 40.5004 32.3548 40.5904L32.3528 40.5924Z" fill="#611C18"/>
<path d="M30.0186 44.4624C30.0225 44.5407 30.0365 44.617 30.0624 44.6913C30.0703 44.7109 30.0803 44.7285 30.1002 44.7402C30.1181 44.75 30.144 44.7539 30.1639 44.748C30.1839 44.7422 30.2038 44.7304 30.2137 44.7109C30.2237 44.6913 30.2297 44.6698 30.2217 44.6483C30.2038 44.5993 30.1918 44.5504 30.1859 44.4996V44.5211C30.1859 44.5015 30.1859 44.482 30.1839 44.4624C30.1839 44.4409 30.1759 44.4213 30.16 44.4057C30.146 44.392 30.1221 44.3822 30.1022 44.3822C30.0823 44.3822 30.0584 44.39 30.0444 44.4057C30.0305 44.4213 30.0186 44.4409 30.0205 44.4624H30.0186Z" fill="#611C18"/>
<path d="M29.6623 44.5994C29.6603 44.6854 29.6782 44.7696 29.716 44.8478C29.724 44.8654 29.7459 44.8791 29.7658 44.885C29.7857 44.8909 29.8116 44.887 29.8296 44.8772C29.8475 44.8674 29.8614 44.8498 29.8674 44.8283C29.8734 44.8067 29.8674 44.7872 29.8594 44.7657C29.8574 44.7598 29.8535 44.7539 29.8515 44.75L29.8594 44.7696C29.8435 44.7344 29.8335 44.6952 29.8296 44.6561V44.6776C29.8296 44.6522 29.8296 44.6267 29.8296 44.5994C29.8296 44.5583 29.7917 44.5172 29.7479 44.5191C29.7021 44.5211 29.6682 44.5544 29.6662 44.5994H29.6623Z" fill="#611C18"/>
<path d="M29.1821 44.6913C29.1761 44.7676 29.1841 44.8459 29.206 44.9202C29.212 44.9398 29.2259 44.9574 29.2438 44.9691C29.2618 44.9809 29.2877 44.9828 29.3076 44.977C29.3494 44.9633 29.3773 44.9222 29.3653 44.8772C29.3574 44.8498 29.3514 44.8243 29.3474 44.797V44.8185C29.3454 44.7774 29.3434 44.7343 29.3474 44.6933C29.3474 44.6737 29.3374 44.6502 29.3235 44.6365C29.3096 44.6228 29.2857 44.613 29.2657 44.613C29.2458 44.613 29.2219 44.6209 29.208 44.6365C29.194 44.6522 29.1861 44.6717 29.1841 44.6933L29.1821 44.6913Z" fill="#611C18"/>
<path d="M22.0498 30.2326H33.8964" stroke="white" stroke-width="1.64" stroke-miterlimit="10"/>
<path d="M26.3498 18.7713C26.3498 18.7713 26.3259 18.9396 26.2701 19.2389C26.2143 19.5363 26.1287 19.9609 25.9773 20.4598C25.824 20.9567 25.6148 21.5339 25.2782 22.1013C25.1109 22.3889 24.9018 22.653 24.7285 22.9387C24.5513 23.2243 24.384 23.5217 24.2386 23.8289C23.9438 24.4413 23.7227 25.0889 23.6032 25.713C23.4817 26.343 23.3961 26.9359 23.3383 27.4465C23.2208 28.4678 23.187 29.1526 23.187 29.1526C23.185 29.1917 23.1511 29.2211 23.1113 29.2191C23.0714 29.2172 23.0416 29.1839 23.0436 29.1448C23.0436 29.1448 23.0495 28.9726 23.0615 28.6713C23.0754 28.37 23.0953 27.9396 23.1451 27.425C23.1949 26.9104 23.2646 26.3078 23.3861 25.6719C23.5076 25.0282 23.7287 24.3611 24.0314 23.7311C24.1828 23.4161 24.3561 23.1128 24.5413 22.8232C24.7245 22.5278 24.9337 22.2656 25.093 21.9956C25.4216 21.4517 25.6407 20.8922 25.8001 20.4069C25.9574 19.9198 26.061 19.505 26.1247 19.2115C26.1884 18.92 26.2183 18.7498 26.2183 18.7498C26.2243 18.7146 26.2582 18.6911 26.296 18.6969C26.3319 18.7028 26.3558 18.7361 26.3498 18.7693V18.7713Z" fill="#E9E6E2"/>
<path d="M23.0435 37.595C23.0435 37.595 23.0575 37.8533 23.0694 38.2406C23.0734 38.4343 23.0794 38.6613 23.0854 38.9019C23.0874 39.1446 23.0894 39.4028 23.0933 39.6611C23.0933 40.1776 23.0874 40.6941 23.0754 41.0815C23.0655 41.4689 23.0495 41.7272 23.0495 41.7272C23.0475 41.7663 23.0137 41.7956 22.9738 41.7937C22.936 41.7917 22.9081 41.7624 22.9061 41.7272C22.9061 41.7272 22.8902 41.4689 22.8802 41.0815C22.8683 40.6941 22.8643 40.1776 22.8623 39.6611C22.8643 39.4028 22.8663 39.1446 22.8703 38.9019C22.8762 38.6593 22.8802 38.4343 22.8862 38.2406C22.8982 37.8533 22.9121 37.595 22.9121 37.595C22.9141 37.5598 22.946 37.5324 22.9818 37.5343C23.0157 37.5343 23.0416 37.5637 23.0435 37.595Z" fill="#E9E6E2"/>
<path d="M25.6509 11.9137H30.4608C30.4608 11.9137 30.5066 10.9765 30.1342 11.0039C29.7817 11.0313 25.8978 11 25.8978 11C25.8978 11 25.631 11.1878 25.6529 11.9137H25.6509Z" fill="#C7C7C7"/>
<path d="M25.9854 11.9137H26.4793C26.4793 11.9137 26.4972 11.5987 26.2443 11.6065C25.9854 11.6144 25.9854 11.9137 25.9854 11.9137Z" fill="#7E858B"/>
<path d="M26.7441 11.9137H27.2381C27.2381 11.9137 27.256 11.5987 27.0031 11.6065C26.7461 11.6144 26.7461 11.9137 26.7461 11.9137H26.7441Z" fill="#7E858B"/>
<path d="M27.501 11.9137H27.9949C27.9949 11.9137 28.0128 11.5987 27.7599 11.6065C27.503 11.6144 27.503 11.9137 27.503 11.9137H27.501Z" fill="#7E858B"/>
<path d="M28.2598 11.9137H28.7537C28.7537 11.9137 28.7716 11.5987 28.5187 11.6065C28.2618 11.6144 28.2618 11.9137 28.2618 11.9137H28.2598Z" fill="#7E858B"/>
<path d="M28.9771 11.9137H29.471C29.471 11.9137 29.4889 11.5987 29.236 11.6065C28.9771 11.6144 28.9771 11.9137 28.9771 11.9137Z" fill="#7E858B"/>
<path d="M29.6621 11.9137H30.1561C30.1561 11.9137 30.174 11.5987 29.921 11.6065C29.6621 11.6144 29.6621 11.9137 29.6621 11.9137Z" fill="#7E858B"/>
</svg>
