<svg width="17" height="13" viewBox="0 0 17 13" fill="none" xmlns="http://www.w3.org/2000/svg">
<path d="M13.8182 11.3H15V12.5H2V11.3H3.18182V1.1C3.18182 0.768632 3.44638 0.5 3.77273 0.5H13.2273C13.5536 0.5 13.8182 0.768632 13.8182 1.1V11.3ZM12.6364 11.3V1.7H4.36364V11.3H12.6364ZM6.13636 5.9H7.90909V7.1H6.13636V5.9ZM6.13636 3.5H7.90909V4.7H6.13636V3.5ZM6.13636 8.3H7.90909V9.5H6.13636V8.3ZM9.09091 8.3H10.8636V9.5H9.09091V8.3ZM9.09091 5.9H10.8636V7.1H9.09091V5.9ZM9.09091 3.5H10.8636V4.7H9.09091V3.5Z" fill="#666666"/>
</svg>
