<svg width="15" height="12" viewBox="0 0 15 12" fill="none" xmlns="http://www.w3.org/2000/svg">
<path fill-rule="evenodd" clip-rule="evenodd" d="M7.5516 0.351344C7.77663 0.126379 8.0818 0 8.4 0C8.7182 0 9.02337 0.126379 9.2484 0.351344L14.0484 5.15134C14.2734 5.37638 14.3997 5.68155 14.3997 5.99974C14.3997 6.31794 14.2734 6.62311 14.0484 6.84814L9.2484 11.6481C9.02208 11.8667 8.71896 11.9877 8.40432 11.985C8.08968 11.9822 7.78871 11.856 7.56622 11.6335C7.34373 11.411 7.21753 11.1101 7.21479 10.7954C7.21206 10.4808 7.33301 10.1777 7.5516 9.95134L10.3032 7.19974H1.2C0.88174 7.19974 0.576516 7.07332 0.351472 6.84827C0.126428 6.62323 0 6.318 0 5.99974C0 5.68148 0.126428 5.37626 0.351472 5.15122C0.576516 4.92617 0.88174 4.79974 1.2 4.79974H10.3032L7.5516 2.04814C7.32664 1.82311 7.20026 1.51794 7.20026 1.19974C7.20026 0.881547 7.32664 0.576377 7.5516 0.351344Z" fill="#A24445"/>
</svg>
