<svg width="52" height="62" viewBox="0 0 52 62" fill="none" xmlns="http://www.w3.org/2000/svg">
<rect x="-1" y="1" width="7.37382" height="17.2905" rx="2" transform="matrix(-1 0 0 1 44.666 32.0078)" stroke="#258F41" stroke-width="2"/>
<rect x="-1.35769" y="0.395841" width="7.37382" height="17.2905" rx="2" transform="matrix(-0.876763 -0.480922 -0.480922 0.876763 24.4626 24.9701)" stroke="#258F41" stroke-width="2"/>
<path d="M34.9524 8.22035L30.3524 16.6066C35.1183 19.2208 31.3534 23.745 30.0005 26.2116L15.7317 52.2248L8.90988 48.4829" stroke="#25398F" stroke-width="3"/>
<path d="M28.866 4.88121L24.2659 13.2675C19.5 10.6533 17.7081 16.2596 16.3551 18.7262L2.08575 44.7405L8.90946 48.4834" stroke="#25398F" stroke-width="3"/>
<path d="M29.9472 2.90817C30.2849 2.23774 31.6578 1.27951 34.4481 2.81004C37.2383 4.34057 36.8855 5.8583 36.3602 6.42585" stroke="#258F41" stroke-width="3"/>
<path d="M38.7694 12.1328V21.6978C33.3337 21.6978 34.4587 27.4751 34.4587 30.2883V59.958H42.2394" stroke="#25398F" stroke-width="3"/>
<path d="M45.712 12.1328V21.6978C51.1478 21.6978 50.0227 27.4751 50.0227 30.2883V59.9591H42.2399" stroke="#25398F" stroke-width="3"/>
<path d="M45.646 9.8795C45.6724 9.1293 44.9295 7.62891 41.747 7.62891C38.5645 7.62891 38.144 9.1293 38.3316 9.8795" stroke="#258F41" stroke-width="3"/>
</svg>
