<svg width="56" height="55" viewBox="0 0 56 55" fill="none" xmlns="http://www.w3.org/2000/svg">
<path d="M23.4597 42.4094C23.4141 42.4249 23.3728 42.446 23.3358 42.4755C23.2133 42.5697 23.1037 42.7932 23.0866 42.9337C23.0367 43.3329 23.3031 43.749 23.6249 44.0062C24.3256 44.5671 25.5076 44.74 26.4048 44.8679C27.433 45.0155 28.4912 45.0492 29.5237 44.9255C30.6288 44.792 33.1353 44.1116 32.6012 42.7313C32.446 42.3307 31.9803 42.3335 31.5858 42.3855C30.9706 42.4671 30.3611 42.4924 29.7316 42.4769C28.0938 42.4361 26.4888 42.446 24.8568 42.4727C24.431 42.4783 23.8585 42.2689 23.4569 42.4094H23.4597Z" fill="#352A23"/>
<path d="M35.6061 20.9934C34.951 19.6355 34.2574 18.5729 33.7305 17.8434C33.1964 17.7211 32.4388 17.558 31.5259 17.3992C31.1158 17.3275 30.643 17.2361 30.1345 17.149C28.3943 16.9072 26.1755 16.8285 23.696 17.3219C23.0637 17.4484 22.4699 17.6002 21.9159 17.7689C21.2636 18.7275 20.4305 20.112 19.7085 21.8831C18.948 23.7484 16.4429 29.8151 18.8554 36.3273C19.6244 38.402 20.7709 41.4958 24.015 43.0673C24.2984 43.205 27.8944 44.8763 31.5815 43.2233C34.9965 41.694 36.18 38.3472 36.9704 36.1165C39.4882 28.9998 36.3025 22.4398 35.6046 20.992L35.6061 20.9934Z" fill="#4F392C"/>
<path d="M23.7939 17.8122C26.2032 17.3328 28.3613 17.4081 30.0579 17.6432C30.3477 17.6929 30.6106 17.7412 30.8619 17.7873C31.0592 17.8235 31.2493 17.8584 31.4398 17.8917L31.4402 17.8918C32.2418 18.0313 32.9224 18.174 33.4344 18.2889C33.9326 18.9926 34.5599 19.9759 35.1548 21.2087L35.1542 21.2091L35.1587 21.2183C35.8636 22.6808 38.9374 29.0577 36.499 35.9497C35.7005 38.2034 34.5723 41.3361 31.3771 42.767L31.3769 42.767C27.9076 44.3224 24.4959 42.7451 24.2336 42.6176L24.233 42.6173C21.1902 41.1433 20.0987 38.2427 19.3243 36.1536C16.9942 29.8639 19.3916 23.9844 20.162 22.0951L20.1715 22.0719L20.1715 22.0719C20.8412 20.429 21.6089 19.1263 22.2304 18.1967C22.7205 18.0528 23.242 17.9226 23.7939 17.8122Z" stroke="black" stroke-opacity="0.3"/>
<mask id="mask0_2010_1757" style="mask-type:luminance" maskUnits="userSpaceOnUse" x="17" y="16" width="21" height="28">
<path d="M23.7939 17.8122C26.2032 17.3328 28.3613 17.4081 30.0579 17.6432C30.3477 17.6929 30.6106 17.7412 30.8619 17.7873C31.0592 17.8235 31.2493 17.8584 31.4398 17.8917L31.4402 17.8918C32.2418 18.0313 32.9224 18.174 33.4344 18.2889C33.9326 18.9926 34.5599 19.9759 35.1548 21.2087L35.1542 21.2091L35.1587 21.2183C35.8636 22.6808 38.9374 29.0577 36.499 35.9497C35.7005 38.2034 34.5723 41.3361 31.3771 42.767L31.3769 42.767C27.9076 44.3224 24.4959 42.7451 24.2336 42.6176L24.233 42.6173C21.1902 41.1433 20.0987 38.2427 19.3243 36.1536C16.9942 29.8639 19.3916 23.9844 20.162 22.0951L20.1715 22.0719L20.1715 22.0719C20.8412 20.429 21.6089 19.1263 22.2304 18.1967C22.7205 18.0528 23.242 17.9226 23.7939 17.8122Z" fill="white" stroke="white"/>
</mask>
<g mask="url(#mask0_2010_1757)">
<rect width="9.99994" height="9.99994" rx="1" transform="matrix(-0.707107 -0.707107 -0.707107 0.707107 35.0708 31.0709)" fill="#B92020"/>
</g>
<path d="M33.7963 18.0612C33.8476 19.0508 30.713 20.2751 27.8648 20.292C24.9439 20.3088 21.7467 19.0592 21.798 18.0612C21.8492 17.052 25.2216 16.3042 27.7978 16.3042C30.3784 16.3042 33.7464 17.052 33.7977 18.0612H33.7963Z" fill="#B92020"/>
<path d="M25.7854 15.51C25.8524 15.607 25.8951 15.7012 25.9207 15.7602C25.9207 15.7602 25.9321 15.7884 25.9435 15.8165C25.9877 15.9359 25.9179 16.6444 25.7527 17.6044C26.1215 17.8195 26.459 17.9474 26.7197 18.0247C27.9971 18.4084 29.0994 18.1076 29.4953 17.9952C29.8983 17.8799 30.2244 17.7337 30.4623 17.6129C30.0692 16.5727 30.2088 15.9683 30.4053 15.6112C30.9963 14.5359 32.6298 14.8382 33.4957 13.6012C33.9386 12.9673 34.034 12.2645 34.044 11.7584H22.0884C22.1553 12.4289 22.3647 13.4185 23.1223 14.1382C24.0252 14.9956 25.2129 14.6737 25.7854 15.5115V15.51Z" fill="#4F392C"/>
<mask id="mask1_2010_1757" style="mask-type:luminance" maskUnits="userSpaceOnUse" x="22" y="11" width="13" height="8">
<path d="M25.7854 15.51C25.8524 15.607 25.8951 15.7012 25.9207 15.7602C25.9207 15.7602 25.9321 15.7884 25.9435 15.8165C25.9877 15.9359 25.9179 16.6444 25.7527 17.6044C26.1215 17.8195 26.459 17.9474 26.7197 18.0247C27.9971 18.4084 29.0994 18.1076 29.4953 17.9952C29.8983 17.8799 30.2244 17.7337 30.4623 17.6129C30.0692 16.5727 30.2088 15.9683 30.4053 15.6112C30.9963 14.5359 32.6298 14.8382 33.4957 13.6012C33.9386 12.9673 34.034 12.2645 34.044 11.7584H22.0884C22.1553 12.4289 22.3647 13.4185 23.1223 14.1382C24.0252 14.9956 25.2129 14.6737 25.7854 15.5114V15.51Z" fill="white"/>
</mask>
<g mask="url(#mask1_2010_1757)">
<path d="M21.4688 12.2898C21.7379 12.7803 22.3204 13.0938 22.7975 13.351C23.6762 13.8261 24.7656 14.1424 25.7639 14.2225" stroke="#B92020" stroke-miterlimit="10"/>
<path d="M26.8945 14.3026C27.2833 14.349 27.7205 14.3771 28.1976 14.3673C28.4597 14.3616 28.7089 14.3462 28.941 14.3237" stroke="#B92020" stroke-miterlimit="10"/>
<path d="M25.4575 14.5809C25.7281 14.6329 26.0357 14.6751 26.3732 14.6962C26.5584 14.7074 26.735 14.7117 26.9002 14.7102" stroke="#B92020" stroke-miterlimit="10"/>
<path d="M30.0493 14.2281C30.5891 14.1902 31.3296 14.0932 32.1157 13.8374C32.6512 13.6631 33.0884 13.4564 33.2992 13.3552C33.5142 13.2526 33.6737 13.1753 33.8688 13.0516C34.2747 12.7944 34.5581 12.5133 34.7376 12.3109" stroke="#B92020" stroke-miterlimit="10"/>
<path d="M23.8271 14.706C24.4538 14.9422 25.2043 15.1558 26.0645 15.2627C26.6754 15.3386 27.2394 15.3484 27.7435 15.3217" stroke="#B92020" stroke-miterlimit="10"/>
<path d="M21.6709 13.5365C22.0454 13.7066 22.4684 13.8767 22.9384 14.0299C23.5408 14.2267 24.1019 14.3588 24.5989 14.4474" stroke="#B92020" stroke-miterlimit="10"/>
<path d="M29.0269 15.2542C30.1989 15.1123 31.4393 14.8494 32.7111 14.4123C32.8421 14.3673 32.9703 14.3209 33.097 14.2745" stroke="#B92020" stroke-miterlimit="10"/>
</g>
<path d="M28.0655 13.5141C31.3658 13.5141 34.0412 12.7274 34.0412 11.757C34.0412 10.7866 31.3658 10 28.0655 10C24.7652 10 22.0898 10.7866 22.0898 11.757C22.0898 12.7274 24.7652 13.5141 28.0655 13.5141Z" fill="#771212"/>
<path d="M28.0643 12.7691C30.9162 12.7691 33.2282 12.1826 33.2282 11.459C33.2282 10.7355 30.9162 10.149 28.0643 10.149C25.2123 10.149 22.9004 10.7355 22.9004 11.459C22.9004 12.1826 25.2123 12.7691 28.0643 12.7691Z" fill="#B92020"/>
<path d="M22.6709 12.0536C23.2648 12.488 23.9469 12.7902 24.6704 12.9434" stroke="#4F392C" stroke-miterlimit="10"/>
<path d="M25.5576 13.105C27.0131 13.2287 28.5013 13.2849 29.9568 13.1359C30.6517 13.0657 31.3424 12.942 32.0118 12.7452C33.3291 12.36 33.5627 12.0621 33.6111 11.8259C33.6495 11.6361 33.5798 11.4562 33.5014 11.3227" stroke="#4F392C" stroke-miterlimit="10"/>
<path d="M22.2192 18.1976C23.0324 19.2996 24.5292 19.6482 25.8365 19.9096" stroke="#4F392C" stroke-miterlimit="10"/>
<path d="M26.9531 19.8773C28.3701 19.9926 30.0065 19.9321 31.338 19.3952" stroke="#4F392C" stroke-miterlimit="10"/>
<path d="M32.167 19.0649C32.486 18.8906 32.7509 18.6502 33.0272 18.4183" stroke="#4F392C" stroke-miterlimit="10"/>
<path d="M25.4256 16.8145C25.7645 17.0647 26.1747 17.2038 26.582 17.305C27.0078 17.4104 27.4464 17.4793 27.8851 17.5046C28.7467 17.5552 29.6253 17.447 30.4442 17.1771C30.6265 17.1167 30.759 16.9564 30.7134 16.7568C30.6749 16.5853 30.4713 16.4307 30.2876 16.4912C29.5427 16.7357 28.7652 16.844 27.9819 16.806C27.6059 16.7878 27.2314 16.74 26.8654 16.6528C26.4937 16.5643 26.1248 16.456 25.8144 16.2269C25.4469 15.9556 25.0596 16.546 25.4256 16.8159V16.8145Z" fill="#352A23"/>
<mask id="mask2_2010_1757" style="mask-type:luminance" maskUnits="userSpaceOnUse" x="25" y="16" width="6" height="2">
<path d="M25.4256 16.8145C25.7645 17.0647 26.1747 17.2038 26.582 17.305C27.0078 17.4104 27.4464 17.4793 27.8851 17.5046C28.7467 17.5552 29.6253 17.447 30.4442 17.1771C30.6265 17.1167 30.759 16.9564 30.7134 16.7568C30.6749 16.5853 30.4713 16.4307 30.2876 16.4912C29.5427 16.7357 28.7652 16.844 27.9819 16.806C27.6059 16.7878 27.2314 16.74 26.8654 16.6528C26.4937 16.5643 26.1248 16.456 25.8144 16.2269C25.4469 15.9556 25.0596 16.546 25.4256 16.8159V16.8145Z" fill="white"/>
</mask>
<g mask="url(#mask2_2010_1757)">
<path d="M26.21 16.3562C26.1459 16.4827 26.1274 16.6444 26.1203 16.7835C26.1061 17.09 26.1588 17.4217 26.3952 17.6368" stroke="#352A23" stroke-miterlimit="10"/>
<path d="M27.0403 16.5558C26.9107 17.0183 27.2098 17.5538 27.516 17.887" stroke="#352A23" stroke-miterlimit="10"/>
<path d="M28.0342 16.709C28.0114 17.1279 28.2606 17.4807 28.5355 17.7773" stroke="#352A23" stroke-miterlimit="10"/>
<path d="M28.9941 16.6753C29.0953 17.1012 29.3559 17.3992 29.7048 17.6621" stroke="#352A23" stroke-miterlimit="10"/>
<path d="M29.8047 16.5418C29.9927 16.8777 30.1935 17.1462 30.4968 17.3922" stroke="#352A23" stroke-miterlimit="10"/>
</g>
<path d="M30.7246 15.9865C30.6633 15.794 30.4654 15.7139 30.2774 15.7574C28.876 16.0793 27.3821 16.092 25.9794 15.7771C25.8697 15.7518 25.7757 15.7757 25.7045 15.8263C25.6803 15.8137 25.6532 15.8024 25.6233 15.794C25.347 15.7209 25.0466 15.7237 24.776 15.8179C24.4043 15.9472 24.4157 16.0863 24.0881 16.2185C23.715 16.3675 23.2906 16.3267 22.9146 16.21C22.4162 16.054 21.9832 15.7195 21.4649 15.6253C20.918 15.5255 20.4908 15.6141 20.2544 15.6619C20.1119 15.6914 19.9183 15.7799 19.5323 15.957C19.4554 15.9922 19.3543 16.04 19.3244 16.1384C19.2888 16.2578 19.3814 16.3872 19.4227 16.4434C19.4939 16.5418 19.5807 16.5994 19.6235 16.6219C19.8741 16.754 20.1447 16.4659 20.5691 16.3773C20.8938 16.3098 21.2897 16.4434 22.0815 16.7119C22.5401 16.8665 22.4774 16.8819 22.7238 16.9424C23.0257 17.0169 23.5783 17.1462 24.1992 16.9424C24.3715 16.8861 24.6478 16.7709 24.9383 16.5277C24.7874 16.806 24.5851 17.0478 24.2619 17.142C23.6637 17.3149 23.0029 17.0633 22.3977 17.0464C21.1088 17.0127 20.3213 18.0374 19.7004 19.0114C19.5978 19.1717 19.6847 19.4022 19.8456 19.4865C20.0251 19.5821 20.2244 19.5034 20.327 19.3432C20.6061 18.906 20.9023 18.4492 21.3125 18.1203C21.5161 17.9572 21.7497 17.8307 22.0075 17.7773C22.3065 17.7141 22.6213 17.7576 22.9203 17.8012C23.5569 17.894 24.2305 17.9924 24.8215 17.6677C25.2944 17.4076 25.5521 16.9227 25.7544 16.4448C25.7729 16.4518 25.7928 16.4602 25.8142 16.4645C27.3451 16.8074 28.9629 16.7807 30.491 16.4307C30.679 16.3872 30.7773 16.1608 30.7231 15.9894L30.7246 15.9865Z" fill="#352A23"/>
<mask id="mask3_2010_1757" style="mask-type:luminance" maskUnits="userSpaceOnUse" x="19" y="15" width="12" height="5">
<path d="M30.7246 15.9865C30.6633 15.794 30.4654 15.7139 30.2774 15.7574C28.876 16.0793 27.3821 16.092 25.9794 15.7771C25.8697 15.7518 25.7757 15.7757 25.7045 15.8263C25.6803 15.8137 25.6532 15.8024 25.6233 15.794C25.347 15.7209 25.0466 15.7237 24.776 15.8179C24.4043 15.9472 24.4157 16.0863 24.0881 16.2185C23.715 16.3675 23.2906 16.3267 22.9146 16.21C22.4162 16.054 21.9832 15.7195 21.4649 15.6253C20.918 15.5255 20.4908 15.6141 20.2544 15.6619C20.1119 15.6914 19.9183 15.7799 19.5323 15.957C19.4554 15.9922 19.3543 16.04 19.3244 16.1384C19.2888 16.2578 19.3814 16.3872 19.4227 16.4434C19.4939 16.5418 19.5807 16.5994 19.6235 16.6219C19.8741 16.754 20.1447 16.4659 20.5691 16.3773C20.8938 16.3098 21.2897 16.4434 22.0815 16.7119C22.5401 16.8665 22.4774 16.8819 22.7238 16.9424C23.0257 17.0169 23.5783 17.1462 24.1992 16.9424C24.3715 16.8861 24.6478 16.7709 24.9383 16.5277C24.7874 16.806 24.5851 17.0478 24.2619 17.142C23.6637 17.3149 23.0029 17.0633 22.3977 17.0464C21.1088 17.0127 20.3213 18.0374 19.7004 19.0114C19.5978 19.1717 19.6847 19.4022 19.8456 19.4865C20.0251 19.5821 20.2244 19.5034 20.327 19.3432C20.6061 18.906 20.9023 18.4492 21.3125 18.1203C21.5161 17.9572 21.7497 17.8307 22.0075 17.7773C22.3065 17.7141 22.6213 17.7576 22.9203 17.8012C23.5569 17.894 24.2305 17.9924 24.8215 17.6677C25.2944 17.4076 25.5521 16.9227 25.7544 16.4448C25.7729 16.4518 25.7928 16.4602 25.8142 16.4645C27.3451 16.8074 28.9629 16.7807 30.491 16.4307C30.679 16.3872 30.7773 16.1608 30.7231 15.9894L30.7246 15.9865Z" fill="white"/>
</mask>
<g mask="url(#mask3_2010_1757)">
<path d="M26.0122 15.6127C26.0236 16.0161 26.2045 16.4841 26.5135 16.7498" stroke="#352A23" stroke-miterlimit="10"/>
<path d="M26.8638 15.6309C26.8837 16.1651 27.2939 16.6613 27.6684 17.0099" stroke="#352A23" stroke-miterlimit="10"/>
<path d="M27.7954 15.7813C27.8666 16.2888 28.2739 16.65 28.657 16.9522" stroke="#352A23" stroke-miterlimit="10"/>
<path d="M28.7568 15.8024C28.7597 15.9725 28.8665 16.1384 28.9605 16.2747C29.1214 16.5052 29.3336 16.6964 29.57 16.8482" stroke="#352A23" stroke-miterlimit="10"/>
<path d="M29.5713 15.7434C29.6881 16.151 29.9572 16.4265 30.336 16.6205" stroke="#352A23" stroke-miterlimit="10"/>
<path d="M25.6777 15.7082C25.2191 15.905 25.4455 16.5924 25.7118 16.8412" stroke="#352A23" stroke-miterlimit="10"/>
<path d="M24.7136 16.7568C24.6111 16.8356 24.6339 17.0281 24.641 17.1364C24.6595 17.4133 24.8062 17.6677 24.9999 17.8645" stroke="#352A23" stroke-miterlimit="10"/>
<path d="M24.0625 17.0661C23.6509 17.3261 23.5356 17.8111 23.4302 18.1878" stroke="#352A23" stroke-miterlimit="10"/>
<path d="M22.9421 17.0267C22.8837 17.09 22.8054 17.1841 22.7327 17.3107C22.6872 17.3894 22.5875 17.5651 22.5633 17.7787C22.522 18.1273 22.7 18.4099 22.7726 18.5111" stroke="#352A23" stroke-miterlimit="10"/>
<path d="M21.5903 17.0422C21.3553 17.5538 21.0392 18.0472 21.4251 18.5602" stroke="#352A23" stroke-miterlimit="10"/>
<path d="M20.6221 17.5018C20.4755 17.6607 20.4455 17.9629 20.4299 18.1625C20.4014 18.5406 20.4256 19.0044 20.7275 19.2813" stroke="#352A23" stroke-miterlimit="10"/>
<path d="M19.9356 17.0028C19.7248 16.8229 19.8473 16.4223 19.9185 16.1974C20.0595 15.7532 20.4155 15.4341 20.8826 15.3596" stroke="#352A23" stroke-miterlimit="10"/>
<path d="M20.7117 16.7835C20.6134 16.5151 20.8356 16.1454 21.0008 15.9556C21.2586 15.659 21.5875 15.5072 21.9763 15.4468" stroke="#352A23" stroke-miterlimit="10"/>
<path d="M22.1602 16.9283C22.1744 16.7329 22.3111 16.5825 22.4407 16.4448C22.67 16.203 22.942 16.0189 23.2567 15.9064" stroke="#352A23" stroke-miterlimit="10"/>
<path d="M23.5516 17.1898C23.5174 17.1068 23.479 16.9733 23.4918 16.8103C23.5245 16.4181 23.8378 16.1904 23.892 16.1524" stroke="#352A23" stroke-miterlimit="10"/>
<path d="M24.6795 16.7625C24.5727 16.338 24.5001 15.7856 25.0085 15.5705" stroke="#352A23" stroke-miterlimit="10"/>
</g>
</svg>
