<svg width="56" height="55" viewBox="0 0 56 55" fill="none" xmlns="http://www.w3.org/2000/svg">
<g clip-path="url(#clip0_2010_1742)">
<path d="M35.0313 31.9973C34.9898 30.599 34.9362 29.1927 34.5984 27.814C34.2359 26.3387 33.5555 24.9241 32.9805 23.4912C31.2342 19.1388 30.4556 14.5469 30.6872 10.015L26.1896 9.92366C26.4878 14.4667 25.7766 19.0281 24.0932 23.311C23.5385 24.7219 22.8791 26.1084 22.5381 27.5693C22.22 28.934 22.188 30.3394 22.1664 31.7363C22.094 36.5676 22.1547 41.4035 22.3444 46.2391C22.3632 46.7017 22.3924 47.1929 22.703 47.586C23.08 48.0627 23.7772 48.2852 24.4343 48.447C25.8336 48.7922 27.024 48.9008 28.7241 48.935C30.4228 48.969 31.6137 48.9083 33.0076 48.62C33.6625 48.4841 34.3584 48.2903 34.727 47.8289C35.0317 47.4479 35.0543 46.9585 35.0664 46.4959C35.1863 41.6671 35.1748 36.8316 35.0313 31.9962L35.0313 31.9973Z" fill="#699E55"/>
<path d="M33.0081 48.62C33.663 48.4841 34.3589 48.2903 34.7274 47.8289C34.8937 47.6216 34.9742 47.3812 35.0174 47.132C34.9873 47.14 28.7088 48.7585 22.4034 46.8766C22.4499 47.1281 22.5334 47.3722 22.7034 47.586C23.0805 48.0627 23.7777 48.2852 24.4347 48.447C25.8341 48.7922 27.0245 48.9008 28.7246 48.935C30.4233 48.9691 31.6142 48.9083 33.0081 48.62Z" fill="#382A2A"/>
<path d="M22.6667 31.7438C22.673 31.326 22.6807 30.9113 22.6965 30.4993C24.0199 30.5285 25.2999 30.5659 26.5633 30.6029C29.1954 30.6799 31.7552 30.7548 34.4841 30.7487C34.5065 31.1675 34.5213 31.588 34.5333 32.0105L34.5333 32.011C34.6634 36.4402 34.6827 40.8695 34.5928 45.2949C30.7224 45.966 26.6866 45.8832 22.8031 45.0515C22.6478 40.6144 22.6012 36.1774 22.6667 31.7438ZM22.6667 31.7438L22.1668 31.7363L22.6667 31.7438Z" fill="white" stroke="#699E55"/>
<path d="M31.0783 34.8551C31.0884 36.2049 29.7948 37.3162 28.1849 37.2775C26.5752 37.2354 25.2652 36.0658 25.2572 34.7242C25.2479 33.3814 26.5437 32.3141 28.1502 32.3433C29.7562 32.3782 31.0682 33.5041 31.0783 34.8551Z" fill="#BA3C1C"/>
<path d="M27.0784 37.4613C26.6087 37.9413 26.1201 38.4303 25.4582 38.6924C25.3409 38.7387 25.2157 38.7785 25.0829 38.7716C25.0423 38.7696 25.0007 38.7629 24.9703 38.7387C24.9014 38.686 24.9393 38.5956 24.9862 38.5347C25.1469 38.3269 25.369 38.1424 25.4444 37.8958C25.4763 37.7922 25.467 37.6588 25.3553 37.5971C24.901 37.8616 24.4149 38.0832 23.906 38.2547C23.7229 38.3165 23.5248 38.3726 23.3218 38.3303C23.279 38.3212 23.2338 38.3062 23.2125 38.2734C23.1911 38.2418 23.2056 38.1991 23.2486 38.2059C23.6947 37.8854 24.1428 37.5559 24.5902 37.2183C24.7736 37.0803 24.9571 36.9412 25.1354 36.796C25.6089 36.4108 26.3543 35.8692 26.8329 35.4728C27.019 35.3189 27.2036 35.165 27.3896 35.0111C27.4377 34.971 27.4886 34.93 27.5566 34.9214C27.6133 34.9143 27.671 34.9315 27.7241 34.9518C27.8292 34.9911 27.9305 35.0416 28.0229 35.0995C28.0657 35.127 28.1096 35.157 28.1627 35.1611C28.2422 35.1673 28.3066 35.1158 28.3594 35.068C28.4499 34.9874 28.5533 34.9032 28.686 34.8939C28.7396 34.89 28.795 34.9001 28.8491 34.9089C29.0818 34.9489 29.3254 34.9932 29.5136 35.1185C30.5764 35.8572 33.9975 37.968 34.0746 38.0594C34.0896 38.0836 34.1042 38.1124 34.0965 38.1395C34.083 38.1857 34.0182 38.2072 33.9627 38.2167C33.6373 38.2675 33.3209 38.1484 33.0298 38.0289C32.7373 37.9093 32.4436 37.7861 32.1515 37.662C32.0129 37.6028 31.8548 37.542 31.7069 37.5836C31.7212 37.7438 31.7764 37.9003 31.8666 38.0399C31.9356 38.1456 32.0262 38.2437 32.0663 38.3598C32.1064 38.4759 32.0782 38.6225 31.9552 38.6879C31.8513 38.7421 31.7194 38.7237 31.6037 38.6951C30.7086 38.4722 30.0701 37.8011 29.2459 37.4061C29.1386 37.5949 29.1562 37.82 29.2088 38.0281C29.26 38.2362 29.3438 38.4399 29.3582 38.652C29.3709 38.8317 29.2892 39.0525 29.0795 39.0777C28.9462 39.0939 28.82 39.0207 28.724 38.9371C28.3376 38.5992 28.2646 38.0931 27.9933 37.6834C27.9644 37.6397 27.9191 37.59 27.8597 37.5958C27.6069 37.8679 27.4076 38.1752 27.2739 38.5038C27.2548 38.5508 27.2356 38.6 27.1909 38.6323C27.1464 38.6634 27.0676 38.6665 27.0316 38.6233C27.0123 38.6011 27.0103 38.5721 27.0097 38.5444C26.9989 38.1953 27.0183 37.8014 27.0814 37.4592L27.0784 37.4613Z" fill="#382A2A"/>
<path d="M29.512 35.1207C29.3238 34.9954 29.0801 34.9523 28.8474 34.9111C28.7934 34.9023 28.7394 34.8923 28.6844 34.8961C28.5517 34.9054 28.4483 34.9896 28.3578 35.0702C28.3036 35.1179 28.2391 35.1705 28.1611 35.1633C28.108 35.1592 28.0641 35.1281 28.0213 35.1017C27.929 35.0426 27.8275 34.9932 27.7225 34.9539C27.6693 34.9337 27.6117 34.9165 27.555 34.9236C27.4884 34.9323 27.436 34.9743 27.388 35.0133C27.2019 35.1683 27.0173 35.3223 26.8313 35.475C26.5658 35.6942 26.2196 35.959 25.8823 36.2164C25.9497 36.2528 26.0399 36.2471 26.1158 36.2288C26.5065 36.1324 26.7334 35.7776 27.1198 35.6646C27.081 35.9649 26.8166 36.206 26.7599 36.5014C26.7886 36.5302 26.8403 36.533 26.878 36.5175C26.9157 36.502 26.9432 36.4742 26.9692 36.4462C27.0595 36.3495 27.1513 36.2528 27.2417 36.1549C27.2799 36.1694 27.2778 36.2142 27.2765 36.2487C27.2739 36.2831 27.2912 36.3306 27.3321 36.328C27.3547 36.3263 27.3701 36.309 27.3825 36.2939C27.5293 36.1035 27.6708 35.9081 27.8042 35.7086C27.8677 35.6144 27.9717 35.5049 28.0952 35.541C28.1556 35.5584 28.1967 35.6077 28.2237 35.6571C28.2964 35.7884 28.3004 35.9351 28.3216 36.0775C28.349 36.2664 28.4076 36.4519 28.495 36.6282C28.5144 36.6678 28.5365 36.7076 28.5737 36.7347C28.6122 36.763 28.6703 36.7745 28.7113 36.7523C28.7627 36.7228 28.7607 36.6593 28.7536 36.6057C28.7297 36.4436 28.7071 36.2827 28.6832 36.1206C28.7745 36.2107 28.8657 36.3008 28.9557 36.3896C29.0026 36.4359 29.0536 36.4849 29.1206 36.5074C29.1876 36.5299 29.2772 36.5161 29.3067 36.4607C29.3231 36.4309 29.3189 36.3948 29.3102 36.3619C29.2656 36.1958 29.123 36.0613 29.0426 35.904C29.023 35.8668 29.0066 35.8252 29.0153 35.7855C29.0226 35.7457 29.0593 35.707 29.1071 35.7061C29.1464 35.7057 29.1798 35.7279 29.2106 35.7476C29.4191 35.8826 29.6615 35.9787 29.9146 36.0272C29.8635 35.8895 29.8124 35.7529 29.7613 35.6152C29.8224 35.5876 29.8933 35.6323 29.9479 35.6712C30.0768 35.7642 30.2209 35.8423 30.3749 35.9015C30.4867 35.9448 30.6291 35.9732 30.7235 35.9137C30.2264 35.5914 29.787 35.3024 29.5108 35.1183L29.512 35.1207Z" fill="white"/>
<path d="M24.3294 42.4108C24.14 42.3904 23.9509 42.3676 23.7604 42.3447C23.7599 42.1878 23.7582 42.0297 23.7563 41.8728C23.9455 41.8956 24.1348 41.916 24.3255 41.9366C24.3273 42.0947 24.3276 42.2527 24.3294 42.4108Z" fill="#382A2A"/>
<path d="M30.5726 42.6955C28.7112 42.7307 26.8443 42.6582 24.987 42.4792C24.9853 42.32 24.985 42.1608 24.9833 42.0027C26.8411 42.1748 28.7068 42.2461 30.5679 42.2144C30.5694 42.3747 30.571 42.5351 30.5711 42.6966L30.5726 42.6955Z" fill="#D67533"/>
<path d="M24.34 43.9371C24.1509 43.9132 23.9605 43.8892 23.7716 43.8629C23.7712 43.7061 23.7694 43.548 23.7676 43.391C23.9565 43.4161 24.147 43.4401 24.3361 43.4629C24.3379 43.621 24.3382 43.779 24.34 43.9371Z" fill="#382A2A"/>
<path d="M30.5851 44.2462C28.7244 44.2918 26.855 44.2145 24.998 44.0136C24.9963 43.8544 24.9961 43.6952 24.9943 43.5371C26.8518 43.7311 28.72 43.8072 30.5804 43.765C30.582 43.9254 30.5835 44.0858 30.5836 44.2472L30.5851 44.2462Z" fill="#D67533"/>
<path d="M24.9693 20.824C27.4046 20.8819 29.839 21.1127 32.2388 21.5183C29.8035 21.4616 27.3692 21.2285 24.9693 20.824Z" fill="black"/>
<g style="mix-blend-mode:color-burn" opacity="0.1">
<path d="M35.0617 46.6685C33.7583 47.0572 32.3162 47.2068 30.912 47.2844C29.77 47.3478 28.6043 47.3737 27.4845 47.1344C26.3659 46.8964 24.8532 46.4018 24.7525 45.4588C24.6225 44.2415 24.4911 43.0241 24.3611 41.8079C24.3174 41.3952 24.2722 40.9824 24.2285 40.5696C24.1543 39.8813 24.0815 39.193 24.01 38.5049C23.8695 37.153 23.735 35.7232 23.7391 34.3698C23.7487 30.9242 24.2734 27.371 25.5782 24.1298C27.2152 20.0635 27.4433 15.6859 27.6578 11.373C27.6819 10.901 27.7033 10.4264 27.6573 9.95356L26.1899 9.92365C26.488 14.4667 25.7769 19.0281 24.0935 23.311C23.5388 24.7219 22.8793 26.1084 22.5384 27.5693C22.2203 28.934 22.1883 30.3393 22.1667 31.7363C22.0943 36.5676 22.1549 41.4035 22.3447 46.239C22.3635 46.7017 22.3927 47.1929 22.7032 47.586C23.0803 48.0627 23.7775 48.2852 24.4345 48.447C25.8339 48.7921 27.0243 48.9008 28.7244 48.935C30.4231 48.969 31.614 48.9083 33.0079 48.62C33.6628 48.4841 34.3587 48.2903 34.7272 47.8289C34.9947 47.4946 35.0453 47.0777 35.0604 46.6672L35.0617 46.6685Z" fill="#382A2A"/>
</g>
<path opacity="0.1" d="M22.1413 34.3736C22.1403 34.6572 22.1378 34.9418 22.1368 35.2254C22.1367 35.6243 22.138 36.0233 22.1378 36.4223C22.1383 36.5964 22.1375 36.7693 22.1394 36.9436C22.1411 37.4095 22.1456 37.8745 22.1502 38.3396C22.1506 38.4434 22.1524 38.5461 22.1527 38.6499C22.1578 39.1623 22.1657 39.6748 22.175 40.1875C22.1765 40.2406 22.1765 40.2948 22.178 40.348C22.1874 40.8941 22.1982 41.4415 22.2119 41.9879C22.2119 42.0064 22.2133 42.0238 22.2133 42.0422C22.2268 42.6083 22.2417 43.1755 22.2594 43.7419C22.2767 44.314 22.2955 44.8851 22.317 45.4575C23.186 45.6553 24.0623 45.8134 24.9427 45.936C24.8388 45.7919 24.7725 45.6334 24.7538 45.459C24.6238 44.2417 24.4925 43.0242 24.3624 41.808C24.3187 41.3953 24.2736 40.9825 24.2299 40.5698C24.1556 39.8814 24.0828 39.1932 24.0114 38.505C23.8708 37.1531 23.7363 35.7233 23.7404 34.37C23.744 32.9336 23.8403 31.4779 24.0424 30.0338C23.4442 30.0185 22.839 30.0037 22.2209 29.9914C22.2039 30.2818 22.1939 30.5727 22.1853 30.8638C22.1767 31.1548 22.1723 31.4462 22.168 31.7364C22.1591 32.3203 22.1529 32.9056 22.1482 33.4898C22.1464 33.7837 22.1445 34.0787 22.1442 34.3727L22.1413 34.3736Z" fill="#D67533"/>
<path d="M28.4392 10.1354C29.9627 10.1662 30.8698 10.0177 30.8698 10.0177C30.9839 9.77865 30.815 9.40463 30.8129 9.16118C30.8108 8.80934 30.9741 8.40579 30.9716 8.18537C30.9678 7.51171 30.1955 7.424 28.4184 7.38731C26.6426 7.35187 25.8718 7.4084 25.8768 8.08332C25.878 8.30363 26.0482 8.71351 26.0504 9.06535C26.0525 9.3088 25.8878 9.67535 26.0064 9.91978C26.0064 9.91978 26.9171 10.1047 28.4392 10.1354Z" fill="#D67533"/>
<path opacity="0.5" d="M30.8125 9.16232C30.8126 9.17962 30.8139 9.19817 30.8167 9.21684C29.4128 9.29103 27.9977 9.27441 26.5897 9.1661C26.4153 9.15254 26.2355 9.13626 26.0825 9.06326C26.0717 9.0578 26.0609 9.05235 26.0503 9.04461C26.0462 8.91631 26.0218 8.7795 25.994 8.64935C26.1411 8.63428 26.2885 8.63421 26.436 8.63299C27.9131 8.62906 29.3901 8.66202 30.8668 8.73531C30.8376 8.87601 30.8121 9.02277 30.8125 9.16232Z" fill="white"/>
<g opacity="0.5">
<path d="M32.5608 26.6374C32.6026 26.6948 32.6486 26.7538 32.7173 26.7902C32.8615 26.8683 33.0628 26.824 33.1761 26.7221C33.2893 26.6202 33.3286 26.4757 33.3407 26.3371C33.3685 26.0164 33.2664 25.6868 33.0592 25.409C32.9321 25.2377 32.556 24.821 32.2666 24.9496C31.7724 25.1683 32.3722 26.3725 32.5608 26.6374Z" fill="white"/>
<path d="M31.7731 22.6282C31.8185 22.7851 31.8435 22.9865 31.6787 23.0671C31.578 23.1158 31.4409 23.0924 31.3428 23.0352C31.2448 22.978 31.1756 22.8931 31.109 22.8107C30.9874 22.6594 30.8644 22.508 30.7589 22.3487C30.3795 21.7762 30.2281 21.1233 30.1602 20.4793C30.1396 20.2747 30.1268 20.0604 30.2227 19.8742C30.3053 19.7146 30.6453 19.4401 30.8358 19.6255C30.9337 19.7208 30.9573 19.9947 30.997 20.1166C31.0502 20.281 31.1034 20.4454 31.1551 20.6108C31.3682 21.2823 31.5742 21.9555 31.7717 22.6293L31.7731 22.6282Z" fill="white"/>
</g>
</g>
<defs>
<clipPath id="clip0_2010_1742">
<rect width="14.1074" height="41.499" fill="white" transform="translate(24 7) rotate(4.44532)"/>
</clipPath>
</defs>
</svg>
