<svg width="53" height="61" viewBox="0 0 53 61" fill="none" xmlns="http://www.w3.org/2000/svg">
<path d="M9.61861 9V17.4606C9.61861 17.4606 2 20.2812 2 25.0751C2 29.869 2 28.3385 2 28.3385M19.8977 9V17.4606C19.8977 17.4606 27.5163 19.2812 27.5163 25.0751C27.5163 30.869 27.5163 28.3385 27.5163 28.3385M2 28.3385H27.5163M2 28.3385V52.2699M27.5163 28.3385V52.2699M2 52.2699V59.2801H27.5163V52.2699M2 52.2699H27.5163" stroke="#25398F" stroke-width="3" stroke-linecap="square"/>
<path d="M22.7818 37.6063C22.7818 40.2097 18.9918 42.3201 14.3167 42.3201C9.64153 42.3201 5.85156 40.2097 5.85156 37.6063C5.85156 35.003 9.64153 32.8926 14.3167 32.8926C18.9918 32.8926 22.7818 35.003 22.7818 37.6063Z" stroke="#258F41" stroke-width="2.5" stroke-linecap="round"/>
<path d="M8.74023 46.791H20.1077" stroke="#258F41" stroke-width="2.5" stroke-linecap="square"/>
<path d="M32.377 44.3747V39.0566H51.0002V44.3747M32.377 44.3747H51.0002M32.377 44.3747V52.4727M51.0002 44.3747V51.3849M32.377 55.857V58.9995H51.0002V55.857M32.377 55.857V52.4727M32.377 55.857H36.5898M51.0002 55.857H47.2514M51.0002 55.857V51.3849M32.377 52.4727L35.6421 49.2094L39.6328 52.9562L36.5898 55.857M36.5898 55.857H47.2514M47.2514 55.857L43.6235 52.231L47.7351 48.1216L51.0002 51.3849" stroke="#25398F" stroke-width="2.5" stroke-linecap="round"/>
<path d="M20.2961 6.0374C20.3343 4.75315 18.5867 2.18555 15.1989 2.18555C10.5904 2.18555 9.70412 5.07511 9.7041 6.0374" stroke="#258F41" stroke-width="2.5"/>
</svg>
