<svg width="49" height="34" viewBox="0 0 49 34" fill="none" xmlns="http://www.w3.org/2000/svg">
<path fill-rule="evenodd" clip-rule="evenodd" d="M20.121 8.11111C20.442 7.45418 21.1307 7 21.9286 7H27.0714C27.8693 7 28.558 7.45418 28.879 8.11111H29.3571C31.0929 8.11111 32.5 9.47913 32.5 11.1667V23.9444C32.5 25.632 31.0929 27 29.3571 27H19.6429C17.9071 27 16.5 25.632 16.5 23.9444V11.1667C16.5 9.47913 17.9071 8.11111 19.6429 8.11111H20.121ZM19.9286 9.77778H19.6429C18.8539 9.77778 18.2143 10.3996 18.2143 11.1667V23.9444C18.2143 24.7115 18.8539 25.3333 19.6429 25.3333H29.3571C30.1461 25.3333 30.7857 24.7115 30.7857 23.9444V11.1667C30.7857 10.3996 30.1461 9.77778 29.3571 9.77778H29.0714V10.6111C29.0714 11.0713 28.6877 11.4444 28.2143 11.4444H20.7857C20.3123 11.4444 19.9286 11.0713 19.9286 10.6111V9.77778ZM27.3571 9.77778V8.94444C27.3571 8.79103 27.2292 8.66667 27.0714 8.66667H21.9286C21.7708 8.66667 21.6429 8.79103 21.6429 8.94444V9.77778H27.3571ZM19.9286 15.0556C19.9286 14.5953 20.3123 14.2222 20.7857 14.2222H28.2143C28.6877 14.2222 29.0714 14.5953 29.0714 15.0556C29.0714 15.5158 28.6877 15.8889 28.2143 15.8889H20.7857C20.3123 15.8889 19.9286 15.5158 19.9286 15.0556ZM19.9286 18.3889C19.9286 17.9287 20.3123 17.5556 20.7857 17.5556H28.2143C28.6877 17.5556 29.0714 17.9287 29.0714 18.3889C29.0714 18.8491 28.6877 19.2222 28.2143 19.2222H20.7857C20.3123 19.2222 19.9286 18.8491 19.9286 18.3889ZM19.9286 21.7222C19.9286 21.262 20.3123 20.8889 20.7857 20.8889H24.7185C25.1919 20.8889 25.5756 21.262 25.5756 21.7222C25.5756 22.1825 25.1919 22.5556 24.7185 22.5556H20.7857C20.3123 22.5556 19.9286 22.1825 19.9286 21.7222Z" fill="#333333"/>
</svg>
