<svg width="56" height="55" viewBox="0 0 56 55" fill="none" xmlns="http://www.w3.org/2000/svg">
<path opacity="0.79" d="M29.2213 10.1421C29.6916 10.1956 30.0322 10.5066 30.0174 10.8656C29.7875 16.3988 31.9472 20.6945 33.4303 24.4717C34.9355 28.3059 34.4048 37.4156 34.0303 44.0537C34.0082 44.445 33.9832 44.8475 33.7694 45.2043C33.5556 45.561 33.1075 45.8665 32.3291 45.9323C29.3009 46.405 26.1402 46.3849 23.0737 45.8476C22.5622 45.7573 22.1258 45.4953 21.9091 45.1329C21.4226 44.319 21.396 43.3446 21.3975 42.4304C21.399 39.2039 21.4005 35.9763 21.4019 32.7498C21.4019 30.2123 21.4078 27.6536 22.0934 25.1686C23.0339 21.7637 25.6949 18.1291 25.9397 10.6984C25.9529 10.3137 26.3687 10.0049 26.8773 10.0072C27.5717 10.0105 28.3162 10.0373 29.2213 10.1409V10.1421Z" fill="#35A78F"/>
<g opacity="0.56">
<mask id="mask0_2010_1736" style="mask-type:luminance" maskUnits="userSpaceOnUse" x="21" y="10" width="14" height="37">
<path d="M29.4601 10.1711C29.7948 10.2134 30.038 10.4364 30.0248 10.6928C29.7417 16.3097 31.931 20.6566 33.4288 24.4729C34.934 28.307 34.4033 37.4168 34.0288 44.0548C34.0067 44.4462 33.9817 44.8486 33.7679 45.2054C33.5541 45.5622 33.1059 45.8676 32.3275 45.9334C29.2832 46.4084 26.1062 46.3861 23.0236 45.8398C22.5415 45.7539 22.1361 45.5064 21.9267 45.1675C21.4211 44.3469 21.3945 43.358 21.3945 42.4316C21.396 39.2051 21.3975 35.9774 21.399 32.751C21.399 30.2135 21.4049 27.6548 22.0904 25.1697C23.0663 21.6321 25.4133 18.2841 25.4443 14.4957C25.4443 14.4723 25.4472 14.4489 25.4517 14.4255C25.7318 13.13 25.8954 11.8211 25.9411 10.5089C25.9514 10.2313 26.2448 10.0083 26.6119 10.0083C27.4404 10.0061 28.3235 10.0284 29.4572 10.1711H29.4601Z" fill="white"/>
</mask>
<g mask="url(#mask0_2010_1736)">
<path opacity="0.24" d="M24.2163 17.1703C26.4571 17.565 28.81 17.5873 30.9035 17.3153C34.1438 21.6879 35.9129 26.6793 35.997 31.6918C36.022 33.1523 35.9056 34.6128 35.7906 36.07C35.5842 38.6621 35.3793 41.2553 35.1729 43.8475C35.1139 44.5855 35.0328 45.3726 34.4343 45.9568C33.6264 46.7451 32.161 46.9078 30.8445 46.9602C28.6479 47.0472 26.4409 46.9915 24.2561 46.7941C23.4732 46.7239 22.6329 46.6124 22.0816 46.1865C21.7248 45.9111 21.5376 45.5365 21.3783 45.1708C19.7405 41.4359 19.9277 37.4045 20.1311 33.4745C20.4068 28.1732 20.7547 22.6612 24.2148 17.1703H24.2163Z" fill="#3D1A1B"/>
</g>
</g>
<path d="M25.9469 10.491C27.3297 10.4598 28.773 10.4877 30.1087 10.6538C30.3313 10.5211 30.3298 10.2703 30.3092 10.0562C30.262 9.59577 30.3254 9.10633 30.2797 8.64588C30.2605 8.46304 30.2325 8.31811 30.0571 8.19101C29.8861 8.06614 29.5146 8.02154 29.2772 8.01485C27.66 7.97137 26.4349 8.03381 25.9086 8.06837C25.742 8.07952 25.6093 8.1754 25.5872 8.30027C25.5046 8.76741 25.338 9.87784 25.5194 10.2725C25.5813 10.4085 25.7567 10.4944 25.9469 10.4899V10.491Z" fill="#3D1A1B"/>
<path d="M25.5938 9.96925C27.0857 9.81763 28.6174 9.86668 30.0858 10.1142C28.6322 10.0205 27.0533 9.96925 25.5938 9.96925Z" fill="black"/>
<path d="M25.5508 9.44078C27.0265 9.24344 28.5627 9.28246 30.0177 9.55227L29.459 9.51436C28.1587 9.4196 26.8555 9.40622 25.5508 9.44078Z" fill="black"/>
<path d="M25.5654 9.00821C27.0529 8.76739 28.6245 8.80307 30.0914 9.10632C29.9027 9.09071 29.7154 9.07064 29.5267 9.05727C28.2117 8.94132 26.8864 8.93574 25.5669 9.00933L25.5654 9.00821Z" fill="black"/>
<path d="M25.6704 8.52993C27.1579 8.29134 28.7309 8.33148 30.1949 8.64588C30.0062 8.62915 29.8189 8.60797 29.6302 8.59236C28.3152 8.46861 26.9913 8.45857 25.6704 8.52993Z" fill="black"/>
<path d="M21.7942 43.4416C25.7864 43.9968 29.9246 43.9467 33.8918 43.2933C33.8918 43.2933 34.0201 29.2702 34.0157 29.2502C29.9453 29.5835 25.8248 29.569 21.7603 29.2067L21.7956 43.4416H21.7942Z" fill="#FEAC99"/>
<path d="M26.0309 31.7219C25.7596 31.5502 25.3969 31.4811 25.0446 31.4487C24.7778 31.4242 24.508 31.4164 24.2411 31.4264C24.1556 31.4298 24.1261 31.5123 24.1969 31.5468L25.9321 32.4109C25.9999 32.4443 26.0736 32.48 26.1562 32.48C26.2387 32.48 26.3242 32.4254 26.3066 32.4354C26.454 32.1946 26.3036 31.8958 26.0338 31.723L26.0309 31.7219Z" fill="#3D1A1B"/>
<path d="M23.134 33.4076L24.5611 34.1178C24.7129 34.1936 24.9149 34.2705 25.1198 34.1992C25.136 34.0163 25.1478 33.819 25.0136 33.6663C24.8426 33.4723 24.4977 33.4176 24.1895 33.3797L23.277 33.2682C23.2298 33.2627 23.1812 33.2571 23.1355 33.2682C23.0912 33.2794 23.0529 33.314 23.0632 33.3485C23.0721 33.3753 23.1045 33.392 23.134 33.4076Z" fill="#3D1A1B"/>
<path d="M25.5299 34.9673C25.0743 35.731 24.6129 36.4958 24.0158 37.2038C23.9509 37.2807 23.8817 37.3588 23.7844 37.4134C23.6856 37.468 23.5514 37.4948 23.4394 37.4591C23.345 37.429 23.2787 37.3599 23.1666 37.3565C23.1224 37.3554 23.0782 37.3721 23.059 37.4011C23.034 37.4402 23.0649 37.4747 23.0929 37.5048L23.8581 38.3031C23.9126 38.3599 23.9908 38.4023 24.0807 38.4179C24.3107 38.4581 24.4227 38.3131 24.5038 38.1849C24.8325 37.6642 25.1466 37.1358 25.3648 36.5839C25.5741 36.0543 25.6935 35.4991 25.5815 34.9718C25.577 34.9517 25.5417 34.9484 25.5299 34.9662V34.9673Z" fill="#3D1A1B"/>
<path d="M32.6359 33.664C32.5017 33.5837 32.3219 33.4488 32.1332 33.353C32.1066 33.3318 32.0772 33.3128 32.0447 33.2983C31.8088 33.1868 31.5037 33.2136 31.2265 33.2448C30.9376 33.2772 30.6486 33.3095 30.3597 33.3407C30.3818 33.1322 30.398 32.9226 30.4334 32.7208C30.4643 32.5402 30.5469 32.4109 30.4393 32.247C30.4009 32.189 30.0884 32.0686 29.9012 32.0006C29.8555 31.9839 29.8628 31.9326 29.913 31.9237C30.2712 31.8601 31.1793 31.6985 31.6747 31.6093C31.8147 31.5836 31.9828 31.5379 31.9784 31.4175C31.9769 31.3651 31.9401 31.3161 31.8855 31.2826C31.6098 31.1132 31.2516 31.0217 30.8948 31.0284C29.652 31.4086 28.3886 31.6516 27.1045 31.7464C27.0839 31.704 27.0603 31.7286 27.0352 31.752C27.1311 31.8702 27.2903 31.9527 27.4628 32.0017C27.6353 32.0508 27.821 32.0686 28.0053 32.0798C28.4151 32.1043 28.8279 32.0943 29.2348 32.0508C29.5488 32.1221 29.5975 32.3707 29.6107 32.5893C29.6299 32.9159 29.6461 33.1757 29.6564 33.4187C29.5046 33.4355 29.3513 33.4522 29.1994 33.47C29.2378 33.3139 29.2687 33.1567 29.2908 32.9995C29.3041 32.9081 29.3129 32.8089 29.2437 32.7331C29.1714 32.655 29.0387 32.6261 28.9149 32.606C28.6318 32.5603 28.3429 32.5346 28.0539 32.5302C28.0038 32.5592 27.9773 32.5737 27.9522 32.5882C28.1041 32.664 28.2633 32.7454 28.3444 32.868C28.4078 32.9639 28.4151 33.0742 28.4151 33.1802C28.4151 33.3073 28.4019 33.4344 28.3842 33.5603C28.0186 33.6016 27.6515 33.6417 27.2859 33.683C27.2859 33.6852 27.2888 33.6885 27.2888 33.6908C27.1768 33.6952 27.0662 33.6975 26.9586 33.7008C26.9099 33.7019 26.8731 33.7343 26.879 33.7699C27.0603 34.9651 26.9718 36.1837 26.5635 37.3677C26.7876 37.7055 27.0249 38.0377 27.2741 38.3655C27.3802 38.3533 27.4672 38.2897 27.5129 38.2161C27.5586 38.1437 27.5704 38.0612 27.5807 37.9809C27.5807 37.9697 27.5837 37.9586 27.5837 37.9463C27.6412 37.9731 27.7045 37.9954 27.7694 38.011C28.2191 38.1191 28.6967 37.9742 29.1567 37.8961C29.7611 37.7925 30.3833 37.8047 31.0054 37.8415C31.2545 38.108 31.5037 38.3744 31.7528 38.642C31.8442 38.739 31.9548 38.846 32.1288 38.8304C32.201 38.8237 32.2659 38.7959 32.3145 38.7568C32.4221 38.671 32.4531 38.5562 32.4752 38.4447C32.633 37.6531 32.459 36.8493 32.459 36.0488C32.459 35.1881 32.3175 34.2872 32.6728 33.9093C32.7273 33.8502 32.7111 33.7097 32.6359 33.664ZM30.8476 33.6027C31.0083 33.5938 31.1911 33.5938 31.3017 33.6807C31.312 33.6885 31.3194 33.6964 31.3282 33.7053C31.3282 33.7543 31.3341 33.8045 31.34 33.8536C31.3828 34.2783 31.4034 34.7042 31.4108 35.1301C30.998 35.1379 30.5955 34.9227 30.3847 34.6485C30.2226 34.4366 30.255 34.0096 30.3125 33.693C30.3154 33.6752 30.3184 33.6584 30.3213 33.6406C30.4968 33.6261 30.6722 33.6127 30.8476 33.6038V33.6027ZM28.309 33.9338C28.2869 34.0286 28.2633 34.1234 28.2397 34.2181C28.163 34.5258 28.082 34.8347 27.9198 35.1234C27.8372 35.2695 27.734 35.4088 27.6131 35.5393C27.6131 35.0587 27.6131 34.5782 27.6117 34.0966C27.8416 34.0375 28.0746 33.9829 28.309 33.9338ZM27.6087 37.5673C27.6161 37.3688 27.6161 37.1692 27.6161 36.9708C27.6161 36.5516 27.6161 36.1335 27.6146 35.7143C27.8358 35.7009 28.048 35.6106 28.2043 35.4902C28.4004 35.3375 28.5213 35.1401 28.6274 34.9439C28.8294 34.5693 28.993 34.1813 29.1124 33.7878C29.2967 33.7588 29.481 33.7331 29.6668 33.7097C29.6727 33.9138 29.6756 34.1211 29.6756 34.3619C29.6756 34.5169 29.7021 34.7588 29.7537 34.9094C29.8393 35.1624 30.1312 35.3542 30.454 35.4545C30.7562 35.5493 31.0879 35.5772 31.4152 35.5995C31.4152 36.0856 31.402 36.5728 31.3887 37.0589C31.3857 37.1659 31.3798 37.2807 31.2973 37.3699C31.2811 37.3878 31.2619 37.4034 31.2413 37.4179C30.0294 37.468 28.8176 37.5182 27.6072 37.5684L27.6087 37.5673Z" fill="#3D1A1B"/>
<path d="M30.8635 36.2795C30.5967 36.158 30.3151 36.032 30.0011 36.0209C29.6296 36.0075 29.289 36.1569 28.944 36.2584C28.6846 36.3342 28.4207 36.3643 28.1465 36.381C28.005 36.3899 27.9327 36.5181 28.033 36.5939C28.0374 36.5973 28.0418 36.5995 28.0462 36.6029C28.1347 36.6586 28.2526 36.6776 28.3676 36.6887C28.6227 36.7132 28.8821 36.7043 29.1386 36.6965C29.6281 36.6809 30.1175 36.6642 30.607 36.6486C30.7323 36.6441 30.8635 36.6397 30.9638 36.5761C31.0109 36.5471 31.0419 36.507 31.0463 36.4613C31.0537 36.371 30.9534 36.3208 30.8635 36.2795Z" fill="#3D1A1B"/>
<path d="M22.9175 40.4292C23.0605 40.2675 23.2064 40.107 23.3568 39.9498C23.3863 39.9175 23.4541 39.932 23.4615 39.9699C23.5131 40.1494 23.6222 40.4036 23.9096 40.3768C24.0128 40.3567 24.0482 40.2843 24.1411 40.2263C24.3165 40.1003 24.6158 40.1427 24.7927 40.2163C24.9608 40.2798 25.0743 40.3534 25.2394 40.3679C25.3102 40.3757 25.4355 40.3266 25.4208 40.2687L25.7009 40.2151C25.7643 40.4169 26.1372 40.4225 26.3643 40.3735C26.6886 40.3032 27.1161 40.1784 27.4493 40.3278C27.6144 40.3969 27.7338 40.4615 27.8621 40.4493C28.039 40.4337 28.0022 40.3032 28.1157 40.1995C28.185 40.1248 28.353 40.1148 28.4371 40.175C28.5919 40.2631 28.5963 40.4091 28.7422 40.4928C28.8027 40.5307 28.9 40.5563 28.9575 40.4983C28.9132 40.5675 28.7909 40.5552 28.7172 40.5217C28.5624 40.466 28.5063 40.3099 28.3692 40.2486C28.2041 40.1906 28.213 40.3434 28.154 40.4404C28.0095 40.7024 27.5835 40.592 27.3461 40.4883C27.0822 40.388 26.783 40.4994 26.4409 40.5797C26.1593 40.6444 25.8114 40.6332 25.5711 40.4771C25.4458 40.4002 25.2984 40.1471 25.5446 40.1137C25.6802 40.1059 25.7259 40.2218 25.7141 40.3055C25.667 40.5552 25.2615 40.6455 24.9976 40.5351C24.7559 40.4604 24.5406 40.2575 24.2915 40.3634C24.2001 40.4203 24.091 40.524 23.9436 40.5329C23.5396 40.5652 23.3583 40.2308 23.3465 39.9844L23.4512 40.0044C23.2787 40.1471 23.1003 40.2887 22.9204 40.427L22.9175 40.4292Z" fill="#AF2924"/>
<path d="M29.6372 40.5608C29.7891 40.4281 29.9527 40.3099 30.1237 40.1951C30.2107 40.1304 30.3463 40.049 30.482 40.1048C30.597 40.1483 30.6353 40.2163 30.706 40.2631C30.8771 40.3802 31.1631 40.32 31.2338 40.1505C31.2486 40.0959 31.3223 40.0602 31.393 40.0769C31.6658 40.2051 31.9606 40.282 32.2894 40.2954C31.9768 40.3958 31.598 40.3701 31.2943 40.2553L31.483 40.1917C31.4402 40.3679 31.2486 40.5173 31.0009 40.5418C30.8196 40.5597 30.6382 40.5117 30.51 40.4158C30.4481 40.3701 30.4097 40.3055 30.367 40.2754C30.1679 40.3456 29.8819 40.4894 29.6357 40.5597L29.6372 40.5608Z" fill="#AF2924"/>
<path d="M26.2774 42.9377C26.4292 42.805 26.5928 42.6869 26.7639 42.572C26.8508 42.5074 26.9865 42.426 27.1221 42.4817C27.2371 42.5252 27.2754 42.5932 27.3462 42.64C27.5172 42.7571 27.8032 42.6969 27.874 42.5274C27.8887 42.4728 27.9624 42.4371 28.0332 42.4539C28.3059 42.5821 28.6008 42.659 28.9295 42.6724C28.617 42.7727 28.2381 42.7471 27.9344 42.6322L28.1231 42.5687C28.0804 42.7448 27.8887 42.8942 27.641 42.9188C27.4597 42.9366 27.2784 42.8887 27.1501 42.7928C27.0882 42.7471 27.0499 42.6824 27.0071 42.6523C26.8081 42.7225 26.5221 42.8664 26.2759 42.9366L26.2774 42.9377Z" fill="#AF2924"/>
<path d="M24.5083 41.4025C24.9624 41.058 25.3575 40.9588 25.9472 41.1974C26.1108 41.2509 26.273 41.2676 26.4175 41.2007C26.4779 41.1695 26.4971 41.1394 26.4926 41.1059C26.4853 41.048 26.5413 40.9967 26.6194 40.9911C26.6695 40.9878 26.7167 41.0045 26.7447 41.0335C26.9143 41.1929 27.2017 41.2743 27.476 41.2654C27.7118 41.2631 27.877 41.1684 28.0789 41.0825C28.1954 41.029 28.421 41.0034 28.5507 41.0825C28.6524 41.1349 28.6996 41.2085 28.8072 41.2408C29.0726 41.3066 29.3954 41.1517 29.6726 41.1115C29.8303 41.0814 30.0249 41.087 30.1502 41.1684C29.6328 41.0201 29.279 41.5073 28.7379 41.398C28.5905 41.378 28.4681 41.2397 28.3546 41.2264C28.2765 41.2186 28.1497 41.2877 28.0126 41.359C27.5408 41.5876 26.8715 41.5017 26.5221 41.1662L26.7742 41.0937C26.7801 41.4426 26.155 41.5095 25.8528 41.3535C25.325 41.0903 25.0243 41.165 24.5083 41.4036V41.4025Z" fill="#AF2924"/>
<path d="M30.6545 42.1439C30.6324 41.4203 31.6128 41.0725 32.2762 41.6255C32.913 42.1183 32.5445 42.9511 31.5906 42.96C31.0054 42.9678 30.6294 42.543 30.6545 42.1439ZM30.684 42.1439C30.684 42.5018 31.1749 42.7281 31.5906 42.7214C32.0152 42.7225 32.3779 42.4683 32.431 42.1439C32.5003 41.7749 32.055 41.4872 31.5906 41.5396C31.172 41.5686 30.6825 41.7782 30.684 42.1439Z" fill="#AF2924"/>
<g opacity="0.71">
<path d="M26.643 16.5114C26.503 18.2841 25.7629 19.9955 25.0287 21.6823C24.6823 22.4806 24.3343 23.2788 23.9879 24.076C23.9525 24.1562 23.9068 24.2454 23.8036 24.2766C23.668 24.3168 23.5161 24.2242 23.4822 24.1183C23.4483 24.0113 23.4955 23.9009 23.5427 23.7961C24.5982 21.437 25.4002 19.0121 25.9368 16.5549C25.9722 16.3944 26.0209 16.2149 26.2022 16.1246C26.3821 16.0354 26.6725 16.1502 26.6445 16.5103L26.643 16.5114Z" fill="#F7F7F5"/>
<path d="M26.2022 15.2951C26.1963 15.3185 26.1919 15.343 26.1919 15.3687C26.1919 15.4567 26.2494 15.5437 26.3496 15.585C26.5693 15.6753 26.7786 15.508 26.7904 15.3441C26.7904 15.343 26.7904 15.3408 26.7904 15.3397C26.8037 15.0732 26.27 15.0331 26.2007 15.294L26.2022 15.2951Z" fill="#F7F7F5"/>
</g>
</svg>
