<svg width="47" height="62" viewBox="0 0 47 62" fill="none" xmlns="http://www.w3.org/2000/svg">
<path d="M5.52648 8.7701C5.14103 8.22538 4.37013 6.80911 4.37013 5.50178C4.37013 4.19445 4.37013 2.62254 4.37013 2H22.6404V5.50178C22.6404 8.41992 21.7847 10.2408 18.8244 12.3886C21.1371 19.9369 25.7625 39.8425 25.7625 59.079H13.8522H1.82617C1.82617 39.8425 6.45155 19.9369 8.76424 12.3886" stroke="#25398F" stroke-width="3" stroke-linecap="square"/>
<path d="M33.1285 47.1113V56.7108C33.1053 57.8072 33.7558 60.0001 36.5439 60.0001C39.3319 60.0001 39.4249 60.0001 39.1228 60.0001M45.0955 47.1113V56.7108C45.1187 57.8072 44.4682 60.0001 41.6801 60.0001H39.1012" stroke="#25398F" stroke-width="3" stroke-linecap="square"/>
</svg>
