<svg width="27" height="27" viewBox="0 0 27 27" fill="none" xmlns="http://www.w3.org/2000/svg">
<path d="M7.375 6V7.25H6.75C6.42948 7.25 6.16531 7.49128 6.1292 7.80211L6.125 7.875V20.375C6.125 20.6955 6.36628 20.9597 6.67711 20.9958L6.75 21H19.25C19.5705 21 19.8347 20.7587 19.8708 20.4479L19.875 20.375V7.875C19.875 7.55448 19.6337 7.29031 19.3229 7.2542L19.25 7.25H18.625V6H19.25C20.2486 6 21.0648 6.78057 21.1218 7.76483L21.125 7.875V20.375C21.125 21.3736 20.3444 22.1898 19.3602 22.2468L19.25 22.25H6.75C5.75145 22.25 4.93521 21.4694 4.87818 20.4852L4.875 20.375V7.875C4.875 6.87645 5.65557 6.06021 6.63983 6.00318L6.75 6H7.375Z" fill="black"/>
<path d="M16.125 18.5V17.25H17.375V18.5H16.125Z" fill="black"/>
<path d="M12.375 18.5V17.25H13.625V18.5H12.375Z" fill="black"/>
<path d="M8.625 18.5V17.25H9.875V18.5H8.625Z" fill="black"/>
<path d="M16.125 14.75V13.5H17.375V14.75H16.125Z" fill="black"/>
<path d="M12.375 14.75V13.5H13.625V14.75H12.375Z" fill="black"/>
<path d="M8.625 14.75V13.5H9.875V14.75H8.625Z" fill="black"/>
<path d="M5.5 11V9.75L20.5 9.75V11H5.5Z" fill="black"/>
<path d="M16.75 8.5C16.4295 8.5 16.1653 8.25872 16.1292 7.94789L16.125 7.875V5.375C16.125 5.02982 16.4048 4.75 16.75 4.75C17.0705 4.75 17.3347 4.99128 17.3708 5.30211L17.375 5.375V7.875C17.375 8.22018 17.0952 8.5 16.75 8.5Z" fill="black"/>
<path d="M11.125 7.25V6L14.875 6V7.25H11.125Z" fill="black"/>
<path d="M9.25 8.5C8.92948 8.5 8.66531 8.25872 8.6292 7.94789L8.625 7.875V5.375C8.625 5.02982 8.90482 4.75 9.25 4.75C9.57052 4.75 9.83469 4.99128 9.8708 5.30211L9.875 5.375V7.875C9.875 8.22018 9.59518 8.5 9.25 8.5Z" fill="black"/>
</svg>
