<svg width="24" height="27" viewBox="0 0 24 27" fill="none" xmlns="http://www.w3.org/2000/svg">
<path d="M2.66666 27H21.3333C22.0406 27 22.7188 26.7155 23.2189 26.2092C23.719 25.7029 24 25.0162 24 24.3001V12.1506C24.001 11.9729 23.9674 11.7968 23.901 11.6323C23.8347 11.4679 23.7369 11.3183 23.6133 11.1921L12.9467 0.392555C12.6968 0.141126 12.3589 0 12.0067 0C11.6544 0 11.3165 0.141126 11.0667 0.392555L0.4 11.1921C0.274015 11.3172 0.173789 11.4662 0.105127 11.6308C0.0364648 11.7953 0.000732333 11.972 0 12.1506V24.3001C0 25.0162 0.280951 25.7029 0.781048 26.2092C1.28114 26.7155 1.95942 27 2.66666 27ZM9.33332 24.3001V17.5504H14.6667V24.3001H9.33332ZM2.66666 12.7041L12 3.25444L21.3333 12.7041V24.3001H17.3333V17.5504C17.3333 16.8343 17.0524 16.1476 16.5523 15.6413C16.0522 15.1349 15.3739 14.8505 14.6667 14.8505H9.33332C8.62608 14.8505 7.94781 15.1349 7.44771 15.6413C6.94761 16.1476 6.66666 16.8343 6.66666 17.5504V24.3001H2.66666V12.7041Z" fill="#25398F"/>
</svg>
