<svg width="18" height="18" viewBox="0 0 18 18" fill="none" xmlns="http://www.w3.org/2000/svg">
<path fill-rule="evenodd" clip-rule="evenodd" d="M8.5 2.33334C5.7289 2.33334 3.39286 4.67192 3.39286 7.66668C3.39286 9.16207 4.06585 10.6943 4.99309 12.0834C5.91462 13.464 7.04593 14.6417 7.8685 15.4138C8.22763 15.7509 8.77237 15.7509 9.1315 15.4138C9.95407 14.6417 11.0854 13.464 12.0069 12.0834C12.9341 10.6943 13.6071 9.16207 13.6071 7.66668C13.6071 4.67192 11.2711 2.33334 8.5 2.33334ZM2 7.66668C2 4.03402 4.86065 1 8.5 1C12.1394 1 15 4.03402 15 7.66668C15 9.5254 14.174 11.3132 13.1806 12.8013C12.1815 14.2981 10.9706 15.5549 10.1067 16.3658C9.20593 17.2114 7.79407 17.2114 6.89329 16.3658C6.0294 15.5549 4.81847 14.2981 3.81939 12.8013C2.826 11.3132 2 9.5254 2 7.66668ZM8.5 5.89267C7.73075 5.89267 7.10714 6.48963 7.10714 7.22601C7.10714 7.96239 7.73075 8.55935 8.5 8.55935C9.26925 8.55935 9.89286 7.96239 9.89286 7.22601C9.89286 6.48963 9.26925 5.89267 8.5 5.89267ZM5.71429 7.22601C5.71429 5.75325 6.96149 4.55934 8.5 4.55934C10.0385 4.55934 11.2857 5.75325 11.2857 7.22601C11.2857 8.69877 10.0385 9.89268 8.5 9.89268C6.96149 9.89268 5.71429 8.69877 5.71429 7.22601Z" fill="#C9C9C9"/>
</svg>
