<svg width="48" height="34" viewBox="0 0 48 34" fill="none" xmlns="http://www.w3.org/2000/svg">
<path d="M14 26V15.8593C14 15.0008 14.3931 14.1897 15.0669 13.6577L21.7619 8.37219C22.781 7.56765 24.219 7.56765 25.2381 8.37218L31.9331 13.6577C32.6069 14.1897 33 15.0008 33 15.8593V26C33 26.5523 32.5523 27 32 27H27.4167C27.0025 27 26.6667 26.6642 26.6667 26.25V22.5695C26.6667 22.1935 26.6061 21.8133 26.41 21.4943C26.1536 21.0769 25.8114 20.7176 25.4043 20.4422C24.8406 20.0607 24.1779 19.8571 23.5 19.8571C22.8221 19.8571 22.1594 20.0607 21.5957 20.4422C21.1886 20.7176 20.8464 21.0769 20.59 21.4943C20.3939 21.8133 20.3333 22.1935 20.3333 22.5695V26.25C20.3333 26.6642 19.9975 27 19.5833 27H15C14.4477 27 14 26.5523 14 26Z" fill="black"/>
</svg>
