<svg width="56" height="55" viewBox="0 0 56 55" fill="none" xmlns="http://www.w3.org/2000/svg">
<g clip-path="url(#clip0_2010_1750)">
<path d="M26.2109 8H29.8113C30.1218 8 30.3742 8.2507 30.3742 8.55921V9.82063H25.6479V8.55921C25.6479 8.2507 25.9003 8 26.2109 8Z" fill="#F4B12A"/>
<path d="M33.4669 22.3709C33.28 22.0211 33.1771 21.8568 32.7098 21.1606C32.7098 21.1606 32.1224 20.2004 31.5748 19.0303C31.0039 17.8121 30.3662 14.9704 30.1451 11.1989H30.3485C30.5953 11.1989 30.7956 10.9999 30.7956 10.7547V10.2022C30.7956 9.95693 30.5953 9.75795 30.3485 9.75795H25.6921C25.4452 9.75795 25.2449 9.95693 25.2449 10.2022V10.7547C25.2449 10.9999 25.4452 11.1989 25.6921 11.1989H25.855C25.6339 14.9704 24.9956 17.8115 24.4254 19.0303C23.8778 20.1998 23.2903 21.1606 23.2903 21.1606C22.823 21.8568 22.7201 22.0211 22.5333 22.3709C22.0806 23.2198 21.9299 24.1946 22.0292 25.6088C22.1431 27.2335 22.7409 31.6238 23.8049 37.6145C23.0061 38.7481 22.5339 40.1404 22.5339 41.647C22.5339 42.5555 22.7066 43.422 23.0184 44.2161C23.3498 45.0625 23.8398 45.825 24.4517 46.4663C24.7696 46.5649 25.2333 46.6939 25.8035 46.7998C26.6543 46.9574 28.2604 47.1588 30.1984 46.7998C30.7681 46.6939 31.2324 46.5649 31.5503 46.4663C32.1616 45.8256 32.6516 45.0625 32.9836 44.2161C33.2947 43.422 33.4681 42.5555 33.4681 41.647C33.4681 40.141 32.9958 38.7487 32.1971 37.6145C33.261 31.6238 33.8589 27.2335 33.9728 25.6088C34.072 24.1946 33.9213 23.2204 33.4687 22.3709H33.4669Z" fill="#D1EEF2"/>
<path d="M33.4669 22.371C33.28 22.0211 33.1771 21.8568 32.7098 21.1606C32.7098 21.1606 32.1224 20.2004 31.5748 19.0303C31.1589 18.1425 30.7074 16.393 30.4079 14.0503H25.5922C25.2921 16.393 24.8406 18.1425 24.4254 19.0303C23.8778 20.1998 23.2903 21.1606 23.2903 21.1606C22.823 21.8568 22.7201 22.0211 22.5333 22.371C22.0806 23.2198 21.9299 24.1946 22.0292 25.6088C22.1431 27.2335 22.7409 31.6238 23.8049 37.6145C23.0061 38.7481 22.5339 40.1404 22.5339 41.647C22.5339 42.5555 22.7066 43.422 23.0184 44.2161C23.3498 45.0625 23.8398 45.825 24.4517 46.4664C24.7696 46.5649 25.2333 46.6939 25.8035 46.7998C26.6543 46.9574 28.2604 47.1588 30.1984 46.7998C30.7681 46.6939 31.2324 46.5649 31.5503 46.4664C32.1616 45.8256 32.6516 45.0625 32.9836 44.2161C33.2947 43.422 33.4681 42.5555 33.4681 41.647C33.4681 40.141 32.9958 38.7487 32.1971 37.6145C33.261 31.6238 33.8589 27.2335 33.9728 25.6088C34.072 24.1946 33.9213 23.2204 33.4687 22.371H33.4669Z" fill="#FFC239"/>
<path d="M22.0291 25.6082C22.1406 27.197 22.7151 31.4297 23.735 37.2178H32.2656C33.2855 31.4297 33.8594 27.197 33.9715 25.6082C34.0365 24.6833 33.9936 23.947 33.83 23.3105H22.17C22.0064 23.947 21.9636 24.6833 22.0285 25.6082H22.0291Z" fill="#F79508"/>
<path d="M33.9986 24.9376C34.0017 24.6431 33.9913 24.3681 33.9668 24.1107H22.0335C22.0084 24.3681 21.998 24.6425 22.0017 24.9376H33.9992H33.9986Z" fill="#F4B10B"/>
<path d="M23.854 29.6754C24.5407 29.3267 25.2022 29.4113 25.4876 29.4515C26.8634 29.6456 27.1941 30.5668 29.5432 31.9694C30.3425 32.4471 30.7217 32.5895 31.1768 32.5852C32.1244 32.5755 32.8465 31.9323 33.2024 31.5563C33.576 29.1241 33.818 27.2609 33.9258 26.1364C33.7194 26.7838 33.4137 27.3978 32.9954 27.9399C32.6083 28.4407 31.2417 29.7393 29.6651 29.6456C27.9929 29.5458 27.5653 27.9673 25.544 27.9412C24.9688 27.9339 24.6117 28.0562 24.4739 28.1091C23.2188 28.5886 22.7331 29.9249 22.6094 30.3034C22.6376 30.4963 22.667 30.6934 22.697 30.8948C22.7974 30.677 23.1214 30.0478 23.854 29.6754Z" fill="#FFC239"/>
<path d="M24.7593 32.5183C26.358 32.0723 27.6186 33.1116 28.9484 33.8022C29.7091 34.1978 30.5275 34.415 31.3807 34.2032C31.9896 34.0523 32.4625 33.672 32.9304 33.2826C32.9947 32.8852 33.056 32.4994 33.1142 32.1258C32.6168 32.6564 31.9908 33.0599 31.2503 33.1578C30.1698 33.3008 29.2344 32.7781 28.4412 32.1039C27.6186 31.4047 26.8523 30.5662 25.7486 30.3326C25.0876 30.1926 24.3483 30.262 23.7333 30.5449C23.3585 30.7177 23.0351 30.966 22.7515 31.2563C22.8593 31.967 22.9793 32.7294 23.1104 33.5375C23.5588 33.0617 24.1205 32.6954 24.7593 32.5171V32.5183Z" fill="#FFC239"/>
<path d="M31.4422 22.5565C31.6984 22.4571 31.8251 22.1703 31.7251 21.9157C31.6251 21.6612 31.3363 21.5354 31.0801 21.6347C30.8239 21.7341 30.6973 22.0209 30.7973 22.2755C30.8973 22.53 31.186 22.6558 31.4422 22.5565Z" fill="#FFD255"/>
<path d="M29.6191 16.2624C29.6668 15.9933 29.486 15.7367 29.2151 15.6893C28.9443 15.6418 28.686 15.8215 28.6382 16.0906C28.5905 16.3596 28.7713 16.6162 29.0422 16.6637C29.313 16.7111 29.5713 16.5315 29.6191 16.2624Z" fill="#FFD255"/>
<path d="M23.4326 35.4732C23.4853 35.7829 23.5392 36.0981 23.5949 36.4182H32.4049C32.4606 36.0981 32.5145 35.7829 32.5672 35.4732H23.4326Z" fill="#F4B10B"/>
<path d="M26.7462 18.0807C26.9841 17.8904 27.0217 17.5445 26.8301 17.3081C26.6385 17.0717 26.2903 17.0344 26.0524 17.2247C25.8145 17.415 25.7769 17.7609 25.9685 17.9973C26.16 18.2337 26.5082 18.271 26.7462 18.0807Z" fill="#FFD255"/>
<path d="M28.7699 19.7793C28.7699 19.9972 28.5923 20.1737 28.373 20.1737C28.1537 20.1737 27.9761 19.9972 27.9761 19.7793C27.9761 19.5615 28.1537 19.385 28.373 19.385C28.5923 19.385 28.7699 19.5615 28.7699 19.7793Z" fill="#FFC757"/>
<path d="M26.1889 21.9207C26.4639 21.9207 26.6869 21.6992 26.6869 21.426C26.6869 21.1527 26.4639 20.9312 26.1889 20.9312C25.9139 20.9312 25.6909 21.1527 25.6909 21.426C25.6909 21.6992 25.9139 21.9207 26.1889 21.9207Z" fill="#FFD255"/>
<path d="M25.0556 39.8903C25.3306 39.8903 25.5536 39.6688 25.5536 39.3956C25.5536 39.1224 25.3306 38.9009 25.0556 38.9009C24.7806 38.9009 24.5576 39.1224 24.5576 39.3956C24.5576 39.6688 24.7806 39.8903 25.0556 39.8903Z" fill="#FFD255"/>
<path d="M28.9131 39.2508C29.1073 39.2508 29.2647 39.0944 29.2647 38.9015C29.2647 38.7086 29.1073 38.5522 28.9131 38.5522C28.7189 38.5522 28.5615 38.7086 28.5615 38.9015C28.5615 39.0944 28.7189 39.2508 28.9131 39.2508Z" fill="#FFD255"/>
<path d="M25.2896 44.4802C25.0954 44.4802 24.938 44.3238 24.938 44.1309C24.938 43.938 25.0954 43.7816 25.2896 43.7816C25.4837 43.7816 25.6412 43.938 25.6412 44.1309C25.6412 44.3238 25.4837 44.4802 25.2896 44.4802Z" fill="#FFD255"/>
<path d="M27.8586 42.4423C27.632 42.4423 27.4482 42.2598 27.4482 42.0346C27.4482 41.8095 27.632 41.6269 27.8586 41.6269C28.0853 41.6269 28.269 41.8095 28.269 42.0346C28.269 42.2598 28.0853 42.4423 27.8586 42.4423Z" fill="#FFD255"/>
<path d="M30.5376 44.1095C30.763 44.0858 30.9263 43.885 30.9024 43.6611C30.8785 43.4372 30.6765 43.2749 30.4511 43.2987C30.2257 43.3224 30.0623 43.5232 30.0862 43.7471C30.1101 43.971 30.3122 44.1333 30.5376 44.1095Z" fill="#FFD255"/>
<g style="mix-blend-mode:multiply">
<path d="M33.4669 22.3709C33.2801 22.0211 33.1772 21.8568 32.7098 21.1606C32.7098 21.1606 32.1224 20.2004 31.5748 19.0303C31.0039 17.8121 30.3663 14.9704 30.1452 11.1989H30.3485C30.5954 11.1989 30.7957 10.9999 30.7957 10.7547V10.2022C30.7957 9.95693 30.5954 9.75795 30.3485 9.75795H28.4423C28.6892 9.75795 28.8895 9.95693 28.8895 10.2022V10.7547C28.8895 10.9999 28.6892 11.1989 28.4423 11.1989H25.8563C25.8391 11.4575 25.8213 11.7161 25.8042 11.9753C26.6348 11.9966 27.466 12.0179 28.2966 12.0386C28.318 12.3453 28.3566 12.8345 28.4246 13.4333C28.6377 15.3148 28.8515 17.094 29.6692 19.0303C29.8848 19.5408 30.2407 20.2935 30.8043 21.1606C31.2716 21.8568 31.3745 22.0211 31.5613 22.3709C32.014 23.2198 32.1647 24.1946 32.0654 25.6088C31.9515 27.2335 31.3537 31.6238 30.2897 37.6145C31.0885 38.7481 31.5607 40.1404 31.5607 41.647C31.5607 42.5555 31.388 43.422 31.0762 44.2161C30.7442 45.0625 30.2548 45.825 29.6429 46.4663C29.325 46.5649 28.8613 46.6939 28.2911 46.7998C27.8586 46.8801 27.4427 46.9318 27.0476 46.9629C27.8972 47.0298 28.982 47.0249 30.1972 46.7998C30.7669 46.6939 31.2312 46.5649 31.5491 46.4663C32.1604 45.8256 32.6504 45.0625 32.9824 44.2161C33.2936 43.422 33.4669 42.5555 33.4669 41.647C33.4669 40.141 32.9946 38.7487 32.1959 37.6145C33.2599 31.6238 33.8577 27.2335 33.9716 25.6088C34.0709 24.1946 33.9202 23.2204 33.4675 22.3709H33.4669Z" fill="#EFE8DA"/>
</g>
<path opacity="0.53" d="M24.9933 21.1606C25.2794 20.6142 25.6236 19.8737 25.9262 18.9658C26.0371 18.6329 26.4536 17.3447 26.6349 15.5716C26.717 14.769 26.7648 13.7339 26.6704 12.5303C26.581 13.712 26.4334 14.6886 26.306 15.3957C26.0745 16.6797 25.876 17.7457 25.3394 19.0303C24.9474 19.9686 24.5143 20.6909 24.2044 21.1606C23.7371 21.8568 23.6341 22.0211 23.4473 22.371C22.9947 23.2198 22.844 24.1946 22.9432 25.6088C23.0571 27.2335 23.655 31.6238 24.7189 37.6145C23.9202 38.7481 23.4479 40.1404 23.4479 41.647C23.4479 42.2659 23.5282 42.8646 23.6776 43.4348C23.7187 43.59 23.7995 43.8979 23.9324 44.2161C24.1052 44.6299 24.5033 45.3954 25.446 46.1432C25.0883 45.5834 24.6258 44.726 24.3324 43.604C24.243 43.2614 24.0537 42.5208 24.0543 41.6683C24.055 39.8008 24.9633 38.3441 25.5085 37.6151C24.4445 31.6244 23.8467 27.2341 23.7328 25.6094C23.6335 24.1952 23.7842 23.221 24.2369 22.3716C24.4237 22.0217 24.5266 21.8574 24.994 21.1613L24.9933 21.1606Z" fill="white"/>
<g style="mix-blend-mode:multiply">
<path d="M29.827 8H28.624C28.9266 8 29.1716 8.2434 29.1716 8.544V9.82063H30.3746V8.544C30.3746 8.2434 30.1296 8 29.827 8Z" fill="#EFE8DA"/>
</g>
<path opacity="0.53" d="M27.1107 10.3202C27.1107 10.4936 26.7511 10.6342 26.3083 10.6342C25.8654 10.6342 25.5059 10.4936 25.5059 10.3202C25.5059 10.1468 25.8654 10.0062 26.3083 10.0062C26.7511 10.0062 27.1107 10.1468 27.1107 10.3202Z" fill="white"/>
</g>
<defs>
<clipPath id="clip0_2010_1750">
<rect width="12" height="39" fill="white" transform="translate(22 8)"/>
</clipPath>
</defs>
</svg>
