<svg width="56" height="55" viewBox="0 0 56 55" fill="none" xmlns="http://www.w3.org/2000/svg">
<g clip-path="url(#clip0_2010_1744)">
<path fill-rule="evenodd" clip-rule="evenodd" d="M34.7305 31.4277C35.0043 33.9482 34.8394 36.5015 34.7877 39.0311C34.7384 40.3145 34.7384 41.6002 34.6463 42.8814C34.579 43.302 34.6362 44.3486 34.4073 44.7862C34.3758 44.9068 34.3309 45.0196 34.295 45.085C34.1693 45.323 33.9909 45.5294 33.7889 45.7053C32.5251 46.7384 30.7855 46.9729 29.2019 46.9944C28.7967 47.0023 28.3916 46.9989 27.9864 46.9966C27.5812 46.9989 27.1761 47.0023 26.7698 46.9944C25.1873 46.9729 23.4465 46.7372 22.1828 45.7053C21.9808 45.5305 21.8023 45.323 21.6766 45.085C21.6407 45.0196 21.5958 44.9068 21.5644 44.7862C21.3343 44.3497 21.3916 43.3031 21.3253 42.8814C21.2344 41.6002 21.2333 40.3145 21.1839 39.0311C21.1323 36.5015 20.9673 33.9482 21.2412 31.4277C21.4656 30.1961 21.8573 29.0007 22.3085 27.8357C22.7731 26.6177 23.2311 25.3986 23.6744 24.1727C24.139 22.9118 24.6216 21.6487 24.8697 20.3224C25.212 18.7221 25.1435 17.0789 25.2187 15.4538C25.2412 14.2832 25.2299 13.1125 25.2299 11.9419C25.2288 11.6915 25.2288 11.4401 25.2131 11.1886C25.2097 11.1762 25.2086 11.1626 25.2086 11.1502C25.2075 11.1288 25.2086 11.1107 25.2153 11.0927C25.2367 11.0149 25.3029 10.9506 25.3904 10.9517C25.4005 10.9517 25.4118 10.9517 25.4207 10.9517C25.6789 10.8818 26.0986 10.9089 26.24 10.8796C26.8023 10.8356 27.3669 10.8254 27.9314 10.813C28.6317 10.7972 29.3332 10.8006 30.0324 10.8514C30.1918 10.8796 30.3938 10.8468 30.5229 10.9551C30.5397 10.9506 30.5577 10.9483 30.5779 10.9495C30.7002 10.9472 30.781 11.0724 30.7563 11.1863C30.7417 11.4367 30.7417 11.6882 30.7395 11.9397C30.7395 13.1103 30.7294 14.2809 30.7507 15.4516C30.827 17.0767 30.7586 18.7199 31.0997 20.3202C31.3478 21.6464 31.8304 22.9095 32.295 24.1704C32.7384 25.3963 33.1963 26.6166 33.6609 27.8334C34.1132 28.9973 34.5049 30.1939 34.7283 31.4254L34.7305 31.4277Z" fill="#B7BD68"/>
<path fill-rule="evenodd" clip-rule="evenodd" d="M25.1998 46.9075C25.1313 46.9041 25.0617 46.8985 24.9933 46.8929C24.8945 46.8771 24.7957 46.859 24.697 46.8387C24.2918 46.7214 23.8878 46.5974 23.4871 46.4654C23.4725 46.4598 23.4568 46.4553 23.4422 46.4496C23.2581 46.3696 23.0752 46.2861 22.8934 46.2015C22.881 46.1959 22.8687 46.1891 22.8563 46.1835C22.7598 46.1282 22.6644 46.0707 22.5724 46.0087C22.5612 45.9963 22.5466 45.9873 22.532 45.9816C22.4905 45.9534 22.4501 45.9252 22.4096 45.8959C21.8979 45.5474 21.6779 45.1696 21.5466 44.6441C21.2357 43.7125 21.3838 42.269 21.312 41.3566C21.2615 39.7022 21.1885 38.0477 21.1279 36.3933C21.1134 34.8166 21.0539 33.2287 21.2132 31.6577C21.4254 30.3416 21.8361 29.0774 22.3053 27.8323C22.5342 27.1974 22.7868 26.5703 23.046 25.9467C23.1885 25.5892 23.33 25.2328 23.4669 24.8753C23.4826 24.8358 23.4983 24.7952 23.5151 24.7557C23.5107 24.7388 23.5118 24.7208 23.5174 24.7038C23.6644 24.273 23.807 23.84 23.9641 23.4125C24.1672 22.8859 24.3558 22.3536 24.5309 21.8167C24.5309 21.81 24.532 21.8055 24.5331 21.8066C24.6453 21.3284 24.7688 20.8514 24.8709 20.3709C24.9416 19.9751 25.0022 19.577 25.0606 19.1789C25.0673 19.1112 25.0718 19.0424 25.0763 18.9747C25.1313 18.7774 25.0303 17.6192 25.2346 17.6778C25.2391 17.6778 25.2435 17.6778 25.248 17.6778C25.3962 15.9444 25.3692 14.1907 25.5421 12.4618C25.6296 12.0085 25.4602 10.6348 25.8732 10.469C26.0988 10.3946 26.3389 10.4002 26.5758 10.4059C26.6678 10.4081 26.7598 10.4104 26.8496 10.4081C27.4074 10.4014 27.9719 10.4611 28.4893 10.6833C28.5275 10.6969 28.56 10.7115 28.587 10.7284C28.5668 10.539 28.5466 10.3845 28.6846 10.3585C28.7834 10.3134 28.8081 10.548 28.8137 10.8029C29.2738 10.7961 29.8586 10.8119 30.1885 10.8852C30.2615 10.4668 30.3838 10.3134 30.587 10.6856C30.6476 10.6213 30.7699 10.663 30.771 10.7566C30.7811 11.0295 30.7789 11.3036 30.7789 11.5765C30.7699 12.1212 30.7677 12.6671 30.7632 13.2118C30.7553 14.5347 30.7576 15.8576 30.8204 17.1782C30.8518 17.9981 30.8541 18.8225 31.0112 19.6311C31.193 20.5886 31.3951 21.5438 31.6453 22.4866C31.853 23.1994 32.1594 23.8625 32.4052 24.5584C32.7104 25.3444 33.0146 26.1226 33.3075 26.9064C33.44 27.2098 33.5612 27.5199 33.6869 27.8244C34.0292 28.6195 34.3053 29.445 34.4759 30.2931C34.5365 30.4939 34.5915 30.6969 34.6375 30.9021C34.7868 31.5731 34.8193 32.2645 34.826 32.9502C34.8227 33.4193 34.7957 33.8885 34.7486 34.3554C34.6801 34.6159 34.7935 35.155 34.4085 35.1301C33.9843 35.1437 33.8025 35.0208 33.7733 34.5787C33.7362 34.14 33.7486 33.699 33.7261 33.2603C33.7172 32.9727 33.7037 32.6851 33.6835 32.3964C33.2626 32.569 32.8249 32.6908 32.3805 32.7878C32.3749 32.9107 32.092 32.9028 31.8597 32.8926C31.5993 32.9411 31.3389 32.9862 31.0797 33.0314L30.9551 33.0517C30.9405 33.0889 30.9068 33.1171 30.8552 33.1137C30.7912 33.108 30.7273 33.1035 30.6633 33.099C30.1302 33.1847 29.596 33.2716 29.0628 33.3618C29.0056 33.3719 28.9495 33.3268 28.9416 33.2693C28.9338 33.2095 28.9764 33.1577 29.0337 33.1475C29.1145 33.134 29.1953 33.1193 29.2761 33.1058C28.9214 33.0866 28.5679 33.0686 28.2132 33.0483C28.119 33.0584 28.0236 33.0686 27.9293 33.081C27.8855 33.0866 27.8417 33.0641 27.8204 33.0257C27.2761 32.993 26.7318 32.9558 26.1897 32.9062C25.9282 32.896 25.6655 32.8814 25.4074 32.8475C25.2121 35.1651 25.2447 37.4962 25.2379 39.8206C25.248 41.6013 25.2649 43.4024 25.4568 45.1707C25.4568 45.2001 25.4568 45.2283 25.4568 45.2576L25.5903 45.2813C26.1145 45.3478 26.6465 45.3546 27.1751 45.3275C27.56 45.3016 27.9439 45.2722 28.3277 45.2294C28.4186 45.2181 28.4781 45.341 28.4153 45.4076C28.3288 45.4775 28.1964 45.4493 28.092 45.4719C28.3109 45.473 28.5297 45.473 28.7475 45.473C28.7845 45.473 28.8204 45.4752 28.8575 45.4764C29.3917 45.4764 29.9259 45.4696 30.459 45.4335C30.7722 45.3997 31.0842 45.3523 31.3939 45.288C31.5758 45.2553 31.7576 45.2204 31.9394 45.1854C31.9562 45.182 31.9719 45.1843 31.9865 45.1888C32.3412 45.0963 32.6914 44.9869 33.0415 44.8764C33.0628 44.6362 33.0281 44.3813 33.0976 44.1546C33.1571 44.0734 33.2963 44.1185 33.294 44.22C33.275 44.3103 33.2761 44.4027 33.2727 44.4952C33.4848 44.3813 33.7306 44.3407 33.9484 44.2336C34.1201 44.1828 34.3793 43.99 34.523 44.1727C34.6532 44.8482 33.5948 46.0944 32.9607 46.2309C32.7969 46.1711 32.9147 45.976 32.9282 45.8564C32.9719 45.6376 32.9978 45.4155 33.0168 45.1933C32.7093 45.2903 32.3771 45.3647 32.2896 45.394C31.5196 45.579 30.734 45.6681 29.945 45.6952C29.0808 45.7515 28.211 45.7324 27.3457 45.7369C26.716 45.7561 26.0931 45.6782 25.4725 45.5858C25.4747 45.6264 25.4781 45.6681 25.4815 45.7087C25.4938 45.8395 25.5073 45.9692 25.523 46.0989C25.532 46.17 25.5432 46.2399 25.5533 46.3109C25.5623 46.3775 25.5724 46.4429 25.5847 46.5083C25.5937 46.5557 25.6027 46.603 25.6117 46.6493C25.6117 46.6628 25.615 46.6752 25.6195 46.6865C25.6263 46.7192 25.633 46.7508 25.6397 46.7835C25.6397 46.7857 25.6397 46.788 25.6397 46.7902C25.6397 46.797 25.642 46.8038 25.6442 46.8094C25.6453 46.8184 25.6476 46.8275 25.6509 46.8365C25.6577 46.8647 25.6633 46.8929 25.67 46.9222C25.6633 46.9222 25.6577 46.9222 25.6509 46.9222C25.5006 46.9222 25.3513 46.9199 25.2009 46.9109L25.1998 46.9075ZM30.523 32.6671C31.5825 32.578 32.6667 32.4697 33.6611 32.0897C33.5915 31.2258 33.4691 30.3653 33.2716 29.5217C32.8563 28.0127 32.2424 26.5669 31.6442 25.1245C31.0292 23.7633 30.5915 22.331 30.4254 20.8435C30.1279 18.8834 30.1605 16.8974 30.1347 14.9204C30.1437 14.6948 30.0292 12.419 30.1448 11.2122C30.1336 11.21 30.1223 11.2077 30.1134 11.2044C29.8855 11.1705 29.6543 11.1649 29.4242 11.1615C29.22 11.157 29.0146 11.1626 28.8114 11.1841C28.8114 11.272 28.8114 11.3386 28.8182 11.3645C28.8384 12.4742 28.8159 13.584 28.8159 14.6948C28.7531 16.6718 28.963 18.6702 28.6902 20.6337C28.3793 22.4054 27.5982 24.0441 27.0213 25.7358C26.3737 27.6316 25.7912 29.5646 25.541 31.5573C25.5084 31.8167 25.4792 32.0761 25.4534 32.3366C26.3984 32.5893 27.4063 32.6287 28.3805 32.6829C28.9158 32.6829 29.4512 32.6738 29.9865 32.6705C30.165 32.6682 30.3434 32.6671 30.5219 32.6671H30.523ZM23.4893 46.4666C23.4893 46.4666 23.4927 46.4677 23.4938 46.4677C23.4927 46.4677 23.4905 46.4666 23.4893 46.4666Z" fill="#9EA55E"/>
<path fill-rule="evenodd" clip-rule="evenodd" d="M23.4869 46.4666C23.4869 46.4666 23.4858 46.4666 23.4846 46.4666C23.4835 46.4666 23.4813 46.4666 23.4802 46.4654C23.4802 46.4654 23.4824 46.4654 23.4835 46.4654C23.4701 46.4609 23.4555 46.4564 23.442 46.4508C23.4005 46.4327 23.3589 46.4147 23.3174 46.3955H23.3152L23.3118 46.3933L23.3073 46.391L23.3017 46.3888H23.2995L23.2961 46.3865L23.2905 46.3842L23.2849 46.382C23.2209 46.3538 23.1581 46.3245 23.0941 46.2963C23.0301 46.2669 22.9673 46.2376 22.9033 46.2083C22.2231 43.7734 22.2231 41.2111 22.1569 38.7007C22.0559 36.1271 21.8797 33.5073 22.5004 30.9833C23.2658 27.4962 24.9313 24.2854 25.6418 20.786C25.7125 20.3924 25.7664 19.9954 25.809 19.5973C25.7989 19.5973 25.7899 19.5973 25.7798 19.5973C25.6665 19.5973 25.552 19.5612 25.4656 19.4868C24.864 19.6751 25.0503 18.6962 25.4454 19.0999C25.6373 19.0841 25.6912 19.2375 25.846 19.2104C25.9628 17.8695 25.9515 16.5151 25.937 15.1719C25.928 14.8865 25.9179 14.6012 25.9022 14.317C25.9055 13.8986 25.6698 13.1554 26.2826 13.108C26.4442 13.108 26.5935 13.2084 26.662 13.3505C26.6788 12.5058 26.6844 11.6611 26.6418 10.8164C26.6564 10.557 26.4936 10.2999 26.58 10.0495C26.6631 9.842 26.9224 9.73486 27.1266 9.82734C27.3197 9.86456 27.4229 10.2412 27.4757 10.7702C27.8011 10.6901 28.3219 10.6811 28.6653 10.6743C28.9179 10.6563 29.2097 10.6371 29.5486 10.6145C29.7899 10.6145 30.029 10.645 30.268 10.672C30.2826 10.6743 30.2961 10.6777 30.3084 10.6822C30.396 10.6969 30.4835 10.7172 30.5688 10.7442C30.8034 10.8051 30.7046 11.1762 30.4689 11.1085C30.0918 10.9799 29.6912 11.0386 29.3006 11.0341C29.0447 11.0374 28.7888 11.042 28.5329 11.0521C28.2142 11.0859 27.8977 11.1333 27.5857 11.1897C27.4229 11.2619 27.5857 11.6701 27.5812 11.8269C27.6272 12.1517 27.6564 12.4799 27.6844 12.8058C27.6878 12.993 27.6205 13.1735 27.6205 13.3607C27.6541 13.6009 27.7619 13.8264 27.763 14.0734C27.8056 14.3114 27.772 14.546 27.717 14.7783C27.754 15.0016 27.717 15.2159 27.6687 15.4346C27.6665 15.5756 27.7405 15.7087 27.7215 15.8519C27.6855 16.0222 27.745 16.1812 27.763 16.3481C27.7731 16.4621 27.7394 16.5726 27.7237 16.6842C27.7484 16.7914 27.7944 16.8929 27.791 17.0056C27.7495 17.2865 27.8202 17.5707 27.7159 17.8413C27.7765 18.0488 27.7248 18.253 27.6238 18.4413C27.8315 18.7706 27.4353 19.2995 27.0391 19.4326C26.9471 20.0394 26.8416 20.6439 26.7248 21.2461C26.1367 24.0937 25.0043 26.7857 24.2097 29.5747C23.561 31.7457 23.2355 34.0058 23.2636 36.2726C23.2714 39.2048 23.1479 42.1686 23.6665 45.067C23.7563 45.4831 23.8258 45.9106 24.0043 46.2997C24.0582 46.4113 24.0492 46.5297 24.0009 46.6301C23.8303 46.5771 23.6609 46.523 23.4914 46.4677L23.4869 46.4666ZM27.3836 16.3538C27.3825 16.3741 27.3803 16.3933 27.3792 16.4136C27.3814 16.3944 27.3836 16.3763 27.3848 16.3572V16.3538H27.3836ZM27.3533 16.7451C27.2927 17.4771 27.2097 18.2067 27.1087 18.9341C27.1289 18.9071 27.1479 18.8789 27.1637 18.8496C27.2007 18.7887 27.2939 18.7819 27.3006 18.7029C27.2826 18.562 27.1996 18.4233 27.2793 18.2789C27.4173 18.0827 27.3096 17.944 27.3511 17.7387C27.4162 17.5842 27.3971 17.4308 27.3859 17.2695C27.387 17.1624 27.4274 17.0564 27.405 16.9493C27.3724 16.8816 27.3578 16.8139 27.3533 16.7463V16.7451ZM23.4891 46.4677C23.4891 46.4677 23.4925 46.4677 23.4936 46.4688C23.4925 46.4688 23.4903 46.4677 23.4891 46.4677Z" fill="#8E9454"/>
<path fill-rule="evenodd" clip-rule="evenodd" d="M28.6386 28.9183C28.6543 28.8112 28.6712 28.7041 28.6891 28.5981C28.7048 28.5078 28.7205 28.4176 28.7374 28.3285V28.324C28.7452 28.2823 28.7531 28.2394 28.7609 28.1977C28.8025 27.9699 28.8418 27.7421 28.881 27.5143C28.9259 27.2537 28.9663 26.9932 28.9989 26.7305V26.7181H29V26.7056H29.0011V26.6932H29.0023C29.0359 26.4113 29.064 26.1294 29.0875 25.8474C29.0932 25.782 29.0988 25.7166 29.1033 25.6512V25.6478V25.6433V25.6399V25.6343V25.632V25.6297V25.6252V25.6241V25.6207V25.6162C29.1078 25.5632 29.1122 25.5102 29.1156 25.4561V25.4527V25.4493V25.4482V25.4437V25.4403V25.438V25.4346V25.4313V25.4279V25.4245C29.119 25.3873 29.1223 25.3501 29.1246 25.3128C29.1403 25.1358 29.156 24.9576 29.1717 24.7805C29.1953 24.5042 29.22 24.2268 29.2402 23.9505C29.2604 23.6674 29.284 23.3843 29.303 23.1001V23.1103C29.3199 22.8509 29.3075 22.4832 29.312 22.0479V22.0344V21.9938H29.3109V21.9803V21.9667V21.9532C29.3098 21.9036 29.3075 21.8539 29.3064 21.8043C29.3064 21.7739 29.3042 21.7423 29.303 21.7118C29.3322 21.5889 29.3782 21.4716 29.4523 21.3667C29.5185 21.2957 29.5859 21.2731 29.6442 21.281C29.7598 21.263 29.8822 21.3205 29.9574 21.4558C29.9618 21.457 29.9675 21.4592 29.9719 21.4615C29.9742 21.475 29.9776 21.4897 29.9798 21.5032C29.9933 21.5697 30.0067 21.6352 30.0213 21.7017V21.7062L30.0258 21.7243V21.7299L30.0314 21.757V21.7592L30.0326 21.7626L30.0359 21.7784L30.0427 21.8122C30.0449 21.8212 30.0471 21.8314 30.0483 21.8404V21.8415V21.8427V21.8449C30.055 21.881 30.0606 21.916 30.0673 21.9521C30.0752 21.9994 30.0831 22.0457 30.092 22.093C30.1044 22.1979 30.119 22.3028 30.1347 22.4077C30.1852 22.6738 30.2335 22.9411 30.2884 23.205C30.4736 24.1377 30.7666 25.0433 31.0561 25.9478C31.3569 26.6639 31.6846 27.4793 31.8743 28.2304C32.101 28.9601 32.1852 29.683 31.9394 30.2841C31.6453 30.7882 30.8137 30.8694 30.1785 30.8694C30.046 30.8694 29.9226 30.866 29.8137 30.8615C28.9574 30.7634 28.6195 30.3236 28.5488 29.7224C28.5511 29.63 28.5567 29.5386 28.5645 29.4461C28.5735 29.3413 28.5847 29.2375 28.5982 29.1337C28.6072 29.0593 28.6184 28.9838 28.6285 28.9093L28.6386 28.9183ZM29.3098 23.1103V23.1171V23.1148V23.1137V23.1125V23.1114V23.1103ZM29.4568 20.416C29.339 20.3935 29.2671 20.2638 29.2245 20.0777C29.211 19.7179 29.1998 19.3593 29.1874 18.9995C29.2009 18.7582 29.2189 18.5518 29.2222 18.4435C29.275 18.1503 29.2256 17.6079 29.6016 17.547C29.7071 17.5752 29.7688 17.6857 29.8047 17.8368C29.8047 17.8537 29.8047 17.8695 29.8047 17.8864C29.8047 17.9766 29.8058 18.0657 29.807 18.156C29.807 18.1808 29.807 18.2045 29.807 18.2293C29.8058 18.5259 29.8092 18.8214 29.8137 19.1168C29.8171 19.3322 29.8238 19.5465 29.8328 19.7619C29.8103 20.1273 29.7452 20.4623 29.5488 20.4059C29.5253 20.4138 29.5017 20.4183 29.477 20.4183C29.4703 20.4183 29.4624 20.4183 29.4557 20.4172L29.4568 20.416Z" fill="#CDD386"/>
<path fill-rule="evenodd" clip-rule="evenodd" d="M30.6704 7.21879C30.9049 7.16127 31.2394 7.75674 30.8589 8.15033C31.0059 8.3928 31.0946 8.73678 30.8589 8.95444C31.0149 9.19014 30.9689 9.51043 30.7534 9.692C30.8645 10.0055 30.9801 10.3969 30.7658 10.6923C30.6749 10.7984 30.5593 10.9483 30.4077 10.9405C30.3696 10.9371 30.3359 10.9202 30.3112 10.8953C28.7456 10.804 27.1687 10.9044 25.6075 10.945C25.52 10.945 25.4459 10.9382 25.383 10.9258C25.3303 10.9495 25.2674 10.9472 25.2091 10.901C24.8735 10.6506 24.9453 10.1815 25.0598 9.83185C24.7893 9.62321 24.8342 9.2048 25.0239 8.95669C24.8129 8.77061 24.8724 8.46949 25.0037 8.25296C24.7298 8.04545 24.7175 7.47028 25.0811 7.39472C25.5267 7.04962 27.7882 7.01804 28.0217 7.00451C28.9049 6.98985 29.8107 7.00451 30.6715 7.21879H30.6704Z" fill="#FFEBD3"/>
<path fill-rule="evenodd" clip-rule="evenodd" d="M26.8687 10.9292C26.5802 10.919 26.2963 10.8559 26.0078 10.8378C25.6711 10.8198 25.3311 10.8559 25.1156 10.5378C25.0303 10.4194 25.0101 10.2706 25.0258 10.1285C25.0292 10.0721 25.0404 10.0157 25.0303 9.95929C24.9989 9.842 24.9382 9.74388 24.9237 9.62659C24.9079 9.51833 24.918 9.40781 24.9472 9.30292C24.9899 9.17774 25.0067 9.08752 24.9528 8.96233C24.9237 8.88001 24.8934 8.79881 24.8788 8.71309C24.8631 8.62174 24.8743 8.52814 24.9046 8.4413C24.9225 8.39281 24.9472 8.34769 24.9708 8.30146C24.982 8.28228 24.9899 8.26086 24.9854 8.24056C24.8496 8.11988 24.7721 7.92703 24.7845 7.74659C24.8092 7.54133 24.9573 7.41841 25.138 7.34397C25.3142 7.23232 25.5297 7.17481 25.7329 7.1421C26.0112 7.09925 26.2918 7.08797 26.5724 7.07443C26.8316 7.06428 27.0909 7.03835 27.3513 7.03835C27.3681 7.03835 27.3827 7.04511 27.3928 7.05301C27.3726 7.06767 27.3524 7.08346 27.3333 7.1015C27.2918 7.14097 27.2581 7.18834 27.2357 7.24135C27.2233 7.27067 27.2166 7.30337 27.2155 7.33495C27.2155 7.35638 27.2188 7.37781 27.2256 7.39811C27.1953 7.47705 27.2413 7.56163 27.5118 7.65298C27.7104 7.72629 27.9225 7.74433 28.1313 7.76802C28.3872 7.79396 28.6588 7.82553 28.9113 7.84245C29.0033 7.84809 29.0954 7.85373 29.1874 7.85711C29.2155 7.85937 29.2469 7.85711 29.2738 7.86839C29.5724 7.86388 29.8709 7.86952 30.1672 7.90561C30.3962 7.9338 30.6274 7.96087 30.8529 8.01049C30.9371 8.0353 30.9035 8.16161 30.817 8.14018C30.3019 8.0353 29.7766 7.99357 29.2514 8.00147C29.2323 8.00598 29.211 8.00711 29.193 8.00936C28.7778 8.05109 28.3513 8.04207 27.954 8.18642C27.8215 8.2383 27.4826 8.36348 27.5017 8.53716C27.5477 8.61611 27.6318 8.66122 27.7149 8.69054C28.1448 8.81347 28.6015 8.77287 29.0426 8.81347C29.0875 8.81798 29.1526 8.81347 29.1874 8.84166C29.3905 8.83602 29.5937 8.81798 29.7968 8.83038C30.1077 8.84843 30.4197 8.87888 30.725 8.94091C30.8092 8.96572 30.7755 9.09203 30.6891 9.0706C30.4332 9.01872 30.1717 8.99391 29.9113 8.97136C29.6072 8.94767 29.303 8.97925 28.9989 8.97812C28.9865 8.97812 28.9753 8.98038 28.9652 8.98151C28.7216 9.00519 28.4747 9.00857 28.2357 9.06496C28.0853 9.10218 27.9439 9.18789 27.8563 9.31871C27.743 9.47773 27.9584 9.55893 28.202 9.59953C28.2312 9.60968 28.2615 9.6187 28.2918 9.62547C28.3479 9.639 28.4063 9.64577 28.4635 9.65253C28.5174 9.6593 28.5712 9.66607 28.6262 9.67058C28.6992 9.67622 28.771 9.6796 28.844 9.68073C28.8473 9.68637 28.8485 9.69313 28.8507 9.69877C29.0785 9.69764 29.3064 9.68862 29.5342 9.69539C29.8103 9.70554 30.0853 9.71907 30.3614 9.72133C30.4467 9.72245 30.532 9.72471 30.6184 9.72584C30.6554 9.72584 30.6857 9.75629 30.6857 9.79351C30.6857 9.82959 30.6554 9.8623 30.6184 9.86117C30.2065 9.85892 29.7946 9.83862 29.3827 9.82847C29.1795 9.82847 28.9775 9.83523 28.7744 9.83523C28.7138 9.89388 28.6498 9.95027 28.6128 10.027C28.6004 10.0506 28.5892 10.0743 28.5813 10.098C28.5533 10.16 28.5398 10.2243 28.532 10.2909C28.5263 10.3484 28.5297 10.407 28.5398 10.4645C28.551 10.5243 28.5769 10.5807 28.6139 10.6303C28.6363 10.6608 28.6599 10.6923 28.6868 10.7183C28.7115 10.7408 28.7362 10.7611 28.7654 10.7792C28.7935 10.7961 28.8226 10.8085 28.8541 10.8187C28.8687 10.8232 28.8833 10.8288 28.8978 10.8333C28.8978 10.8367 28.8978 10.839 28.8978 10.8423C28.8485 10.8446 28.7991 10.848 28.7497 10.8502C28.5578 10.8615 28.3659 10.8739 28.1751 10.8897C28.147 10.8897 28.1201 10.8897 28.092 10.8897C27.7362 10.892 27.3804 10.9359 27.0247 10.9359C26.973 10.9359 26.9203 10.9359 26.8687 10.9326V10.9292Z" fill="#E0CEB9"/>
<path fill-rule="evenodd" clip-rule="evenodd" d="M25.1122 8.23491C25.0909 8.12664 25.2638 8.13341 25.3322 8.11311C25.55 8.0804 25.7677 8.0477 25.9843 8.00935C26.5488 7.90447 27.1223 7.84019 27.697 7.83229C27.9944 7.82778 28.2929 7.81538 28.5892 7.84808C28.6745 7.86162 28.6599 7.99131 28.5713 7.98229C28.3771 7.96086 28.1807 7.95973 27.9854 7.96312C27.4355 7.96537 26.8855 7.99695 26.3423 8.08492C26.055 8.13115 25.7699 8.18529 25.4815 8.22702C25.3883 8.24168 25.2952 8.25183 25.2043 8.27889C25.1684 8.29694 25.1223 8.27325 25.1122 8.23491ZM25.3996 10.2863C25.3131 10.2841 25.3109 10.1533 25.3996 10.151C25.5612 10.1465 25.7206 10.1172 25.8799 10.0935C26.4422 10.0033 27.009 9.94236 27.5769 9.89951C27.9753 9.85891 28.3738 9.81944 28.7722 9.78673C28.8586 9.77658 28.8788 9.9074 28.7901 9.92094C28.2301 9.96492 27.6723 10.0303 27.1122 10.0732C26.6813 10.1127 26.2525 10.1713 25.8249 10.2378C25.6835 10.2581 25.5421 10.2841 25.3996 10.2852V10.2863ZM25.0977 9.27698C25.0977 9.23525 25.1336 9.20705 25.174 9.20931C25.2379 9.20367 25.3019 9.19352 25.3648 9.18337C25.5836 9.14728 25.8014 9.10894 26.0202 9.07849C26.8575 8.96458 27.7015 8.89692 28.5466 8.87549C28.633 8.87662 28.6364 9.00857 28.5466 9.01082C28.3996 9.01308 28.2537 9.01872 28.1066 9.02661C27.8137 9.03902 27.5219 9.05932 27.229 9.083C26.7957 9.11458 26.3648 9.16758 25.936 9.22735C25.7363 9.25668 25.5376 9.29277 25.3378 9.32434C25.2626 9.32773 25.11 9.39314 25.0977 9.27698Z" fill="#BEAA92"/>
<path fill-rule="evenodd" clip-rule="evenodd" d="M25.0226 8.25747C24.8846 8.2056 24.7622 8.07703 24.7667 7.92252C24.7791 7.74997 24.8296 7.56276 24.962 7.44435C24.9777 7.42969 24.999 7.42179 25.0192 7.41954C25.2235 7.24924 25.9845 7.11052 26.0944 7.09474C26.402 7.04511 26.714 7.04737 27.0237 7.03947C27.1113 7.0406 27.1124 7.17142 27.0237 7.17481C26.8341 7.18157 26.6444 7.18045 26.4547 7.19172C26.1764 7.20977 25.9014 7.26052 25.632 7.33044C25.4581 7.37555 25.2718 7.41615 25.1203 7.5154C25.1102 7.52329 25.0978 7.52893 25.0922 7.54021C25.0799 7.56502 25.0507 7.5763 25.0237 7.57291C24.9609 7.64509 24.9328 7.73982 24.9126 7.8323C24.8767 7.95523 24.9238 8.06462 25.0394 8.11989C25.0866 8.13567 25.1326 8.16838 25.1102 8.22364C25.1079 8.22815 25.1057 8.23266 25.1023 8.23717C25.1225 8.23153 25.1438 8.22815 25.1663 8.22815C25.2549 8.23041 25.2549 8.36123 25.1663 8.36348C25.1158 8.36123 25.081 8.41198 25.0518 8.44694C24.9732 8.56536 24.9351 8.71873 24.98 8.85745C24.9979 8.90707 25.0338 8.9488 25.0675 8.98715C25.1281 9.05143 25.0361 9.14391 24.9721 9.08301C24.8262 8.94542 24.7925 8.73001 24.8565 8.54393C24.8891 8.44356 24.9508 8.32401 25.0439 8.26424C25.0361 8.26424 25.0293 8.26198 25.0226 8.25973V8.25747Z" fill="#BFAB93"/>
<path fill-rule="evenodd" clip-rule="evenodd" d="M29.8608 10.4634C29.7092 10.4521 29.5364 10.4803 29.4006 10.398C29.2996 10.3258 29.3108 10.1555 29.4197 10.0957C29.6767 10.0123 29.9505 10.1465 30.2154 10.0777C30.4477 10.0439 30.4982 10.4093 30.2648 10.4386C30.1301 10.4566 29.9954 10.4623 29.8608 10.4623V10.4634ZM29.092 7.85034C28.9427 7.81538 28.9101 7.58869 29.0482 7.51651C29.1907 7.45223 29.3546 7.459 29.5083 7.45787C29.716 7.4917 30.1627 7.37329 30.1604 7.69132C30.1357 7.86951 29.9461 7.85485 29.8114 7.83455C29.5701 7.80635 29.3277 7.83455 29.092 7.85034ZM30.1503 8.65895C29.9236 8.60369 29.2266 8.78752 29.2278 8.46949C29.2278 8.15145 29.9292 8.32851 30.1503 8.29468C30.3849 8.29468 30.3849 8.66234 30.1503 8.65895ZM29.0807 9.25668C29.1009 8.98488 29.4421 9.09766 29.624 9.06946C29.8192 9.09202 30.1997 8.95443 30.2289 9.2454C30.1997 9.53524 29.8192 9.39652 29.624 9.43374C29.4421 9.41795 29.1009 9.52734 29.0807 9.25555V9.25668Z" fill="#FFF7ED"/>
<path fill-rule="evenodd" clip-rule="evenodd" d="M34.8829 34.0001C34.8829 34.0001 34.8829 34.0035 34.8829 34.0046C34.8818 34.0813 34.8807 34.1591 34.8796 34.2358C34.8796 34.2426 34.8796 34.2482 34.8796 34.255C34.8751 34.5877 34.8784 34.9192 34.8852 35.2519C34.8661 36.0978 34.8526 36.9436 34.8639 37.7894C34.8784 39.2398 34.7875 40.6878 34.7539 42.1382C34.7022 42.3772 34.7606 44.2302 34.4845 44.3993C34.4766 44.4129 34.4632 44.4253 34.4452 44.4343C33.8044 44.7061 33.1287 44.8989 32.4598 45.0907C31.2926 45.3816 30.0827 45.4967 28.8796 45.4967C28.691 45.4967 28.5013 45.4933 28.3128 45.4888C26.4228 45.4189 24.5025 45.3219 22.6663 44.8369C22.2915 44.7343 21.9267 44.5944 21.5541 44.4805C21.5002 44.4772 21.4441 44.4501 21.4407 44.3892C21.4407 44.3734 21.443 44.3599 21.4475 44.3475C21.4228 44.3407 21.4003 44.3227 21.3891 44.2888C21.2522 43.4915 21.2814 42.6648 21.2353 41.8562C21.1579 40.0709 21.1781 38.2823 21.1007 36.4981C21.1007 36.3944 21.1007 36.2918 21.1007 36.188C21.1007 35.897 21.0928 35.6061 21.0782 35.3162C21.0771 35.2925 21.076 35.2689 21.0749 35.2452C21.0771 35.0625 21.0782 34.8798 21.0782 34.6982C21.0782 34.5505 21.0782 34.4039 21.0737 34.2572C21.0793 34.2415 21.0816 34.2257 21.0816 34.2088C21.0816 34.1208 21.0805 34.0339 21.0793 33.9471C21.085 33.8332 21.0917 33.7204 21.0951 33.6065C21.0951 33.6043 21.0951 33.6031 21.0951 33.6009C21.0995 33.4746 21.1018 33.3494 21.104 33.2231C21.1063 33.1024 21.1096 32.9817 21.1119 32.8611C21.1141 32.7336 21.113 32.6073 21.1119 32.4799C21.1119 32.4607 21.1119 32.4404 21.1108 32.4212C21.1209 32.4009 21.1377 32.3863 21.1568 32.3761C21.1399 32.34 21.1444 32.2949 21.1837 32.2667C21.3397 32.1934 21.5305 32.3242 21.6966 32.3344C22.2488 32.4449 22.8077 32.5193 23.3678 32.5723C26.5081 32.8622 29.6719 32.7956 32.8089 32.525C33.2982 32.463 33.7898 32.4021 34.2634 32.2667C34.4116 32.2633 34.6977 32.0536 34.7864 32.1979C34.7954 32.2194 34.7954 32.2385 34.7887 32.2566C34.8021 32.2735 34.8145 32.2949 34.8246 32.3197C34.8313 32.5746 34.8358 32.8295 34.8437 33.0844C34.8526 33.39 34.865 33.6956 34.8807 34.0012L34.8829 34.0001Z" fill="#FFEBD3"/>
<path fill-rule="evenodd" clip-rule="evenodd" d="M22.6688 44.8358C22.2939 44.7332 21.9291 44.5933 21.5565 44.4794C21.5027 44.476 21.4465 44.449 21.4432 44.3881C21.4432 44.3723 21.4454 44.3587 21.4499 44.3463C21.4252 44.3396 21.4028 44.3215 21.3915 44.2877C21.2546 43.4904 21.2838 42.6637 21.2378 41.8551C21.1603 40.0698 21.1805 38.2811 21.1031 36.497C21.1031 36.3932 21.1031 36.2906 21.1031 36.1869C21.1031 35.8959 21.0953 35.6049 21.0807 35.3151L21.0773 35.244C21.0795 35.0613 21.0807 34.8786 21.0807 34.6971C21.0807 34.5493 21.0807 34.4027 21.0762 34.2561C21.0818 34.2403 21.084 34.2245 21.084 34.2076C21.084 34.1197 21.0829 34.0328 21.0818 33.946C21.0874 33.8321 21.0941 33.7193 21.0975 33.6054C21.0975 33.6031 21.0975 33.602 21.0975 33.5997C21.102 33.4734 21.1042 33.3483 21.1065 33.2219C21.1087 33.1013 21.1121 32.9806 21.1143 32.8599C21.1166 32.7325 21.1155 32.6062 21.1143 32.4787C21.1143 32.4596 21.1143 32.4393 21.1132 32.4201C21.1233 32.4009 21.1401 32.3851 21.1592 32.375C21.1435 32.3389 21.1469 32.2938 21.1873 32.2656C21.3433 32.1923 21.5341 32.3231 21.7002 32.3333C22.2524 32.4438 22.8113 32.5182 23.3713 32.5712C24.0548 32.6344 24.7406 32.6806 25.4263 32.7111C25.4061 32.8498 25.3871 32.9896 25.3691 33.1295C25.3309 33.4362 25.3029 33.7441 25.2793 34.0531C25.2557 34.3565 25.2355 34.661 25.2266 34.9655C25.2187 35.2621 25.2131 35.5587 25.2019 35.8553C25.1828 36.2929 25.1671 36.7305 25.1469 37.168C25.1188 37.7838 25.0975 38.3996 25.0818 39.0153C25.0672 39.542 25.0548 40.0687 25.0436 40.5953C25.0302 41.2292 25.0201 41.8618 25.0178 42.4957C25.0167 42.8013 25.0156 43.1058 25.0358 43.4114C25.056 43.7193 25.1031 44.0238 25.1514 44.3272C25.1985 44.6226 25.2468 44.9181 25.3085 45.2113C25.3152 45.2418 25.322 45.2722 25.3287 45.3038C24.4308 45.2102 23.5397 45.067 22.6688 44.8369V44.8358ZM33.1435 44.8595C33.1794 44.6768 33.2097 44.4929 33.2412 44.3102C33.3399 43.7385 33.4376 43.1656 33.5139 42.5904C33.5105 42.6175 33.5071 42.6456 33.5027 42.6727C33.5251 42.5047 33.5476 42.3355 33.5666 42.1675C33.6306 41.6205 33.6744 41.0701 33.7159 40.5209C33.7181 40.4882 33.7215 40.4544 33.7238 40.4217C33.7372 40.2536 33.7496 40.0845 33.7608 39.9164V39.9051L33.1413 44.8685L33.1435 44.8595ZM33.7619 39.8905C33.7619 39.8724 33.7642 39.8544 33.7653 39.8364C33.7653 39.8375 33.7653 39.8397 33.7653 39.8409C33.7709 39.7473 33.7765 39.6548 33.781 39.5612C33.8057 38.9916 33.818 38.4221 33.8315 37.8526C33.845 37.2887 33.8416 36.7248 33.8405 36.1609C33.8394 35.5779 33.8405 34.9959 33.8427 34.4129C33.845 33.8355 33.8371 33.2569 33.8214 32.6784C33.8203 32.5757 33.818 32.4742 33.8147 32.3716C33.9673 32.3411 34.1177 32.3062 34.267 32.2633C34.4151 32.2599 34.7013 32.0502 34.79 32.1945C34.799 32.216 34.799 32.2351 34.7922 32.2532C34.8057 32.2701 34.818 32.2915 34.8281 32.3163C34.8349 32.5712 34.8394 32.8261 34.8472 33.081C34.8562 33.3866 34.8685 33.6922 34.8843 33.9979C34.8843 33.999 34.8843 34.0012 34.8843 34.0024C34.8831 34.0791 34.882 34.1569 34.8809 34.2336C34.8809 34.2403 34.8809 34.246 34.8809 34.2527C34.8764 34.5854 34.8798 34.917 34.8865 35.2497C34.8674 36.0955 34.8539 36.9413 34.8652 37.7872C34.8798 39.2375 34.7889 40.6856 34.7552 42.1359C34.7036 42.375 34.7619 44.2279 34.4858 44.3971C34.478 44.4106 34.4645 44.423 34.4465 44.432C34.0212 44.6125 33.5801 44.758 33.1368 44.8922C33.139 44.8809 33.1413 44.8696 33.1435 44.8572L33.763 39.8939V39.8894L33.7619 39.8905Z" fill="#EBD3B5"/>
<path fill-rule="evenodd" clip-rule="evenodd" d="M21.5521 44.3001C21.5588 44.3396 21.5251 44.3768 21.4859 44.3768C21.4522 44.3768 21.4241 44.352 21.4196 44.3181C21.3613 43.8625 21.3467 43.4024 21.2872 42.9468C21.1985 41.9825 21.1727 41.0138 21.1188 40.0472C20.9819 37.6958 20.9539 35.3376 21.0874 32.9851C21.0942 32.8644 21.102 32.7438 21.1076 32.6231C21.111 32.5543 21.1121 32.4855 21.1121 32.4156C21.1121 32.3784 21.1424 32.3479 21.1795 32.3479C21.2165 32.3479 21.2468 32.3784 21.2468 32.4156C21.2468 32.64 21.2277 32.8644 21.2165 33.0889C21.1312 34.5753 21.1233 36.0639 21.148 37.5515C21.1873 38.986 21.2726 40.4194 21.3456 41.8528C21.3658 42.4043 21.4208 42.9524 21.4802 43.5016C21.5061 43.7678 21.5117 44.0362 21.5532 44.3012L21.5521 44.3001ZM34.5857 44.3542C34.5509 44.3497 34.5218 44.3148 34.5285 44.2787C34.5667 44.061 34.5947 43.8433 34.6194 43.6234C34.6621 43.2411 34.698 42.8408 34.7249 42.4596C34.8057 40.7397 34.8259 39.0165 34.8652 37.2943C34.8686 36.5556 34.8551 35.817 34.8517 35.0783C34.8461 34.3463 34.854 33.6144 34.8091 32.8836C34.7967 32.7122 34.7765 32.5419 34.7586 32.3716C34.753 32.3039 34.7182 32.2024 34.8147 32.1934C34.8529 32.1934 34.8832 32.2261 34.882 32.2633C34.8854 32.3096 34.8921 32.3558 34.8977 32.402C34.9168 32.578 34.9359 32.7539 34.9471 32.9298C35.001 33.9178 34.9774 34.908 34.9931 35.897C35.019 37.3857 34.964 38.8732 34.9325 40.3608C34.8977 41.3216 34.8966 42.2859 34.7934 43.2434C34.7709 43.4734 34.7474 43.7035 34.7171 43.9336C34.7002 44.0542 34.6823 44.1749 34.6609 44.2945C34.6553 44.3305 34.6217 44.3576 34.5857 44.352V44.3542Z" fill="#CCA97D"/>
<path fill-rule="evenodd" clip-rule="evenodd" d="M27.6748 14.3587C27.7163 14.5414 27.6512 14.7298 27.585 14.8978C27.5738 14.9249 27.5603 14.9508 27.5502 14.9779C27.5648 15.0174 27.5984 15.0478 27.6186 15.0873C27.7129 15.2677 27.6938 15.4944 27.6153 15.6782C27.5883 15.7696 27.4907 15.844 27.5199 15.9421C27.6085 16.2263 27.631 16.4147 27.4929 16.6899C27.4806 16.7192 27.4941 16.7508 27.5075 16.7767C27.6736 17.0023 27.6725 17.3203 27.5176 17.5515C27.7466 17.7297 27.7241 18.1255 27.5232 18.3184C27.6826 18.4323 27.6411 18.6804 27.5255 18.8123C27.4784 18.871 27.4043 18.8913 27.3504 18.9387C27.1966 19.0864 27.0216 19.2567 26.7926 19.1608C26.6254 19.3447 26.4402 19.5037 26.1742 19.4653C26.099 19.4563 26.0328 19.4157 25.9755 19.3683C25.9161 19.3514 25.8532 19.3898 25.7926 19.3954C25.6478 19.4281 25.5165 19.3931 25.4032 19.2973C25.4054 19.2984 25.4076 19.2995 25.4099 19.3007C25.383 19.2815 25.3527 19.2995 25.3246 19.3063C25.2348 19.3368 25.1215 19.3334 25.0485 19.268C24.9598 19.1766 25.0373 18.9353 25.0474 18.8157C25.1304 18.3218 25.1585 17.8267 25.1686 17.3282C25.1922 16.2906 25.227 15.2531 25.2236 14.2155C25.2124 13.5772 25.1877 12.94 25.2023 12.3017C25.2135 11.9363 25.2326 11.5709 25.2348 11.2055C25.2348 11.1412 25.2404 11.0758 25.2303 11.0126C25.1978 10.8976 25.1327 10.804 25.081 10.6991C24.9105 10.4059 24.8869 10.266 24.9789 9.93561C25.0014 9.85892 24.9643 9.78561 24.9194 9.72471C24.8611 9.639 24.8128 9.53976 24.8207 9.43375C24.8252 9.31984 24.8644 9.20819 24.9228 9.1112C24.9262 9.08526 24.943 9.07173 24.9598 9.05707C24.9688 9.04241 24.9834 9.03338 24.998 9.02549C25.0429 8.99278 25.09 8.96008 25.1428 8.94203C25.2135 8.92061 25.2898 8.9364 25.3605 8.95331C25.4065 8.96346 25.4525 8.97925 25.4974 8.99617C25.5266 9.01083 25.5637 9.0097 25.5883 8.99278C25.6613 8.95106 25.7298 8.89805 25.8106 8.87211C25.9509 8.82587 26.108 8.89354 26.191 9.01196C26.2932 8.91835 26.4256 8.85407 26.5637 8.84392C26.6927 8.84505 26.8341 8.91497 26.8858 9.03902C27.0451 8.94203 27.3156 8.86873 27.4413 9.05143C27.4941 9.13376 27.5042 9.24202 27.4638 9.33225C27.6097 9.49352 27.5962 9.67622 27.4986 9.85892C27.484 9.90516 27.3897 10.001 27.4234 10.0405C27.6377 10.2886 27.5962 10.5266 27.4189 10.7803C27.4481 10.8401 27.5053 10.8886 27.5244 10.9551C27.5861 11.1536 27.503 11.3589 27.3751 11.5122C27.5131 11.5833 27.6108 11.7333 27.594 11.8912C27.5883 12.0457 27.539 12.1912 27.457 12.3209C27.5311 12.4336 27.5962 12.5577 27.5962 12.6964C27.5962 12.8238 27.576 12.9524 27.53 13.0708C27.484 13.1689 27.4873 13.1802 27.5434 13.2704C27.6321 13.4148 27.6602 13.5919 27.6175 13.7565C27.5973 13.8434 27.5569 13.9223 27.5221 14.0024C27.5131 14.0227 27.5221 14.043 27.53 14.061C27.5861 14.158 27.6512 14.2494 27.6759 14.361L27.6748 14.3587Z" fill="#D6E2E3"/>
<path fill-rule="evenodd" clip-rule="evenodd" d="M27.0813 18.8428C27.0397 18.8202 27.0375 18.756 27.0745 18.73C27.0925 18.7165 27.1161 18.7131 27.1363 18.7199C27.244 18.7165 27.3046 18.6127 27.3338 18.5202C27.3596 18.4357 27.4853 18.4706 27.4629 18.5563C27.4247 18.6826 27.3439 18.8112 27.2081 18.8439C27.1666 18.8529 27.1194 18.8642 27.0801 18.8439L27.0813 18.8428ZM27.1834 9.30631C27.1329 9.30631 27.0723 9.27247 27.0891 9.21383C27.0992 9.17887 27.1363 9.15631 27.1722 9.16646C27.1856 9.17097 27.198 9.17323 27.2115 9.16984C27.2474 9.16421 27.2822 9.19127 27.2867 9.22736C27.2945 9.28713 27.2328 9.31307 27.1834 9.30631ZM27.2126 9.93561C27.1901 9.91305 27.1879 9.87922 27.1946 9.84989C27.2047 9.77208 27.2305 9.68749 27.189 9.61419C27.1733 9.58148 27.1924 9.53976 27.2249 9.52622C27.3001 9.4969 27.3315 9.58938 27.3416 9.64689C27.354 9.7202 27.3394 9.79351 27.3282 9.86568C27.3562 9.93561 27.2631 9.99087 27.2126 9.93561ZM27.2025 10.7194C27.1329 10.6878 27.1654 10.6111 27.1946 10.5615C27.2373 10.4736 27.2698 10.3754 27.253 10.2773C27.2485 10.2412 27.2743 10.2063 27.3102 10.2018C27.3461 10.1972 27.3809 10.2232 27.3854 10.2593C27.4067 10.3946 27.3641 10.5288 27.3012 10.6461C27.3113 10.7014 27.2507 10.742 27.2014 10.7194H27.2025ZM27.1127 11.3656C27.1037 11.3329 27.1217 11.3036 27.1374 11.2777C27.1924 11.1897 27.2519 11.0972 27.2552 10.9901C27.2575 10.9021 27.3877 10.901 27.3899 10.9901C27.3888 11.0284 27.3832 11.0656 27.3731 11.1029C27.3495 11.1931 27.299 11.2743 27.2496 11.3532C27.2451 11.4299 27.1329 11.4389 27.1127 11.3656ZM27.2777 12.1066C27.2541 12.0874 27.2451 12.0558 27.2541 12.0265C27.2721 11.9645 27.3046 11.9047 27.3091 11.8382C27.3113 11.8066 27.3012 11.7728 27.3226 11.7468C27.3551 11.7006 27.4382 11.7209 27.4427 11.7784C27.4561 11.8743 27.4157 11.9633 27.3899 12.0524C27.391 12.1088 27.3203 12.1404 27.2777 12.1054V12.1066ZM27.409 12.9423C27.2979 12.9321 27.3473 12.8092 27.3641 12.7404C27.3708 12.702 27.3708 12.6626 27.3641 12.6231C27.3607 12.6118 27.3585 12.6005 27.354 12.5893C27.3327 12.5036 27.4561 12.4686 27.4842 12.5532C27.519 12.6524 27.5044 12.7584 27.4752 12.8565C27.4864 12.8971 27.4528 12.9434 27.4101 12.9411L27.409 12.9423ZM27.409 12.8069C27.4213 12.8069 27.4326 12.8103 27.4427 12.8159C27.4359 12.8114 27.4269 12.8081 27.418 12.8069C27.418 12.8069 27.4124 12.8069 27.409 12.8069ZM27.2911 13.7847C27.2642 13.7746 27.2451 13.7419 27.2507 13.7137C27.2575 13.6753 27.2889 13.6505 27.3091 13.6201C27.3461 13.5625 27.3832 13.5028 27.4067 13.4385C27.4157 13.4103 27.4236 13.381 27.4247 13.3505C27.4382 13.2637 27.5672 13.2806 27.5583 13.3686C27.5459 13.5005 27.4752 13.6189 27.4 13.7238C27.3966 13.7283 27.3922 13.7328 27.3877 13.7385C27.3787 13.7813 27.3293 13.8028 27.29 13.7858L27.2911 13.7847ZM27.3832 14.7647C27.3663 14.7422 27.3652 14.7129 27.3787 14.6892C27.3865 14.6723 27.4045 14.6678 27.4135 14.652C27.4662 14.5719 27.4819 14.4681 27.4595 14.3745C27.4382 14.2888 27.5639 14.2539 27.5886 14.3384C27.6166 14.4546 27.6043 14.5809 27.5482 14.6869C27.5212 14.7467 27.4438 14.8347 27.3832 14.7636V14.7647ZM27.3899 15.7076C27.3237 15.6636 27.3686 15.6016 27.4067 15.5564C27.4382 15.5091 27.4651 15.4561 27.4685 15.3986C27.4797 15.3331 27.4303 15.2226 27.5223 15.2046C27.5583 15.2001 27.5942 15.226 27.5975 15.2621C27.6144 15.3794 27.602 15.5023 27.5358 15.6038C27.5223 15.6252 27.5089 15.6467 27.492 15.667C27.4819 15.7121 27.4281 15.7313 27.3899 15.7087V15.7076ZM27.3383 16.5399C27.2911 16.5399 27.2552 16.488 27.2766 16.444C27.2889 16.4203 27.308 16.4034 27.3226 16.382C27.3618 16.3188 27.3899 16.2455 27.3865 16.17C27.3877 16.082 27.519 16.0809 27.5212 16.17C27.5235 16.2918 27.4774 16.4124 27.3978 16.5049C27.3865 16.5263 27.3641 16.5421 27.3383 16.541V16.5399ZM27.3248 17.3778C27.2934 17.3654 27.2743 17.3282 27.2833 17.2955C27.299 17.2526 27.3461 17.2368 27.363 17.1929C27.3899 17.132 27.4045 17.0643 27.4045 16.9977C27.4067 16.9098 27.5369 16.9087 27.5392 16.9977C27.5369 17.1184 27.5078 17.247 27.4247 17.3372C27.3989 17.3665 27.3675 17.397 27.3248 17.3789V17.3778ZM27.3405 18.13C27.3405 18.1064 27.354 18.0894 27.3663 18.0714C27.4034 18.0105 27.4112 17.9361 27.4112 17.8661C27.4135 17.7782 27.5437 17.777 27.5459 17.8661C27.547 17.9564 27.5179 18.1842 27.4079 18.1977C27.3708 18.1977 27.3405 18.1673 27.3405 18.13Z" fill="#EDFEFF"/>
<path fill-rule="evenodd" clip-rule="evenodd" d="M26.7711 15.1538C26.7722 15.3997 26.7734 15.6444 26.7722 15.8903C26.77 16.1688 26.7677 16.4474 26.7599 16.7259C26.752 17.0124 26.7464 17.2977 26.743 17.5842C26.7397 17.8368 26.7341 18.0906 26.7307 18.3432C26.6589 18.3522 26.5882 18.3612 26.5163 18.3714C26.4288 18.3838 26.3424 18.3973 26.256 18.4108C26.1168 18.4075 25.9787 18.4041 25.8396 18.3996C25.6948 18.3951 25.55 18.386 25.4063 18.377C25.339 18.3725 25.2728 18.3657 25.2055 18.359C25.183 18.3567 25.1606 18.3545 25.1381 18.3522C25.1258 18.3296 25.119 18.3048 25.1145 18.2778C25.119 18.1954 25.1224 18.112 25.1258 18.0297C25.1359 17.8154 25.1437 17.6 25.1505 17.3857C25.1606 17.0778 25.1673 16.7699 25.1695 16.4632C25.1707 16.2444 25.1695 16.0256 25.1583 15.8068C25.1617 15.7425 25.1639 15.6794 25.1662 15.6151C25.1819 15.0974 25.1785 14.5787 25.1864 14.0599C25.1909 13.3584 25.1864 12.6581 25.1976 11.9566C25.1998 11.7806 25.1998 11.6047 25.1987 11.4288C25.192 11.2596 25.2133 11.078 25.137 10.9224C25.0607 10.7803 24.9754 10.6393 24.9484 10.4769C24.926 10.3044 24.9237 10.1093 25.018 9.95816C25.0203 9.95478 25.0236 9.95252 25.0259 9.95026C24.9945 9.94463 24.9709 9.92996 24.9686 9.89049C24.9686 9.87809 24.972 9.86681 24.9787 9.85666C24.9933 9.85779 25.0068 9.85891 25.0214 9.86004C25.1561 9.87132 25.2907 9.88598 25.4266 9.89049C25.4883 9.89275 25.5511 9.89388 25.6129 9.89388C25.8295 9.89388 26.045 9.88147 26.2616 9.87358C26.3446 9.87019 26.4277 9.86681 26.5107 9.8623C26.5354 9.8747 26.55 9.90403 26.5455 9.93335C26.5601 10.1363 26.5713 10.3405 26.5826 10.5446C26.5826 10.5818 26.5848 10.619 26.5848 10.6563C26.5893 10.9405 26.596 11.2247 26.6106 11.5089C26.6252 11.7919 26.6432 12.075 26.6589 12.3569C26.6589 12.3536 26.6589 12.3502 26.6589 12.3479C26.6701 12.5588 26.6847 12.7697 26.6982 12.9806C26.7038 13.1915 26.7094 13.4013 26.7161 13.6122C26.7217 13.7746 26.7285 13.9381 26.7352 14.1005C26.7397 14.2595 26.743 14.4185 26.7475 14.5787C26.7543 14.7704 26.7621 14.9621 26.7689 15.155L26.7711 15.1538Z" fill="#9DBABD"/>
<path fill-rule="evenodd" clip-rule="evenodd" d="M25.4054 18.377C25.338 18.3725 25.2718 18.3657 25.2045 18.359C25.182 18.3567 25.1596 18.3545 25.1371 18.3522C25.1248 18.3296 25.1181 18.3048 25.1136 18.2778C25.1181 18.1954 25.1214 18.112 25.1248 18.0297C25.1349 17.8154 25.1427 17.6 25.1495 17.3857C25.1596 17.0778 25.1663 16.7699 25.1686 16.4632C25.1697 16.2444 25.1686 16.0256 25.1573 15.8068C25.1607 15.7425 25.1629 15.6794 25.1652 15.6151C25.1809 15.0974 25.1775 14.5787 25.1854 14.0599C25.1899 13.3584 25.1854 12.6581 25.1966 11.9566C25.1989 11.7806 25.1989 11.6047 25.1977 11.4288C25.191 11.2596 25.2123 11.078 25.136 10.9224C25.0597 10.7803 24.9744 10.6393 24.9475 10.4769C24.925 10.3044 24.9228 10.1093 25.017 9.95816C25.0193 9.95478 25.0227 9.95252 25.0249 9.95026C24.9935 9.94463 24.9699 9.92996 24.9677 9.89049C24.9677 9.87809 24.971 9.86681 24.9778 9.85666C24.9924 9.85779 25.0058 9.85891 25.0204 9.86004C25.1551 9.87132 25.2898 9.88598 25.4256 9.89049C25.4873 9.89275 25.5502 9.89388 25.6119 9.89388C25.6231 9.89388 25.6355 9.89388 25.6467 9.89388C25.6467 9.89951 25.6478 9.90403 25.6489 9.90966C25.6815 10.1341 25.7106 10.3585 25.7353 10.5841C25.7724 10.9596 25.7993 11.3363 25.8195 11.713C25.8442 12.1663 25.8644 12.6208 25.8812 13.0753C25.888 13.3798 25.8925 13.6855 25.8947 13.99C25.897 14.2753 25.8981 14.5617 25.8947 14.8471C25.8913 15.1392 25.8801 15.4313 25.8667 15.7234C25.842 16.2884 25.7937 16.8523 25.7555 17.4173C25.7365 17.7094 25.7196 18.0003 25.7005 18.2924C25.6983 18.3263 25.6961 18.3601 25.6938 18.3939C25.5973 18.3894 25.4996 18.3827 25.4031 18.377H25.4054Z" fill="#89A9AC"/>
<path fill-rule="evenodd" clip-rule="evenodd" d="M25.4593 16.479C25.3808 16.4722 25.2977 16.4733 25.2225 16.4451C25.1215 16.3978 25.2012 16.2591 25.2831 16.338C25.5704 16.382 25.8746 16.3628 26.1597 16.3504C26.2091 16.347 26.2854 16.3278 26.2955 16.3966C26.3 16.4282 26.2764 16.4621 26.2438 16.4654C25.9835 16.4869 25.7208 16.4914 25.4605 16.479H25.4593ZM25.7545 10.804C25.7298 10.7814 25.7321 10.7408 25.7545 10.7183C25.7747 10.7002 25.8016 10.6991 25.823 10.6822C25.8409 10.6687 25.8443 10.6439 25.8499 10.6236C25.8533 10.5954 25.8376 10.5694 25.8241 10.5457C25.7859 10.4758 25.8869 10.416 25.9285 10.4848C26.0014 10.5841 25.9767 10.7465 25.8611 10.8006C25.8286 10.8187 25.7859 10.8356 25.7545 10.804ZM25.9408 13.6787C25.869 13.6629 25.8903 13.5986 25.9027 13.5467C25.9161 13.4734 25.9229 13.4148 25.9184 13.346C25.9161 13.2671 25.8645 13.2039 25.8477 13.1295C25.8005 12.9783 25.9363 12.8543 25.9487 12.7099C25.9487 12.7111 25.9487 12.7133 25.9487 12.7144C25.9195 12.6502 25.8544 12.5994 25.8566 12.5205C25.8566 12.4167 25.961 12.313 25.9027 12.2103C25.5985 11.8675 25.952 11.7942 25.8454 11.66C25.6905 11.5168 25.6501 11.3622 25.8286 11.2168C25.9857 11.0758 26.0676 11.2698 25.9408 11.2878C25.6591 11.4705 26.0115 11.5292 25.9891 11.7265C25.9801 11.7987 25.9318 11.8573 25.9027 11.9228C25.8768 12.013 25.9621 12.0795 26.0059 12.1472C26.0362 12.1912 26.0429 12.2464 26.0396 12.2994C26.0373 12.3648 26.0104 12.4257 25.9857 12.4855C25.9509 12.6186 26.1462 12.6062 26.0373 12.8487C26.0059 12.9389 25.933 13.028 25.9722 13.1261C25.9992 13.1847 26.0284 13.2411 26.0351 13.3065C26.0497 13.4103 26.0328 13.5163 26.0115 13.6155C26.0093 13.6516 25.979 13.6843 25.9408 13.6776V13.6787ZM25.3606 17.3496C25.2988 17.3383 25.163 17.3654 25.1597 17.2763C25.1597 17.2436 25.1877 17.2154 25.2203 17.2154C25.3101 17.2256 25.3965 17.2312 25.4863 17.2312C25.5895 17.2312 25.6939 17.2278 25.796 17.2086C25.8353 17.1951 25.8892 17.194 25.9027 17.2436C25.9116 17.2752 25.8926 17.3113 25.86 17.318C25.6961 17.3553 25.5278 17.3564 25.3606 17.3485V17.3496ZM25.4919 16.894C25.42 16.8906 25.3493 16.8782 25.2786 16.8748C25.2483 16.8816 25.2158 16.8714 25.2034 16.8399C25.1911 16.8105 25.2046 16.7722 25.236 16.7598C25.2708 16.7463 25.3101 16.7541 25.346 16.7575C25.4425 16.7688 25.539 16.7756 25.6355 16.7756C25.7871 16.7733 25.9229 16.7609 26.0699 16.735C26.1024 16.7293 26.1339 16.7553 26.1383 16.7869C26.1428 16.8207 26.1193 16.8489 26.0867 16.8556C25.8914 16.8906 25.6917 16.9053 25.493 16.894H25.4919Z" fill="#64422C"/>
</g>
<defs>
<clipPath id="clip0_2010_1744">
<rect width="14" height="40" fill="white" transform="translate(21 7)"/>
</clipPath>
</defs>
</svg>
