<svg width="56" height="55" viewBox="0 0 56 55" fill="none" xmlns="http://www.w3.org/2000/svg">
<g clip-path="url(#clip0_2010_1739)">
<path d="M31.1484 20.1085C30.5396 19.5533 30.0636 19.7139 30.0681 18.7595V7.44507H24.8315V18.7595C24.8315 19.5166 24.36 19.5533 23.7512 20.1085C22.0164 21.6914 20.9956 23.9075 20.9956 26.2612V45.2609C20.9956 46.2657 21.6731 47.142 22.6435 47.3944C25.6784 48.1835 28.8597 48.2019 31.9037 47.4586L32.2241 47.3806C33.2083 47.1374 33.8995 46.2565 33.8995 45.2379V26.2612C33.8995 23.9121 32.8787 21.6914 31.1438 20.1085H31.1484Z" fill="#BDD0E0"/>
<path d="M31.2444 20.1038C30.6356 19.5487 30.1596 19.7093 30.1641 18.7549V7.44046H24.9275V18.7549C24.9275 19.512 24.4561 19.5487 23.8472 20.1038C22.1124 21.6868 21.0962 23.9074 21.0962 26.2566V45.2563C21.0962 46.2611 21.7737 47.1374 22.7441 47.3898C25.7789 48.1789 28.9603 48.1973 32.0043 47.454L32.3247 47.376C33.3089 47.1328 34.0001 46.2519 34.0001 45.2333V26.2566C34.0001 23.9074 32.9793 21.6868 31.2444 20.1038Z" fill="#BDD0E0"/>
<path d="M27.4499 7C26.0034 7 24.8315 7.19729 24.8315 7.44505C24.8315 7.46799 24.8453 7.49094 24.8682 7.51388C25.065 7.72493 26.1453 7.89011 27.4499 7.89011C28.7544 7.89011 29.8393 7.72493 30.0315 7.51388C30.0544 7.49094 30.0682 7.46799 30.0682 7.44505C30.0682 7.19729 28.8963 7 27.4499 7Z" fill="#F72806"/>
<path d="M27.4499 7.89012C26.127 7.89012 25.0284 7.72494 24.8315 7.51389V10.0466C25.0284 10.2576 26.1224 10.4228 27.4499 10.4228C28.7773 10.4228 29.8713 10.2576 30.0682 10.0466V7.51389C29.8713 7.72494 28.7773 7.89012 27.4499 7.89012Z" fill="#BA0404"/>
<path d="M27.4499 16.9931C26.127 16.9931 25.0284 16.8279 24.8315 16.6168V18.787C25.0284 18.9981 26.1224 19.1633 27.4499 19.1633C28.7773 19.1633 29.8713 18.9981 30.0682 18.787V16.6168C29.8713 16.8279 28.7773 16.9931 27.4499 16.9931Z" fill="#F72806"/>
<path d="M25.6689 19.0394C25.733 19.0486 25.8017 19.0577 25.8749 19.0669V16.8967C25.8063 16.8875 25.733 16.8783 25.6689 16.8692V19.0394Z" fill="#FFD03B"/>
<path d="M25.1104 18.9201C25.1699 18.9384 25.2385 18.9568 25.3163 18.9751V16.8049C25.2431 16.7866 25.1699 16.7728 25.1104 16.7499V18.9201Z" fill="#FFD03B"/>
<path d="M26.2271 19.1036C26.2957 19.1082 26.3598 19.1174 26.433 19.122V16.9518C26.3644 16.9472 26.2957 16.9426 26.2271 16.9334V19.1036Z" fill="#FFD03B"/>
<path d="M26.7856 19.1403C26.8543 19.1403 26.9184 19.1449 26.9916 19.1495V16.9793C26.923 16.9793 26.8543 16.9747 26.7856 16.9701V19.1403Z" fill="#FFD03B"/>
<path d="M27.3394 16.9839V19.1541C27.376 19.1541 27.408 19.1541 27.4401 19.1541C27.4721 19.1541 27.5087 19.1541 27.5408 19.1541V16.9839C27.5041 16.9839 27.4721 16.9839 27.4401 16.9839C27.408 16.9839 27.3714 16.9839 27.3394 16.9839Z" fill="#FFD03B"/>
<path d="M27.8979 19.1495C27.9666 19.1495 28.0353 19.1449 28.1039 19.1403V16.9701C28.0353 16.9701 27.9712 16.9747 27.8979 16.9793V19.1495Z" fill="#FFD03B"/>
<path d="M28.4565 19.122C28.5252 19.1174 28.5939 19.1128 28.6625 19.1036V16.9334C28.5939 16.938 28.5298 16.9472 28.4565 16.9518V19.122Z" fill="#FFD03B"/>
<path d="M29.0151 19.0669C29.0838 19.0577 29.157 19.0486 29.2211 19.0394V16.8692C29.157 16.8783 29.0884 16.8875 29.0151 16.8967V19.0669Z" fill="#FFD03B"/>
<path d="M29.5732 16.8004V18.9706C29.6465 18.9522 29.7197 18.9339 29.7792 18.9155V16.7453C29.7197 16.7637 29.6511 16.782 29.5732 16.8004Z" fill="#FFD03B"/>
<path d="M27.4499 10.1016C26.127 10.1016 25.0284 9.93643 24.8315 9.72537V16.7682V16.9059C25.0284 17.1169 26.1224 17.2821 27.4499 17.2821C28.7773 17.2821 29.8713 17.1169 30.0682 16.9059V9.72537C29.8713 9.93643 28.7773 10.1016 27.4499 10.1016Z" fill="#BA0404"/>
<path d="M27.4497 10.7944C27.9944 10.7944 29.5599 10.6981 30.1595 10.3999C30.2053 10.3769 30.2328 10.3219 30.2282 10.2714L30.2007 9.81716C30.1961 9.7254 30.1046 9.66575 30.0176 9.69328C29.6194 9.82175 28.6215 10.042 27.5183 10.0466H27.3718C26.2687 10.042 25.2571 9.83551 24.8634 9.72081C24.7764 9.69787 24.694 9.75292 24.6849 9.84469L24.6528 10.2714C24.6528 10.3219 24.6711 10.3723 24.7169 10.3999C25.225 10.6843 26.9049 10.8036 27.4497 10.8036V10.7944Z" fill="#110400"/>
<path d="M27.4497 19.3147C27.9944 19.3147 29.5599 19.2183 30.1595 18.9201C30.2099 18.8972 30.2328 18.8421 30.2282 18.7916L30.2007 18.3374C30.1961 18.2456 30.1046 18.186 30.0176 18.2135C29.6194 18.342 28.6215 18.5622 27.5183 18.5668H27.3718C26.2687 18.5622 25.2571 18.3557 24.8634 18.241C24.7764 18.2181 24.694 18.2732 24.6849 18.3649L24.6528 18.7916C24.6528 18.8421 24.6711 18.8926 24.7169 18.9201C25.225 19.2046 26.9049 19.3239 27.4451 19.3239L27.4497 19.3147Z" fill="#110400"/>
<path d="M29.4545 7.33035C28.7267 7.12388 27.9485 7.20647 27.1932 7.20647C26.7126 7.20647 26.2045 7.18353 25.7788 7.40376C25.7422 7.42211 25.7056 7.44964 25.7056 7.49094C25.7056 7.53223 25.7513 7.55976 25.7925 7.57811C26.0123 7.6607 26.2549 7.65611 26.4929 7.65611C27.3672 7.65611 28.2506 7.75246 29.1112 7.59646C29.2348 7.57352 29.3538 7.54141 29.4591 7.47258C29.6056 7.37623 29.4591 7.33035 29.4591 7.33035H29.4545Z" fill="#F94730"/>
<path d="M27.2026 8.45906C27.285 8.37647 27.3262 8.22506 27.2346 8.15165C27.1843 8.11494 27.1156 8.11494 27.0561 8.11494C26.4748 8.12412 25.7882 8.326 25.3213 7.98647C24.9642 7.72953 25.1061 8.27553 25.097 8.50494C25.0924 8.73435 25.1382 8.95917 25.1244 9.18858C25.1015 9.55563 25.3167 9.62904 25.5318 9.70245C25.6234 9.73457 25.7195 9.73916 25.8156 9.74375C26.136 9.75292 26.4565 9.75292 26.7769 9.73457C26.8318 9.73457 26.8959 9.72539 26.9279 9.67951C26.9508 9.64739 26.9554 9.60151 26.9508 9.55563C26.9371 9.40422 26.8822 9.26199 26.8547 9.11517C26.8272 8.96834 26.8364 8.79858 26.9325 8.68388C27.0058 8.59211 27.1202 8.54623 27.2072 8.46364L27.2026 8.45906Z" fill="#F72806"/>
<g opacity="0.5">
<path d="M29.8846 7.86258C29.7061 7.94975 29.523 8.04152 29.3262 8.0874C29.1889 8.11952 29.047 8.12869 28.9096 8.13787C28.5984 8.16081 28.2917 8.18375 27.9804 8.20669C27.9346 8.20669 27.8843 8.21587 27.8431 8.23422C27.6875 8.31222 27.6966 8.56457 27.5501 8.65633C27.5135 8.67928 27.4677 8.68845 27.4265 8.7068C27.2846 8.78022 27.2709 8.97751 27.2938 9.13351C27.3213 9.2895 27.3716 9.45927 27.3075 9.6015C27.2892 9.64738 27.2572 9.69785 27.2755 9.74373C27.2984 9.7942 27.3716 9.78962 27.4265 9.7942C27.953 9.81715 28.5526 9.78962 28.9875 9.68409C29.2346 9.62444 29.4681 9.58774 29.7107 9.50056C29.729 9.49597 29.7473 9.4868 29.761 9.47303C29.7748 9.45468 29.8663 9.43633 29.8709 9.41339C29.8892 9.24821 29.8206 9.07845 29.8389 8.91327C29.8755 8.58751 29.9716 8.18375 29.8846 7.86258Z" fill="#42210B"/>
</g>
<path d="M31.2259 20.1084C30.6583 19.5946 30.2143 19.6817 30.1502 18.9476C29.9305 19.0394 29.6283 19.1128 29.2896 19.1679V19.6221C29.2896 20.5076 30.1547 20.3562 30.6812 20.8747C32.178 22.3383 33.0569 24.3984 33.0569 26.5778V44.1689C33.0569 45.1094 32.4618 45.9307 31.6104 46.1556L31.3357 46.229C28.7128 46.9218 25.9664 46.9034 23.3526 46.1693C22.515 45.9353 21.9336 45.1232 21.9336 44.1918V26.5824C21.9336 24.403 22.8125 22.3475 24.3093 20.8793C24.8357 20.3654 25.7009 20.3333 25.7009 19.6267V19.1679C25.353 19.1128 25.0555 19.044 24.8495 18.9568C24.7671 19.5257 24.3368 19.6083 23.7783 20.113C22.0297 21.696 21.0044 23.912 21.0044 26.2658V45.2654C21.0044 46.2703 21.6864 47.1466 22.6614 47.399C25.7192 48.1881 28.9234 48.2065 31.9903 47.4632L32.3153 47.3852C33.304 47.142 34.0044 46.2611 34.0044 45.2425V26.2658C34.0044 23.9166 32.979 21.696 31.2305 20.113L31.2259 20.1084Z" fill="#9494A8"/>
<g opacity="0.3">
<path d="M29.5782 11.5698L29.7613 10.9917C29.3035 11.0743 28.8458 11.1615 28.388 11.2441C28.2278 11.2716 28.0493 11.3129 27.9532 11.4505C27.8616 11.5836 27.8845 11.7625 27.912 11.9231C28.0905 13.1069 28.0539 14.3228 27.8159 15.4927C27.7289 15.9148 27.6419 16.4379 27.9761 16.7132C28.2187 16.9151 28.5757 16.8784 28.887 16.8279C29.1159 16.7912 29.3585 16.7361 29.5141 16.5664C29.7018 16.3599 29.7064 16.0479 29.6972 15.768C29.656 14.3686 29.6194 12.9646 29.5782 11.5653V11.5698Z" fill="#42210B"/>
</g>
<path d="M26.6118 16.0341C26.1678 14.8137 26.1357 13.4418 26.5202 12.203C26.6026 11.9323 26.7033 11.6249 26.566 11.3817C26.4928 11.2578 26.3737 11.1707 26.2501 11.1018C26.0396 10.978 25.7832 10.8724 25.5498 10.9458C25.4125 10.9871 25.3163 11.1156 25.2843 11.2532L25.2568 11.1248C25.3026 12.6389 25.3438 14.1576 25.3896 15.6717C25.3896 15.8093 25.3987 15.9515 25.4537 16.0754C25.5956 16.3874 25.9847 16.4746 26.3234 16.5251C26.4104 16.5388 26.5065 16.548 26.5797 16.5021C26.7216 16.4104 26.6713 16.1947 26.6163 16.0387L26.6118 16.0341Z" fill="#F72806"/>
<g opacity="0.3">
<path d="M28.1499 20.4158C28.8639 20.3975 29.5918 20.2736 30.2921 20.4296C30.8368 20.5489 31.3541 20.8425 31.9034 20.9022C31.6699 20.6269 31.4227 20.3608 31.1527 20.113C30.5896 19.5991 30.1456 19.6863 30.0861 18.9522C29.4453 19.2275 27.9805 19.3193 27.4541 19.3193C26.9277 19.3193 25.4125 19.2091 24.822 18.9568C24.7396 19.5257 24.3139 19.6083 23.7646 20.1084C25.2203 20.0213 26.6851 20.4525 28.1544 20.4204L28.1499 20.4158Z" fill="#59627F"/>
</g>
<g opacity="0.1">
<path d="M29.2442 46.9355C29.6058 46.6878 29.8576 45.8206 29.8576 44.825V26.0501C29.8576 23.7285 29.4776 21.5354 28.8322 19.9708C28.6949 19.6404 28.5805 19.4936 28.5072 19.2688C28.7315 19.2459 28.965 19.2183 29.1893 19.1862C29.3037 19.4615 29.5188 19.5992 29.7752 19.9708C30.8646 21.5354 31.5009 23.7285 31.5009 26.0501V44.825C31.5009 45.816 31.0752 46.6832 30.4664 46.9355C29.5051 47.3301 28.521 47.5274 27.5322 47.5366C28.109 47.5228 28.6812 47.3255 29.2442 46.9401V46.9355Z" fill="#59627F"/>
</g>
<path d="M24.6392 20.4617C24.6392 20.4617 24.6712 20.4525 24.6895 20.448C24.7124 20.4342 24.7307 20.4158 24.749 20.4021L24.6392 20.4617Z" fill="white"/>
<g opacity="0.2">
<path d="M32.1048 22.4622C32.1048 22.4622 30.9787 20.8563 29.9534 19.8332C29.784 20.3241 30.0861 20.8334 30.2921 21.306C30.6949 22.242 30.7224 23.2881 30.7453 24.3021C30.8872 30.3447 31.0062 36.3919 30.7132 42.43C30.6675 43.3889 30.6034 44.3708 30.2601 45.2655C29.9122 46.1647 29.2301 46.9814 28.3101 47.2476C29.7474 47.5183 31.4731 47.4265 32.352 46.2519C32.9333 45.4765 32.9745 44.435 32.9928 43.4669C33.0935 38.6631 33.1896 33.8638 33.2903 29.06C33.3361 26.7888 33.3407 24.3571 32.1002 22.4576L32.1048 22.4622Z" fill="#59627F"/>
</g>
<path d="M31.8073 27.3027H23.2017V42.7741H31.8073V27.3027Z" fill="#D8D8D8"/>
<path d="M22.2632 26.2841V43.788H32.7456V26.2841H22.2632ZM31.8072 42.774H23.2016V27.3027H31.8072V42.774Z" fill="#BA0404"/>
<path d="M23.7876 27.3027H23.188V42.7741H23.7876V27.3027Z" fill="#9D9D9E"/>
<path d="M24.7901 27.3027H24.1904V42.7741H24.7901V27.3027Z" fill="#9D9D9E"/>
<path d="M25.7925 27.3027H25.1929V42.7741H25.7925V27.3027Z" fill="#9D9D9E"/>
<path d="M26.795 27.3027H26.1953V42.7741H26.795V27.3027Z" fill="#9D9D9E"/>
<path d="M27.7974 27.3027H27.1978V42.7741H27.7974V27.3027Z" fill="#9D9D9E"/>
<path d="M28.7998 27.3027H28.2002V42.7741H28.7998V27.3027Z" fill="#9D9D9E"/>
<path d="M29.8072 27.3027H29.2075V42.7741H29.8072V27.3027Z" fill="#9D9D9E"/>
<path d="M30.8096 27.3027H30.21V42.7741H30.8096V27.3027Z" fill="#9D9D9E"/>
<path d="M31.8121 27.3027H31.2124V42.7741H31.8121V27.3027Z" fill="#9D9D9E"/>
<path d="M27.4496 32.2983C25.9162 32.2983 24.6665 33.5509 24.6665 35.0925C24.6665 36.6342 25.9162 37.8867 27.4496 37.8867C28.9831 37.8867 30.2373 36.6342 30.2373 35.0925C30.2373 33.5509 28.9876 32.2983 27.4496 32.2983Z" fill="#BA0404"/>
<path d="M27.4498 32C25.7515 32 24.3691 33.3856 24.3691 35.0878C24.3691 36.7901 25.7515 38.1757 27.4498 38.1757C29.148 38.1757 30.5304 36.7901 30.5304 35.0878C30.5304 33.3856 29.148 32 27.4498 32ZM24.6667 35.0878C24.6667 33.5462 25.9163 32.2936 27.4498 32.2936C28.9832 32.2936 30.2375 33.5462 30.2375 35.0878C30.2375 36.6295 28.9878 37.882 27.4498 37.882C25.9117 37.882 24.6667 36.6295 24.6667 35.0878Z" fill="#2D1102"/>
</g>
<defs>
<clipPath id="clip0_2010_1739">
<rect width="13" height="41" fill="white" transform="translate(21 7)"/>
</clipPath>
</defs>
</svg>
