<svg width="48" height="34" viewBox="0 0 48 34" fill="none" xmlns="http://www.w3.org/2000/svg">
<path d="M17.2857 15.3588C17.8774 15.3588 18.3571 14.8787 18.3571 14.2865C18.3571 13.6943 17.8774 13.2143 17.2857 13.2143C16.694 13.2143 16.2143 13.6943 16.2143 14.2865C16.2143 14.8787 16.694 15.3588 17.2857 15.3588Z" fill="black"/>
<path d="M18.3571 17.5C18.3571 18.0922 17.8774 18.5722 17.2857 18.5722C16.694 18.5722 16.2143 18.0922 16.2143 17.5C16.2143 16.9078 16.694 16.4277 17.2857 16.4277C17.8774 16.4277 18.3571 16.9078 18.3571 17.5Z" fill="black"/>
<path d="M17.2857 21.7857C17.8774 21.7857 18.3571 21.3056 18.3571 20.7134C18.3571 20.1212 17.8774 19.6412 17.2857 19.6412C16.694 19.6412 16.2143 20.1212 16.2143 20.7134C16.2143 21.3056 16.694 21.7857 17.2857 21.7857Z" fill="black"/>
<path d="M21.5714 14.2865C21.5714 14.8787 21.0917 15.3588 20.5 15.3588C19.9083 15.3588 19.4286 14.8787 19.4286 14.2865C19.4286 13.6943 19.9083 13.2143 20.5 13.2143C21.0917 13.2143 21.5714 13.6943 21.5714 14.2865Z" fill="black"/>
<path d="M20.5 18.5722C21.0917 18.5722 21.5714 18.0922 21.5714 17.5C21.5714 16.9078 21.0917 16.4277 20.5 16.4277C19.9083 16.4277 19.4286 16.9078 19.4286 17.5C19.4286 18.0922 19.9083 18.5722 20.5 18.5722Z" fill="black"/>
<path d="M24.7857 14.2865C24.7857 14.8787 24.306 15.3588 23.7143 15.3588C23.1226 15.3588 22.6429 14.8787 22.6429 14.2865C22.6429 13.6943 23.1226 13.2143 23.7143 13.2143C24.306 13.2143 24.7857 13.6943 24.7857 14.2865Z" fill="black"/>
<path d="M23.7143 18.5722C24.306 18.5722 24.7857 18.0922 24.7857 17.5C24.7857 16.9078 24.306 16.4277 23.7143 16.4277C23.1226 16.4277 22.6429 16.9078 22.6429 17.5C22.6429 18.0922 23.1226 18.5722 23.7143 18.5722Z" fill="black"/>
<path d="M28 14.2865C28 14.8787 27.5203 15.3588 26.9286 15.3588C26.3368 15.3588 25.8571 14.8787 25.8571 14.2865C25.8571 13.6943 26.3368 13.2143 26.9286 13.2143C27.5203 13.2143 28 13.6943 28 14.2865Z" fill="black"/>
<path d="M26.9286 18.5722C27.5203 18.5722 28 18.0922 28 17.5C28 16.9078 27.5203 16.4277 26.9286 16.4277C26.3368 16.4277 25.8571 16.9078 25.8571 17.5C25.8571 18.0922 26.3368 18.5722 26.9286 18.5722Z" fill="black"/>
<path d="M31.2143 14.2865C31.2143 14.8787 30.7346 15.3588 30.1429 15.3588C29.5511 15.3588 29.0714 14.8787 29.0714 14.2865C29.0714 13.6943 29.5511 13.2143 30.1429 13.2143C30.7346 13.2143 31.2143 13.6943 31.2143 14.2865Z" fill="black"/>
<path d="M30.1429 18.5722C30.7346 18.5722 31.2143 18.0922 31.2143 17.5C31.2143 16.9078 30.7346 16.4277 30.1429 16.4277C29.5511 16.4277 29.0714 16.9078 29.0714 17.5C29.0714 18.0922 29.5511 18.5722 30.1429 18.5722Z" fill="black"/>
<path d="M31.2143 20.7134C31.2143 21.3056 30.7346 21.7857 30.1429 21.7857C29.5511 21.7857 29.0714 21.3056 29.0714 20.7134C29.0714 20.1212 29.5511 19.6412 30.1429 19.6412C30.7346 19.6412 31.2143 20.1212 31.2143 20.7134Z" fill="black"/>
<path d="M20.5 19.642C19.9083 19.642 19.4286 20.1217 19.4286 20.7134C19.4286 21.3052 19.9083 21.7849 20.5 21.7849H26.9286C27.5203 21.7849 28 21.3052 28 20.7134C28 20.1217 27.5203 19.642 26.9286 19.642H20.5Z" fill="black"/>
<path fill-rule="evenodd" clip-rule="evenodd" d="M15.9464 10C14.3192 10 13 11.3192 13 12.9464V22.0536C13 23.6808 14.3192 25 15.9464 25H31.4821C33.1094 25 34.4286 23.6808 34.4286 22.0536V12.9464C34.4286 11.3192 33.1094 10 31.4821 10H15.9464ZM14.6071 12.9464C14.6071 12.2068 15.2068 11.6071 15.9464 11.6071H31.4821C32.2218 11.6071 32.8214 12.2068 32.8214 12.9464V22.0536C32.8214 22.7932 32.2218 23.3929 31.4821 23.3929H15.9464C15.2068 23.3929 14.6071 22.7932 14.6071 22.0536V12.9464Z" fill="black"/>
</svg>
