<svg width="56" height="55" viewBox="0 0 56 55" fill="none" xmlns="http://www.w3.org/2000/svg">
<path d="M20.5396 42.5915H20.594C20.5582 42.737 20.5396 42.8866 20.5396 43.0399C20.5396 44.0705 21.3835 44.9334 22.5867 45.5238C23.8062 46.1223 25.4733 46.4853 27.3013 46.4853C29.1292 46.4853 30.7964 46.1223 32.0159 45.5238C33.2191 44.9334 34.063 44.0705 34.063 43.0399C34.063 42.8866 34.0443 42.737 34.0085 42.5915H34.0633V42.3415V25.0849C34.0633 23.1898 33.3607 21.359 32.0849 19.9256C30.9307 18.6287 30.1553 17.0708 29.8184 15.4124C29.6971 14.8151 29.6325 14.2049 29.6279 13.589L29.6021 10.0441L29.6003 9.79432L29.3505 9.7959L27.3013 9.8089L25.252 9.7959L25.0022 9.79432L25.0004 10.0441L24.9747 13.589C24.9747 13.5891 24.9747 13.5891 24.9747 13.5891C24.9701 14.205 24.9054 14.8151 24.7841 15.4124L24.7841 15.4124C24.4476 17.0708 23.6722 18.6286 22.5176 19.9255L22.5176 19.9256C21.2422 21.3591 20.5396 23.1898 20.5396 25.0849V42.3415V42.5915Z" stroke="#D8CFBF" stroke-width="0.5"/>
<path d="M27.301 15.9425C28.5558 15.9425 29.5731 15.7274 29.5731 15.4621C29.5731 15.1968 28.5558 14.9818 27.301 14.9818C26.0461 14.9818 25.0288 15.1968 25.0288 15.4621C25.0288 15.7274 26.0461 15.9425 27.301 15.9425Z" fill="#F3EDE6"/>
<path d="M33.8133 41.9049H20.7896V43.0399H33.8133V41.9049Z" fill="#FFFBEE"/>
<path d="M27.3013 46.2353C30.8976 46.2353 33.813 44.8047 33.813 43.0399C33.813 41.2752 30.8976 39.8446 27.3013 39.8446C23.7049 39.8446 20.7896 41.2752 20.7896 43.0399C20.7896 44.8047 23.7049 46.2353 27.3013 46.2353Z" fill="#FFFBEE"/>
<path d="M27.3013 45.5367C30.8976 45.5367 33.813 44.1061 33.813 42.3413C33.813 40.5766 30.8976 39.146 27.3013 39.146C23.7049 39.146 20.7896 40.5766 20.7896 42.3413C20.7896 44.1061 23.7049 45.5367 27.3013 45.5367Z" fill="#F3EDE6"/>
<path d="M29.5731 15.4621C29.4487 14.8493 29.3823 14.2231 29.3776 13.5909L29.3518 10.0459L27.301 10.0589L25.2501 10.0459L25.2244 13.5909C25.2196 14.2231 25.1532 14.8493 25.0288 15.4621C25.7127 15.7264 26.4843 15.8754 27.301 15.8754C28.1176 15.8754 28.8893 15.7264 29.5731 15.4621Z" fill="#F3EDE6"/>
<path d="M31.8982 20.0916C30.7147 18.7619 29.9192 17.164 29.5734 15.4621C28.8896 15.7264 28.1179 15.8754 27.3013 15.8754C26.4846 15.8754 25.713 15.7264 25.0291 15.4621C24.6837 17.164 23.8881 18.7619 22.7044 20.0916C21.4691 21.48 20.7896 23.2518 20.7896 25.0847V42.3413H33.8133V25.0847C33.8133 23.2518 33.1338 21.48 31.8982 20.0916Z" fill="#F3EDE6"/>
<path d="M27.3013 30.0118C23.7049 30.0118 20.7896 28.849 20.7896 27.4149V38.2717C20.7896 39.7058 23.7049 40.8686 27.3013 40.8686C30.8976 40.8686 33.813 39.7061 33.813 38.2717V27.4149C33.813 28.849 30.8976 30.0118 27.3013 30.0118Z" fill="#E8D6B8"/>
<path d="M29.3776 13.5913L29.3518 10.0462L28.0215 10.0547L28.0472 13.5913C28.0527 14.339 28.1441 15.0788 28.3164 15.7974C28.759 15.7282 29.1806 15.6143 29.5731 15.4625C29.4487 14.8496 29.3823 14.2234 29.3776 13.5913Z" fill="#E4DFD7"/>
<path d="M31.8979 20.0916C30.7144 18.7619 29.9188 17.164 29.5731 15.4621C29.1802 15.614 28.7586 15.7278 28.3164 15.797C28.6944 17.3735 29.4621 18.8494 30.5675 20.0916C31.8032 21.48 32.4827 23.2518 32.4827 25.0847V28.9878C33.3164 28.5517 33.8123 28.0074 33.813 27.4167V25.0847C33.813 23.2518 33.1335 21.48 31.8979 20.0916Z" fill="#E4DFD7"/>
<path d="M32.4825 39.8446V42.341C32.4825 43.9954 29.9197 45.3564 26.6357 45.5198C26.8545 45.5307 27.0765 45.5363 27.3011 45.5363C30.8974 45.5363 33.8128 44.1058 33.8128 42.341V38.2731C33.8121 38.8638 33.3161 39.4081 32.4825 39.8442V39.8446Z" fill="#E4DFD7"/>
<path d="M32.4824 28.9878V39.8446C33.3161 39.4085 33.812 38.8642 33.8128 38.2734V27.4167C33.812 28.0074 33.3161 28.5517 32.4824 28.9878Z" fill="#CCB696"/>
<path d="M22.7047 20.0916C21.4691 21.48 20.7896 23.2518 20.7896 25.0847V27.4167C20.7903 27.8268 21.0297 28.2144 21.4549 28.5591V27.4153C21.4549 27.4153 21.4549 27.4163 21.4549 27.417V25.0851C21.4549 23.2522 22.1344 21.4804 23.3701 20.0919C24.5067 18.8149 25.2856 17.2905 25.6517 15.6642C25.4376 15.6076 25.2297 15.5398 25.0295 15.4625C24.6841 17.1644 23.8885 18.7622 22.7047 20.0919V20.0916Z" fill="#FFFBEE"/>
<path d="M25.916 10.0505L25.2506 10.0462L25.2248 13.5913C25.2201 14.2234 25.1537 14.8496 25.0293 15.4625C25.2296 15.5398 25.4371 15.6076 25.6515 15.6642C25.8039 14.9874 25.8851 14.293 25.8902 13.5913L25.916 10.0505Z" fill="#FFFBEE"/>
<path d="M21.4549 42.3413V39.4159C21.0297 39.0711 20.7903 38.6835 20.7896 38.2734V42.3413C20.7896 44.1061 23.7049 45.5367 27.3013 45.5367C27.4126 45.5367 27.5233 45.5353 27.6336 45.5325C24.1918 45.4474 21.4549 44.0513 21.4549 42.3413Z" fill="#FFFBEE"/>
<path d="M21.4549 39.4159V38.2734C21.4549 38.2734 21.4549 38.2724 21.4549 38.2717V28.5588C21.0297 28.2144 20.7903 27.8268 20.7896 27.4167V38.2734C20.7903 38.6835 21.0297 39.0711 21.4549 39.4159Z" fill="#F9EDDC"/>
<path d="M24.7256 11.2642V11.8939C24.7256 12.2717 25.8785 12.5781 27.301 12.5781C28.7235 12.5781 29.8765 12.2717 29.8765 11.8939V11.2642H24.7256Z" fill="#FFFCF3"/>
<path d="M27.301 11.9484C28.7234 11.9484 29.8765 11.6421 29.8765 11.2642C29.8765 10.8864 28.7234 10.58 27.301 10.58C25.8787 10.58 24.7256 10.8864 24.7256 11.2642C24.7256 11.6421 25.8787 11.9484 27.301 11.9484Z" fill="#E5E5E5"/>
<path d="M25.0015 8.56331V11.1873C25.0015 11.4986 26.0311 11.7506 27.3012 11.7506C28.5713 11.7506 29.6009 11.4983 29.6009 11.1873V8.56331H25.0015Z" fill="#040000"/>
<path d="M27.3012 9.12661C28.5713 9.12661 29.6009 8.87441 29.6009 8.56331C29.6009 8.2522 28.5713 8 27.3012 8C26.0311 8 25.0015 8.2522 25.0015 8.56331C25.0015 8.87441 26.0311 9.12661 27.3012 9.12661Z" fill="#353535"/>
<path opacity="0.17" d="M24.3221 28.0802C24.6972 28.0802 25.0016 28.375 25.0016 28.7383V41.6832C25.0016 42.0465 24.6972 42.3413 24.3221 42.3413C23.947 42.3413 23.6426 42.0465 23.6426 41.6832V28.7383C23.6426 28.375 23.947 28.0802 24.3221 28.0802Z" fill="#F3EDE6"/>
</svg>
