<svg width="56" height="55" viewBox="0 0 56 55" fill="none" xmlns="http://www.w3.org/2000/svg">
<g clip-path="url(#clip0_2010_1740)">
<path d="M29.5926 14.6148H25.4067V16.0733H29.5926V14.6148Z" fill="#946D20"/>
<path d="M21.8472 46C21.0381 46 20.2546 45.7372 19.5989 45.2467C10.6523 38.5676 16.699 30.9337 21.4725 27.2985C23.2141 25.9715 24.4192 24.0663 24.9131 21.9421C25.0749 21.2413 25.1601 20.5143 25.1601 19.7785V15.7273H29.8441V19.7785C29.8441 20.5143 29.9293 21.2413 30.0911 21.9421C30.5851 24.0663 31.7901 25.9715 33.5317 27.2985C38.3052 30.9337 44.3519 38.5676 35.4054 45.2467C34.7496 45.7372 33.9661 46 33.157 46H21.8472Z" fill="#7A0C06"/>
<path d="M33.2763 27.6533C32.7994 27.2898 32.365 26.8824 31.9648 26.4401H23.0353C22.635 26.8824 22.2007 27.2898 21.7238 27.6533C20.2419 28.7833 15.4046 32.8389 15.4259 37.6391C15.4386 40.2713 16.9247 42.7152 19.8459 44.8963C20.4335 45.3343 21.1233 45.5664 21.843 45.5664C25.8244 44.4715 29.5844 44.5196 33.1528 45.5664C33.8725 45.5664 34.5665 45.3343 35.1499 44.8963C38.0711 42.7152 39.5614 40.2757 39.57 37.6391C39.5912 32.8389 34.7539 28.7833 33.272 27.6533H33.2763Z" fill="#610A05"/>
<path d="M25.5687 15.1798C24.8107 15.1798 24.1763 14.5929 24.0996 13.8177C24.0059 12.841 23.8313 11.8687 23.6695 10.8964C23.5247 10.0292 24.1252 9.21023 24.9725 9.12701C25.8114 9.0438 26.6588 9 27.5019 9C28.3451 9 29.1882 9.0438 30.0313 9.12701C30.8829 9.21023 31.4791 10.0336 31.3343 10.8964C31.1725 11.8687 30.9979 12.841 30.9042 13.8177C30.8318 14.5929 30.1931 15.1798 29.4352 15.1798H25.5687Z" fill="#CF982D"/>
<path d="M27.5021 22.7305C26.676 22.6779 25.8116 22.4195 24.9131 21.9509C24.9897 21.6136 25.0493 21.2676 25.0919 20.9216C25.126 20.6501 25.1473 20.3742 25.1515 20.0982C25.1558 20.0457 25.1601 19.9887 25.1558 19.9362C25.1558 19.888 25.1558 19.8355 25.1558 19.7873V15.736H29.8398V19.7873C29.8398 19.8355 29.8398 19.888 29.8398 19.9362C29.8398 19.9887 29.8398 20.0457 29.8398 20.0982C29.8398 20.3742 29.8654 20.6501 29.8995 20.9216C29.942 21.2676 30.0017 21.6136 30.0783 21.9509C29.1798 22.4195 28.3154 22.6779 27.4893 22.7305H27.5021Z" fill="#CF982D"/>
<path opacity="0.6" d="M27.5019 21.6136C26.7312 21.5654 25.9264 21.3377 25.0918 20.9216C25.1259 20.6501 25.1472 20.3742 25.1514 20.0982C25.1557 20.0457 25.1599 19.9887 25.1557 19.9362C25.969 20.3304 26.7525 20.5537 27.5019 20.6019C28.2514 20.5537 29.0349 20.3304 29.8482 19.9362C29.8482 19.9887 29.8482 20.0457 29.8482 20.0982C29.8482 20.3742 29.8738 20.6501 29.9078 20.9216C29.0732 21.3377 28.2684 21.5654 27.4977 21.6136H27.5019Z" fill="white"/>
<path d="M27.5019 20.7508C26.7482 20.7027 25.9647 20.4837 25.1514 20.0895C25.1556 20.0369 25.1599 19.0734 25.1599 19.0734C25.9689 19.4632 26.7525 19.6866 27.5019 19.7347C28.2514 19.6866 29.0349 19.4632 29.8439 19.0734C29.8439 19.0734 29.8439 20.0369 29.8524 20.0895C29.0391 20.4837 28.2556 20.7027 27.5019 20.7508Z" fill="#400B08"/>
<path d="M27.5 42C24.2528 41.9609 21.5046 40.5999 20.4568 38.7022C20.1612 38.1727 20 37.597 20 37C20 36.403 20.1459 35.8877 20.4145 35.3795C21.4278 33.4392 24.2068 32.0391 27.5 32C30.7932 32.0391 33.5722 33.4392 34.5855 35.3795C34.8541 35.8877 35 36.4314 35 37C35 37.597 34.8388 38.1727 34.5432 38.7022C33.4954 40.5999 30.7472 41.9609 27.5 42Z" fill="#CF982D"/>
<path opacity="0.8" d="M27.5 42C23.8969 41.95 21 39.7329 21 37C21 34.2671 23.9005 32.05 27.5 32C31.1031 32.05 34 34.2671 34 37C34 39.7329 31.0995 41.95 27.5 42Z" fill="white"/>
<path d="M27.5 41C24.4531 40.9611 22 39.1837 22 37C22 34.8163 24.4531 33.0389 27.5 33C30.5469 33.0389 33 34.8163 33 37C33 39.1837 30.5469 40.9611 27.5 41Z" fill="#CF982D"/>
<path opacity="0.4" d="M27.5 40C25.0079 39.9708 23 38.6387 23 37C23 35.3613 25.0079 34.0292 27.5 34C29.9921 34.0292 32 35.3613 32 37C32 38.6387 29.9921 39.9708 27.5 40Z" fill="white"/>
<path opacity="0.3" d="M26.4376 17.0412C26.5057 17.0412 26.5738 17.4923 26.6335 18.3069C26.6633 18.7143 26.6931 19.2135 26.7186 19.7961C26.7059 20.3917 26.7271 21.0749 26.5909 21.8195C26.5611 22.0078 26.544 22.2005 26.5015 22.3932C26.4546 22.5859 26.4035 22.783 26.3524 22.9801C26.3056 23.1816 26.246 23.3831 26.1693 23.5845C26.0969 23.786 26.0245 23.9918 25.9521 24.2021C25.6072 25.0211 25.1601 25.8664 24.5682 26.6679C23.9721 27.4606 23.2141 28.2139 22.3838 28.8665C21.596 29.4928 20.8167 30.1979 20.0758 30.9688C18.6152 32.5192 17.4229 34.2404 16.9588 35.9967C16.7203 36.8683 16.6777 37.7267 16.7757 38.515C16.8566 38.9048 16.9162 39.2859 17.061 39.6319C17.1632 39.991 17.3378 40.3107 17.4911 40.6173C18.1468 41.8436 18.9772 42.6583 19.5095 43.2452C20.0843 43.7926 20.3952 44.1211 20.3526 44.1824C20.3143 44.2393 19.9268 44.016 19.2582 43.5517C18.6323 43.0393 17.6912 42.2816 16.8864 40.9896C16.6948 40.6611 16.4861 40.3195 16.3456 39.9209C16.1625 39.5399 16.0731 39.1063 15.9624 38.6596C15.8091 37.753 15.8261 36.75 16.0731 35.7514C16.5585 33.7411 17.8317 31.8841 19.3689 30.2505C20.1482 29.4358 20.9658 28.7088 21.8004 28.0606C22.6009 27.4474 23.278 26.7992 23.8528 26.081C24.4149 25.3583 24.8493 24.6006 25.1984 23.8604C25.2751 23.6721 25.3517 23.4838 25.4241 23.2998C25.505 23.1159 25.5689 22.9363 25.62 22.748C25.6754 22.564 25.7307 22.3845 25.7861 22.2093C25.8329 22.0297 25.8627 21.8545 25.8968 21.6837C26.0714 20.9961 26.0969 20.3567 26.1608 19.7961C26.1906 19.2179 26.2162 18.7186 26.246 18.3113C26.3056 17.4967 26.3695 17.0456 26.4418 17.0456L26.4376 17.0412Z" fill="white"/>
<path opacity="0.3" d="M26.4713 9.74018C26.4798 9.85405 26.1562 9.9285 25.773 10.1519C25.5899 10.2657 25.4153 10.4234 25.3727 10.6293C25.3386 10.7256 25.3472 10.857 25.3599 10.9928C25.3855 11.1767 25.4068 11.3651 25.4323 11.5621C25.4749 11.9563 25.5175 12.3242 25.543 12.6658C25.5728 13.0031 25.6027 13.3053 25.6112 13.5637C25.658 14.063 25.6538 14.3958 25.5516 14.4309C25.4579 14.4659 25.279 14.1812 25.0917 13.6688C25.015 13.4148 24.9299 13.1082 24.8575 12.7666C24.7936 12.425 24.7297 12.0483 24.6871 11.6541C24.6658 11.457 24.6446 11.2687 24.6275 11.0716C24.619 10.8395 24.6275 10.5986 24.7255 10.3752C24.8149 10.1563 24.9639 9.97668 25.1215 9.86281C25.2748 9.74456 25.4366 9.68324 25.5771 9.63944C26.1477 9.49929 26.4756 9.63944 26.4756 9.73142L26.4713 9.74018Z" fill="white"/>
<path opacity="0.2" d="M33.5319 27.2985C31.7903 25.9715 30.5853 24.0663 30.0913 21.9421C30.053 21.7713 30.0189 21.5961 29.9848 21.4209C29.9763 21.3771 29.9721 21.329 29.9636 21.2852C29.9423 21.1538 29.921 21.018 29.9039 20.8822C29.9039 20.8647 29.9039 20.8516 29.8997 20.834C29.8826 20.6895 29.8699 20.545 29.8614 20.4004C29.8571 20.3129 29.8528 20.2253 29.8486 20.1377C29.8486 20.0939 29.8486 20.0501 29.8486 20.0107C29.8486 19.7741 29.8401 19.0734 29.8401 19.0734V15.7273H29.5931V15.1623C30.2744 15.0835 30.8322 14.536 30.9004 13.8177C30.994 12.841 31.1686 11.8687 31.3304 10.8964C31.4752 10.0292 30.8748 9.21023 30.0274 9.12701C29.1886 9.0438 28.3412 9 27.498 9V46H33.153C33.962 46 34.7455 45.7372 35.4013 45.2467C44.3478 38.5676 38.3011 30.9337 33.5277 27.2985H33.5319Z" fill="#1D1D1B"/>
</g>
<defs>
<clipPath id="clip0_2010_1740">
<rect width="26" height="37" fill="white" transform="translate(15 9)"/>
</clipPath>
</defs>
</svg>
