<svg width="56" height="55" viewBox="0 0 56 55" fill="none" xmlns="http://www.w3.org/2000/svg">
<path d="M33.9596 27.9517C33.8766 24.3447 33.3098 22.9602 32.3042 22.3643C30.3346 21.1965 30.0995 19.4917 30.0995 19.4917L29.735 10.5779H26.2646L25.9001 19.4917C25.9001 19.4917 25.6651 21.1965 23.6954 22.3643C22.6899 22.9602 22.123 24.3447 22.04 27.9517C21.942 32.1991 22.0526 41.9726 22.0526 41.9726C22.0526 41.9726 22.0023 44 24.0222 44H31.9749C33.9961 44 33.9445 41.9726 33.9445 41.9726C33.9445 41.9726 34.0551 32.1991 33.9571 27.9517H33.9596Z" fill="#AAD6DF"/>
<g style="mix-blend-mode:multiply">
<path d="M32.0279 43.2223C31.461 43.0573 30.9067 42.8671 30.3273 42.7395C29.7088 42.6034 29.0791 42.5144 28.4469 42.4722C27.8335 42.4313 27.2251 42.4409 26.6143 42.5071C26.0511 42.5685 25.4943 42.6745 24.9463 42.8153C24.6673 42.8864 24.3907 42.9658 24.1155 43.0513C23.8528 43.132 23.5938 43.2307 23.3223 43.2789C23.0219 43.3318 22.7089 43.3318 22.4224 43.2343C22.6989 43.646 23.1803 43.9988 24.0237 43.9988H31.9764C32.6614 43.9988 33.1076 43.7652 33.3992 43.4582C32.9329 43.4667 32.4716 43.3511 32.0292 43.2223H32.0279Z" fill="#AAD6DF"/>
</g>
<g style="mix-blend-mode:multiply">
<path d="M32.3042 22.3655C30.3346 21.1977 30.0996 19.4929 30.0996 19.4929L30.0908 19.281C29.7891 19.3689 29.4812 19.4376 29.1707 19.4869C28.6139 19.5736 28.0432 19.6085 27.4801 19.5543C27.005 19.5098 26.5072 19.4063 26.1038 19.1498C26.0371 19.1077 25.9768 19.0607 25.919 19.0102L25.8989 19.4929C25.8989 19.4929 25.6638 21.1977 23.6942 22.3655C23.2643 22.6207 22.9149 23.0204 22.6484 23.6766C22.7666 23.5658 22.8935 23.4635 23.0318 23.3768C23.2895 23.2143 23.5773 23.1095 23.8689 23.0156C25.1485 22.6063 26.5198 22.4919 27.861 22.5088C28.9633 22.5232 30.0832 22.5967 31.1592 22.8398C31.9322 23.0144 32.6851 23.2877 33.3563 23.6934C33.0898 23.0265 32.7379 22.6219 32.303 22.3655H32.3042Z" fill="#AAD6DF"/>
</g>
<path d="M33.9811 37.8889C34.0025 34.6973 34.015 30.4041 33.9585 27.9517C33.9509 27.6375 33.9396 27.3425 33.9258 27.0608H22.0728C22.0578 27.3413 22.0477 27.6375 22.0402 27.9517C21.9836 30.4041 21.9974 34.6973 22.0175 37.8889H33.9811Z" fill="#CEE9EF"/>
<g style="mix-blend-mode:multiply">
<path d="M33.9596 27.9517C33.8766 24.3447 33.3098 22.9602 32.3042 22.3643C30.3346 21.1965 30.0995 19.4917 30.0995 19.4917L29.735 10.5779H26.2646L25.9001 19.4917C25.9001 19.4917 25.6651 21.1965 23.6954 22.3643C22.6899 22.9602 22.123 24.3447 22.04 27.9517C21.942 32.1991 22.0526 41.9726 22.0526 41.9726C22.0526 41.9726 22.0023 44 24.0222 44H31.9749C33.9961 44 33.9445 41.9726 33.9445 41.9726C33.9445 41.9726 34.0551 32.1991 33.9571 27.9517H33.9596ZM31.0774 42.1797C31.046 43.5871 29.2951 43.4679 29.2951 43.4679H24.1668C22.8219 43.2885 23.0091 41.4308 23.0091 41.4308C23.0091 41.4308 22.7276 26.1988 23.0091 25.0755C23.2907 23.9523 23.0092 23.7271 24.5803 22.7616C26.1515 21.796 26.3865 19.706 26.3865 19.706L26.5738 13.4601H27.9653C27.9653 13.4601 27.8873 18.844 27.9653 20.113C28.0432 21.3819 28.9821 23.0084 30.1548 23.5068C31.3288 24.0064 31.0762 27.2871 31.0762 27.2871C31.0762 27.2871 31.1076 40.7699 31.0762 42.1785L31.0774 42.1797Z" fill="#AAD6DF"/>
</g>
<g style="mix-blend-mode:multiply">
<path d="M33.9596 27.9517C33.8767 24.3447 33.3098 22.9602 32.3043 22.3643C30.3346 21.1965 30.0996 19.4917 30.0996 19.4917L29.7351 10.5779H29.2951C29.2876 10.9872 29.2574 11.3965 29.2298 11.8047C29.1908 12.3862 29.1732 12.9641 29.1845 13.5468C29.2072 14.7459 29.3102 15.9402 29.3605 17.1369C29.407 18.2541 29.4296 19.3918 29.7439 20.4765C29.8872 20.9701 30.0933 21.4433 30.3862 21.8731C30.6489 22.2571 30.9593 22.6075 31.2673 22.9578C31.8756 23.6537 32.4249 24.3568 32.6323 25.2597C32.8875 26.3649 32.7392 42.3699 32.7266 42.6022C32.7153 42.8214 32.6926 43.0597 32.5883 43.2584C32.4903 43.4474 32.352 43.6147 32.1936 43.7604C32.0843 43.8603 31.9724 43.9314 31.8392 43.9976H31.9774C33.9986 43.9976 33.9471 41.9702 33.9471 41.9702C33.9471 41.9702 34.0577 32.1967 33.9596 27.9493V27.9517Z" fill="#AAD6DF"/>
</g>
<path d="M29.6472 10H26.3528C26.3528 10 25.8438 9.97714 25.8438 10.4719V12.81H30.1563V10.4719C30.1563 9.97834 29.6472 10 29.6472 10Z" fill="#1566B0"/>
<path d="M29.7564 11.1775H26.1753C26.076 11.1775 25.9956 11.1004 25.9956 11.0053C25.9956 10.9102 26.076 10.8331 26.1753 10.8331H29.7564C29.8557 10.8331 29.9361 10.9102 29.9361 11.0053C29.9361 11.1004 29.8557 11.1775 29.7564 11.1775Z" fill="#133984"/>
<path d="M29.7564 11.8866H26.1753C26.076 11.8866 25.9956 11.8095 25.9956 11.7144C25.9956 11.6193 26.076 11.5422 26.1753 11.5422H29.7564C29.8557 11.5422 29.9361 11.6193 29.9361 11.7144C29.9361 11.8095 29.8557 11.8866 29.7564 11.8866Z" fill="#133984"/>
<path d="M29.7564 12.5957H26.1753C26.076 12.5957 25.9956 12.5186 25.9956 12.4235C25.9956 12.3284 26.076 12.2513 26.1753 12.2513H29.7564C29.8557 12.2513 29.9361 12.3284 29.9361 12.4235C29.9361 12.5186 29.8557 12.5957 29.7564 12.5957Z" fill="#133984"/>
<g style="mix-blend-mode:screen">
<path d="M25.0329 25.5126C25.1837 24.8011 25.5382 23.6682 26.2936 23.3491C26.2936 23.3491 25.4854 23.0036 24.9336 23.3491C24.9336 23.3491 23.6201 23.8475 23.6201 25.3609V25.509C24.0915 25.5138 24.5628 25.5186 25.0342 25.5126H25.0329Z" fill="#AAD6DF"/>
</g>
<g style="mix-blend-mode:screen">
<path d="M23.6191 26.2301V35.6604L24.9264 26.1519C24.4902 26.1675 24.054 26.194 23.6191 26.2301Z" fill="#AAD6DF"/>
</g>
</svg>
