<svg width="16" height="14" viewBox="0 0 16 14" fill="none" xmlns="http://www.w3.org/2000/svg">
<path fill-rule="evenodd" clip-rule="evenodd" d="M11.4997 11.9994C11.6323 11.9994 11.7595 11.9467 11.8532 11.8529C11.947 11.7592 11.9997 11.632 11.9997 11.4994V1.70768L15.1454 4.85427C15.2393 4.94815 15.3666 5.00089 15.4994 5.00089C15.6322 5.00089 15.7595 4.94815 15.8534 4.85427C15.9473 4.7604 16 4.63308 16 4.50032C16 4.36756 15.9473 4.24024 15.8534 4.14636L11.8537 0.146875C11.8073 0.100318 11.7521 0.0633796 11.6913 0.0381764C11.6306 0.0129731 11.5655 0 11.4997 0C11.434 0 11.3688 0.0129731 11.3081 0.0381764C11.2474 0.0633796 11.1922 0.100318 11.1458 0.146875L7.14607 4.14636C7.05219 4.24024 6.99945 4.36756 6.99945 4.50032C6.99945 4.63308 7.05219 4.7604 7.14607 4.85427C7.23995 4.94815 7.36727 5.00089 7.50004 5.00089C7.63281 5.00089 7.76013 4.94815 7.85401 4.85427L10.9998 1.70768V11.4994C10.9998 11.632 11.0524 11.7592 11.1462 11.8529C11.24 11.9467 11.3671 11.9994 11.4997 11.9994ZM4.50028 2.00064C4.63287 2.00064 4.76004 2.05331 4.8538 2.14707C4.94756 2.24082 5.00024 2.36798 5.00024 2.50057V12.2923L8.14599 9.14573C8.23987 9.05185 8.3672 8.99911 8.49996 8.99911C8.63273 8.99911 8.76005 9.05185 8.85393 9.14573C8.94781 9.2396 9.00055 9.36692 9.00055 9.49968C9.00055 9.63244 8.94781 9.75976 8.85393 9.85364L4.85425 13.8531C4.80781 13.8997 4.75264 13.9366 4.6919 13.9618C4.63116 13.987 4.56604 14 4.50028 14C4.43451 14 4.3694 13.987 4.30866 13.9618C4.24792 13.9366 4.19275 13.8997 4.1463 13.8531L0.14662 9.85364C0.0527408 9.75976 -3.12806e-09 9.63244 0 9.49968C3.12806e-09 9.36692 0.0527408 9.2396 0.14662 9.14573C0.240499 9.05185 0.367827 8.99911 0.500592 8.99911C0.633357 8.99911 0.760685 9.05185 0.854564 9.14573L4.00032 12.2923V2.50057C4.00032 2.36798 4.05299 2.24082 4.14675 2.14707C4.24051 2.05331 4.36768 2.00064 4.50028 2.00064Z" fill="#888888"/>
</svg>
