<svg width="70" height="67" viewBox="0 0 70 67" fill="none" xmlns="http://www.w3.org/2000/svg">
<g id="Group 156">
<g id="Group">
<path id="Vector" d="M35.7592 23.5222L34.3288 20.9101C33.852 20.0437 32.9499 19.5006 31.9576 19.5006H10.5135C9.01863 19.5006 7.80725 20.7161 7.80725 22.2161V63.337C7.80725 64.9016 9.07018 66.156 10.6166 66.156H59.3425C60.9019 66.156 62.1519 64.8887 62.1519 63.337V27.4532C62.1519 25.9532 60.9405 24.7377 59.4456 24.7377H37.8083C36.9577 24.7377 36.1716 24.2722 35.7592 23.5222Z" fill="#B1BCC9"/>
<path id="Vector_2" opacity="0.3" d="M35.7592 23.5222L34.3288 20.9101C33.852 20.0437 32.9499 19.5006 31.9576 19.5006H10.5135C9.01863 19.5006 7.80725 20.7161 7.80725 22.2161V63.337C7.80725 64.9016 9.07018 66.156 10.6166 66.156H59.3425C60.9019 66.156 62.1519 64.8887 62.1519 63.337V27.4532C62.1519 25.9532 60.9405 24.7377 59.4456 24.7377H37.8083C36.9577 24.7377 36.1716 24.2722 35.7592 23.5222Z" fill="#C2C1C7"/>
</g>
<g id="Group_2">
<g id="Mask group">
<mask id="mask0_353_9296" style="mask-type:alpha" maskUnits="userSpaceOnUse" x="9" y="19" width="52" height="44">
<path id="Vector_3" opacity="0.3" d="M35.6974 23.4251L34.3801 21.0197C33.941 20.2219 33.1103 19.7217 32.1965 19.7217H12.4492C11.0726 19.7217 9.95703 20.8411 9.95703 22.2224V60.0897C9.95703 61.5305 11.12 62.6856 12.5441 62.6856H57.4147C58.8507 62.6856 60.0018 61.5186 60.0018 60.0897V27.0451C60.0018 25.6638 58.8863 24.5445 57.5097 24.5445H37.5843C36.8011 24.5445 36.0772 24.1158 35.6974 23.4251Z" fill="white"/>
</mask>
<g mask="url(#mask0_353_9296)">
<path id="Vector_4" d="M49.1684 -2.16681H20.8337C18.0723 -2.16681 15.8337 0.0717628 15.8337 2.83319V39.5015C15.8337 42.2629 18.0723 44.5015 20.8337 44.5015H49.1684C51.9298 44.5015 54.1684 42.2629 54.1684 39.5015V2.83319C54.1684 0.0717669 51.9298 -2.16681 49.1684 -2.16681Z" fill="white"/>
</g>
</g>
<path id="Vector_5" d="M18.5851 7.51649C17.3629 8.02332 16.3853 9.00095 15.8784 10.2231L16.4788 10.4721C16.2665 10.9841 16.149 11.5461 16.149 12.1371V13.8943H15.499V17.4086H16.149V20.9229H15.499V24.4373H16.149V27.9516H15.499V31.466H16.149V34.9803H15.499V38.4947H16.149V40.2518C16.149 40.8429 16.2665 41.4048 16.4788 41.9168L15.8784 42.1658C16.3853 43.388 17.3629 44.3656 18.5851 44.8724L18.8341 44.272C19.3461 44.4843 19.908 44.6018 20.499 44.6018H22.266V45.2518H25.8001V44.6018H29.3341V45.2518H32.8682V44.6018H36.4022V45.2518H39.9363V44.6018H43.4703V45.2518H47.0043V44.6018H48.7714C49.3624 44.6018 49.9243 44.4843 50.4363 44.272L50.6853 44.8724C51.9075 44.3656 52.8851 43.388 53.392 42.1658L52.7915 41.9168C53.0038 41.4048 53.1214 40.8429 53.1214 40.2518V38.4947H53.7714V34.9803H53.1214V31.466H53.7714V27.9516H53.1214V24.4373H53.7714V20.9229H53.1214V17.4086H53.7714V13.8943H53.1214V12.1371C53.1214 11.5461 53.0038 10.9841 52.7915 10.4721L53.392 10.2231C52.8851 9.00095 51.9075 8.02332 50.6853 7.51649L50.4363 8.11691C49.9243 7.90459 49.3624 7.78708 48.7714 7.78708H47.0043V7.13708H43.4703V7.78708H39.9363V7.13708H36.4022V7.78708H32.8682V7.13708H29.3341V7.78708H25.8001V7.13708H22.266V7.78708H20.499C19.908 7.78708 19.3461 7.90459 18.8341 8.11691L18.5851 7.51649Z" stroke="#A6A6A6" stroke-width="1.3" stroke-dasharray="4 4"/>
</g>
<g id="Group_3">
<path id="Vector_6" d="M66.946 31.2349C55.541 31.2349 49.8449 31.2349 38.4399 31.2349C37.1254 31.2349 35.914 31.7004 35.2825 32.4504C34.5222 33.3556 34.1485 33.7953 33.4139 34.7004C32.8855 35.347 31.8803 35.7479 30.785 35.7479C19.6505 35.7479 14.0705 35.7479 2.93605 35.7479C1.01588 35.7479 -0.272823 36.7953 0.0493534 38.0884C2.76852 48.6789 4.13455 53.9678 6.85371 64.5454C7.20166 65.8902 8.73522 66.9764 10.2688 66.9764H58.5694C60.1159 66.9764 61.6365 65.8902 61.9845 64.5454C64.6392 54.2134 67.2939 43.8944 69.9487 33.5625C70.2837 32.2694 68.9435 31.222 66.946 31.222V31.2349Z" fill="#EEF1F5"/>
</g>
<g id="Group 159">
<rect id="Rectangle 50" x="11.6519" y="52.8351" width="8.33362" height="2.50009" rx="1.25004" fill="#CBCFD8"/>
<rect id="Rectangle 51" x="11.6519" y="58.6686" width="15.0005" height="2.50009" rx="1.25004" fill="#CBCFD8"/>
</g>
<g id="Group 157">
<path id="Vector 9" d="M7.50024 7.00018L10.8337 8.66691" stroke="#8EA0F1" stroke-width="3" stroke-linecap="round"/>
<path id="Vector 10" d="M12.5004 2L14.1671 4.50009" stroke="#8EA0F1" stroke-width="3" stroke-linecap="round"/>
</g>
</g>
</svg>
