<svg width="372" height="100" viewBox="0 0 372 100" fill="none" xmlns="http://www.w3.org/2000/svg">
<g clip-path="url(#clip0_523_2849)">
<rect width="372" height="100" fill="#F9E784"/>
<path d="M237.5 100.5L0 41V90.5C0 96.0228 4.47715 100.5 10 100.5H237.5Z" fill="#3570F6"/>
<path d="M14.683 13.06H13.766L13.507 14.495H14.305V15.055H13.402L13.122 16.581H12.499L12.779 15.055H11.722L11.442 16.581H10.819L11.099 15.055H10.287V14.495H11.204L11.463 13.06H10.665V12.5H11.568L11.848 10.974H12.471L12.191 12.5H13.248L13.528 10.974H14.151L13.871 12.5H14.683V13.06ZM12.884 14.495L13.143 13.06H12.086L11.827 14.495H12.884ZM22.2026 16.728V10.75H22.9026V16.728H22.2026ZM19.3816 16.448C18.3176 16.448 17.5686 15.566 17.5686 13.669C17.5686 11.772 18.3176 10.89 19.3816 10.89C20.4386 10.89 21.1876 11.772 21.1876 13.669C21.1876 15.566 20.4386 16.448 19.3816 16.448ZM19.3816 15.811C20.0046 15.811 20.4946 15.188 20.4946 13.669C20.4946 12.157 20.0046 11.527 19.3816 11.527C18.7446 11.527 18.2616 12.157 18.2616 13.669C18.2616 15.188 18.7446 15.811 19.3816 15.811ZM29.797 10.75V15.237H29.139V10.75H29.797ZM26.822 12.864V14.313H24.232V10.855H24.876V11.982H26.185V10.855H26.822V12.22H27.697V10.785H28.348V15.132H27.697V12.864H26.822ZM24.876 13.746H26.185V12.542H24.876V13.746ZM25.317 16.021H29.944V16.651H24.61V14.859H25.317V16.021ZM36.4534 14.166V14.789H31.1824V10.967H36.3624V11.59H31.8754V12.57H36.2854V13.179H31.8754V14.166H36.4534ZM30.7834 15.804H36.7544V16.441H30.7834V15.804ZM14.683 20.06H13.766L13.507 21.495H14.305V22.055H13.402L13.122 23.581H12.499L12.779 22.055H11.722L11.442 23.581H10.819L11.099 22.055H10.287V21.495H11.204L11.463 20.06H10.665V19.5H11.568L11.848 17.974H12.471L12.191 19.5H13.248L13.528 17.974H14.151L13.871 19.5H14.683V20.06ZM12.884 21.495L13.143 20.06H12.086L11.827 21.495H12.884ZM22.4056 17.75H23.0636V23.728H22.4056V17.75ZM20.9636 20.158V17.785H21.6146V23.623H20.9636V20.802H19.4376V20.158H20.9636ZM18.1776 22.755H19.0176C19.5286 22.755 20.0466 22.65 20.4106 22.489V23.098C20.0536 23.266 19.4796 23.371 18.9406 23.371H17.4986V17.967H20.1516V18.583H18.1776V22.755ZM27.382 22.79H30.021V23.441H24.05V22.79H26.675V21.355H24.442V17.967H29.622V21.355H27.382V22.79ZM25.135 18.618V20.711H28.929V18.618H25.135ZM14.683 27.06H13.766L13.507 28.495H14.305V29.055H13.402L13.122 30.581H12.499L12.779 29.055H11.722L11.442 30.581H10.819L11.099 29.055H10.287V28.495H11.204L11.463 27.06H10.665V26.5H11.568L11.848 24.974H12.471L12.191 26.5H13.248L13.528 24.974H14.151L13.871 26.5H14.683V27.06ZM12.884 28.495L13.143 27.06H12.086L11.827 28.495H12.884ZM22.2026 30.728V24.75H22.9026V30.728H22.2026ZM19.3816 30.448C18.3176 30.448 17.5686 29.566 17.5686 27.669C17.5686 25.772 18.3176 24.89 19.3816 24.89C20.4386 24.89 21.1876 25.772 21.1876 27.669C21.1876 29.566 20.4386 30.448 19.3816 30.448ZM19.3816 29.811C20.0046 29.811 20.4946 29.188 20.4946 27.669C20.4946 26.157 20.0046 25.527 19.3816 25.527C18.7446 25.527 18.2616 26.157 18.2616 27.669C18.2616 29.188 18.7446 29.811 19.3816 29.811ZM28.936 30.728V24.75H29.629V30.728H28.936ZM24.393 30.371V24.967H27.781V30.371H24.393ZM25.086 29.72H27.088V25.618H25.086V29.72ZM35.6694 24.75H36.3624V30.728H35.6694V24.75ZM33.3384 25.604C33.3314 26.297 33.2614 26.934 33.1494 27.494L35.1024 29.909L34.5564 30.322L32.9464 28.271C32.5334 29.524 31.8194 30.266 30.9164 30.371V29.685C31.9804 29.489 32.6104 27.823 32.6384 25.604H31.0564V24.967H34.8714V25.604H33.3384Z" fill="#3570F6"/>
<path d="M315 25L291 45.5" stroke="white" stroke-width="3" stroke-linecap="round"/>
<path d="M19.5 71L-7 92.5" stroke="white" stroke-width="3" stroke-linecap="round"/>
<path d="M80 48.5V26.5L102 37.5L80 48.5Z" stroke="#DB827B" stroke-width="3" stroke-linecap="round"/>
<path d="M153.985 50.99V38.81H136.105V34.1H159.265V50.99H153.985ZM148.345 53.48H160.675V58.22H134.755V53.48H143.095V43.46H148.345V53.48ZM184.313 33.5H189.113V49.22H184.313V43.22H182.063V48.95H177.323V33.62H182.063V38.48H184.313V33.5ZM175.523 39.08C175.523 45.35 170.183 48.74 163.973 48.8V44.48C168.023 44.36 170.633 42.53 170.633 39.44V37.97H163.973V33.8H175.523V39.08ZM165.413 54.41V50.12H189.113V59.42H184.103V54.41H165.413ZM219.53 37.76V42.68H216.53V47.36H211.46V33.5H216.53V37.76H219.53ZM208.19 37.28C208.19 44.33 201.74 47.09 192.92 47.09V42.8C199.01 42.74 203.03 41.06 203.03 38.39V38H192.92V33.8H208.19V37.28ZM193.91 59.12V48.26H216.53V59.12H193.91ZM198.98 52.43V54.95H211.46V52.43H198.98ZM248.387 42.86V47.78H245.387V59.12H240.317V33.5H245.387V42.86H248.387ZM233.357 34.19C233.357 38.06 232.997 41.54 232.367 44.54L239.777 54.98L235.637 57.89L230.537 50.42C228.437 55.22 225.227 57.89 221.327 57.92V52.7C225.437 52.22 228.167 44.72 228.197 34.01L233.357 34.19Z" fill="#3570F6"/>
<path d="M156.16 21V27.832H154.808V21H156.16ZM153.816 21.16V24.92H151.2V26.296H152.68C153.328 26.296 154.032 26.16 154.448 25.968V27.184C154.032 27.392 153.304 27.512 152.624 27.512H149.856V23.72H152.472V22.376H149.84V21.16H153.816ZM163.799 23.064V24.312H157.647V21.04H159.031V23.064H163.799ZM164.159 24.896V26.136H162.711V27.992H161.367V26.136H160.039V27.992H158.695V26.136H157.247V24.896H164.159ZM169.191 23.24C168.919 23.904 168.175 24.32 167.127 24.32C165.799 24.32 164.959 23.656 164.959 22.664C164.959 21.68 165.799 21.008 167.127 21.008C168.135 21.008 168.855 21.392 169.151 22.008H170.231V21H171.583V24.344H170.231V23.24H169.191ZM166.295 22.664C166.295 23.024 166.615 23.256 167.127 23.256C167.639 23.256 167.959 23.024 167.959 22.664C167.959 22.304 167.639 22.072 167.127 22.072C166.615 22.072 166.295 22.304 166.295 22.664ZM166.895 26.896H171.655V27.832H165.559V25.792H170.247V25.52H165.543V24.584H171.583V26.624H166.895V26.896ZM180.512 27.832V21H181.304V27.832H180.512ZM175.248 27.408V26.656C177.112 26.648 178.232 25.2 178.232 22.912V21.976H175.248V21.248H179.04V22.896C179.04 25.632 177.584 27.408 175.248 27.408ZM188.272 21H189.056V25.056H188.272V23.496H185.808V22.888H188.272V22.208H185.808V21.6H188.272V21ZM187.424 24.6C186.984 24.776 186.168 24.856 185.224 24.856H182.904V21.128H183.704V24.232H185.272C186.184 24.232 186.968 24.152 187.424 23.976V24.6ZM183.24 27.744V25.432H189.056V27.744H183.24ZM184.032 26.056V27.112H188.264V26.056H184.032ZM198.105 25.752V21.984H192.977V21.24H198.929V25.752H198.105ZM195.921 26.76H199.385V27.504H192.561V26.76H195.105V23.712H195.921V26.76ZM206.064 21H206.824V25.208H206.064V23.296H204.912V25.136H204.152V21.04H204.912V22.56H206.064V21ZM203.352 22.328C203.352 24.024 202.072 24.968 200.408 24.976V24.288C201.696 24.272 202.584 23.576 202.584 22.376V21.84H200.408V21.168H203.352V22.328ZM200.84 26.264V25.584H206.824V27.832H206.04V26.264H200.84ZM216.754 21V27.832H215.402V21H216.754ZM212.498 21.08C213.786 21.08 214.642 22.088 214.642 24.336C214.642 26.584 213.786 27.592 212.498 27.592C211.21 27.592 210.346 26.584 210.346 24.336C210.346 22.088 211.21 21.08 212.498 21.08ZM212.498 22.32C212.042 22.32 211.682 22.808 211.682 24.336C211.682 25.872 212.042 26.352 212.498 26.352C212.946 26.352 213.306 25.872 213.306 24.336C213.306 22.808 212.946 22.32 212.498 22.32ZM224.641 21V26.064H223.377V21H224.641ZM221.097 23.728V25.176H217.961V21.08H219.177V22.064H219.881V21.08H221.097V22.464H221.657V21.032H222.905V25.944H221.657V23.728H221.097ZM219.177 24.104H219.881V23.112H219.177V24.104ZM219.729 26.616H224.721V27.832H218.353V25.64H219.729V26.616ZM232.153 24.536V25.72H225.921V21.16H232.073V22.344H227.257V22.88H231.961V24H227.257V24.536H232.153ZM225.537 26.352H232.449V27.592H225.537V26.352Z" fill="#3570F6"/>
<path d="M170.006 71.54V66.65H171.884C173.156 66.65 173.9 67.358 173.9 68.438C173.9 69.53 173.156 70.238 171.884 70.238H171.098V71.54H170.006ZM171.098 69.272H171.836C172.442 69.272 172.808 68.984 172.808 68.438C172.808 67.898 172.442 67.616 171.836 67.616H171.098V69.272ZM178.665 71.54H177.399L176.451 69.998H175.581V71.54H174.489V66.65H176.457C177.699 66.65 178.425 67.31 178.425 68.324C178.425 68.996 178.107 69.512 177.531 69.782L178.665 71.54ZM175.581 67.616V69.032H176.409C176.985 69.032 177.333 68.786 177.333 68.324C177.333 67.862 176.985 67.616 176.409 67.616H175.581ZM181.542 71.66C180.024 71.66 178.902 70.574 178.902 69.092C178.902 67.61 180.024 66.524 181.542 66.524C183.06 66.524 184.182 67.61 184.182 69.092C184.182 70.574 183.06 71.66 181.542 71.66ZM181.542 70.676C182.43 70.676 183.09 70.01 183.09 69.092C183.09 68.168 182.43 67.508 181.542 67.508C180.654 67.508 179.994 68.168 179.994 69.092C179.994 70.01 180.654 70.676 181.542 70.676ZM184.83 71.54V66.65H185.7L187.386 69.386L189.072 66.65H189.942V71.54H188.85V68.858L187.716 70.736H187.056L185.922 68.858V71.54H184.83ZM193.231 71.66C191.713 71.66 190.591 70.574 190.591 69.092C190.591 67.61 191.713 66.524 193.231 66.524C194.749 66.524 195.871 67.61 195.871 69.092C195.871 70.574 194.749 71.66 193.231 71.66ZM193.231 70.676C194.119 70.676 194.779 70.01 194.779 69.092C194.779 68.168 194.119 67.508 193.231 67.508C192.343 67.508 191.683 68.168 191.683 69.092C191.683 70.01 192.343 70.676 193.231 70.676ZM200.293 66.65V67.616H198.703V71.54H197.611V67.616H196.021V66.65H200.293ZM200.879 66.65H201.971V71.54H200.879V66.65ZM205.26 71.66C203.742 71.66 202.62 70.574 202.62 69.092C202.62 67.61 203.742 66.524 205.26 66.524C206.778 66.524 207.9 67.61 207.9 69.092C207.9 70.574 206.778 71.66 205.26 71.66ZM205.26 70.676C206.148 70.676 206.808 70.01 206.808 69.092C206.808 68.168 206.148 67.508 205.26 67.508C204.372 67.508 203.712 68.168 203.712 69.092C203.712 70.01 204.372 70.676 205.26 70.676ZM208.549 71.54V66.65H209.461L211.903 69.59V66.59H212.995V71.48H212.083L209.641 68.54V71.54H208.549ZM171.49 73.518C172.558 73.518 173.362 74.376 173.362 76.092C173.362 77.802 172.558 78.66 171.49 78.66C170.422 78.66 169.618 77.802 169.618 76.092C169.618 74.376 170.422 73.518 171.49 73.518ZM171.49 74.472C171.01 74.472 170.65 74.976 170.65 76.092C170.65 77.202 171.01 77.706 171.49 77.706C171.97 77.706 172.33 77.202 172.33 76.092C172.33 74.976 171.97 74.472 171.49 74.472ZM175.649 78.654C174.629 78.654 173.795 77.988 173.795 76.944C173.795 76.47 173.951 76.104 174.239 75.648L175.499 73.65H176.735L175.625 75.306C175.655 75.294 175.709 75.282 175.763 75.282C176.717 75.282 177.503 75.948 177.503 76.938C177.503 77.94 176.675 78.654 175.649 78.654ZM175.649 77.73C176.135 77.73 176.441 77.388 176.441 76.95C176.441 76.512 176.135 76.17 175.649 76.17C175.163 76.17 174.857 76.512 174.857 76.95C174.857 77.388 175.163 77.73 175.649 77.73ZM178.381 77.388C178.723 77.388 178.975 77.646 178.975 77.988C178.975 78.33 178.723 78.588 178.381 78.588C178.033 78.588 177.781 78.33 177.781 77.988C177.781 77.646 178.033 77.388 178.381 77.388ZM179.527 75.744H181.825V76.644H179.527V75.744ZM184.205 73.518C185.273 73.518 186.077 74.376 186.077 76.092C186.077 77.802 185.273 78.66 184.205 78.66C183.137 78.66 182.333 77.802 182.333 76.092C182.333 74.376 183.137 73.518 184.205 73.518ZM184.205 74.472C183.725 74.472 183.365 74.976 183.365 76.092C183.365 77.202 183.725 77.706 184.205 77.706C184.685 77.706 185.045 77.202 185.045 76.092C185.045 74.976 184.685 74.472 184.205 74.472ZM188.447 73.65V78.54H187.361V74.598H186.497V73.65H188.447ZM191.117 75.744H193.415V76.644H191.117V75.744ZM197.476 73.518C198.544 73.518 199.348 74.376 199.348 76.092C199.348 77.802 198.544 78.66 197.476 78.66C196.408 78.66 195.604 77.802 195.604 76.092C195.604 74.376 196.408 73.518 197.476 73.518ZM197.476 74.472C196.996 74.472 196.636 74.976 196.636 76.092C196.636 77.202 196.996 77.706 197.476 77.706C197.956 77.706 198.316 77.202 198.316 76.092C198.316 74.976 197.956 74.472 197.476 74.472ZM201.635 78.654C200.615 78.654 199.781 77.988 199.781 76.944C199.781 76.47 199.937 76.104 200.225 75.648L201.485 73.65H202.721L201.611 75.306C201.641 75.294 201.695 75.282 201.749 75.282C202.703 75.282 203.489 75.948 203.489 76.938C203.489 77.94 202.661 78.654 201.635 78.654ZM201.635 77.73C202.121 77.73 202.427 77.388 202.427 76.95C202.427 76.512 202.121 76.17 201.635 76.17C201.149 76.17 200.843 76.512 200.843 76.95C200.843 77.388 201.149 77.73 201.635 77.73ZM204.367 77.388C204.709 77.388 204.961 77.646 204.961 77.988C204.961 78.33 204.709 78.588 204.367 78.588C204.019 78.588 203.767 78.33 203.767 77.988C203.767 77.646 204.019 77.388 204.367 77.388ZM207.316 73.518C208.33 73.518 209.032 74.112 209.032 74.988C209.032 75.552 208.618 75.966 208.21 76.038C208.66 76.11 209.164 76.5 209.164 77.13C209.164 78.072 208.366 78.66 207.352 78.66C206.278 78.66 205.612 78.06 205.534 77.118H206.608C206.65 77.508 206.896 77.742 207.352 77.742C207.802 77.742 208.102 77.496 208.102 77.136C208.102 76.728 207.76 76.512 207.25 76.512H206.764V75.624H207.25C207.694 75.624 207.958 75.384 207.958 75.012C207.958 74.652 207.718 74.43 207.31 74.43C206.884 74.43 206.686 74.772 206.686 75.12H205.612C205.612 74.19 206.314 73.518 207.316 73.518ZM211.509 73.518C212.577 73.518 213.381 74.376 213.381 76.092C213.381 77.802 212.577 78.66 211.509 78.66C210.441 78.66 209.637 77.802 209.637 76.092C209.637 74.376 210.441 73.518 211.509 73.518ZM211.509 74.472C211.029 74.472 210.669 74.976 210.669 76.092C210.669 77.202 211.029 77.706 211.509 77.706C211.989 77.706 212.349 77.202 212.349 76.092C212.349 74.976 211.989 74.472 211.509 74.472Z" fill="#3570F6"/>
<path d="M326 106L338.5 78L356.5 90L326 106Z" stroke="#97D2BE" stroke-width="3" stroke-linecap="round"/>
<circle cx="179" cy="-1" r="11.5" stroke="#84D2CC"/>
</g>
<defs>
<clipPath id="clip0_523_2849">
<rect width="372" height="100" fill="white"/>
</clipPath>
</defs>
</svg>
