<svg width="47" height="47" viewBox="0 0 47 47" fill="none" xmlns="http://www.w3.org/2000/svg">
<circle cx="23.5" cy="23.5" r="23.5" fill="#D6DBEC"/>
<path d="M17.5245 18.8345C17.5245 15.7839 20.0065 13.3019 23.0571 13.3019C26.1077 13.3019 28.5893 15.7839 28.5893 18.8345C28.5893 21.885 26.1077 24.3667 23.0571 24.3667C20.0065 24.3667 17.5245 21.885 17.5245 18.8345ZM29.922 32.2804C28.6776 32.7968 26.4766 33.4126 23.0568 33.4126C19.637 33.4126 17.4359 32.7968 16.1916 32.2804C15.1343 31.8414 14.5654 30.7099 14.839 29.59C15.4233 27.199 17.073 25.1451 19.274 24.0416C20.3369 24.8158 21.6439 25.2744 23.0568 25.2744C24.4696 25.2744 25.7763 24.8162 26.8392 24.0416C29.0406 25.1455 30.6902 27.199 31.2742 29.59C31.5478 30.7099 30.9789 31.8414 29.9216 32.2804H29.922Z" fill="white"/>
</svg>
