<svg width="372" height="100" viewBox="0 0 372 100" fill="none" xmlns="http://www.w3.org/2000/svg">
<rect width="372" height="100" fill="#4561C0"/>
<path d="M306.997 42.5597L317.054 48.3659L305.202 57.2829L306.997 42.5597Z" fill="white" stroke="#333333"/>
<path d="M313.393 46.2559V51.2559" stroke="#333333"/>
<path d="M310.893 44.7559V53.2559" stroke="#333333"/>
<path d="M307.893 43.2559L307.893 55.2559" stroke="#333333"/>
<path d="M317.899 33L315.618 42.2086L320.631 37.0974L317.899 33Z" fill="#0C25FF" stroke="#333333" stroke-width="0.5"/>
<path d="M324.042 41.1432L319.368 43.6732L325.046 44.1834L324.042 41.1432Z" fill="#FFAD29" stroke="#333333" stroke-width="0.5"/>
<path d="M311.893 35.7559L310.893 39.7559L313.893 37.7559L311.893 35.7559Z" fill="#00BFFF" stroke="#333333" stroke-width="0.5"/>
<path d="M101.92 73.5597L91.8633 79.3659L103.715 88.2829L101.92 73.5597Z" fill="white" stroke="#333333"/>
<path d="M95.5244 77.2559L95.5244 82.2559" stroke="#333333"/>
<path d="M98.0244 75.7559L98.0244 84.2559" stroke="#333333"/>
<path d="M101.024 74.2559L101.024 86.2559" stroke="#333333"/>
<path d="M91.0177 64L93.2985 73.2086L88.286 68.0974L91.0177 64Z" fill="white" stroke="#333333" stroke-width="0.5"/>
<path d="M84.8746 72.1432L89.5489 74.6732L83.8708 75.1834L84.8746 72.1432Z" fill="#F2FF03" stroke="#333333" stroke-width="0.5"/>
<path d="M97.0244 66.7559L98.0244 70.7559L95.0244 68.7559L97.0244 66.7559Z" fill="#FF00D5" stroke="#333333" stroke-width="0.5"/>
<circle cx="326" cy="68" r="3.75" fill="white" stroke="#333333" stroke-width="0.5"/>
<circle cx="338" cy="25" r="3.75" fill="white" stroke="#333333" stroke-width="0.5"/>
<circle cx="313" cy="64" r="2.75" fill="white" stroke="#333333" stroke-width="0.5"/>
<circle cx="306" cy="27" r="1.75" fill="white" stroke="#333333" stroke-width="0.5"/>
<circle cx="332" cy="15" r="1.75" fill="white" stroke="#333333" stroke-width="0.5"/>
<circle cx="357" cy="49" r="1.75" fill="white" stroke="#333333" stroke-width="0.5"/>
<circle cx="325" cy="57" r="1.75" fill="white" stroke="#333333" stroke-width="0.5"/>
<circle cx="286" cy="66" r="1.75" fill="white" stroke="#333333" stroke-width="0.5"/>
<circle cx="110" cy="67" r="1.75" fill="white" stroke="#333333" stroke-width="0.5"/>
<circle cx="37" cy="57" r="1.75" fill="white" stroke="#333333" stroke-width="0.5"/>
<circle cx="41" cy="20" r="1.75" fill="white" stroke="#333333" stroke-width="0.5"/>
<circle cx="68" cy="19" r="1.75" fill="white" stroke="#333333" stroke-width="0.5"/>
<circle cx="68" cy="47" r="1.75" fill="white" stroke="#333333" stroke-width="0.5"/>
<path d="M98.998 21V36.5" stroke="white" stroke-width="0.5"/>
<path d="M103.004 28.7461H95.0039" stroke="white" stroke-width="0.5"/>
<path d="M103 24.748L95 32.748" stroke="white" stroke-width="0.5"/>
<path d="M103.007 32.748L95.0068 24.748" stroke="white" stroke-width="0.5"/>
<path d="M56.001 43V50.5" stroke="white" stroke-width="0.5"/>
<path d="M57.9395 46.748H54.0685" stroke="white" stroke-width="0.5"/>
<path d="M57.9375 44.8145L54.0665 48.6854" stroke="white" stroke-width="0.5"/>
<path d="M57.9404 48.6836L54.0695 44.8126" stroke="white" stroke-width="0.5"/>
<path d="M129.935 62V69.5" stroke="white" stroke-width="0.5"/>
<path d="M131.873 65.748H128.002" stroke="white" stroke-width="0.5"/>
<path d="M131.871 63.8145L128 67.6854" stroke="white" stroke-width="0.5"/>
<path d="M131.874 67.6836L128.003 63.8126" stroke="white" stroke-width="0.5"/>
<path d="M290.935 17V24.5" stroke="white" stroke-width="0.5"/>
<path d="M292.873 20.748H289.002" stroke="white" stroke-width="0.5"/>
<path d="M292.871 18.8145L289 22.6854" stroke="white" stroke-width="0.5"/>
<path d="M292.874 22.6836L289.003 18.8126" stroke="white" stroke-width="0.5"/>
<path d="M334.933 40.8867V56.6155" stroke="white" stroke-width="0.5"/>
<path d="M338.997 48.748H330.879" stroke="white" stroke-width="0.5"/>
<path d="M338.993 44.6934L330.875 52.8114" stroke="white" stroke-width="0.5"/>
<path d="M339 52.8066L330.882 44.6886" stroke="white" stroke-width="0.5"/>
<circle cx="62" cy="67" r="1.75" fill="white" stroke="#333333" stroke-width="0.5"/>
<circle cx="61" cy="79" r="2.75" fill="white" stroke="#333333" stroke-width="0.5"/>
<circle cx="61" cy="37" r="2.75" fill="white" stroke="#333333" stroke-width="0.5"/>
<circle cx="72" cy="69" r="2.75" fill="white" stroke="#333333" stroke-width="0.5"/>
<path d="M96.4778 41.975L87.2528 38.75C84.8028 40.675 81.1278 41.85 77.1278 41.925V38.6C81.2028 38.4 85.2028 36.575 85.9028 33.65L90.1778 34.4C90.0278 35.025 89.8028 35.6 89.5028 36.15L97.8028 38.875L96.4778 41.975ZM98.1028 45.625H89.4028V46.55H96.8528V52.175H81.9028V52.925H97.0778V55.6H77.7778V49.95H92.7278V49.2H77.7278V46.55H85.2028V45.625H76.5028V42.55H98.1028V45.625ZM113.501 50.9H122.151V54.85H100.551V50.9H109.201V47.9C104.451 47.3 101.376 44.7 101.376 41.15C101.376 37.1 105.401 34.275 111.351 34.275C117.301 34.275 121.326 37.1 121.326 41.15C121.326 44.7 118.251 47.3 113.501 47.9V50.9ZM105.851 41.15C105.851 42.975 108.101 44.225 111.351 44.225C114.601 44.225 116.851 42.975 116.851 41.15C116.851 39.3 114.601 38.075 111.351 38.075C108.101 38.075 105.851 39.3 105.851 41.15ZM141.124 34.25H145.349V55.6H141.124V46.05H134.524V42.1H141.124V34.25ZM129.749 50.8H133.724C135.749 50.8 137.949 50.45 139.249 49.875V53.625C137.949 54.25 135.474 54.6 133.424 54.6H125.449V34.75H137.949V38.55H129.749V50.8ZM171.678 48.825V38.675H156.778V34.75H176.078V48.825H171.678ZM166.978 50.9H177.253V54.85H155.653V50.9H162.603V42.55H166.978V50.9ZM196.951 34.25H200.951V47.35H196.951V42.35H195.076V47.125H191.126V34.35H195.076V38.4H196.951V34.25ZM189.626 38.9C189.626 44.125 185.176 46.95 180.001 47V43.4C183.376 43.3 185.551 41.775 185.551 39.2V37.975H180.001V34.5H189.626V38.9ZM181.201 51.675V48.1H200.951V55.85H196.776V51.675H181.201ZM224.399 34.25V45.55H220.174V34.25H224.399ZM208.724 34.375V41.375H214.249C216.174 41.375 218.049 41.1 219.174 40.625V44.15C218.074 44.625 216.199 44.9 214.199 44.9H204.449V34.375H208.724ZM224.399 46.3V55.6H205.299V46.3H224.399ZM209.524 52.1H220.174V49.8H209.524V52.1ZM238.597 33.9C244.197 33.9 248.297 34.95 248.297 37.925C248.297 40.9 244.197 41.95 238.597 41.95C232.997 41.95 228.897 40.9 228.897 37.925C228.897 34.95 232.997 33.9 238.597 33.9ZM238.597 36.925C235.422 36.925 233.372 37.225 233.372 37.925C233.372 38.65 235.422 38.925 238.597 38.925C241.772 38.925 243.822 38.65 243.822 37.925C243.822 37.225 241.772 36.925 238.597 36.925ZM249.397 42.65V45.725H227.797V42.65H249.397ZM248.147 46.55V52.125H233.197V52.85H248.372V55.6H229.072V49.925H244.022V49.2H229.022V46.55H248.147ZM275.326 34.25H279.551V55.6H275.326V34.25ZM266.251 45.75C262.401 45.75 259.701 43.425 259.701 40.075C259.701 36.75 262.401 34.4 266.251 34.4C270.076 34.4 272.776 36.75 272.776 40.075C272.776 43.425 270.076 45.75 266.251 45.75ZM266.251 37.775C264.726 37.775 263.726 38.775 263.726 40.075C263.726 41.375 264.726 42.375 266.251 42.375C267.776 42.375 268.751 41.375 268.751 40.075C268.751 38.775 267.776 37.775 266.251 37.775ZM258.851 46.925H268.576C270.551 46.925 272.776 46.725 274.101 46.15V49.95C272.776 50.525 270.626 50.725 268.501 50.725H268.326V55.6H264.101V50.725H258.851V46.925ZM297.299 35.7V39H282.699V35.7H287.849V33.875H292.149V35.7H297.299ZM302.949 39.2H305.449V43.3H302.949V50.175H298.724V34.25H302.949V39.2ZM289.999 48.4C286.449 48.4 283.449 46.9 283.449 44C283.449 41.1 286.449 39.6 289.999 39.6C293.549 39.6 296.549 41.1 296.549 44C296.549 46.9 293.549 48.4 289.999 48.4ZM289.999 42.65C288.474 42.65 287.474 43.25 287.474 44C287.474 44.75 288.474 45.35 289.999 45.35C291.524 45.35 292.524 44.75 292.524 44C292.524 43.25 291.524 42.65 289.999 42.65ZM288.399 49.025V51.925H303.249V55.6H284.099V49.025H288.399ZM168.603 75.9H177.253V79.85H155.653V75.9H164.303V72.45H156.828V59.75H176.078V72.45H168.603V75.9ZM161.028 63.7V68.525H171.878V63.7H161.028ZM190.501 58.9C196.126 58.9 200.251 60.175 200.251 63.25C200.251 66.325 196.126 67.6 190.501 67.6C184.876 67.6 180.751 66.325 180.751 63.25C180.751 60.175 184.876 58.9 190.501 58.9ZM190.501 62.075C187.301 62.075 185.251 62.45 185.251 63.25C185.251 64.075 187.301 64.425 190.501 64.425C193.701 64.425 195.751 64.075 195.751 63.25C195.751 62.45 193.701 62.075 190.501 62.075ZM201.301 68.375V71.625H179.701V68.375H201.301ZM200.051 72.725V80.6H180.951V72.725H200.051ZM185.126 77.425H195.876V75.9H185.126V77.425ZM217.424 63.8H220.274V59.25H224.499V75.075H220.274V67.475H217.424V63.8ZM211.374 68.45C209.724 70.675 207.174 72.275 204.124 72.35V68.525C206.999 68.3 208.799 65.825 209.174 63.1H204.424V59.5H218.024V63.1H213.424C213.374 63.775 213.249 64.45 213.049 65.1L218.949 69.175L216.574 72.175L211.374 68.45ZM209.699 76.825H224.799V80.6H205.399V73.125H209.699V76.825Z" fill="black"/>
<path d="M94.4778 39.975L85.2528 36.75C82.8028 38.675 79.1278 39.85 75.1278 39.925V36.6C79.2028 36.4 83.2028 34.575 83.9028 31.65L88.1778 32.4C88.0278 33.025 87.8028 33.6 87.5028 34.15L95.8028 36.875L94.4778 39.975ZM74.5028 40.65H96.1028V43.725H74.5028V40.65ZM79.9028 50.125V50.85H95.0778V53.6H75.7778V47.925H90.7278V47.2H75.7278V44.55H94.8528V50.125H79.9028ZM111.501 48.9H120.151V52.85H98.5507V48.9H107.201V45.9C102.451 45.3 99.3757 42.7 99.3757 39.15C99.3757 35.1 103.401 32.275 109.351 32.275C115.301 32.275 119.326 35.1 119.326 39.15C119.326 42.7 116.251 45.3 111.501 45.9V48.9ZM103.851 39.15C103.851 40.975 106.101 42.225 109.351 42.225C112.601 42.225 114.851 40.975 114.851 39.15C114.851 37.3 112.601 36.075 109.351 36.075C106.101 36.075 103.851 37.3 103.851 39.15ZM139.124 32.25H143.349V53.6H139.124V44.05H132.524V40.1H139.124V32.25ZM127.749 48.8H131.724C133.749 48.8 135.949 48.45 137.249 47.875V51.625C135.949 52.25 133.474 52.6 131.424 52.6H123.449V32.75H135.949V36.55H127.749V48.8ZM169.678 46.825V36.675H154.778V32.75H174.078V46.825H169.678ZM164.978 48.9H175.253V52.85H153.653V48.9H160.603V40.55H164.978V48.9ZM194.951 32.25H198.951V45.35H194.951V40.35H193.076V45.125H189.126V32.35H193.076V36.4H194.951V32.25ZM187.626 36.9C187.626 42.125 183.176 44.95 178.001 45V41.4C181.376 41.3 183.551 39.775 183.551 37.2V35.975H178.001V32.5H187.626V36.9ZM179.201 49.675V46.1H198.951V53.85H194.776V49.675H179.201ZM222.399 32.25V43.55H218.174V32.25H222.399ZM206.724 32.375V39.375H212.249C214.174 39.375 216.049 39.1 217.174 38.625V42.15C216.074 42.625 214.199 42.9 212.199 42.9H202.449V32.375H206.724ZM222.399 44.3V53.6H203.299V44.3H222.399ZM207.524 50.1H218.174V47.8H207.524V50.1ZM236.597 31.9C242.197 31.9 246.297 32.95 246.297 35.925C246.297 38.9 242.197 39.95 236.597 39.95C230.997 39.95 226.897 38.9 226.897 35.925C226.897 32.95 230.997 31.9 236.597 31.9ZM236.597 34.925C233.422 34.925 231.372 35.225 231.372 35.925C231.372 36.65 233.422 36.925 236.597 36.925C239.772 36.925 241.822 36.65 241.822 35.925C241.822 35.225 239.772 34.925 236.597 34.925ZM247.397 40.65V43.725H225.797V40.65H247.397ZM246.147 44.55V50.125H231.197V50.85H246.372V53.6H227.072V47.925H242.022V47.2H227.022V44.55H246.147ZM277.501 32.25V53.6H273.276V32.25H277.501ZM264.201 32.5C268.226 32.5 270.901 35.65 270.901 42.675C270.901 49.7 268.226 52.85 264.201 52.85C260.176 52.85 257.476 49.7 257.476 42.675C257.476 35.65 260.176 32.5 264.201 32.5ZM264.201 36.375C262.776 36.375 261.651 37.9 261.651 42.675C261.651 47.475 262.776 48.975 264.201 48.975C265.601 48.975 266.726 47.475 266.726 42.675C266.726 37.9 265.601 36.375 264.201 36.375ZM295.299 33.7V37H280.699V33.7H285.849V31.875H290.149V33.7H295.299ZM300.949 37.2H303.449V41.3H300.949V48.175H296.724V32.25H300.949V37.2ZM287.999 46.4C284.449 46.4 281.449 44.9 281.449 42C281.449 39.1 284.449 37.6 287.999 37.6C291.549 37.6 294.549 39.1 294.549 42C294.549 44.9 291.549 46.4 287.999 46.4ZM287.999 40.65C286.474 40.65 285.474 41.25 285.474 42C285.474 42.75 286.474 43.35 287.999 43.35C289.524 43.35 290.524 42.75 290.524 42C290.524 41.25 289.524 40.65 287.999 40.65ZM286.399 47.025V49.925H301.249V53.6H282.099V47.025H286.399ZM166.603 73.9H175.253V77.85H153.653V73.9H162.303V70.45H154.828V57.75H174.078V70.45H166.603V73.9ZM159.028 61.7V66.525H169.878V61.7H159.028ZM188.501 56.9C194.126 56.9 198.251 58.175 198.251 61.25C198.251 64.325 194.126 65.6 188.501 65.6C182.876 65.6 178.751 64.325 178.751 61.25C178.751 58.175 182.876 56.9 188.501 56.9ZM188.501 60.075C185.301 60.075 183.251 60.45 183.251 61.25C183.251 62.075 185.301 62.425 188.501 62.425C191.701 62.425 193.751 62.075 193.751 61.25C193.751 60.45 191.701 60.075 188.501 60.075ZM199.301 66.375V69.625H177.701V66.375H199.301ZM198.051 70.725V78.6H178.951V70.725H198.051ZM183.126 75.425H193.876V73.9H183.126V75.425ZM215.424 61.8H218.274V57.25H222.499V73.075H218.274V65.475H215.424V61.8ZM209.374 66.45C207.724 68.675 205.174 70.275 202.124 70.35V66.525C204.999 66.3 206.799 63.825 207.174 61.1H202.424V57.5H216.024V61.1H211.424C211.374 61.775 211.249 62.45 211.049 63.1L216.949 67.175L214.574 70.175L209.374 66.45ZM207.699 74.825H222.799V78.6H203.399V71.125H207.699V74.825Z" fill="#6EADF0"/>
<mask id="path-54-outside-1_523_3401" maskUnits="userSpaceOnUse" x="70" y="28" width="232" height="50" fill="black">
<rect fill="white" x="70" y="28" width="232" height="50"/>
<path d="M91.4778 37.975L82.2528 34.75C79.8028 36.675 76.1278 37.85 72.1278 37.925V34.6C76.2028 34.4 80.2028 32.575 80.9028 29.65L85.1778 30.4C85.0278 31.025 84.8028 31.6 84.5028 32.15L92.8028 34.875L91.4778 37.975ZM93.1028 41.625H84.4028V42.55H91.8528V48.175H76.9028V48.925H92.0778V51.6H72.7778V45.95H87.7278V45.2H72.7278V42.55H80.2028V41.625H71.5028V38.55H93.1028V41.625ZM108.501 46.9H117.151V50.85H95.5507V46.9H104.201V43.9C99.4507 43.3 96.3757 40.7 96.3757 37.15C96.3757 33.1 100.401 30.275 106.351 30.275C112.301 30.275 116.326 33.1 116.326 37.15C116.326 40.7 113.251 43.3 108.501 43.9V46.9ZM100.851 37.15C100.851 38.975 103.101 40.225 106.351 40.225C109.601 40.225 111.851 38.975 111.851 37.15C111.851 35.3 109.601 34.075 106.351 34.075C103.101 34.075 100.851 35.3 100.851 37.15ZM136.124 30.25H140.349V51.6H136.124V42.05H129.524V38.1H136.124V30.25ZM124.749 46.8H128.724C130.749 46.8 132.949 46.45 134.249 45.875V49.625C132.949 50.25 130.474 50.6 128.424 50.6H120.449V30.75H132.949V34.55H124.749V46.8ZM166.678 44.825V34.675H151.778V30.75H171.078V44.825H166.678ZM161.978 46.9H172.253V50.85H150.653V46.9H157.603V38.55H161.978V46.9ZM191.951 30.25H195.951V43.35H191.951V38.35H190.076V43.125H186.126V30.35H190.076V34.4H191.951V30.25ZM184.626 34.9C184.626 40.125 180.176 42.95 175.001 43V39.4C178.376 39.3 180.551 37.775 180.551 35.2V33.975H175.001V30.5H184.626V34.9ZM176.201 47.675V44.1H195.951V51.85H191.776V47.675H176.201ZM219.399 30.25V41.55H215.174V30.25H219.399ZM203.724 30.375V37.375H209.249C211.174 37.375 213.049 37.1 214.174 36.625V40.15C213.074 40.625 211.199 40.9 209.199 40.9H199.449V30.375H203.724ZM219.399 42.3V51.6H200.299V42.3H219.399ZM204.524 48.1H215.174V45.8H204.524V48.1ZM233.597 29.9C239.197 29.9 243.297 30.95 243.297 33.925C243.297 36.9 239.197 37.95 233.597 37.95C227.997 37.95 223.897 36.9 223.897 33.925C223.897 30.95 227.997 29.9 233.597 29.9ZM233.597 32.925C230.422 32.925 228.372 33.225 228.372 33.925C228.372 34.65 230.422 34.925 233.597 34.925C236.772 34.925 238.822 34.65 238.822 33.925C238.822 33.225 236.772 32.925 233.597 32.925ZM244.397 38.65V41.725H222.797V38.65H244.397ZM243.147 42.55V48.125H228.197V48.85H243.372V51.6H224.072V45.925H239.022V45.2H224.022V42.55H243.147ZM270.326 30.25H274.551V51.6H270.326V30.25ZM261.251 41.75C257.401 41.75 254.701 39.425 254.701 36.075C254.701 32.75 257.401 30.4 261.251 30.4C265.076 30.4 267.776 32.75 267.776 36.075C267.776 39.425 265.076 41.75 261.251 41.75ZM261.251 33.775C259.726 33.775 258.726 34.775 258.726 36.075C258.726 37.375 259.726 38.375 261.251 38.375C262.776 38.375 263.751 37.375 263.751 36.075C263.751 34.775 262.776 33.775 261.251 33.775ZM253.851 42.925H263.576C265.551 42.925 267.776 42.725 269.101 42.15V45.95C267.776 46.525 265.626 46.725 263.501 46.725H263.326V51.6H259.101V46.725H253.851V42.925ZM292.299 31.7V35H277.699V31.7H282.849V29.875H287.149V31.7H292.299ZM297.949 35.2H300.449V39.3H297.949V46.175H293.724V30.25H297.949V35.2ZM284.999 44.4C281.449 44.4 278.449 42.9 278.449 40C278.449 37.1 281.449 35.6 284.999 35.6C288.549 35.6 291.549 37.1 291.549 40C291.549 42.9 288.549 44.4 284.999 44.4ZM284.999 38.65C283.474 38.65 282.474 39.25 282.474 40C282.474 40.75 283.474 41.35 284.999 41.35C286.524 41.35 287.524 40.75 287.524 40C287.524 39.25 286.524 38.65 284.999 38.65ZM283.399 45.025V47.925H298.249V51.6H279.099V45.025H283.399ZM163.603 71.9H172.253V75.85H150.653V71.9H159.303V68.45H151.828V55.75H171.078V68.45H163.603V71.9ZM156.028 59.7V64.525H166.878V59.7H156.028ZM185.501 54.9C191.126 54.9 195.251 56.175 195.251 59.25C195.251 62.325 191.126 63.6 185.501 63.6C179.876 63.6 175.751 62.325 175.751 59.25C175.751 56.175 179.876 54.9 185.501 54.9ZM185.501 58.075C182.301 58.075 180.251 58.45 180.251 59.25C180.251 60.075 182.301 60.425 185.501 60.425C188.701 60.425 190.751 60.075 190.751 59.25C190.751 58.45 188.701 58.075 185.501 58.075ZM196.301 64.375V67.625H174.701V64.375H196.301ZM195.051 68.725V76.6H175.951V68.725H195.051ZM180.126 73.425H190.876V71.9H180.126V73.425ZM212.424 59.8H215.274V55.25H219.499V71.075H215.274V63.475H212.424V59.8ZM206.374 64.45C204.724 66.675 202.174 68.275 199.124 68.35V64.525C201.999 64.3 203.799 61.825 204.174 59.1H199.424V55.5H213.024V59.1H208.424C208.374 59.775 208.249 60.45 208.049 61.1L213.949 65.175L211.574 68.175L206.374 64.45ZM204.699 72.825H219.799V76.6H200.399V69.125H204.699V72.825Z"/>
</mask>
<path d="M91.4778 37.975L82.2528 34.75C79.8028 36.675 76.1278 37.85 72.1278 37.925V34.6C76.2028 34.4 80.2028 32.575 80.9028 29.65L85.1778 30.4C85.0278 31.025 84.8028 31.6 84.5028 32.15L92.8028 34.875L91.4778 37.975ZM93.1028 41.625H84.4028V42.55H91.8528V48.175H76.9028V48.925H92.0778V51.6H72.7778V45.95H87.7278V45.2H72.7278V42.55H80.2028V41.625H71.5028V38.55H93.1028V41.625ZM108.501 46.9H117.151V50.85H95.5507V46.9H104.201V43.9C99.4507 43.3 96.3757 40.7 96.3757 37.15C96.3757 33.1 100.401 30.275 106.351 30.275C112.301 30.275 116.326 33.1 116.326 37.15C116.326 40.7 113.251 43.3 108.501 43.9V46.9ZM100.851 37.15C100.851 38.975 103.101 40.225 106.351 40.225C109.601 40.225 111.851 38.975 111.851 37.15C111.851 35.3 109.601 34.075 106.351 34.075C103.101 34.075 100.851 35.3 100.851 37.15ZM136.124 30.25H140.349V51.6H136.124V42.05H129.524V38.1H136.124V30.25ZM124.749 46.8H128.724C130.749 46.8 132.949 46.45 134.249 45.875V49.625C132.949 50.25 130.474 50.6 128.424 50.6H120.449V30.75H132.949V34.55H124.749V46.8ZM166.678 44.825V34.675H151.778V30.75H171.078V44.825H166.678ZM161.978 46.9H172.253V50.85H150.653V46.9H157.603V38.55H161.978V46.9ZM191.951 30.25H195.951V43.35H191.951V38.35H190.076V43.125H186.126V30.35H190.076V34.4H191.951V30.25ZM184.626 34.9C184.626 40.125 180.176 42.95 175.001 43V39.4C178.376 39.3 180.551 37.775 180.551 35.2V33.975H175.001V30.5H184.626V34.9ZM176.201 47.675V44.1H195.951V51.85H191.776V47.675H176.201ZM219.399 30.25V41.55H215.174V30.25H219.399ZM203.724 30.375V37.375H209.249C211.174 37.375 213.049 37.1 214.174 36.625V40.15C213.074 40.625 211.199 40.9 209.199 40.9H199.449V30.375H203.724ZM219.399 42.3V51.6H200.299V42.3H219.399ZM204.524 48.1H215.174V45.8H204.524V48.1ZM233.597 29.9C239.197 29.9 243.297 30.95 243.297 33.925C243.297 36.9 239.197 37.95 233.597 37.95C227.997 37.95 223.897 36.9 223.897 33.925C223.897 30.95 227.997 29.9 233.597 29.9ZM233.597 32.925C230.422 32.925 228.372 33.225 228.372 33.925C228.372 34.65 230.422 34.925 233.597 34.925C236.772 34.925 238.822 34.65 238.822 33.925C238.822 33.225 236.772 32.925 233.597 32.925ZM244.397 38.65V41.725H222.797V38.65H244.397ZM243.147 42.55V48.125H228.197V48.85H243.372V51.6H224.072V45.925H239.022V45.2H224.022V42.55H243.147ZM270.326 30.25H274.551V51.6H270.326V30.25ZM261.251 41.75C257.401 41.75 254.701 39.425 254.701 36.075C254.701 32.75 257.401 30.4 261.251 30.4C265.076 30.4 267.776 32.75 267.776 36.075C267.776 39.425 265.076 41.75 261.251 41.75ZM261.251 33.775C259.726 33.775 258.726 34.775 258.726 36.075C258.726 37.375 259.726 38.375 261.251 38.375C262.776 38.375 263.751 37.375 263.751 36.075C263.751 34.775 262.776 33.775 261.251 33.775ZM253.851 42.925H263.576C265.551 42.925 267.776 42.725 269.101 42.15V45.95C267.776 46.525 265.626 46.725 263.501 46.725H263.326V51.6H259.101V46.725H253.851V42.925ZM292.299 31.7V35H277.699V31.7H282.849V29.875H287.149V31.7H292.299ZM297.949 35.2H300.449V39.3H297.949V46.175H293.724V30.25H297.949V35.2ZM284.999 44.4C281.449 44.4 278.449 42.9 278.449 40C278.449 37.1 281.449 35.6 284.999 35.6C288.549 35.6 291.549 37.1 291.549 40C291.549 42.9 288.549 44.4 284.999 44.4ZM284.999 38.65C283.474 38.65 282.474 39.25 282.474 40C282.474 40.75 283.474 41.35 284.999 41.35C286.524 41.35 287.524 40.75 287.524 40C287.524 39.25 286.524 38.65 284.999 38.65ZM283.399 45.025V47.925H298.249V51.6H279.099V45.025H283.399ZM163.603 71.9H172.253V75.85H150.653V71.9H159.303V68.45H151.828V55.75H171.078V68.45H163.603V71.9ZM156.028 59.7V64.525H166.878V59.7H156.028ZM185.501 54.9C191.126 54.9 195.251 56.175 195.251 59.25C195.251 62.325 191.126 63.6 185.501 63.6C179.876 63.6 175.751 62.325 175.751 59.25C175.751 56.175 179.876 54.9 185.501 54.9ZM185.501 58.075C182.301 58.075 180.251 58.45 180.251 59.25C180.251 60.075 182.301 60.425 185.501 60.425C188.701 60.425 190.751 60.075 190.751 59.25C190.751 58.45 188.701 58.075 185.501 58.075ZM196.301 64.375V67.625H174.701V64.375H196.301ZM195.051 68.725V76.6H175.951V68.725H195.051ZM180.126 73.425H190.876V71.9H180.126V73.425ZM212.424 59.8H215.274V55.25H219.499V71.075H215.274V63.475H212.424V59.8ZM206.374 64.45C204.724 66.675 202.174 68.275 199.124 68.35V64.525C201.999 64.3 203.799 61.825 204.174 59.1H199.424V55.5H213.024V59.1H208.424C208.374 59.775 208.249 60.45 208.049 61.1L213.949 65.175L211.574 68.175L206.374 64.45ZM204.699 72.825H219.799V76.6H200.399V69.125H204.699V72.825Z" fill="white"/>
<path d="M91.4778 37.975L91.1478 38.919L92.03 39.2274L92.3974 38.368L91.4778 37.975ZM82.2528 34.75L82.5828 33.806L82.0657 33.6252L81.635 33.9637L82.2528 34.75ZM72.1278 37.925H71.1278V38.9439L72.1466 38.9248L72.1278 37.925ZM72.1278 34.6L72.0788 33.6012L71.1278 33.6479V34.6H72.1278ZM80.9028 29.65L81.0756 28.665L80.1492 28.5025L79.9303 29.4173L80.9028 29.65ZM85.1778 30.4L86.1502 30.6334L86.3985 29.5989L85.3506 29.415L85.1778 30.4ZM84.5028 32.15L83.6249 31.6711L83.0498 32.7255L84.1909 33.1001L84.5028 32.15ZM92.8028 34.875L93.7224 35.268L94.151 34.2651L93.1148 33.9249L92.8028 34.875ZM93.1028 41.625V42.625H94.1028V41.625H93.1028ZM84.4028 41.625V40.625H83.4028V41.625H84.4028ZM84.4028 42.55H83.4028V43.55H84.4028V42.55ZM91.8528 42.55H92.8528V41.55H91.8528V42.55ZM91.8528 48.175V49.175H92.8528V48.175H91.8528ZM76.9028 48.175V47.175H75.9028V48.175H76.9028ZM76.9028 48.925H75.9028V49.925H76.9028V48.925ZM92.0778 48.925H93.0778V47.925H92.0778V48.925ZM92.0778 51.6V52.6H93.0778V51.6H92.0778ZM72.7778 51.6H71.7778V52.6H72.7778V51.6ZM72.7778 45.95V44.95H71.7778V45.95H72.7778ZM87.7278 45.95V46.95H88.7278V45.95H87.7278ZM87.7278 45.2H88.7278V44.2H87.7278V45.2ZM72.7278 45.2H71.7278V46.2H72.7278V45.2ZM72.7278 42.55V41.55H71.7278V42.55H72.7278ZM80.2028 42.55V43.55H81.2028V42.55H80.2028ZM80.2028 41.625H81.2028V40.625H80.2028V41.625ZM71.5028 41.625H70.5028V42.625H71.5028V41.625ZM71.5028 38.55V37.55H70.5028V38.55H71.5028ZM93.1028 38.55H94.1028V37.55H93.1028V38.55ZM91.4778 37.975L91.8078 37.031L82.5828 33.806L82.2528 34.75L81.9228 35.694L91.1478 38.919L91.4778 37.975ZM82.2528 34.75L81.635 33.9637C79.3948 35.7238 75.9464 36.8532 72.1091 36.9252L72.1278 37.925L72.1466 38.9248C76.3093 38.8468 80.2109 37.6262 82.8707 35.5363L82.2528 34.75ZM72.1278 37.925H73.1278V34.6H72.1278H71.1278V37.925H72.1278ZM72.1278 34.6L72.1769 35.5988C74.335 35.4929 76.5018 34.9572 78.2495 34.0303C79.9826 33.1112 81.4329 31.7318 81.8754 29.8827L80.9028 29.65L79.9303 29.4173C79.6728 30.4932 78.7731 31.4888 77.3124 32.2634C75.8664 33.0303 73.9957 33.5071 72.0788 33.6012L72.1278 34.6ZM80.9028 29.65L80.73 30.635L85.005 31.385L85.1778 30.4L85.3506 29.415L81.0756 28.665L80.9028 29.65ZM85.1778 30.4L84.2054 30.1666C84.0766 30.7035 83.884 31.1962 83.6249 31.6711L84.5028 32.15L85.3807 32.6289C85.7217 32.0038 85.9791 31.3465 86.1502 30.6334L85.1778 30.4ZM84.5028 32.15L84.1909 33.1001L92.4909 35.8251L92.8028 34.875L93.1148 33.9249L84.8148 31.1999L84.5028 32.15ZM92.8028 34.875L91.8833 34.482L90.5583 37.582L91.4778 37.975L92.3974 38.368L93.7224 35.268L92.8028 34.875ZM93.1028 41.625V40.625H84.4028V41.625V42.625H93.1028V41.625ZM84.4028 41.625H83.4028V42.55H84.4028H85.4028V41.625H84.4028ZM84.4028 42.55V43.55H91.8528V42.55V41.55H84.4028V42.55ZM91.8528 42.55H90.8528V48.175H91.8528H92.8528V42.55H91.8528ZM91.8528 48.175V47.175H76.9028V48.175V49.175H91.8528V48.175ZM76.9028 48.175H75.9028V48.925H76.9028H77.9028V48.175H76.9028ZM76.9028 48.925V49.925H92.0778V48.925V47.925H76.9028V48.925ZM92.0778 48.925H91.0778V51.6H92.0778H93.0778V48.925H92.0778ZM92.0778 51.6V50.6H72.7778V51.6V52.6H92.0778V51.6ZM72.7778 51.6H73.7778V45.95H72.7778H71.7778V51.6H72.7778ZM72.7778 45.95V46.95H87.7278V45.95V44.95H72.7778V45.95ZM87.7278 45.95H88.7278V45.2H87.7278H86.7278V45.95H87.7278ZM87.7278 45.2V44.2H72.7278V45.2V46.2H87.7278V45.2ZM72.7278 45.2H73.7278V42.55H72.7278H71.7278V45.2H72.7278ZM72.7278 42.55V43.55H80.2028V42.55V41.55H72.7278V42.55ZM80.2028 42.55H81.2028V41.625H80.2028H79.2028V42.55H80.2028ZM80.2028 41.625V40.625H71.5028V41.625V42.625H80.2028V41.625ZM71.5028 41.625H72.5028V38.55H71.5028H70.5028V41.625H71.5028ZM71.5028 38.55V39.55H93.1028V38.55V37.55H71.5028V38.55ZM93.1028 38.55H92.1028V41.625H93.1028H94.1028V38.55H93.1028ZM108.501 46.9H107.501V47.9H108.501V46.9ZM117.151 46.9H118.151V45.9H117.151V46.9ZM117.151 50.85V51.85H118.151V50.85H117.151ZM95.5507 50.85H94.5507V51.85H95.5507V50.85ZM95.5507 46.9V45.9H94.5507V46.9H95.5507ZM104.201 46.9V47.9H105.201V46.9H104.201ZM104.201 43.9H105.201V43.0184L104.326 42.9079L104.201 43.9ZM108.501 43.9L108.375 42.9079L107.501 43.0184V43.9H108.501ZM108.501 46.9V47.9H117.151V46.9V45.9H108.501V46.9ZM117.151 46.9H116.151V50.85H117.151H118.151V46.9H117.151ZM117.151 50.85V49.85H95.5507V50.85V51.85H117.151V50.85ZM95.5507 50.85H96.5507V46.9H95.5507H94.5507V50.85H95.5507ZM95.5507 46.9V47.9H104.201V46.9V45.9H95.5507V46.9ZM104.201 46.9H105.201V43.9H104.201H103.201V46.9H104.201ZM104.201 43.9L104.326 42.9079C99.8118 42.3377 97.3757 39.969 97.3757 37.15H96.3757H95.3757C95.3757 41.431 99.0896 44.2623 104.075 44.8921L104.201 43.9ZM96.3757 37.15H97.3757C97.3757 35.4981 98.1818 34.0686 99.7014 33.0157C101.242 31.9482 103.521 31.275 106.351 31.275V30.275V29.275C103.23 29.275 100.522 30.0143 98.5624 31.3718C96.5821 32.7439 95.3757 34.7519 95.3757 37.15H96.3757ZM106.351 30.275V31.275C109.18 31.275 111.459 31.9482 113 33.0157C114.52 34.0686 115.326 35.4981 115.326 37.15H116.326H117.326C117.326 34.7519 116.119 32.7439 114.139 31.3718C112.18 30.0143 109.471 29.275 106.351 29.275V30.275ZM116.326 37.15H115.326C115.326 39.969 112.89 42.3377 108.375 42.9079L108.501 43.9L108.626 44.8921C113.612 44.2623 117.326 41.431 117.326 37.15H116.326ZM108.501 43.9H107.501V46.9H108.501H109.501V43.9H108.501ZM100.851 37.15H99.8507C99.8507 38.54 100.724 39.5921 101.895 40.2451C103.056 40.8935 104.614 41.225 106.351 41.225V40.225V39.225C104.837 39.225 103.645 38.9315 102.869 38.4986C102.102 38.0704 101.851 37.585 101.851 37.15H100.851ZM106.351 40.225V41.225C108.087 41.225 109.645 40.8935 110.807 40.2451C111.977 39.5921 112.851 38.54 112.851 37.15H111.851H110.851C110.851 37.585 110.599 38.0704 109.832 38.4986C109.056 38.9315 107.864 39.225 106.351 39.225V40.225ZM111.851 37.15H112.851C112.851 35.7501 111.98 34.6964 110.805 34.0443C109.642 33.3991 108.084 33.075 106.351 33.075V34.075V35.075C107.867 35.075 109.06 35.3634 109.834 35.7932C110.596 36.2161 110.851 36.6999 110.851 37.15H111.851ZM106.351 34.075V33.075C104.617 33.075 103.06 33.3991 101.897 34.0443C100.721 34.6964 99.8507 35.7501 99.8507 37.15H100.851H101.851C101.851 36.6999 102.105 36.2161 102.867 35.7932C103.642 35.3634 104.834 35.075 106.351 35.075V34.075ZM136.124 30.25V29.25H135.124V30.25H136.124ZM140.349 30.25H141.349V29.25H140.349V30.25ZM140.349 51.6V52.6H141.349V51.6H140.349ZM136.124 51.6H135.124V52.6H136.124V51.6ZM136.124 42.05H137.124V41.05H136.124V42.05ZM129.524 42.05H128.524V43.05H129.524V42.05ZM129.524 38.1V37.1H128.524V38.1H129.524ZM136.124 38.1V39.1H137.124V38.1H136.124ZM124.749 46.8H123.749V47.8H124.749V46.8ZM134.249 45.875H135.249V44.3392L133.844 44.9605L134.249 45.875ZM134.249 49.625L134.682 50.5263L135.249 50.2538V49.625H134.249ZM120.449 50.6H119.449V51.6H120.449V50.6ZM120.449 30.75V29.75H119.449V30.75H120.449ZM132.949 30.75H133.949V29.75H132.949V30.75ZM132.949 34.55V35.55H133.949V34.55H132.949ZM124.749 34.55V33.55H123.749V34.55H124.749ZM136.124 30.25V31.25H140.349V30.25V29.25H136.124V30.25ZM140.349 30.25H139.349V51.6H140.349H141.349V30.25H140.349ZM140.349 51.6V50.6H136.124V51.6V52.6H140.349V51.6ZM136.124 51.6H137.124V42.05H136.124H135.124V51.6H136.124ZM136.124 42.05V41.05H129.524V42.05V43.05H136.124V42.05ZM129.524 42.05H130.524V38.1H129.524H128.524V42.05H129.524ZM129.524 38.1V39.1H136.124V38.1V37.1H129.524V38.1ZM136.124 38.1H137.124V30.25H136.124H135.124V38.1H136.124ZM124.749 46.8V47.8H128.724V46.8V45.8H124.749V46.8ZM128.724 46.8V47.8C130.821 47.8 133.176 47.4429 134.653 46.7895L134.249 45.875L133.844 44.9605C132.721 45.4571 130.676 45.8 128.724 45.8V46.8ZM134.249 45.875H133.249V49.625H134.249H135.249V45.875H134.249ZM134.249 49.625L133.815 48.7237C133.294 48.9744 132.461 49.1995 131.46 49.3594C130.475 49.5166 129.396 49.6 128.424 49.6V50.6V51.6C129.501 51.6 130.685 51.5084 131.775 51.3344C132.848 51.163 133.903 50.9006 134.682 50.5263L134.249 49.625ZM128.424 50.6V49.6H120.449V50.6V51.6H128.424V50.6ZM120.449 50.6H121.449V30.75H120.449H119.449V50.6H120.449ZM120.449 30.75V31.75H132.949V30.75V29.75H120.449V30.75ZM132.949 30.75H131.949V34.55H132.949H133.949V30.75H132.949ZM132.949 34.55V33.55H124.749V34.55V35.55H132.949V34.55ZM124.749 34.55H123.749V46.8H124.749H125.749V34.55H124.749ZM166.678 44.825H165.678V45.825H166.678V44.825ZM166.678 34.675H167.678V33.675H166.678V34.675ZM151.778 34.675H150.778V35.675H151.778V34.675ZM151.778 30.75V29.75H150.778V30.75H151.778ZM171.078 30.75H172.078V29.75H171.078V30.75ZM171.078 44.825V45.825H172.078V44.825H171.078ZM161.978 46.9H160.978V47.9H161.978V46.9ZM172.253 46.9H173.253V45.9H172.253V46.9ZM172.253 50.85V51.85H173.253V50.85H172.253ZM150.653 50.85H149.653V51.85H150.653V50.85ZM150.653 46.9V45.9H149.653V46.9H150.653ZM157.603 46.9V47.9H158.603V46.9H157.603ZM157.603 38.55V37.55H156.603V38.55H157.603ZM161.978 38.55H162.978V37.55H161.978V38.55ZM166.678 44.825H167.678V34.675H166.678H165.678V44.825H166.678ZM166.678 34.675V33.675H151.778V34.675V35.675H166.678V34.675ZM151.778 34.675H152.778V30.75H151.778H150.778V34.675H151.778ZM151.778 30.75V31.75H171.078V30.75V29.75H151.778V30.75ZM171.078 30.75H170.078V44.825H171.078H172.078V30.75H171.078ZM171.078 44.825V43.825H166.678V44.825V45.825H171.078V44.825ZM161.978 46.9V47.9H172.253V46.9V45.9H161.978V46.9ZM172.253 46.9H171.253V50.85H172.253H173.253V46.9H172.253ZM172.253 50.85V49.85H150.653V50.85V51.85H172.253V50.85ZM150.653 50.85H151.653V46.9H150.653H149.653V50.85H150.653ZM150.653 46.9V47.9H157.603V46.9V45.9H150.653V46.9ZM157.603 46.9H158.603V38.55H157.603H156.603V46.9H157.603ZM157.603 38.55V39.55H161.978V38.55V37.55H157.603V38.55ZM161.978 38.55H160.978V46.9H161.978H162.978V38.55H161.978ZM191.951 30.25V29.25H190.951V30.25H191.951ZM195.951 30.25H196.951V29.25H195.951V30.25ZM195.951 43.35V44.35H196.951V43.35H195.951ZM191.951 43.35H190.951V44.35H191.951V43.35ZM191.951 38.35H192.951V37.35H191.951V38.35ZM190.076 38.35V37.35H189.076V38.35H190.076ZM190.076 43.125V44.125H191.076V43.125H190.076ZM186.126 43.125H185.126V44.125H186.126V43.125ZM186.126 30.35V29.35H185.126V30.35H186.126ZM190.076 30.35H191.076V29.35H190.076V30.35ZM190.076 34.4H189.076V35.4H190.076V34.4ZM191.951 34.4V35.4H192.951V34.4H191.951ZM175.001 43H174.001V44.0097L175.011 44L175.001 43ZM175.001 39.4L174.971 38.4004L174.001 38.4292V39.4H175.001ZM180.551 33.975H181.551V32.975H180.551V33.975ZM175.001 33.975H174.001V34.975H175.001V33.975ZM175.001 30.5V29.5H174.001V30.5H175.001ZM184.626 30.5H185.626V29.5H184.626V30.5ZM176.201 47.675H175.201V48.675H176.201V47.675ZM176.201 44.1V43.1H175.201V44.1H176.201ZM195.951 44.1H196.951V43.1H195.951V44.1ZM195.951 51.85V52.85H196.951V51.85H195.951ZM191.776 51.85H190.776V52.85H191.776V51.85ZM191.776 47.675H192.776V46.675H191.776V47.675ZM191.951 30.25V31.25H195.951V30.25V29.25H191.951V30.25ZM195.951 30.25H194.951V43.35H195.951H196.951V30.25H195.951ZM195.951 43.35V42.35H191.951V43.35V44.35H195.951V43.35ZM191.951 43.35H192.951V38.35H191.951H190.951V43.35H191.951ZM191.951 38.35V37.35H190.076V38.35V39.35H191.951V38.35ZM190.076 38.35H189.076V43.125H190.076H191.076V38.35H190.076ZM190.076 43.125V42.125H186.126V43.125V44.125H190.076V43.125ZM186.126 43.125H187.126V30.35H186.126H185.126V43.125H186.126ZM186.126 30.35V31.35H190.076V30.35V29.35H186.126V30.35ZM190.076 30.35H189.076V34.4H190.076H191.076V30.35H190.076ZM190.076 34.4V35.4H191.951V34.4V33.4H190.076V34.4ZM191.951 34.4H192.951V30.25H191.951H190.951V34.4H191.951ZM184.626 34.9H183.626C183.626 37.1939 182.664 38.9185 181.141 40.1007C179.592 41.3033 177.413 41.9767 174.991 42L175.001 43L175.011 44C177.765 43.9733 180.398 43.2092 182.367 41.6806C184.363 40.1315 185.626 37.8311 185.626 34.9H184.626ZM175.001 43H176.001V39.4H175.001H174.001V43H175.001ZM175.001 39.4L175.031 40.3996C176.846 40.3458 178.455 39.9076 179.637 39.0315C180.854 38.1294 181.551 36.8078 181.551 35.2H180.551H179.551C179.551 36.1672 179.16 36.8956 178.446 37.4247C177.697 37.9799 176.531 38.3542 174.971 38.4004L175.001 39.4ZM180.551 35.2H181.551V33.975H180.551H179.551V35.2H180.551ZM180.551 33.975V32.975H175.001V33.975V34.975H180.551V33.975ZM175.001 33.975H176.001V30.5H175.001H174.001V33.975H175.001ZM175.001 30.5V31.5H184.626V30.5V29.5H175.001V30.5ZM184.626 30.5H183.626V34.9H184.626H185.626V30.5H184.626ZM176.201 47.675H177.201V44.1H176.201H175.201V47.675H176.201ZM176.201 44.1V45.1H195.951V44.1V43.1H176.201V44.1ZM195.951 44.1H194.951V51.85H195.951H196.951V44.1H195.951ZM195.951 51.85V50.85H191.776V51.85V52.85H195.951V51.85ZM191.776 51.85H192.776V47.675H191.776H190.776V51.85H191.776ZM191.776 47.675V46.675H176.201V47.675V48.675H191.776V47.675ZM219.399 30.25H220.399V29.25H219.399V30.25ZM219.399 41.55V42.55H220.399V41.55H219.399ZM215.174 41.55H214.174V42.55H215.174V41.55ZM215.174 30.25V29.25H214.174V30.25H215.174ZM203.724 30.375H204.724V29.375H203.724V30.375ZM203.724 37.375H202.724V38.375H203.724V37.375ZM214.174 36.625H215.174V35.1173L213.785 35.7037L214.174 36.625ZM214.174 40.15L214.57 41.0681L215.174 40.8074V40.15H214.174ZM199.449 40.9H198.449V41.9H199.449V40.9ZM199.449 30.375V29.375H198.449V30.375H199.449ZM219.399 42.3H220.399V41.3H219.399V42.3ZM219.399 51.6V52.6H220.399V51.6H219.399ZM200.299 51.6H199.299V52.6H200.299V51.6ZM200.299 42.3V41.3H199.299V42.3H200.299ZM204.524 48.1H203.524V49.1H204.524V48.1ZM215.174 48.1V49.1H216.174V48.1H215.174ZM215.174 45.8H216.174V44.8H215.174V45.8ZM204.524 45.8V44.8H203.524V45.8H204.524ZM219.399 30.25H218.399V41.55H219.399H220.399V30.25H219.399ZM219.399 41.55V40.55H215.174V41.55V42.55H219.399V41.55ZM215.174 41.55H216.174V30.25H215.174H214.174V41.55H215.174ZM215.174 30.25V31.25H219.399V30.25V29.25H215.174V30.25ZM203.724 30.375H202.724V37.375H203.724H204.724V30.375H203.724ZM203.724 37.375V38.375H209.249V37.375V36.375H203.724V37.375ZM209.249 37.375V38.375C211.231 38.375 213.26 38.0965 214.563 37.5462L214.174 36.625L213.785 35.7037C212.838 36.1035 211.117 36.375 209.249 36.375V37.375ZM214.174 36.625H213.174V40.15H214.174H215.174V36.625H214.174ZM214.174 40.15L213.777 39.2319C212.862 39.627 211.148 39.9 209.199 39.9V40.9V41.9C211.25 41.9 213.285 41.623 214.57 41.0681L214.174 40.15ZM209.199 40.9V39.9H199.449V40.9V41.9H209.199V40.9ZM199.449 40.9H200.449V30.375H199.449H198.449V40.9H199.449ZM199.449 30.375V31.375H203.724V30.375V29.375H199.449V30.375ZM219.399 42.3H218.399V51.6H219.399H220.399V42.3H219.399ZM219.399 51.6V50.6H200.299V51.6V52.6H219.399V51.6ZM200.299 51.6H201.299V42.3H200.299H199.299V51.6H200.299ZM200.299 42.3V43.3H219.399V42.3V41.3H200.299V42.3ZM204.524 48.1V49.1H215.174V48.1V47.1H204.524V48.1ZM215.174 48.1H216.174V45.8H215.174H214.174V48.1H215.174ZM215.174 45.8V44.8H204.524V45.8V46.8H215.174V45.8ZM204.524 45.8H203.524V48.1H204.524H205.524V45.8H204.524ZM244.397 38.65H245.397V37.65H244.397V38.65ZM244.397 41.725V42.725H245.397V41.725H244.397ZM222.797 41.725H221.797V42.725H222.797V41.725ZM222.797 38.65V37.65H221.797V38.65H222.797ZM243.147 42.55H244.147V41.55H243.147V42.55ZM243.147 48.125V49.125H244.147V48.125H243.147ZM228.197 48.125V47.125H227.197V48.125H228.197ZM228.197 48.85H227.197V49.85H228.197V48.85ZM243.372 48.85H244.372V47.85H243.372V48.85ZM243.372 51.6V52.6H244.372V51.6H243.372ZM224.072 51.6H223.072V52.6H224.072V51.6ZM224.072 45.925V44.925H223.072V45.925H224.072ZM239.022 45.925V46.925H240.022V45.925H239.022ZM239.022 45.2H240.022V44.2H239.022V45.2ZM224.022 45.2H223.022V46.2H224.022V45.2ZM224.022 42.55V41.55H223.022V42.55H224.022ZM233.597 29.9V30.9C236.362 30.9 238.645 31.1628 240.202 31.7354C240.975 32.0197 241.503 32.3569 241.83 32.7153C242.138 33.0522 242.297 33.4366 242.297 33.925H243.297H244.297C244.297 32.9259 243.943 32.0634 243.307 31.3667C242.691 30.6915 241.844 30.2084 240.892 29.8583C238.999 29.1622 236.432 28.9 233.597 28.9V29.9ZM243.297 33.925H242.297C242.297 34.4134 242.138 34.7978 241.83 35.1347C241.503 35.4931 240.975 35.8303 240.202 36.1146C238.645 36.6872 236.362 36.95 233.597 36.95V37.95V38.95C236.432 38.95 238.999 38.6878 240.892 37.9917C241.844 37.6416 242.691 37.1585 243.307 36.4833C243.943 35.7866 244.297 34.9241 244.297 33.925H243.297ZM233.597 37.95V36.95C230.832 36.95 228.549 36.6872 226.992 36.1146C226.219 35.8303 225.691 35.4931 225.363 35.1347C225.056 34.7978 224.897 34.4134 224.897 33.925H223.897H222.897C222.897 34.9241 223.25 35.7866 223.886 36.4833C224.503 37.1585 225.35 37.6416 226.302 37.9917C228.195 38.6878 230.762 38.95 233.597 38.95V37.95ZM223.897 33.925H224.897C224.897 33.4366 225.056 33.0522 225.363 32.7153C225.691 32.3569 226.219 32.0197 226.992 31.7354C228.549 31.1628 230.832 30.9 233.597 30.9V29.9V28.9C230.762 28.9 228.195 29.1622 226.302 29.8583C225.35 30.2084 224.503 30.6915 223.886 31.3667C223.25 32.0634 222.897 32.9259 222.897 33.925H223.897ZM233.597 32.925V31.925C231.993 31.925 230.616 31.9998 229.618 32.1781C229.128 32.2655 228.655 32.3903 228.278 32.5875C227.934 32.7676 227.372 33.1771 227.372 33.925H228.372H229.372C229.372 34.3229 229.066 34.4324 229.205 34.3594C229.312 34.3035 229.55 34.222 229.97 34.1469C230.79 34.0002 232.026 33.925 233.597 33.925V32.925ZM228.372 33.925H227.372C227.372 34.6667 227.916 35.082 228.275 35.2713C228.655 35.4721 229.132 35.5961 229.621 35.6819C230.619 35.8568 231.996 35.925 233.597 35.925V34.925V33.925C232.022 33.925 230.787 33.8557 229.966 33.7119C229.546 33.6383 229.312 33.5576 229.209 33.5029C229.084 33.4367 229.372 33.5458 229.372 33.925H228.372ZM233.597 34.925V35.925C235.197 35.925 236.575 35.8568 237.573 35.6819C238.062 35.5961 238.539 35.4721 238.919 35.2713C239.277 35.082 239.822 34.6667 239.822 33.925H238.822H237.822C237.822 33.5458 238.11 33.4367 237.985 33.5029C237.881 33.5576 237.647 33.6383 237.227 33.7119C236.406 33.8557 235.171 33.925 233.597 33.925V34.925ZM238.822 33.925H239.822C239.822 33.1771 239.26 32.7676 238.916 32.5875C238.539 32.3903 238.065 32.2655 237.576 32.1781C236.578 31.9998 235.201 31.925 233.597 31.925V32.925V33.925C235.168 33.925 236.403 34.0002 237.224 34.1469C237.644 34.222 237.881 34.3035 237.988 34.3594C238.128 34.4324 237.822 34.3229 237.822 33.925H238.822ZM244.397 38.65H243.397V41.725H244.397H245.397V38.65H244.397ZM244.397 41.725V40.725H222.797V41.725V42.725H244.397V41.725ZM222.797 41.725H223.797V38.65H222.797H221.797V41.725H222.797ZM222.797 38.65V39.65H244.397V38.65V37.65H222.797V38.65ZM243.147 42.55H242.147V48.125H243.147H244.147V42.55H243.147ZM243.147 48.125V47.125H228.197V48.125V49.125H243.147V48.125ZM228.197 48.125H227.197V48.85H228.197H229.197V48.125H228.197ZM228.197 48.85V49.85H243.372V48.85V47.85H228.197V48.85ZM243.372 48.85H242.372V51.6H243.372H244.372V48.85H243.372ZM243.372 51.6V50.6H224.072V51.6V52.6H243.372V51.6ZM224.072 51.6H225.072V45.925H224.072H223.072V51.6H224.072ZM224.072 45.925V46.925H239.022V45.925V44.925H224.072V45.925ZM239.022 45.925H240.022V45.2H239.022H238.022V45.925H239.022ZM239.022 45.2V44.2H224.022V45.2V46.2H239.022V45.2ZM224.022 45.2H225.022V42.55H224.022H223.022V45.2H224.022ZM224.022 42.55V43.55H243.147V42.55V41.55H224.022V42.55ZM270.326 30.25V29.25H269.326V30.25H270.326ZM274.551 30.25H275.551V29.25H274.551V30.25ZM274.551 51.6V52.6H275.551V51.6H274.551ZM270.326 51.6H269.326V52.6H270.326V51.6ZM253.851 42.925V41.925H252.851V42.925H253.851ZM269.101 42.15H270.101V40.6259L268.703 41.2327L269.101 42.15ZM269.101 45.95L269.5 46.8673L270.101 46.6061V45.95H269.101ZM263.326 46.725V45.725H262.326V46.725H263.326ZM263.326 51.6V52.6H264.326V51.6H263.326ZM259.101 51.6H258.101V52.6H259.101V51.6ZM259.101 46.725H260.101V45.725H259.101V46.725ZM253.851 46.725H252.851V47.725H253.851V46.725ZM270.326 30.25V31.25H274.551V30.25V29.25H270.326V30.25ZM274.551 30.25H273.551V51.6H274.551H275.551V30.25H274.551ZM274.551 51.6V50.6H270.326V51.6V52.6H274.551V51.6ZM270.326 51.6H271.326V30.25H270.326H269.326V51.6H270.326ZM261.251 41.75V40.75C259.524 40.75 258.132 40.2296 257.187 39.4124C256.253 38.6044 255.701 37.4628 255.701 36.075H254.701H253.701C253.701 38.0372 254.5 39.7331 255.879 40.9251C257.246 42.1079 259.128 42.75 261.251 42.75V41.75ZM254.701 36.075H255.701C255.701 34.7012 256.252 33.5585 257.188 32.746C258.134 31.925 259.527 31.4 261.251 31.4V30.4V29.4C259.126 29.4 257.244 30.05 255.877 31.2353C254.501 32.429 253.701 34.1237 253.701 36.075H254.701ZM261.251 30.4V31.4C264.66 31.4 266.776 33.4286 266.776 36.075H267.776H268.776C268.776 32.0714 265.493 29.4 261.251 29.4V30.4ZM267.776 36.075H266.776C266.776 37.463 266.225 38.6051 265.293 39.4133C264.351 40.2305 262.964 40.75 261.251 40.75V41.75V42.75C263.363 42.75 265.24 42.107 266.604 40.9242C267.978 39.7324 268.776 38.037 268.776 36.075H267.776ZM261.251 33.775V32.775C259.237 32.775 257.726 34.1616 257.726 36.075H258.726H259.726C259.726 35.3884 260.216 34.775 261.251 34.775V33.775ZM258.726 36.075H257.726C257.726 37.9884 259.237 39.375 261.251 39.375V38.375V37.375C260.216 37.375 259.726 36.7616 259.726 36.075H258.726ZM261.251 38.375V39.375C262.237 39.375 263.119 39.0485 263.762 38.4376C264.406 37.8257 264.751 36.9833 264.751 36.075H263.751H262.751C262.751 36.4667 262.609 36.7743 262.385 36.9874C262.159 37.2015 261.791 37.375 261.251 37.375V38.375ZM263.751 36.075H264.751C264.751 35.1667 264.406 34.3243 263.762 33.7124C263.119 33.1015 262.237 32.775 261.251 32.775V33.775V34.775C261.791 34.775 262.159 34.9485 262.385 35.1626C262.609 35.3757 262.751 35.6833 262.751 36.075H263.751ZM253.851 42.925V43.925H263.576V42.925V41.925H253.851V42.925ZM263.576 42.925V43.925C265.559 43.925 267.969 43.7317 269.5 43.0673L269.101 42.15L268.703 41.2327C267.584 41.7183 265.544 41.925 263.576 41.925V42.925ZM269.101 42.15H268.101V45.95H269.101H270.101V42.15H269.101ZM269.101 45.95L268.703 45.0327C267.584 45.5183 265.618 45.725 263.501 45.725V46.725V47.725C265.634 47.725 267.969 47.5317 269.5 46.8673L269.101 45.95ZM263.501 46.725V45.725H263.326V46.725V47.725H263.501V46.725ZM263.326 46.725H262.326V51.6H263.326H264.326V46.725H263.326ZM263.326 51.6V50.6H259.101V51.6V52.6H263.326V51.6ZM259.101 51.6H260.101V46.725H259.101H258.101V51.6H259.101ZM259.101 46.725V45.725H253.851V46.725V47.725H259.101V46.725ZM253.851 46.725H254.851V42.925H253.851H252.851V46.725H253.851ZM292.299 31.7H293.299V30.7H292.299V31.7ZM292.299 35V36H293.299V35H292.299ZM277.699 35H276.699V36H277.699V35ZM277.699 31.7V30.7H276.699V31.7H277.699ZM282.849 31.7V32.7H283.849V31.7H282.849ZM282.849 29.875V28.875H281.849V29.875H282.849ZM287.149 29.875H288.149V28.875H287.149V29.875ZM287.149 31.7H286.149V32.7H287.149V31.7ZM297.949 35.2H296.949V36.2H297.949V35.2ZM300.449 35.2H301.449V34.2H300.449V35.2ZM300.449 39.3V40.3H301.449V39.3H300.449ZM297.949 39.3V38.3H296.949V39.3H297.949ZM297.949 46.175V47.175H298.949V46.175H297.949ZM293.724 46.175H292.724V47.175H293.724V46.175ZM293.724 30.25V29.25H292.724V30.25H293.724ZM297.949 30.25H298.949V29.25H297.949V30.25ZM283.399 45.025H284.399V44.025H283.399V45.025ZM283.399 47.925H282.399V48.925H283.399V47.925ZM298.249 47.925H299.249V46.925H298.249V47.925ZM298.249 51.6V52.6H299.249V51.6H298.249ZM279.099 51.6H278.099V52.6H279.099V51.6ZM279.099 45.025V44.025H278.099V45.025H279.099ZM292.299 31.7H291.299V35H292.299H293.299V31.7H292.299ZM292.299 35V34H277.699V35V36H292.299V35ZM277.699 35H278.699V31.7H277.699H276.699V35H277.699ZM277.699 31.7V32.7H282.849V31.7V30.7H277.699V31.7ZM282.849 31.7H283.849V29.875H282.849H281.849V31.7H282.849ZM282.849 29.875V30.875H287.149V29.875V28.875H282.849V29.875ZM287.149 29.875H286.149V31.7H287.149H288.149V29.875H287.149ZM287.149 31.7V32.7H292.299V31.7V30.7H287.149V31.7ZM297.949 35.2V36.2H300.449V35.2V34.2H297.949V35.2ZM300.449 35.2H299.449V39.3H300.449H301.449V35.2H300.449ZM300.449 39.3V38.3H297.949V39.3V40.3H300.449V39.3ZM297.949 39.3H296.949V46.175H297.949H298.949V39.3H297.949ZM297.949 46.175V45.175H293.724V46.175V47.175H297.949V46.175ZM293.724 46.175H294.724V30.25H293.724H292.724V46.175H293.724ZM293.724 30.25V31.25H297.949V30.25V29.25H293.724V30.25ZM297.949 30.25H296.949V35.2H297.949H298.949V30.25H297.949ZM284.999 44.4V43.4C283.346 43.4 281.908 43.0478 280.919 42.4368C279.963 41.8466 279.449 41.0418 279.449 40H278.449H277.449C277.449 41.8582 278.435 43.2534 279.867 44.1382C281.266 45.0022 283.102 45.4 284.999 45.4V44.4ZM278.449 40H279.449C279.449 38.9582 279.963 38.1534 280.919 37.5632C281.908 36.9522 283.346 36.6 284.999 36.6V35.6V34.6C283.102 34.6 281.266 34.9978 279.867 35.8618C278.435 36.7466 277.449 38.1418 277.449 40H278.449ZM284.999 35.6V36.6C286.652 36.6 288.091 36.9522 289.08 37.5632C290.035 38.1534 290.549 38.9582 290.549 40H291.549H292.549C292.549 38.1418 291.563 36.7466 290.131 35.8618C288.733 34.9978 286.896 34.6 284.999 34.6V35.6ZM291.549 40H290.549C290.549 41.0418 290.035 41.8466 289.08 42.4368C288.091 43.0478 286.652 43.4 284.999 43.4V44.4V45.4C286.896 45.4 288.733 45.0022 290.131 44.1382C291.563 43.2534 292.549 41.8582 292.549 40H291.549ZM284.999 38.65V37.65C284.12 37.65 283.31 37.8209 282.681 38.1687C282.062 38.511 281.474 39.125 281.474 40H282.474H283.474C283.474 40.125 283.386 40.064 283.649 39.9188C283.902 39.7791 284.354 39.65 284.999 39.65V38.65ZM282.474 40H281.474C281.474 40.875 282.062 41.489 282.681 41.8313C283.31 42.1791 284.12 42.35 284.999 42.35V41.35V40.35C284.354 40.35 283.902 40.2209 283.649 40.0812C283.386 39.936 283.474 39.875 283.474 40H282.474ZM284.999 41.35V42.35C285.879 42.35 286.689 42.1791 287.318 41.8313C287.936 41.489 288.524 40.875 288.524 40H287.524H286.524C286.524 39.875 286.612 39.936 286.35 40.0812C286.097 40.2209 285.645 40.35 284.999 40.35V41.35ZM287.524 40H288.524C288.524 39.125 287.936 38.511 287.318 38.1687C286.689 37.8209 285.879 37.65 284.999 37.65V38.65V39.65C285.645 39.65 286.097 39.7791 286.35 39.9188C286.612 40.064 286.524 40.125 286.524 40H287.524ZM283.399 45.025H282.399V47.925H283.399H284.399V45.025H283.399ZM283.399 47.925V48.925H298.249V47.925V46.925H283.399V47.925ZM298.249 47.925H297.249V51.6H298.249H299.249V47.925H298.249ZM298.249 51.6V50.6H279.099V51.6V52.6H298.249V51.6ZM279.099 51.6H280.099V45.025H279.099H278.099V51.6H279.099ZM279.099 45.025V46.025H283.399V45.025V44.025H279.099V45.025ZM163.603 71.9H162.603V72.9H163.603V71.9ZM172.253 71.9H173.253V70.9H172.253V71.9ZM172.253 75.85V76.85H173.253V75.85H172.253ZM150.653 75.85H149.653V76.85H150.653V75.85ZM150.653 71.9V70.9H149.653V71.9H150.653ZM159.303 71.9V72.9H160.303V71.9H159.303ZM159.303 68.45H160.303V67.45H159.303V68.45ZM151.828 68.45H150.828V69.45H151.828V68.45ZM151.828 55.75V54.75H150.828V55.75H151.828ZM171.078 55.75H172.078V54.75H171.078V55.75ZM171.078 68.45V69.45H172.078V68.45H171.078ZM163.603 68.45V67.45H162.603V68.45H163.603ZM156.028 59.7V58.7H155.028V59.7H156.028ZM156.028 64.525H155.028V65.525H156.028V64.525ZM166.878 64.525V65.525H167.878V64.525H166.878ZM166.878 59.7H167.878V58.7H166.878V59.7ZM163.603 71.9V72.9H172.253V71.9V70.9H163.603V71.9ZM172.253 71.9H171.253V75.85H172.253H173.253V71.9H172.253ZM172.253 75.85V74.85H150.653V75.85V76.85H172.253V75.85ZM150.653 75.85H151.653V71.9H150.653H149.653V75.85H150.653ZM150.653 71.9V72.9H159.303V71.9V70.9H150.653V71.9ZM159.303 71.9H160.303V68.45H159.303H158.303V71.9H159.303ZM159.303 68.45V67.45H151.828V68.45V69.45H159.303V68.45ZM151.828 68.45H152.828V55.75H151.828H150.828V68.45H151.828ZM151.828 55.75V56.75H171.078V55.75V54.75H151.828V55.75ZM171.078 55.75H170.078V68.45H171.078H172.078V55.75H171.078ZM171.078 68.45V67.45H163.603V68.45V69.45H171.078V68.45ZM163.603 68.45H162.603V71.9H163.603H164.603V68.45H163.603ZM156.028 59.7H155.028V64.525H156.028H157.028V59.7H156.028ZM156.028 64.525V65.525H166.878V64.525V63.525H156.028V64.525ZM166.878 64.525H167.878V59.7H166.878H165.878V64.525H166.878ZM166.878 59.7V58.7H156.028V59.7V60.7H166.878V59.7ZM196.301 64.375H197.301V63.375H196.301V64.375ZM196.301 67.625V68.625H197.301V67.625H196.301ZM174.701 67.625H173.701V68.625H174.701V67.625ZM174.701 64.375V63.375H173.701V64.375H174.701ZM195.051 68.725H196.051V67.725H195.051V68.725ZM195.051 76.6V77.6H196.051V76.6H195.051ZM175.951 76.6H174.951V77.6H175.951V76.6ZM175.951 68.725V67.725H174.951V68.725H175.951ZM180.126 73.425H179.126V74.425H180.126V73.425ZM190.876 73.425V74.425H191.876V73.425H190.876ZM190.876 71.9H191.876V70.9H190.876V71.9ZM180.126 71.9V70.9H179.126V71.9H180.126ZM185.501 54.9V55.9C188.264 55.9 190.551 56.2166 192.11 56.8486C193.656 57.4757 194.251 58.2916 194.251 59.25H195.251H196.251C196.251 57.1334 194.783 55.7743 192.861 54.9951C190.951 54.2209 188.364 53.9 185.501 53.9V54.9ZM195.251 59.25H194.251C194.251 60.2084 193.656 61.0243 192.11 61.6514C190.551 62.2834 188.264 62.6 185.501 62.6V63.6V64.6C188.364 64.6 190.951 64.2791 192.861 63.5049C194.783 62.7257 196.251 61.3666 196.251 59.25H195.251ZM185.501 63.6V62.6C182.739 62.6 180.451 62.2834 178.892 61.6514C177.346 61.0243 176.751 60.2084 176.751 59.25H175.751H174.751C174.751 61.3666 176.219 62.7257 178.141 63.5049C180.051 64.2791 182.639 64.6 185.501 64.6V63.6ZM175.751 59.25H176.751C176.751 58.2916 177.346 57.4757 178.892 56.8486C180.451 56.2166 182.739 55.9 185.501 55.9V54.9V53.9C182.639 53.9 180.051 54.2209 178.141 54.9951C176.219 55.7743 174.751 57.1334 174.751 59.25H175.751ZM185.501 58.075V57.075C183.878 57.075 182.483 57.1688 181.468 57.3843C180.969 57.4903 180.485 57.641 180.101 57.8751C179.72 58.1075 179.251 58.5488 179.251 59.25H180.251H181.251C181.251 59.5512 181.039 59.6456 181.142 59.5827C181.242 59.5215 181.47 59.4285 181.884 59.3407C182.694 59.1687 183.924 59.075 185.501 59.075V58.075ZM180.251 59.25H179.251C179.251 59.9468 179.706 60.3931 180.098 60.6336C180.485 60.8714 180.972 61.0215 181.472 61.1257C182.487 61.3378 183.882 61.425 185.501 61.425V60.425V59.425C183.92 59.425 182.69 59.3372 181.881 59.168C181.467 59.0817 181.242 58.9895 181.145 58.9297C181.052 58.8726 181.251 58.9657 181.251 59.25H180.251ZM185.501 60.425V61.425C187.12 61.425 188.515 61.3378 189.531 61.1257C190.03 61.0215 190.517 60.8714 190.904 60.6336C191.296 60.3931 191.751 59.9468 191.751 59.25H190.751H189.751C189.751 58.9657 189.95 58.8726 189.857 58.9297C189.76 58.9895 189.535 59.0817 189.122 59.168C188.312 59.3372 187.082 59.425 185.501 59.425V60.425ZM190.751 59.25H191.751C191.751 58.5488 191.283 58.1075 190.901 57.8751C190.517 57.641 190.033 57.4903 189.534 57.3843C188.519 57.1688 187.124 57.075 185.501 57.075V58.075V59.075C187.078 59.075 188.308 59.1687 189.118 59.3407C189.532 59.4285 189.76 59.5215 189.86 59.5827C189.963 59.6456 189.751 59.5512 189.751 59.25H190.751ZM196.301 64.375H195.301V67.625H196.301H197.301V64.375H196.301ZM196.301 67.625V66.625H174.701V67.625V68.625H196.301V67.625ZM174.701 67.625H175.701V64.375H174.701H173.701V67.625H174.701ZM174.701 64.375V65.375H196.301V64.375V63.375H174.701V64.375ZM195.051 68.725H194.051V76.6H195.051H196.051V68.725H195.051ZM195.051 76.6V75.6H175.951V76.6V77.6H195.051V76.6ZM175.951 76.6H176.951V68.725H175.951H174.951V76.6H175.951ZM175.951 68.725V69.725H195.051V68.725V67.725H175.951V68.725ZM180.126 73.425V74.425H190.876V73.425V72.425H180.126V73.425ZM190.876 73.425H191.876V71.9H190.876H189.876V73.425H190.876ZM190.876 71.9V70.9H180.126V71.9V72.9H190.876V71.9ZM180.126 71.9H179.126V73.425H180.126H181.126V71.9H180.126ZM212.424 59.8V58.8H211.424V59.8H212.424ZM215.274 59.8V60.8H216.274V59.8H215.274ZM215.274 55.25V54.25H214.274V55.25H215.274ZM219.499 55.25H220.499V54.25H219.499V55.25ZM219.499 71.075V72.075H220.499V71.075H219.499ZM215.274 71.075H214.274V72.075H215.274V71.075ZM215.274 63.475H216.274V62.475H215.274V63.475ZM212.424 63.475H211.424V64.475H212.424V63.475ZM206.374 64.45L206.956 63.6371L206.157 63.0642L205.571 63.8543L206.374 64.45ZM199.124 68.35H198.124V69.3749L199.149 69.3497L199.124 68.35ZM199.124 64.525L199.046 63.528L198.124 63.6002V64.525H199.124ZM204.174 59.1L205.165 59.2363L205.321 58.1H204.174V59.1ZM199.424 59.1H198.424V60.1H199.424V59.1ZM199.424 55.5V54.5H198.424V55.5H199.424ZM213.024 55.5H214.024V54.5H213.024V55.5ZM213.024 59.1V60.1H214.024V59.1H213.024ZM208.424 59.1V58.1H207.495L207.427 59.0261L208.424 59.1ZM208.049 61.1L207.093 60.8059L206.878 61.5063L207.481 61.9228L208.049 61.1ZM213.949 65.175L214.733 65.7957L215.396 64.9588L214.517 64.3522L213.949 65.175ZM211.574 68.175L210.992 68.9879L211.766 69.543L212.358 68.7957L211.574 68.175ZM204.699 72.825H203.699V73.825H204.699V72.825ZM219.799 72.825H220.799V71.825H219.799V72.825ZM219.799 76.6V77.6H220.799V76.6H219.799ZM200.399 76.6H199.399V77.6H200.399V76.6ZM200.399 69.125V68.125H199.399V69.125H200.399ZM204.699 69.125H205.699V68.125H204.699V69.125ZM212.424 59.8V60.8H215.274V59.8V58.8H212.424V59.8ZM215.274 59.8H216.274V55.25H215.274H214.274V59.8H215.274ZM215.274 55.25V56.25H219.499V55.25V54.25H215.274V55.25ZM219.499 55.25H218.499V71.075H219.499H220.499V55.25H219.499ZM219.499 71.075V70.075H215.274V71.075V72.075H219.499V71.075ZM215.274 71.075H216.274V63.475H215.274H214.274V71.075H215.274ZM215.274 63.475V62.475H212.424V63.475V64.475H215.274V63.475ZM212.424 63.475H213.424V59.8H212.424H211.424V63.475H212.424ZM206.374 64.45L205.571 63.8543C204.074 65.8723 201.794 67.284 199.099 67.3503L199.124 68.35L199.149 69.3497C202.553 69.266 205.374 67.4777 207.177 65.0457L206.374 64.45ZM199.124 68.35H200.124V64.525H199.124H198.124V68.35H199.124ZM199.124 64.525L199.202 65.5219C202.706 65.2477 204.75 62.2465 205.165 59.2363L204.174 59.1L203.183 58.9637C202.848 61.4035 201.292 63.3523 199.046 63.528L199.124 64.525ZM204.174 59.1V58.1H199.424V59.1V60.1H204.174V59.1ZM199.424 59.1H200.424V55.5H199.424H198.424V59.1H199.424ZM199.424 55.5V56.5H213.024V55.5V54.5H199.424V55.5ZM213.024 55.5H212.024V59.1H213.024H214.024V55.5H213.024ZM213.024 59.1V58.1H208.424V59.1V60.1H213.024V59.1ZM208.424 59.1L207.427 59.0261C207.382 59.6283 207.271 60.2294 207.093 60.8059L208.049 61.1L209.005 61.3941C209.227 60.6706 209.366 59.9217 209.421 59.1739L208.424 59.1ZM208.049 61.1L207.481 61.9228L213.381 65.9978L213.949 65.175L214.517 64.3522L208.617 60.2772L208.049 61.1ZM213.949 65.175L213.165 64.5543L210.79 67.5543L211.574 68.175L212.358 68.7957L214.733 65.7957L213.949 65.175ZM211.574 68.175L212.156 67.3621L206.956 63.6371L206.374 64.45L205.792 65.2629L210.992 68.9879L211.574 68.175ZM204.699 72.825V73.825H219.799V72.825V71.825H204.699V72.825ZM219.799 72.825H218.799V76.6H219.799H220.799V72.825H219.799ZM219.799 76.6V75.6H200.399V76.6V77.6H219.799V76.6ZM200.399 76.6H201.399V69.125H200.399H199.399V76.6H200.399ZM200.399 69.125V70.125H204.699V69.125V68.125H200.399V69.125ZM204.699 69.125H203.699V72.825H204.699H205.699V69.125H204.699Z" fill="#333333" mask="url(#path-54-outside-1_523_3401)"/>
<rect x="132" y="10" width="110" height="15" rx="7.5" fill="#E1E2E6"/>
<path d="M153.073 16.408L150.073 15.208C149.313 15.92 148.121 16.368 146.969 16.392V15.736C148.289 15.688 149.745 15 150.025 13.84L150.817 13.984C150.761 14.24 150.649 14.48 150.505 14.704L153.329 15.816L153.073 16.408ZM153.545 17.432H150.521V18.048H153.073V19.68H147.969V20.16H153.193V20.752H147.193V19.12H152.297V18.64H147.177V18.048H149.737V17.432H146.721V16.816H153.545V17.432ZM158.225 19.76H161.241V20.504H154.417V19.76H157.417V18.304C155.793 18.192 154.745 17.384 154.745 16.224C154.745 14.96 155.969 14.12 157.825 14.12C159.681 14.12 160.905 14.96 160.905 16.224C160.905 17.384 159.857 18.192 158.225 18.304V19.76ZM155.585 16.224C155.585 17.048 156.481 17.6 157.825 17.6C159.177 17.6 160.073 17.048 160.073 16.224C160.073 15.392 159.177 14.84 157.825 14.84C156.481 14.84 155.585 15.392 155.585 16.224ZM167.752 14H168.544V20.832H167.752V17.52H165.224V16.776H167.752V14ZM163.28 19.704H165.088C165.736 19.704 166.44 19.576 166.856 19.384V20.104C166.44 20.304 165.704 20.424 165.048 20.424H162.472V14.248H166.44V14.968H163.28V19.704ZM175.391 14H176.183V18.192H175.391V14ZM174.895 17.512C174.479 17.696 173.671 17.816 172.695 17.816H169.887V17.152H170.775V14.84H169.911V14.168H174.599V14.84H173.727V17.104C174.207 17.056 174.599 16.968 174.895 16.832V17.512ZM171.535 14.84V17.152H172.751H172.967V14.84H171.535ZM170.327 19.248L170.335 18.568H176.183V20.832H175.383V19.248H170.327ZM182.969 16.528C182.329 17.24 181.265 17.688 179.961 17.76V17.032C181.401 16.928 182.441 16.264 182.721 15.328H180.137V14.608H182.729V13.832H183.545V14.608H186.169V15.328H183.577C183.537 15.536 183.465 15.736 183.377 15.928L186.353 17.024L186.081 17.712L182.969 16.528ZM186.569 18.416V19.152H183.553V20.992H182.745V19.152H179.745V18.416H186.569ZM189.808 16.872C189.336 17.64 188.552 18.152 187.576 18.256V17.552C188.664 17.384 189.36 16.576 189.464 15.392H187.648V14.712H189.456V13.88H190.256V14.712H192.04V15.392H190.264C190.24 15.688 190.192 15.968 190.104 16.224L192.16 17.616L191.752 18.216L189.808 16.872ZM191.768 15.872H193.08V14H193.872V19.096H193.08V16.6H191.768V15.872ZM188.864 20.04H194.016V20.744H188.056V18.816H188.864V20.04ZM200.951 14H201.703V18.064H200.951V14ZM199.303 17.992V16.12H198.471V15.416H199.303V14.04H200.047V17.992H199.303ZM198.687 17.552C198.239 17.728 197.535 17.808 196.751 17.808H195.343V14.168H198.287V14.792H196.095V15.672H198.095V16.28H196.095V17.184H196.815C197.575 17.184 198.231 17.104 198.687 16.928V17.552ZM195.735 20.744V18.44H201.703V20.744H195.735ZM196.511 19.072V20.112H200.927V19.072H196.511ZM210.657 20.832V14H211.457V20.832H210.657ZM207.433 20.512C206.217 20.512 205.361 19.504 205.361 17.336C205.361 15.168 206.217 14.16 207.433 14.16C208.641 14.16 209.497 15.168 209.497 17.336C209.497 19.504 208.641 20.512 207.433 20.512ZM207.433 19.784C208.145 19.784 208.705 19.072 208.705 17.336C208.705 15.608 208.145 14.888 207.433 14.888C206.705 14.888 206.153 15.608 206.153 17.336C206.153 19.072 206.705 19.784 207.433 19.784ZM219.336 14V19.128H218.584V14H219.336ZM215.936 16.416V18.072H212.976V14.12H213.712V15.408H215.208V14.12H215.936V15.68H216.936V14.04H217.68V19.008H216.936V16.416H215.936ZM213.712 17.424H215.208V16.048H213.712V17.424ZM214.216 20.024H219.504V20.744H213.408V18.696H214.216V20.024ZM226.943 17.904V18.616H220.919V14.248H226.839V14.96H221.711V16.08H226.751V16.776H221.711V17.904H226.943ZM220.463 19.776H227.287V20.504H220.463V19.776Z" fill="black"/>
<path d="M11.5006 16.832V10H12.3006V16.832H11.5006ZM8.27656 16.512C7.06056 16.512 6.20456 15.504 6.20456 13.336C6.20456 11.168 7.06056 10.16 8.27656 10.16C9.48456 10.16 10.3406 11.168 10.3406 13.336C10.3406 15.504 9.48456 16.512 8.27656 16.512ZM8.27656 15.784C8.98856 15.784 9.54856 15.072 9.54856 13.336C9.54856 11.608 8.98856 10.888 8.27656 10.888C7.54856 10.888 6.99656 11.608 6.99656 13.336C6.99656 15.072 7.54856 15.784 8.27656 15.784ZM20.1799 10V15.128H19.4279V10H20.1799ZM16.7799 12.416V14.072H13.8199V10.12H14.5559V11.408H16.0519V10.12H16.7799V11.68H17.7799V10.04H18.5239V15.008H17.7799V12.416H16.7799ZM14.5559 13.424H16.0519V12.048H14.5559V13.424ZM15.0599 16.024H20.3479V16.744H14.2519V14.696H15.0599V16.024ZM27.7872 13.904V14.616H21.7632V10.248H27.6832V10.96H22.5552V12.08H27.5952V12.776H22.5552V13.904H27.7872ZM21.3072 15.776H28.1312V16.504H21.3072V15.776ZM37.0607 10H37.8127V16.832H37.0607V10ZM35.4127 12.752V10.04H36.1567V16.712H35.4127V13.488H33.6687V12.752H35.4127ZM32.2287 15.72H33.1887C33.7727 15.72 34.3647 15.6 34.7807 15.416V16.112C34.3727 16.304 33.7167 16.424 33.1007 16.424H31.4527V10.248H34.4847V10.952H32.2287V15.72ZM42.748 15.76H45.764V16.504H38.94V15.76H41.94V14.12H39.388V10.248H45.308V14.12H42.748V15.76ZM40.18 10.992V13.384H44.516V10.992H40.18ZM54.4615 16.832V10H55.2615V16.832H54.4615ZM51.2375 16.512C50.0215 16.512 49.1655 15.504 49.1655 13.336C49.1655 11.168 50.0215 10.16 51.2375 10.16C52.4455 10.16 53.3015 11.168 53.3015 13.336C53.3015 15.504 52.4455 16.512 51.2375 16.512ZM51.2375 15.784C51.9495 15.784 52.5095 15.072 52.5095 13.336C52.5095 11.608 51.9495 10.888 51.2375 10.888C50.5095 10.888 49.9575 11.608 49.9575 13.336C49.9575 15.072 50.5095 15.784 51.2375 15.784ZM62.1568 16.832V10H62.9488V16.832H62.1568ZM56.9648 16.424V10.248H60.8368V16.424H56.9648ZM57.7568 15.68H60.0448V10.992H57.7568V15.68ZM69.8521 10H70.6441V16.832H69.8521V10ZM67.1881 10.976C67.1801 11.768 67.1001 12.496 66.9721 13.136L69.2041 15.896L68.5801 16.368L66.7401 14.024C66.2681 15.456 65.4521 16.304 64.4201 16.424V15.64C65.6361 15.416 66.3561 13.512 66.3881 10.976H64.5801V10.248H68.9401V10.976H67.1881Z" fill="white"/>
<path d="M318.006 15.54V10.65H319.884C321.156 10.65 321.9 11.358 321.9 12.438C321.9 13.53 321.156 14.238 319.884 14.238H319.098V15.54H318.006ZM319.098 13.272H319.836C320.442 13.272 320.808 12.984 320.808 12.438C320.808 11.898 320.442 11.616 319.836 11.616H319.098V13.272ZM326.665 15.54H325.399L324.451 13.998H323.581V15.54H322.489V10.65H324.457C325.699 10.65 326.425 11.31 326.425 12.324C326.425 12.996 326.107 13.512 325.531 13.782L326.665 15.54ZM323.581 11.616V13.032H324.409C324.985 13.032 325.333 12.786 325.333 12.324C325.333 11.862 324.985 11.616 324.409 11.616H323.581ZM329.542 15.66C328.024 15.66 326.902 14.574 326.902 13.092C326.902 11.61 328.024 10.524 329.542 10.524C331.06 10.524 332.182 11.61 332.182 13.092C332.182 14.574 331.06 15.66 329.542 15.66ZM329.542 14.676C330.43 14.676 331.09 14.01 331.09 13.092C331.09 12.168 330.43 11.508 329.542 11.508C328.654 11.508 327.994 12.168 327.994 13.092C327.994 14.01 328.654 14.676 329.542 14.676ZM332.83 15.54V10.65H333.7L335.386 13.386L337.072 10.65H337.942V15.54H336.85V12.858L335.716 14.736H335.056L333.922 12.858V15.54H332.83ZM341.231 15.66C339.713 15.66 338.591 14.574 338.591 13.092C338.591 11.61 339.713 10.524 341.231 10.524C342.749 10.524 343.871 11.61 343.871 13.092C343.871 14.574 342.749 15.66 341.231 15.66ZM341.231 14.676C342.119 14.676 342.779 14.01 342.779 13.092C342.779 12.168 342.119 11.508 341.231 11.508C340.343 11.508 339.683 12.168 339.683 13.092C339.683 14.01 340.343 14.676 341.231 14.676ZM348.293 10.65V11.616H346.703V15.54H345.611V11.616H344.021V10.65H348.293ZM348.879 10.65H349.971V15.54H348.879V10.65ZM353.26 15.66C351.742 15.66 350.62 14.574 350.62 13.092C350.62 11.61 351.742 10.524 353.26 10.524C354.778 10.524 355.9 11.61 355.9 13.092C355.9 14.574 354.778 15.66 353.26 15.66ZM353.26 14.676C354.148 14.676 354.808 14.01 354.808 13.092C354.808 12.168 354.148 11.508 353.26 11.508C352.372 11.508 351.712 12.168 351.712 13.092C351.712 14.01 352.372 14.676 353.26 14.676ZM356.549 15.54V10.65H357.461L359.903 13.59V10.59H360.995V15.48H360.083L357.641 12.54V15.54H356.549ZM319.49 17.518C320.558 17.518 321.362 18.376 321.362 20.092C321.362 21.802 320.558 22.66 319.49 22.66C318.422 22.66 317.618 21.802 317.618 20.092C317.618 18.376 318.422 17.518 319.49 17.518ZM319.49 18.472C319.01 18.472 318.65 18.976 318.65 20.092C318.65 21.202 319.01 21.706 319.49 21.706C319.97 21.706 320.33 21.202 320.33 20.092C320.33 18.976 319.97 18.472 319.49 18.472ZM323.649 22.654C322.629 22.654 321.795 21.988 321.795 20.944C321.795 20.47 321.951 20.104 322.239 19.648L323.499 17.65H324.735L323.625 19.306C323.655 19.294 323.709 19.282 323.763 19.282C324.717 19.282 325.503 19.948 325.503 20.938C325.503 21.94 324.675 22.654 323.649 22.654ZM323.649 21.73C324.135 21.73 324.441 21.388 324.441 20.95C324.441 20.512 324.135 20.17 323.649 20.17C323.163 20.17 322.857 20.512 322.857 20.95C322.857 21.388 323.163 21.73 323.649 21.73ZM326.381 21.388C326.723 21.388 326.975 21.646 326.975 21.988C326.975 22.33 326.723 22.588 326.381 22.588C326.033 22.588 325.781 22.33 325.781 21.988C325.781 21.646 326.033 21.388 326.381 21.388ZM327.527 19.744H329.825V20.644H327.527V19.744ZM332.205 17.518C333.273 17.518 334.077 18.376 334.077 20.092C334.077 21.802 333.273 22.66 332.205 22.66C331.137 22.66 330.333 21.802 330.333 20.092C330.333 18.376 331.137 17.518 332.205 17.518ZM332.205 18.472C331.725 18.472 331.365 18.976 331.365 20.092C331.365 21.202 331.725 21.706 332.205 21.706C332.685 21.706 333.045 21.202 333.045 20.092C333.045 18.976 332.685 18.472 332.205 18.472ZM336.447 17.65V22.54H335.361V18.598H334.497V17.65H336.447ZM339.117 19.744H341.415V20.644H339.117V19.744ZM345.476 17.518C346.544 17.518 347.348 18.376 347.348 20.092C347.348 21.802 346.544 22.66 345.476 22.66C344.408 22.66 343.604 21.802 343.604 20.092C343.604 18.376 344.408 17.518 345.476 17.518ZM345.476 18.472C344.996 18.472 344.636 18.976 344.636 20.092C344.636 21.202 344.996 21.706 345.476 21.706C345.956 21.706 346.316 21.202 346.316 20.092C346.316 18.976 345.956 18.472 345.476 18.472ZM349.635 22.654C348.615 22.654 347.781 21.988 347.781 20.944C347.781 20.47 347.937 20.104 348.225 19.648L349.485 17.65H350.721L349.611 19.306C349.641 19.294 349.695 19.282 349.749 19.282C350.703 19.282 351.489 19.948 351.489 20.938C351.489 21.94 350.661 22.654 349.635 22.654ZM349.635 21.73C350.121 21.73 350.427 21.388 350.427 20.95C350.427 20.512 350.121 20.17 349.635 20.17C349.149 20.17 348.843 20.512 348.843 20.95C348.843 21.388 349.149 21.73 349.635 21.73ZM352.367 21.388C352.709 21.388 352.961 21.646 352.961 21.988C352.961 22.33 352.709 22.588 352.367 22.588C352.019 22.588 351.767 22.33 351.767 21.988C351.767 21.646 352.019 21.388 352.367 21.388ZM355.316 17.518C356.33 17.518 357.032 18.112 357.032 18.988C357.032 19.552 356.618 19.966 356.21 20.038C356.66 20.11 357.164 20.5 357.164 21.13C357.164 22.072 356.366 22.66 355.352 22.66C354.278 22.66 353.612 22.06 353.534 21.118H354.608C354.65 21.508 354.896 21.742 355.352 21.742C355.802 21.742 356.102 21.496 356.102 21.136C356.102 20.728 355.76 20.512 355.25 20.512H354.764V19.624H355.25C355.694 19.624 355.958 19.384 355.958 19.012C355.958 18.652 355.718 18.43 355.31 18.43C354.884 18.43 354.686 18.772 354.686 19.12H353.612C353.612 18.19 354.314 17.518 355.316 17.518ZM359.509 17.518C360.577 17.518 361.381 18.376 361.381 20.092C361.381 21.802 360.577 22.66 359.509 22.66C358.441 22.66 357.637 21.802 357.637 20.092C357.637 18.376 358.441 17.518 359.509 17.518ZM359.509 18.472C359.029 18.472 358.669 18.976 358.669 20.092C358.669 21.202 359.029 21.706 359.509 21.706C359.989 21.706 360.349 21.202 360.349 20.092C360.349 18.976 359.989 18.472 359.509 18.472Z" fill="white"/>
</svg>
