<svg width="500" height="62" viewBox="0 0 500 62" fill="none" xmlns="http://www.w3.org/2000/svg">
<path d="M18.3754 24.516H28.3475C35.0702 24.516 40.187 25.9359 43.6977 28.7756C47.2832 31.5522 49.0759 35.4331 49.0759 40.4183V45.9084C49.0759 50.8936 47.2832 54.7746 43.6977 57.5511C40.187 60.3277 35.0702 61.6529 28.3475 61.5267L1.79273 61.0534V48.8427H30.7004C31.7462 48.8427 32.2691 48.401 32.2691 47.5176V38.5252C32.2691 37.6417 31.7462 37.2 30.7004 37.2H20.7284C14.0057 37.2 8.85159 35.8117 5.26613 33.0351C1.75538 30.1954 0 26.283 0 21.2977V16.0916C0 11.1064 1.75538 7.22545 5.26613 4.44885C8.85159 1.67227 14.0057 0.347075 20.7284 0.473282L46.3868 0.946564V13.1573H18.3754C17.3297 13.1573 16.8068 13.599 16.8068 14.4824V23.1908C16.8068 24.0743 17.3297 24.516 18.3754 24.516Z" fill="#1F3A93"/>
<path d="M92.3517 62H78.234C71.5112 62 66.4692 60.7379 63.1078 58.2137C59.7465 55.6265 58.0658 51.8402 58.0658 46.855V0.946564H74.8726V48.0855C74.8726 48.969 75.3955 49.4107 76.4412 49.4107H94.1444C95.1902 49.4107 95.713 48.969 95.713 48.0855V0.946564H112.52V46.855C112.52 51.8402 110.839 55.6265 107.478 58.2137C104.116 60.7379 99.0744 62 92.3517 62Z" fill="#1F3A93"/>
<path d="M166.717 48.8427V61.0534H125.932V0.946564H142.515V50.7359L140.274 48.8427H166.717Z" fill="#1F3A93"/>
<path d="M229.507 12.5893H211.355C210.31 12.5893 209.787 13.031 209.787 13.9145V48.0855C209.787 48.969 210.31 49.4107 211.355 49.4107H229.507C230.552 49.4107 231.075 48.969 231.075 48.0855V13.9145C231.075 13.031 230.552 12.5893 229.507 12.5893ZM192.98 46.855V15.145C192.98 10.1598 194.661 6.40509 198.022 3.88092C201.383 1.29364 206.425 0 213.148 0H227.714C234.437 0 239.479 1.29364 242.84 3.88092C246.201 6.40509 247.882 10.1598 247.882 15.145V46.855C247.882 51.8402 246.201 55.6265 242.84 58.2137C239.479 60.7379 234.437 62 227.714 62H213.148C206.425 62 201.383 60.7379 198.022 58.2137C194.661 55.6265 192.98 51.8402 192.98 46.855Z" fill="#1F3A93"/>
<path d="M278.427 61.0534H261.844V0.946564L292.096 0.473282C298.819 0.347075 303.936 1.67227 307.446 4.44885C311.032 7.22545 312.825 11.1064 312.825 16.0916V23.3802C312.825 27.1033 311.592 30.4163 309.127 33.3191C306.662 36.1588 303.039 38.0519 298.259 38.9985V36.2534C301.023 36.6952 303.189 37.5471 304.757 38.8092C306.401 40.0081 307.745 41.8697 308.791 44.3939L315.738 61.0534H299.155L291.424 41.0809C291.2 40.5761 290.976 40.1975 290.752 39.945C290.602 39.6926 290.191 39.5664 289.519 39.5664H276.186L278.427 37.3893V61.0534ZM278.427 10.4122V29.3435L276.186 27.4504H294.449C295.495 27.4504 296.018 27.0087 296.018 26.1252V14.0092C296.018 13.1257 295.495 12.684 294.449 12.684H276.186L278.427 10.4122Z" fill="#1F3A93"/>
<path d="M359.468 12.5893H341.877V49.4107H359.468C360.514 49.4107 361.037 48.969 361.037 48.0855V13.9145C361.037 13.031 360.514 12.5893 359.468 12.5893ZM325.294 61.0534V0.946564L357.115 0.473282C364.136 0.347075 369.328 1.57761 372.689 4.16489C376.125 6.68906 377.843 10.6646 377.843 16.0916V45.9084C377.843 51.3354 376.125 55.3109 372.689 57.8351C369.328 60.3593 364.136 61.5898 357.115 61.5267L325.294 61.0534Z" fill="#1F3A93"/>
<path d="M434.86 61.0534H391.274V0.946564H434.299V13.1573H405.616L407.857 11.2641V26.5038L405.616 24.6107H432.058V36.6321H405.616L407.857 34.7389V50.7359L405.616 48.8427H434.86V61.0534Z" fill="#1F3A93"/>
<path d="M462.689 61.0534H446.106V0.946564L476.358 0.473282C483.081 0.347075 488.198 1.67227 491.709 4.44885C495.294 7.22545 497.087 11.1064 497.087 16.0916V23.3802C497.087 27.1033 495.854 30.4163 493.389 33.3191C490.924 36.1588 487.302 38.0519 482.521 38.9985V36.2534C485.285 36.6952 487.451 37.5471 489.02 38.8092C490.663 40.0081 492.007 41.8697 493.053 44.3939L500 61.0534H483.417L475.686 41.0809C475.462 40.5761 475.238 40.1975 475.014 39.945C474.864 39.6926 474.454 39.5664 473.781 39.5664H460.448L462.689 37.3893V61.0534ZM462.689 10.4122V29.3435L460.448 27.4504H478.711C479.757 27.4504 480.28 27.0087 480.28 26.1252V14.0092C480.28 13.1257 479.757 12.684 478.711 12.684H460.448L462.689 10.4122Z" fill="#1F3A93"/>
</svg>
