<svg width="128" height="28" viewBox="0 0 128 28" fill="none" xmlns="http://www.w3.org/2000/svg">
<path d="M126.436 4.62078V5.67959H117.734V4.62078H121.404V3.85551H118.563V2.78622H119.737V1.32905H118.5V0.259766H125.66V1.32905H124.412V2.78622H125.597V3.85551H122.745V4.62078H126.436ZM125.398 6.32955V9.43258H118.741V6.32955H125.398ZM120.062 7.37787V8.36329H124.087V7.37787H120.062ZM121.079 2.78622H123.07V1.32905H121.079V2.78622Z" fill="#1F3A93"/>
<path d="M116.655 0.00976562V6.41501H115.386V3.39584H114.558V5.62877H113.311V0.177497H114.558V2.31607H115.386V0.00976562H116.655ZM112.472 0.659725V3.56357H110.134V4.49658C111.177 4.49134 111.953 4.43368 112.86 4.25547L112.975 5.30379C111.874 5.52393 110.941 5.55538 109.505 5.55538H108.845V2.59912H111.182V1.72901H108.834V0.659725H112.472ZM114.013 6.16341C114.002 7.1698 115.04 8.20764 117.095 8.45923L116.56 9.49707C115.04 9.28217 113.929 8.63745 113.352 7.74638C112.755 8.63745 111.644 9.28217 110.134 9.49707L109.6 8.45923C111.644 8.20764 112.671 7.1698 112.671 6.16341V5.99568H114.013V6.16341Z" fill="#1F3A93"/>
<path d="M107.104 0.259766V1.25567H105.857V2.51366H107.041V3.50956H100.007V2.51366H101.181V1.25567H99.9444V0.259766H107.104ZM107.88 4.01276V5.06108H99.1791V4.01276H107.88ZM106.821 5.6062V7.96493H101.506V8.48909H107.073V9.47451H100.196V7.05289H105.5V6.57066H100.185V5.6062H106.821ZM102.523 2.51366H104.515V1.25567H102.523V2.51366Z" fill="#1F3A93"/>
<path d="M95.6777 0V9.53972H94.4093V0H95.6777ZM93.7279 0.157248V9.09943H92.4699V4.35053H91.2119V3.27076H92.4699V0.157248H93.7279ZM90.4466 2.5579C90.4466 4.14087 90.9393 5.7448 92.3336 6.54152L91.5474 7.52695C90.6982 7.02375 90.1374 6.16937 89.8176 5.14726C89.4874 6.25848 88.9108 7.20197 88.0355 7.73661L87.2283 6.75119C88.633 5.89156 89.1572 4.17232 89.1572 2.5579V2.04423H87.5952V0.974939H91.8933V2.04423H90.4466V2.5579Z" fill="#1F3A93"/>
<path d="M86.1905 0.00976562V5.50297H84.8592V4.56996H82.7101V3.50068H84.8592V2.58864H82.8044C82.2121 4.09822 80.8598 5.13606 78.7579 5.71263L78.2338 4.65383C80.43 4.07725 81.5045 3.02893 81.6932 1.71853H78.7474V0.649242H83.1504C83.1504 0.958496 83.1294 1.25727 83.0875 1.54031H84.8592V0.00976562H86.1905ZM83.0141 5.61828C84.9535 5.61828 86.2534 6.36259 86.2639 7.54719C86.2534 8.74228 84.9535 9.49707 83.0141 9.49707C81.0537 9.49707 79.7433 8.74228 79.7538 7.54719C79.7433 6.36259 81.0537 5.61828 83.0141 5.61828ZM83.0141 6.6666C81.8085 6.65612 81.0852 6.96013 81.0852 7.54719C81.0852 8.13425 81.8085 8.43827 83.0141 8.43827C84.1987 8.43827 84.9221 8.13425 84.9221 7.54719C84.9221 6.96013 84.1987 6.65612 83.0141 6.6666Z" fill="#1F3A93"/>
<path d="M75.1202 5.30446V6.38423H73.076V9.53968H71.7132V6.38423H69.7633V9.53968H68.39V6.38423H66.3877V5.30446H75.1202ZM70.7277 0.314453C72.772 0.314453 74.2082 1.16359 74.2082 2.47399C74.2082 3.76343 72.772 4.57064 70.7277 4.57064C68.6835 4.57064 67.2578 3.76343 67.2683 2.47399C67.2578 1.16359 68.6835 0.314453 70.7277 0.314453ZM70.7277 1.38374C69.4488 1.38374 68.6311 1.77162 68.6416 2.47399C68.6311 3.14492 69.4488 3.52232 70.7277 3.52232C72.0172 3.52232 72.8244 3.14492 72.8244 2.47399C72.8244 1.77162 72.0172 1.38374 70.7277 1.38374Z" fill="#1F3A93"/>
<path d="M61.4188 5.94386C63.5049 5.94386 64.8153 6.6043 64.8258 7.74697C64.8153 8.86867 63.5049 9.5396 61.4188 9.5396C59.3536 9.5396 58.0222 8.86867 58.0222 7.74697C58.0222 6.6043 59.3536 5.94386 61.4188 5.94386ZM61.4188 6.93976C60.1084 6.93976 59.3536 7.21233 59.3536 7.74697C59.3536 8.26065 60.1084 8.52273 61.4188 8.52273C62.7292 8.52273 63.4944 8.26065 63.4944 7.74697C63.4944 7.21233 62.7292 6.93976 61.4188 6.93976ZM64.7734 0.429688V1.20545C64.7734 1.96024 64.7734 2.77793 64.5008 3.76335L63.1904 3.63755C63.4001 2.77269 63.4263 2.12797 63.442 1.47801H58.1165V0.429688H64.7734ZM65.8007 4.25606V5.33583H57.1416V4.25606H60.3914V2.58923H61.7123V4.25606H65.8007Z" fill="#1F3A93"/>
<path d="M53.6402 0V9.53972H52.3612V4.72793H51.5016V9.09943H50.2331V0.136282H51.5016V3.63767H52.3612V0H53.6402ZM49.4364 0.985422V7.13907H45.6415V0.985422H49.4364ZM46.889 2.04423V6.09075H48.1889V2.04423H46.889Z" fill="#1F3A93"/>
<path d="M44.8238 7.32756V8.39685H36.0913V7.32756H39.7395V5.16802H41.0708V7.32756H44.8238ZM41.1128 1.22633C41.1128 2.58915 42.3393 4.02535 44.5198 4.36081L43.9537 5.47203C42.2764 5.16802 41.0289 4.2717 40.3999 3.08186C39.7709 4.26646 38.5339 5.17326 36.8671 5.47203L36.301 4.36081C38.4605 4.02535 39.6766 2.57866 39.6871 1.22633V0.544922H41.1128V1.22633Z" fill="#1F3A93"/>
<path d="M33.3027 6.18522C32.5164 6.18522 31.8875 5.55623 31.8875 4.76998C31.8875 3.99423 32.5164 3.36523 33.3027 3.36523C34.0784 3.36523 34.7074 3.99423 34.7074 4.76998C34.7074 5.55623 34.0784 6.18522 33.3027 6.18522Z" fill="#1F3A93"/>
<path d="M29.6022 4.26566V5.32447H26.8346V7.35821H30.5561V8.44846H21.8236V7.35821H25.5032V5.32447H22.851V0.669922H29.5288V1.73921H24.1928V4.26566H29.6022Z" fill="#1F3A93"/>
<path d="M18.7939 5.59819V6.64651H16.7811V9.53988H15.4288V6.64651H13.437V9.53988H12.1056V6.64651H10.0614V5.59819H18.7939ZM17.7875 0.283203V3.06125H12.4516V3.83701H18.0077V4.9063H11.0992V2.08632H16.4142V1.37346H11.0678V0.283203H17.7875Z" fill="#1F3A93"/>
<path d="M9.49538 5.26133V6.33062H5.78432V9.53848H4.46344V6.33062H0.794312V5.26133H9.49538ZM8.71962 0.501953V1.55027H5.94157C6.07261 2.48328 7.12617 3.42153 9.08653 3.6574L8.6043 4.70572C6.92699 4.48033 5.72666 3.76223 5.15533 2.77681C4.56827 3.76223 3.37842 4.48033 1.71683 4.70572L1.22412 3.6574C3.15303 3.42153 4.21708 2.48328 4.36909 1.55027H1.58055V0.501953H8.71962Z" fill="#1F3A93"/>
<path d="M4.69658 18.4206H7.24536C8.96362 18.4206 10.2714 18.7835 11.1687 19.5094C12.0851 20.219 12.5433 21.2109 12.5433 22.4851V23.8883C12.5433 25.1625 12.0851 26.1545 11.1687 26.8641C10.2714 27.5738 8.96362 27.9125 7.24536 27.8802L0.458205 27.7593V24.6383H7.84674C8.11403 24.6383 8.24768 24.5254 8.24768 24.2996V22.0013C8.24768 21.7754 8.11403 21.6625 7.84674 21.6625H5.29799C3.57973 21.6625 2.26238 21.3077 1.34597 20.598C0.448659 19.8722 0 18.8723 0 17.5981V16.2674C0 14.9933 0.448659 14.0013 1.34597 13.2917C2.26238 12.582 3.57973 12.2433 5.29799 12.2755L11.856 12.3965V15.5175H4.69658C4.42931 15.5175 4.29566 15.6304 4.29566 15.8561V18.0819C4.29566 18.3077 4.42931 18.4206 4.69658 18.4206Z" fill="#1F3A93"/>
<path d="M23.6042 28.0012H19.9959C18.2776 28.0012 16.9889 27.6786 16.1298 27.0334C15.2706 26.3722 14.8411 25.4044 14.8411 24.1303V12.3965H19.1367V24.4448C19.1367 24.6706 19.2704 24.7835 19.5376 24.7835H24.0624C24.3297 24.7835 24.4633 24.6706 24.4633 24.4448V12.3965H28.7591V24.1303C28.7591 25.4044 28.3294 26.3722 27.4704 27.0334C26.6111 27.6786 25.3225 28.0012 23.6042 28.0012Z" fill="#1F3A93"/>
<path d="M42.6113 24.6383V27.7592H32.187V12.3965H36.4255V25.1222L35.8527 24.6383H42.6113Z" fill="#1F3A93"/>
<path d="M58.6598 15.372H54.0203C53.7532 15.372 53.6196 15.4849 53.6196 15.7107V24.4445C53.6196 24.6703 53.7532 24.7832 54.0203 24.7832H58.6598C58.9269 24.7832 59.0606 24.6703 59.0606 24.4445V15.7107C59.0606 15.4849 58.9269 15.372 58.6598 15.372ZM49.3239 24.13V16.0252C49.3239 14.751 49.7535 13.7914 50.6125 13.1462C51.4716 12.4849 52.7603 12.1543 54.4786 12.1543H58.2015C59.9199 12.1543 61.2086 12.4849 62.0676 13.1462C62.9266 13.7914 63.3563 14.751 63.3563 16.0252V24.13C63.3563 25.4042 62.9266 26.3719 62.0676 27.0332C61.2086 27.6783 59.9199 28.0009 58.2015 28.0009H54.4786C52.7603 28.0009 51.4716 27.6783 50.6125 27.0332C49.7535 26.3719 49.3239 25.4042 49.3239 24.13Z" fill="#1F3A93"/>
<path d="M71.1633 27.7593H66.9248V12.3965L74.6569 12.2755C76.3753 12.2433 77.6831 12.582 78.5803 13.2917C79.4968 14.0013 79.9551 14.9933 79.9551 16.2674V18.1303C79.9551 19.0819 79.6399 19.9287 79.0099 20.6706C78.3799 21.3964 77.4539 21.8803 76.2321 22.1222V21.4206C76.9386 21.5335 77.4922 21.7513 77.893 22.0738C78.3132 22.3803 78.6567 22.8561 78.924 23.5012L80.6996 27.7593H76.4611L74.4852 22.6545C74.4279 22.5254 74.3707 22.4287 74.3134 22.3641C74.2751 22.2996 74.17 22.2674 73.9983 22.2674H70.5905L71.1633 21.7109V27.7593ZM71.1633 14.8158V19.6545L70.5905 19.1706H75.2583C75.5257 19.1706 75.6594 19.0577 75.6594 18.8319V15.7352C75.6594 15.5094 75.5257 15.3965 75.2583 15.3965H70.5905L71.1633 14.8158Z" fill="#1F3A93"/>
<path d="M91.8766 15.3724H87.3806V24.7836H91.8766C92.144 24.7836 92.2777 24.6707 92.2777 24.4449V15.7111C92.2777 15.4853 92.144 15.3724 91.8766 15.3724ZM83.1421 27.7594V12.3967L91.2752 12.2757C93.0697 12.2434 94.3968 12.5579 95.2558 13.2192C96.134 13.8644 96.5731 14.8805 96.5731 16.2676V23.8885C96.5731 25.2756 96.134 26.2917 95.2558 26.9368C94.3968 27.582 93.0697 27.8965 91.2752 27.8804L83.1421 27.7594Z" fill="#1F3A93"/>
<path d="M111.146 27.7592H100.006V12.3965H111.003V15.5174H103.672L104.244 15.0336V18.9287L103.672 18.4448H110.43V21.5174H103.672L104.244 21.0335V25.1222L103.672 24.6383H111.146V27.7592Z" fill="#1F3A93"/>
<path d="M118.259 27.7593H114.021V12.3965L121.753 12.2755C123.471 12.2433 124.779 12.582 125.676 13.2917C126.593 14.0013 127.051 14.9933 127.051 16.2674V18.1303C127.051 19.0819 126.736 19.9287 126.106 20.6706C125.476 21.3964 124.55 21.8803 123.328 22.1222V21.4206C124.034 21.5335 124.588 21.7513 124.989 22.0738C125.409 22.3803 125.752 22.8561 126.02 23.5012L127.795 27.7593H123.557L121.581 22.6545C121.524 22.5254 121.466 22.4287 121.409 22.3641C121.371 22.2996 121.266 22.2674 121.094 22.2674H117.686L118.259 21.7109V27.7593ZM118.259 14.8158V19.6545L117.686 19.1706H122.354C122.621 19.1706 122.755 19.0577 122.755 18.8319V15.7352C122.755 15.5094 122.621 15.3965 122.354 15.3965H117.686L118.259 14.8158Z" fill="#1F3A93"/>
</svg>
